<svg width="1348" height="743" viewBox="0 0 1348 743" fill="none" xmlns="http://www.w3.org/2000/svg">
<path opacity="0.33" d="M548.542 6.58095C548.384 6.71117 548.15 6.72103 548.014 6.59849C547.878 6.47595 547.903 6.26721 548.061 6.13699C548.22 6.00677 548.453 5.99691 548.589 6.11945C548.726 6.24199 548.7 6.45073 548.542 6.58095Z" fill="#DBCCB1"/>
<path opacity="0.61" d="M513.627 34.8869C513.469 35.0171 513.225 35.0094 513.103 34.8907C512.97 34.7548 513.007 34.5632 513.165 34.433C513.323 34.3028 513.567 34.3105 513.689 34.4292C513.822 34.5651 513.786 34.7567 513.627 34.8869Z" fill="#DBCCB1"/>
<path opacity="0.79" d="M477.796 62.3142C477.717 62.3794 477.594 62.3755 477.533 62.3159C477.472 62.2564 477.487 62.1452 477.566 62.08C477.645 62.0148 477.768 62.0185 477.829 62.078C477.89 62.1376 477.875 62.249 477.796 62.3142Z" fill="#DBCCB1"/>
<path opacity="0.49" d="M441.323 89.0979C441.244 89.1631 441.121 89.1591 441.06 89.0996C440.999 89.0401 441.014 88.9289 441.104 88.881C441.183 88.8158 441.305 88.8198 441.367 88.8793C441.428 88.9388 441.413 89.05 441.323 89.0979Z" fill="#DBCCB1"/>
<path opacity="0.69" d="M404.116 115.108C404.026 115.156 403.914 115.169 403.846 115.079C403.788 115.006 403.803 114.895 403.893 114.847C403.983 114.799 404.095 114.786 404.163 114.876C404.224 114.935 404.206 115.06 404.116 115.108Z" fill="#DBCCB1"/>
<path opacity="0.43" d="M594.65 17.9886C594.33 18.2624 593.86 18.2949 593.598 18.067C593.336 17.8392 593.373 17.4179 593.693 17.144C594.013 16.8702 594.483 16.8377 594.745 17.0655C595.007 17.2934 594.97 17.7147 594.65 17.9886Z" fill="#DBCCB1"/>
<path opacity="0.39" d="M559.653 47.6171C559.333 47.8909 558.852 47.9061 558.593 47.6649C558.335 47.4236 558.386 47.0064 558.706 46.7326C559.026 46.4587 559.508 46.4432 559.766 46.6845C560.024 46.9257 559.973 47.3432 559.653 47.6171Z" fill="#DBCCB1"/>
<path opacity="0.52" d="M523.833 76.4825C523.502 76.7392 523.021 76.7544 522.766 76.4997C522.512 76.2451 522.577 75.8316 522.908 75.575C523.239 75.3184 523.72 75.3029 523.975 75.5575C524.229 75.8122 524.164 76.2259 523.833 76.4825Z" fill="#DBCCB1"/>
<path opacity="0.93" d="M487.111 104.481C486.859 104.673 486.493 104.661 486.313 104.47C486.123 104.261 486.174 103.959 486.44 103.771C486.692 103.579 487.058 103.591 487.237 103.783C487.427 103.991 487.377 104.294 487.111 104.481Z" fill="#DBCCB1"/>
<path opacity="0.49" d="M449.739 131.778C449.477 131.952 449.121 131.958 448.931 131.75C448.741 131.541 448.81 131.229 449.072 131.054C449.335 130.88 449.69 130.874 449.881 131.083C450.071 131.292 450.002 131.604 449.739 131.778Z" fill="#DBCCB1"/>
<path opacity="0.87" d="M411.637 158.309C411.371 158.497 411.012 158.458 410.833 158.267C410.657 158.062 410.715 157.733 410.988 157.576C411.251 157.401 411.613 157.426 411.793 157.618C411.968 157.823 411.911 158.152 411.637 158.309Z" fill="#DBCCB1"/>
<path opacity="0.56" d="M372.73 183.899C372.547 184.008 372.306 183.987 372.188 183.855C372.073 183.71 372.117 183.491 372.311 183.399C372.494 183.29 372.735 183.311 372.849 183.457C372.964 183.602 372.921 183.82 372.727 183.912L372.73 183.899Z" fill="#DBCCB1"/>
<path opacity="0.75" d="M333.273 208.798C333.089 208.907 332.849 208.886 332.734 208.74C332.619 208.595 332.677 208.38 332.861 208.271C333.044 208.162 333.284 208.183 333.399 208.328C333.514 208.474 333.456 208.688 333.273 208.798Z" fill="#DBCCB1"/>
<path opacity="0.78" d="M293.068 232.745C292.974 232.807 292.855 232.79 292.798 232.717C292.744 232.63 292.769 232.536 292.863 232.475C292.957 232.413 293.076 232.431 293.133 232.504C293.187 232.59 293.162 232.684 293.068 232.745Z" fill="#DBCCB1"/>
<path opacity="0.37" d="M252.346 255.982C252.253 256.043 252.134 256.026 252.08 255.939C252.026 255.853 252.055 255.745 252.145 255.698C252.239 255.636 252.358 255.654 252.411 255.74C252.465 255.826 252.436 255.934 252.346 255.982Z" fill="#DBCCB1"/>
<path opacity="0.74" d="M641.044 28.237C640.573 28.6717 639.862 28.7409 639.46 28.4039C639.062 28.0536 639.124 27.4234 639.595 26.9887C640.066 26.554 640.777 26.4852 641.179 26.8222C641.577 27.1725 641.515 27.8023 641.044 28.237Z" fill="#DBCCB1"/>
<path opacity="0.58" d="M606.021 59.2484C605.535 59.6793 604.817 59.7175 604.422 59.3537C604.028 58.9899 604.104 58.3639 604.59 57.933C605.075 57.5022 605.793 57.4636 606.188 57.8274C606.583 58.1912 606.506 58.8175 606.021 59.2484Z" fill="#DBCCB1"/>
<path opacity="0.75" d="M570.13 89.459C569.634 89.8726 568.905 89.8936 568.524 89.5336C568.133 89.1564 568.228 88.5208 568.724 88.1072C569.22 87.6936 569.939 87.655 570.329 88.0322C570.72 88.4094 570.626 89.0454 570.13 89.459Z" fill="#DBCCB1"/>
<path opacity="0.35" d="M533.307 118.791C532.879 119.122 532.276 119.133 531.964 118.806C531.648 118.492 531.732 117.954 532.16 117.623C532.587 117.291 533.191 117.28 533.503 117.607C533.818 117.921 533.735 118.459 533.307 118.791Z" fill="#DBCCB1"/>
<path opacity="0.35" d="M495.808 147.44C495.37 147.754 494.77 147.752 494.458 147.425C494.146 147.097 494.247 146.549 494.686 146.235C495.125 145.921 495.724 145.923 496.036 146.251C496.348 146.578 496.251 147.113 495.808 147.44Z" fill="#DBCCB1"/>
<path opacity="0.71" d="M457.45 175.151C457.09 175.4 456.605 175.371 456.369 175.107C456.121 174.826 456.219 174.406 456.564 174.154C456.923 173.905 457.408 173.933 457.645 174.197C457.892 174.479 457.795 174.899 457.45 175.151Z" fill="#DBCCB1"/>
<path opacity="0.64" d="M418.476 202.19C418.117 202.439 417.632 202.41 417.388 202.116C417.144 201.821 417.242 201.401 417.612 201.169C417.972 200.92 418.456 200.949 418.7 201.244C418.944 201.539 418.846 201.958 418.476 202.19Z" fill="#DBCCB1"/>
<path opacity="0.6" d="M378.823 228.423C378.453 228.654 377.968 228.626 377.728 228.317C377.498 228.026 377.599 227.594 377.97 227.362C378.34 227.13 378.825 227.159 379.065 227.467C379.294 227.758 379.193 228.191 378.823 228.423Z" fill="#DBCCB1"/>
<path opacity="0.45" d="M338.394 253.663C338.117 253.833 337.743 253.791 337.575 253.559C337.403 253.341 337.49 253.019 337.77 252.836C338.047 252.665 338.42 252.707 338.589 252.939C338.757 253.17 338.674 253.479 338.394 253.663Z" fill="#DBCCB1"/>
<path opacity="0.46" d="M297.345 278.061C297.158 278.184 296.91 278.132 296.796 277.987C296.685 277.828 296.742 277.613 296.929 277.491C297.116 277.368 297.364 277.42 297.479 277.566C297.59 277.724 297.532 277.939 297.345 278.061Z" fill="#DBCCB1"/>
<path opacity="0.7" d="M255.782 301.733C255.585 301.839 255.348 301.804 255.237 301.645C255.129 301.473 255.197 301.276 255.381 301.167C255.579 301.061 255.815 301.096 255.927 301.255C256.034 301.427 255.966 301.624 255.782 301.733Z" fill="#DBCCB1"/>
<path opacity="0.76" d="M213.543 324.38C213.449 324.441 213.32 324.406 213.266 324.32C213.212 324.234 213.241 324.127 213.335 324.066C213.428 324.004 213.558 324.039 213.611 324.125C213.665 324.211 213.636 324.318 213.543 324.38Z" fill="#DBCCB1"/>
<path opacity="0.59" d="M721.753 4.15878C721.138 4.78497 720.193 4.92107 719.648 4.48835C719.102 4.05564 719.165 3.19591 719.776 2.58312C720.391 1.95693 721.336 1.82084 721.881 2.25355C722.426 2.68627 722.368 3.53259 721.753 4.15878Z" fill="#DBCCB1"/>
<path opacity="0.52" d="M687.679 37.3413C687.042 37.9331 686.098 38.0691 685.56 37.6096C685.022 37.1501 685.098 36.2941 685.735 35.7024C686.371 35.1107 687.316 34.9747 687.854 35.4342C688.392 35.8937 688.316 36.7496 687.679 37.3413Z" fill="#DBCCB1"/>
<path opacity="0.5" d="M652.668 69.731C652.017 70.3189 651.054 70.4069 650.531 69.9512C649.996 69.4783 650.102 68.6301 650.753 68.0422C651.403 67.4543 652.366 67.366 652.886 67.8351C653.421 68.308 653.315 69.1565 652.664 69.7444L652.668 69.731Z" fill="#DBCCB1"/>
<path opacity="0.37" d="M616.758 101.33C616.093 101.914 615.123 101.972 614.606 101.489C614.09 101.007 614.202 100.132 614.875 99.5783C615.54 98.9942 616.51 98.9368 617.026 99.4193C617.543 99.9018 617.43 100.777 616.769 101.348L616.758 101.33Z" fill="#DBCCB1"/>
<path opacity="0.57" d="M579.997 132.142C579.31 132.692 578.344 132.735 577.831 132.24C577.318 131.744 577.46 130.876 578.136 130.309C578.822 129.76 579.789 129.716 580.301 130.212C580.811 130.721 580.673 131.575 579.997 132.142Z" fill="#DBCCB1"/>
<path opacity="0.4" d="M542.284 162.026C541.677 162.511 540.815 162.511 540.381 162.065C539.936 161.601 540.077 160.849 540.685 160.365C541.292 159.88 542.144 159.863 542.588 160.326C543.033 160.789 542.892 161.542 542.284 162.026Z" fill="#DBCCB1"/>
<path opacity="0.33" d="M503.926 191.239C503.307 191.706 502.449 191.693 502.008 191.216C501.581 190.743 501.726 189.978 502.355 189.527C502.973 189.06 503.832 189.073 504.273 189.55C504.71 190.04 504.555 190.789 503.936 191.256L503.926 191.239Z" fill="#DBCCB1"/>
<path opacity="0.66" d="M464.701 219.485C464.151 219.869 463.419 219.847 463.057 219.42C462.691 219.006 462.839 218.342 463.385 217.97C463.932 217.599 464.668 217.608 465.03 218.035C465.392 218.462 465.251 219.1 464.712 219.502L464.701 219.485Z" fill="#DBCCB1"/>
<path opacity="0.37" d="M424.879 247.039C424.329 247.424 423.589 247.37 423.231 246.93C422.872 246.49 423.031 245.842 423.581 245.457C424.131 245.072 424.871 245.126 425.23 245.566C425.588 246.007 425.429 246.654 424.879 247.039Z" fill="#DBCCB1"/>
<path opacity="0.63" d="M384.368 273.739C383.807 274.106 383.06 274.022 382.716 273.586C382.361 273.132 382.534 272.489 383.106 272.138C383.666 271.77 384.413 271.855 384.757 272.291C385.112 272.745 384.939 273.388 384.368 273.739Z" fill="#DBCCB1"/>
<path opacity="0.92" d="M343.108 299.471C342.63 299.76 342.016 299.697 341.722 299.302C341.439 298.925 341.587 298.376 342.054 298.069C342.532 297.78 343.146 297.843 343.44 298.238C343.724 298.615 343.575 299.165 343.108 299.471Z" fill="#DBCCB1"/>
<path opacity="0.4" d="M301.228 324.319C300.843 324.547 300.341 324.47 300.118 324.152C299.896 323.834 300.026 323.409 300.411 323.181C300.795 322.954 301.298 323.03 301.52 323.348C301.742 323.666 301.613 324.091 301.228 324.319Z" fill="#DBCCB1"/>
<path opacity="0.68" d="M258.853 348.438C258.458 348.648 257.97 348.576 257.747 348.258C257.525 347.94 257.662 347.488 258.058 347.277C258.453 347.067 258.941 347.139 259.164 347.457C259.386 347.775 259.249 348.227 258.853 348.438Z" fill="#DBCCB1"/>
<path opacity="0.65" d="M215.819 371.515C215.517 371.664 215.151 371.596 214.986 371.35C214.825 371.092 214.941 370.778 215.232 370.611C215.534 370.462 215.9 370.531 216.065 370.776C216.226 371.034 216.111 371.348 215.819 371.515Z" fill="#DBCCB1"/>
<path opacity="0.53" d="M172.222 393.655C172.025 393.76 171.777 393.708 171.669 393.536C171.562 393.364 171.638 393.14 171.846 393.051C172.044 392.946 172.292 392.998 172.399 393.17C172.507 393.343 172.431 393.566 172.222 393.655Z" fill="#DBCCB1"/>
<path opacity="0.37" d="M128.099 414.833C127.995 414.877 127.877 414.86 127.823 414.774C127.769 414.688 127.812 414.584 127.917 414.54C128.021 414.496 128.139 414.514 128.193 414.6C128.247 414.686 128.204 414.789 128.099 414.833Z" fill="#DBCCB1"/>
<path opacity="0.41" d="M768.499 10.6221C767.729 11.4225 766.547 11.6389 765.869 11.1277C765.184 10.5859 765.257 9.51352 766.027 8.71307C766.797 7.91262 767.979 7.69622 768.653 8.22084C769.342 8.74928 769.269 9.82164 768.506 10.6527L768.499 10.6221Z" fill="#DBCCB1"/>
<path opacity="0.49" d="M734.521 45.2198C733.726 45.9992 732.537 46.185 731.866 45.647C731.188 45.0784 731.28 43.9964 732.075 43.217C732.869 42.4376 734.058 42.2519 734.729 42.7899C735.411 43.3452 735.316 44.4404 734.521 45.2198Z" fill="#DBCCB1"/>
<path opacity="0.36" d="M699.566 79.04C698.757 79.8156 697.55 79.9535 696.886 79.3886C696.226 78.8104 696.336 77.719 697.156 76.9606C697.965 76.1851 699.172 76.0472 699.835 76.612C700.499 77.1769 700.386 78.2817 699.577 79.0573L699.566 79.04Z" fill="#DBCCB1"/>
<path opacity="0.78" d="M663.676 112.056C662.842 112.81 661.627 112.918 660.971 112.326C660.315 111.734 660.46 110.624 661.291 109.883C662.125 109.128 663.339 109.021 663.992 109.626C664.648 110.217 664.507 111.315 663.672 112.069L663.676 112.056Z" fill="#DBCCB1"/>
<path opacity="0.61" d="M626.771 144.137C626.005 144.809 624.91 144.876 624.325 144.304C623.74 143.731 623.896 142.753 624.658 142.094C625.421 141.435 626.52 141.355 627.104 141.928C627.689 142.5 627.533 143.478 626.771 144.137Z" fill="#DBCCB1"/>
<path opacity="0.42" d="M589.136 175.525C588.349 176.163 587.243 176.212 586.676 175.63C586.106 175.062 586.273 174.043 587.056 173.419C587.844 172.781 588.946 172.745 589.517 173.313C590.087 173.882 589.924 174.887 589.136 175.525Z" fill="#DBCCB1"/>
<path opacity="0.35" d="M550.687 206.089C549.885 206.723 548.776 206.729 548.213 206.133C547.65 205.538 547.841 204.54 548.643 203.906C549.441 203.286 550.555 203.267 551.118 203.862C551.681 204.458 551.489 205.455 550.687 206.089Z" fill="#DBCCB1"/>
<path opacity="0.35" d="M511.473 235.85C510.65 236.449 509.544 236.441 508.988 235.819C508.432 235.197 508.653 234.207 509.465 233.59C510.288 232.991 511.395 232.999 511.95 233.621C512.506 234.243 512.296 235.25 511.473 235.85Z" fill="#DBCCB1"/>
<path opacity="0.9" d="M471.396 264.624C470.655 265.145 469.664 265.111 469.173 264.535C468.692 263.976 468.902 263.083 469.632 262.545C470.372 262.024 471.364 262.058 471.855 262.635C472.335 263.194 472.136 264.104 471.396 264.624Z" fill="#DBCCB1"/>
<path opacity="0.66" d="M430.745 292.695C429.993 293.198 428.995 293.133 428.522 292.548C428.048 291.962 428.272 291.073 429.024 290.57C429.775 290.066 430.773 290.131 431.247 290.717C431.72 291.303 431.496 292.191 430.745 292.695Z" fill="#DBCCB1"/>
<path opacity="0.7" d="M389.31 319.779C388.642 320.205 387.769 320.13 387.357 319.603C386.945 319.077 387.158 318.286 387.826 317.861C388.495 317.436 389.367 317.51 389.78 318.037C390.192 318.563 389.979 319.354 389.31 319.779Z" fill="#DBCCB1"/>
<path opacity="0.61" d="M347.237 345.968C346.651 346.314 345.904 346.23 345.563 345.78C345.226 345.317 345.41 344.633 345.996 344.287C346.582 343.94 347.329 344.024 347.67 344.474C348.017 344.955 347.826 345.608 347.237 345.968Z" fill="#DBCCB1"/>
<path opacity="0.54" d="M304.666 371.439C304.08 371.785 303.326 371.67 302.989 371.207C302.655 370.73 302.854 370.051 303.45 369.721C304.036 369.375 304.79 369.489 305.127 369.953C305.461 370.429 305.262 371.109 304.666 371.439Z" fill="#DBCCB1"/>
<path opacity="0.82" d="M261.414 395.861C260.91 396.129 260.289 396.035 260.013 395.631C259.737 395.227 259.918 394.672 260.424 394.391C260.928 394.122 261.549 394.217 261.825 394.621C262.101 395.025 261.92 395.58 261.417 395.848L261.414 395.861Z" fill="#DBCCB1"/>
<path opacity="0.72" d="M217.605 419.345C217.195 419.552 216.696 419.462 216.481 419.117C216.266 418.773 216.414 418.338 216.824 418.131C217.233 417.924 217.732 418.015 217.947 418.359C218.162 418.704 218.015 419.138 217.605 419.345Z" fill="#DBCCB1"/>
<path opacity="0.93" d="M173.25 441.9C172.944 442.063 172.567 441.977 172.41 441.705C172.248 441.446 172.371 441.105 172.673 440.956C172.978 440.793 173.355 440.879 173.517 441.138C173.678 441.396 173.555 441.737 173.253 441.886L173.25 441.9Z" fill="#DBCCB1"/>
<path opacity="0.71" d="M128.376 463.466C128.167 463.554 127.919 463.502 127.812 463.33C127.704 463.158 127.795 462.937 127.992 462.832C128.201 462.744 128.448 462.796 128.556 462.968C128.663 463.14 128.573 463.36 128.376 463.466Z" fill="#DBCCB1"/>
<path opacity="0.95" d="M82.9983 484.038C82.8941 484.082 82.7648 484.047 82.7147 483.948C82.661 483.862 82.7078 483.745 82.812 483.701C82.9162 483.657 83.0454 483.691 83.0956 483.791C83.1493 483.877 83.1025 483.994 82.9983 484.038Z" fill="#DBCCB1"/>
<path opacity="0.31" d="M815.354 15.8132C814.437 16.8185 813.018 17.1154 812.196 16.5085C811.367 15.8709 811.445 14.5554 812.358 13.5634C813.276 12.5581 814.684 12.2439 815.516 12.8681C816.349 13.4923 816.271 14.8078 815.354 15.8132Z" fill="#DBCCB1"/>
<path opacity="0.91" d="M781.515 51.8841C780.572 52.8683 779.132 53.1307 778.321 52.4836C777.51 51.8364 777.609 50.498 778.562 49.5309C779.504 48.5467 780.931 48.2803 781.756 48.9313C782.577 49.5956 782.471 50.9036 781.525 51.9013L781.515 51.8841Z" fill="#DBCCB1"/>
<path opacity="0.4" d="M746.667 87.1484C745.7 88.1117 744.252 88.3435 743.438 87.6523C742.634 86.9783 742.765 85.634 743.744 84.688C744.711 83.7248 746.155 83.5064 746.969 84.1976C747.773 84.8716 747.642 86.2159 746.663 87.1619L746.667 87.1484Z" fill="#DBCCB1"/>
<path opacity="0.7" d="M710.84 121.585C709.837 122.51 708.382 122.711 707.589 121.997C706.796 121.283 706.956 119.946 707.96 119.022C708.963 118.097 710.414 117.909 711.211 118.609C712.007 119.31 711.843 120.66 710.84 121.585Z" fill="#DBCCB1"/>
<path opacity="0.95" d="M674.077 155.217C673.048 156.121 671.579 156.261 670.805 155.537C670.019 154.796 670.211 153.454 671.24 152.55C672.268 151.646 673.727 151.489 674.512 152.23C675.298 152.971 675.105 154.314 674.077 155.217Z" fill="#DBCCB1"/>
<path opacity="0.34" d="M636.429 188.005C635.376 188.888 633.899 188.997 633.132 188.247C632.354 187.479 632.578 186.131 633.632 185.248C634.685 184.365 636.162 184.256 636.925 185.02C637.689 185.784 637.479 187.136 636.426 188.019L636.429 188.005Z" fill="#DBCCB1"/>
<path opacity="0.91" d="M597.817 219.86C596.832 220.661 595.478 220.717 594.768 219.981C594.072 219.25 594.296 218.017 595.282 217.216C596.263 216.429 597.621 216.36 598.32 217.078C599.019 217.796 598.791 219.043 597.806 219.843L597.817 219.86Z" fill="#DBCCB1"/>
<path opacity="0.31" d="M558.537 251.011C557.53 251.777 556.166 251.816 555.477 251.058C554.789 250.3 555.045 249.061 556.052 248.295C557.059 247.529 558.42 247.504 559.112 248.248C559.801 249.007 559.548 250.232 558.537 251.011Z" fill="#DBCCB1"/>
<path opacity="0.73" d="M518.471 281.283C517.45 282.045 516.071 282.022 515.4 281.254C514.73 280.486 515.005 279.238 516.026 278.476C517.043 277.727 518.422 277.75 519.093 278.518C519.763 279.285 519.489 280.534 518.471 281.283Z" fill="#DBCCB1"/>
<path opacity="0.64" d="M477.589 310.619C476.64 311.286 475.39 311.24 474.788 310.504C474.185 309.769 474.456 308.649 475.405 307.983C476.351 307.33 477.604 307.362 478.207 308.097C478.813 308.819 478.538 309.953 477.589 310.619Z" fill="#DBCCB1"/>
<path opacity="0.84" d="M436.016 339.07C435.15 339.658 434.019 339.572 433.488 338.913C432.961 338.241 433.221 337.218 434.095 336.661C434.957 336.087 436.092 336.159 436.623 336.818C437.153 337.477 436.89 338.512 436.016 339.07Z" fill="#DBCCB1"/>
<path opacity="0.33" d="M393.888 366.79C393.011 367.361 391.873 367.244 391.349 366.559C390.826 365.873 391.115 364.858 391.992 364.288C392.869 363.717 394.007 363.834 394.531 364.519C395.054 365.205 394.765 366.22 393.888 366.79Z" fill="#DBCCB1"/>
<path opacity="0.62" d="M351.045 393.49C350.254 393.968 349.238 393.855 348.779 393.216C348.32 392.576 348.594 391.672 349.385 391.194C350.176 390.715 351.188 390.841 351.651 391.467C352.11 392.107 351.839 392.997 351.045 393.49Z" fill="#DBCCB1"/>
<path opacity="0.65" d="M307.595 419.259C306.897 419.677 306.011 419.541 305.613 418.961C305.226 418.398 305.471 417.601 306.168 417.184C306.866 416.766 307.753 416.902 308.15 417.482C308.548 418.062 308.292 418.842 307.595 419.259Z" fill="#DBCCB1"/>
<path opacity="0.75" d="M263.588 444.12C262.977 444.446 262.223 444.331 261.883 443.824C261.553 443.333 261.784 442.648 262.384 442.305C262.995 441.979 263.749 442.094 264.09 442.602C264.419 443.092 264.189 443.777 263.588 444.12Z" fill="#DBCCB1"/>
<path opacity="0.93" d="M219.141 468.214C218.53 468.539 217.758 468.377 217.432 467.873C217.106 467.37 217.34 466.671 217.962 466.362C218.573 466.037 219.345 466.199 219.671 466.703C219.994 467.22 219.763 467.906 219.141 468.214Z" fill="#DBCCB1"/>
<path opacity="0.63" d="M174.062 491.163C173.545 491.428 172.905 491.286 172.64 490.842C172.372 490.411 172.584 489.85 173.102 489.586C173.619 489.321 174.258 489.463 174.524 489.907C174.792 490.338 174.58 490.899 174.062 491.163Z" fill="#DBCCB1"/>
<path opacity="0.66" d="M128.469 513.113C128.049 513.302 127.542 513.182 127.331 512.824C127.12 512.466 127.3 512.025 127.713 511.805C128.134 511.615 128.64 511.736 128.851 512.094C129.063 512.452 128.893 512.91 128.469 513.113Z" fill="#DBCCB1"/>
<path opacity="0.33" d="M82.3895 534.074C82.0733 534.219 81.6891 534.103 81.5315 533.831C81.3774 533.545 81.5108 533.222 81.827 533.076C82.1433 532.931 82.5274 533.047 82.6851 533.319C82.8391 533.605 82.7058 533.928 82.3895 534.074Z" fill="#DBCCB1"/>
<path opacity="0.32" d="M862.271 19.7409C861.202 20.9646 859.553 21.3726 858.588 20.6699C857.623 19.9672 857.694 18.3912 858.758 17.181C859.823 15.9707 861.462 15.5457 862.437 16.2656C863.403 16.9683 863.332 18.5441 862.267 19.7544L862.271 19.7409Z" fill="#DBCCB1"/>
<path opacity="0.47" d="M828.624 57.277C827.52 58.4624 825.853 58.8225 824.895 58.0931C823.937 57.3636 824.055 55.7857 825.148 54.5831C826.242 53.3805 827.909 53.0204 828.874 53.7805C829.828 54.5234 829.725 56.1051 828.621 57.2904L828.624 57.277Z" fill="#DBCCB1"/>
<path opacity="0.74" d="M793.919 94.0119C792.79 95.1762 791.101 95.5019 790.147 94.7015C789.204 93.9184 789.35 92.3483 790.479 91.184C791.608 90.0197 793.293 89.7075 794.24 90.4772C795.187 91.2469 795.038 92.8304 793.908 93.9947L793.919 94.0119Z" fill="#DBCCB1"/>
<path opacity="0.6" d="M758.203 129.915C757.034 131.055 755.331 131.319 754.395 130.509C753.459 129.699 753.64 128.11 754.809 126.97C755.975 125.844 757.667 125.563 758.614 126.39C759.55 127.2 759.368 128.789 758.199 129.929L758.203 129.915Z" fill="#DBCCB1"/>
<path opacity="0.42" d="M721.514 164.99C720.32 166.109 718.599 166.325 717.674 165.475C716.749 164.625 716.974 163.047 718.168 161.929C719.362 160.811 721.079 160.607 722.004 161.458C722.929 162.308 722.704 163.886 721.51 165.004L721.514 164.99Z" fill="#DBCCB1"/>
<path opacity="0.92" d="M683.892 199.22C682.673 200.318 680.938 200.473 680.023 199.582C679.109 198.692 679.366 197.109 680.596 196.029C681.815 194.931 683.55 194.776 684.454 195.649C685.358 196.522 685.111 198.123 683.896 199.207L683.892 199.22Z" fill="#DBCCB1"/>
<path opacity="0.86" d="M645.282 232.5C644.124 233.485 642.497 233.582 641.673 232.759C640.84 231.905 641.101 230.423 642.27 229.456C643.428 228.472 645.044 228.357 645.88 229.197C646.715 230.038 646.451 231.533 645.282 232.5Z" fill="#DBCCB1"/>
<path opacity="0.67" d="M605.959 265.059C604.776 266.022 603.141 266.09 602.32 265.195C601.495 264.315 601.799 262.844 602.982 261.881C604.165 260.918 605.796 260.864 606.61 261.728C607.434 262.608 607.142 264.096 605.948 265.042L605.959 265.059Z" fill="#DBCCB1"/>
<path opacity="0.63" d="M565.837 296.76C564.629 297.702 562.991 297.725 562.177 296.804C561.374 295.901 561.7 294.407 562.904 293.478C564.109 292.549 565.746 292.527 566.553 293.417C567.36 294.307 567.035 295.801 565.826 296.743L565.837 296.76Z" fill="#DBCCB1"/>
<path opacity="0.65" d="M524.857 327.468C523.721 328.315 522.206 328.284 521.467 327.426C520.732 326.555 521.057 325.177 522.201 324.361C523.333 323.528 524.852 323.545 525.587 324.416C526.326 325.274 526.001 326.652 524.865 327.499L524.857 327.468Z" fill="#DBCCB1"/>
<path opacity="0.76" d="M483.181 357.329C482.12 358.067 480.73 358.027 480.06 357.201C479.4 356.393 479.725 355.129 480.775 354.375C481.836 353.638 483.226 353.678 483.896 354.503C484.556 355.311 484.241 356.592 483.181 357.329Z" fill="#DBCCB1"/>
<path opacity="0.87" d="M440.925 386.433C439.85 387.167 438.446 387.065 437.797 386.217C437.145 385.382 437.488 384.109 438.563 383.375C439.634 382.655 441.038 382.757 441.691 383.592C442.343 384.426 442 385.7 440.925 386.433Z" fill="#DBCCB1"/>
<path opacity="0.88" d="M397.932 414.512C396.943 415.153 395.665 415.042 395.08 414.24C394.492 413.451 394.832 412.306 395.82 411.664C396.809 411.023 398.084 411.147 398.671 411.936C399.259 412.725 398.92 413.87 397.932 414.512Z" fill="#DBCCB1"/>
<path opacity="0.6" d="M354.34 441.702C353.434 442.265 352.288 442.118 351.772 441.406C351.26 440.68 351.57 439.642 352.476 439.079C353.378 438.53 354.527 438.663 355.043 439.376C355.556 440.101 355.246 441.139 354.34 441.702Z" fill="#DBCCB1"/>
<path opacity="0.89" d="M310.162 467.962C309.343 468.433 308.319 468.29 307.868 467.623C307.416 466.957 307.712 466.03 308.531 465.559C309.351 465.088 310.374 465.232 310.826 465.898C311.277 466.564 310.982 467.491 310.162 467.962Z" fill="#DBCCB1"/>
<path opacity="0.42" d="M265.541 493.446C264.711 493.9 263.694 493.729 263.247 493.049C262.802 492.356 263.123 491.451 263.939 490.993C264.769 490.539 265.785 490.71 266.233 491.389C266.681 492.069 266.371 492.992 265.541 493.446Z" fill="#DBCCB1"/>
<path opacity="0.31" d="M220.283 517.796C219.55 518.175 218.656 518.009 218.269 517.388C217.893 516.785 218.174 515.97 218.907 515.59C219.641 515.211 220.535 515.378 220.922 515.998C221.298 516.601 221.017 517.417 220.283 517.796Z" fill="#DBCCB1"/>
<path opacity="0.89" d="M174.508 541.161C173.872 541.465 173.1 541.303 172.781 540.772C172.462 540.242 172.711 539.547 173.351 539.229C173.987 538.924 174.759 539.087 175.078 539.617C175.397 540.148 175.148 540.843 174.508 541.161Z" fill="#DBCCB1"/>
<path opacity="0.86" d="M128.142 563.353C127.718 563.556 127.201 563.418 126.989 563.06C126.781 562.689 126.951 562.231 127.386 562.046C127.81 561.843 128.327 561.98 128.538 562.338C128.75 562.696 128.577 563.167 128.142 563.353Z" fill="#DBCCB1"/>
<path opacity="0.45" d="M909.186 22.3109C907.981 23.7567 906.098 24.2891 904.986 23.5041C903.874 22.7191 903.948 20.9001 905.157 19.4409C906.362 17.9951 908.234 17.4453 909.357 18.2476C910.469 19.0326 910.395 20.8517 909.19 22.2975L909.186 22.3109Z" fill="#DBCCB1"/>
<path opacity="0.31" d="M875.802 61.3979C874.557 62.8188 872.646 63.2862 871.544 62.461C870.443 61.6358 870.564 59.8148 871.809 58.3939C873.053 56.973 874.954 56.4884 876.055 57.3136C877.157 58.1389 877.036 59.9599 875.791 61.3808L875.802 61.3979Z" fill="#DBCCB1"/>
<path opacity="0.55" d="M841.289 99.628C840.004 101.024 838.075 101.443 836.988 100.565C835.901 99.6858 836.065 97.8764 837.35 96.4804C838.634 95.0844 840.559 94.6782 841.65 95.5436C842.741 96.4091 842.584 98.2493 841.289 99.628Z" fill="#DBCCB1"/>
<path opacity="0.42" d="M805.726 137.024C804.402 138.395 802.448 138.736 801.368 137.83C800.292 136.911 800.492 135.082 801.823 133.742C803.143 132.384 805.09 132.013 806.166 132.932C807.246 133.837 807.042 135.679 805.722 137.037L805.726 137.024Z" fill="#DBCCB1"/>
<path opacity="0.78" d="M769.148 173.567C767.789 174.9 765.817 175.193 764.751 174.233C763.686 173.274 763.933 171.443 765.292 170.111C766.652 168.778 768.613 168.468 769.678 169.427C770.747 170.373 770.501 172.203 769.141 173.536L769.148 173.567Z" fill="#DBCCB1"/>
<path opacity="0.76" d="M731.597 209.251C730.202 210.545 728.212 210.791 727.168 209.808C726.125 208.826 726.407 206.976 727.803 205.682C729.198 204.387 731.174 204.138 732.232 205.124C733.29 206.11 733.007 207.96 731.612 209.255L731.597 209.251Z" fill="#DBCCB1"/>
<path opacity="0.79" d="M693.141 244.086C691.71 245.342 689.717 245.544 688.673 244.504C687.64 243.482 687.955 241.626 689.386 240.37C690.818 239.114 692.811 238.912 693.844 239.935C694.877 240.957 694.562 242.813 693.131 244.069L693.141 244.086Z" fill="#DBCCB1"/>
<path opacity="0.88" d="M653.707 277.979C652.334 279.136 650.451 279.266 649.49 278.263C648.529 277.26 648.873 275.527 650.232 274.366C651.602 273.223 653.484 273.093 654.438 274.065C655.399 275.069 655.07 276.805 653.696 277.962L653.707 277.979Z" fill="#DBCCB1"/>
<path opacity="0.6" d="M613.565 311.106C612.17 312.228 610.27 312.31 609.33 311.284C608.391 310.257 608.756 308.502 610.151 307.379C611.546 306.257 613.443 306.188 614.386 307.201C615.325 308.227 614.964 309.97 613.565 311.106Z" fill="#DBCCB1"/>
<path opacity="0.79" d="M572.527 343.239C571.204 344.265 569.415 344.277 568.555 343.3C567.683 342.307 568.063 340.67 569.386 339.643C570.709 338.617 572.487 338.588 573.358 339.582C574.229 340.575 573.854 342.199 572.527 343.239Z" fill="#DBCCB1"/>
<path opacity="0.7" d="M530.877 374.658C529.528 375.663 527.736 375.631 526.886 374.614C526.037 373.598 526.434 371.951 527.782 370.946C529.127 369.954 530.919 369.986 531.769 371.003C532.619 372.019 532.221 373.666 530.877 374.658Z" fill="#DBCCB1"/>
<path opacity="0.7" d="M488.414 405.044C487.141 405.941 485.468 405.868 484.697 404.901C483.926 403.934 484.324 402.402 485.596 401.506C486.869 400.61 488.532 400.665 489.313 401.649C490.095 402.633 489.701 404.152 488.425 405.062L488.414 405.044Z" fill="#DBCCB1"/>
<path opacity="0.71" d="M445.415 434.683C444.117 435.558 442.455 435.445 441.68 434.434C440.91 433.41 441.346 431.903 442.63 431.024C443.924 430.162 445.59 430.262 446.365 431.273C447.139 432.284 446.713 433.808 445.415 434.683Z" fill="#DBCCB1"/>
<path opacity="0.94" d="M401.694 463.285C400.482 464.068 398.938 463.915 398.239 462.967C397.54 462.019 397.955 460.593 399.163 459.823C400.371 459.053 401.919 459.193 402.618 460.14C403.313 461.102 402.902 462.515 401.694 463.285Z" fill="#DBCCB1"/>
<path opacity="0.31" d="M357.376 490.967C356.251 491.658 354.832 491.495 354.202 490.58C353.571 489.665 353.975 488.393 355.1 487.702C356.225 487.011 357.64 487.187 358.274 488.089C358.909 488.99 358.501 490.275 357.376 490.967Z" fill="#DBCCB1"/>
<path opacity="0.92" d="M312.502 517.715C311.463 518.314 310.174 518.129 309.615 517.29C309.056 516.451 309.435 515.273 310.474 514.674C311.512 514.075 312.802 514.26 313.361 515.099C313.92 515.938 313.541 517.115 312.513 517.732L312.502 517.715Z" fill="#DBCCB1"/>
<path opacity="0.89" d="M267.097 543.499C266.155 544.024 264.991 543.828 264.493 543.049C263.995 542.27 264.356 541.217 265.298 540.692C266.239 540.167 267.403 540.362 267.901 541.142C268.399 541.921 268.038 542.974 267.097 543.499Z" fill="#DBCCB1"/>
<path opacity="0.68" d="M221.167 568.29C220.322 568.74 219.285 568.535 218.848 567.815C218.407 567.109 218.749 566.18 219.594 565.73C220.439 565.28 221.476 565.485 221.913 566.205C222.354 566.911 222.022 567.857 221.167 568.29Z" fill="#DBCCB1"/>
<path opacity="0.81" d="M174.751 592.083C174.003 592.458 173.091 592.244 172.719 591.627C172.35 590.997 172.649 590.172 173.396 589.797C174.144 589.421 175.056 589.636 175.429 590.252C175.798 590.882 175.498 591.707 174.751 592.083Z" fill="#DBCCB1"/>
<path opacity="0.76" d="M127.846 614.85C127.195 615.151 126.416 614.957 126.105 614.4C125.793 613.843 126.06 613.138 126.71 612.837C127.361 612.537 128.14 612.73 128.452 613.287C128.763 613.844 128.496 614.549 127.846 614.85Z" fill="#DBCCB1"/>
<path opacity="0.86" d="M922.984 64.1786C921.595 65.8485 919.45 66.4402 918.205 65.5193C916.96 64.5983 917.085 62.5341 918.474 60.8642C919.859 59.2078 921.993 58.5989 923.242 59.5065C924.49 60.414 924.372 62.5088 922.973 64.1614L922.984 64.1786Z" fill="#DBCCB1"/>
<path opacity="0.71" d="M888.735 103.949C887.296 105.577 885.122 106.104 883.899 105.16C882.665 104.199 882.84 102.119 884.279 100.491C885.718 98.8638 887.877 98.3331 889.115 99.2809C890.349 100.242 890.188 102.325 888.749 103.953L888.735 103.949Z" fill="#DBCCB1"/>
<path opacity="0.93" d="M853.367 142.849C851.878 144.435 849.687 144.913 848.467 143.899C847.247 142.884 847.469 140.802 848.944 139.213C850.43 137.641 852.61 137.145 853.834 138.146C855.057 139.147 854.846 141.246 853.356 142.832L853.367 142.849Z" fill="#DBCCB1"/>
<path opacity="0.81" d="M816.952 180.891C815.423 182.451 813.207 182.852 811.998 181.797C810.789 180.742 811.061 178.645 812.586 177.097C814.111 175.55 816.317 175.133 817.53 176.174C818.738 177.229 818.48 179.33 816.955 180.877L816.952 180.891Z" fill="#DBCCB1"/>
<path opacity="0.58" d="M779.523 218.081C777.959 219.603 775.713 219.939 774.53 218.847C773.346 217.756 773.651 215.653 775.215 214.131C776.78 212.609 779.011 212.27 780.209 213.365C781.396 214.443 781.102 216.562 779.534 218.098L779.523 218.081Z" fill="#DBCCB1"/>
<path opacity="0.76" d="M741.143 254.397C739.542 255.881 737.279 256.168 736.107 255.037C734.934 253.905 735.278 251.77 736.889 250.304C738.489 248.819 740.749 248.545 741.922 249.677C743.094 250.809 742.754 252.93 741.154 254.414L741.143 254.397Z" fill="#DBCCB1"/>
<path opacity="0.89" d="M701.747 289.737C700.194 291.104 698.046 291.307 696.959 290.199C695.862 289.073 696.231 287.074 697.781 285.72C699.331 284.366 701.468 284.146 702.569 285.258C703.67 286.371 703.301 288.37 701.747 289.737Z" fill="#DBCCB1"/>
<path opacity="0.31" d="M661.605 324.306C660.016 325.635 657.864 325.794 656.778 324.628C655.702 323.479 656.107 321.461 657.693 320.145C659.268 318.812 661.43 318.671 662.509 319.806C663.589 320.942 663.184 322.96 661.605 324.306Z" fill="#DBCCB1"/>
<path opacity="0.95" d="M620.554 357.913C619.036 359.146 616.985 359.217 615.981 358.088C614.977 356.958 615.397 355.058 616.921 353.856C618.435 352.636 620.475 352.548 621.483 353.664C622.49 354.78 622.071 356.68 620.554 357.913Z" fill="#DBCCB1"/>
<path opacity="0.58" d="M578.859 390.76C577.31 391.942 575.255 391.969 574.273 390.816C573.291 389.663 573.742 387.758 575.277 386.573C576.827 385.391 578.871 385.347 579.864 386.517C580.861 387.673 580.409 389.579 578.859 390.76Z" fill="#DBCCB1"/>
<path opacity="0.5" d="M536.332 422.574C534.854 423.66 532.922 423.633 532.008 422.513C531.093 421.393 531.545 419.602 533.019 418.53C534.493 417.458 536.425 417.484 537.339 418.604C538.254 419.724 537.802 421.515 536.328 422.587L536.332 422.574Z" fill="#DBCCB1"/>
<path opacity="0.55" d="M493.136 453.509C491.745 454.503 489.924 454.406 489.089 453.335C488.253 452.265 488.705 450.589 490.092 449.609C491.484 448.615 493.294 448.695 494.14 449.783C494.975 450.853 494.527 452.515 493.136 453.509Z" fill="#DBCCB1"/>
<path opacity="0.85" d="M449.421 483.695C448.009 484.654 446.184 484.513 445.356 483.416C444.528 482.318 445.012 480.637 446.425 479.678C447.838 478.718 449.651 478.843 450.49 479.957C451.318 481.054 450.849 482.739 449.425 483.681L449.421 483.695Z" fill="#DBCCB1"/>
<path opacity="0.45" d="M404.99 512.804C403.653 513.655 401.969 513.507 401.209 512.443C400.449 511.378 400.925 509.838 402.252 508.971C403.578 508.103 405.273 508.268 406.033 509.333C406.793 510.397 406.327 511.954 404.99 512.804Z" fill="#DBCCB1"/>
<path opacity="0.4" d="M359.997 540.996C358.757 541.772 357.18 541.567 356.496 540.566C355.811 539.564 356.258 538.132 357.509 537.374C358.75 536.598 360.315 536.786 361.01 537.804C361.695 538.806 361.248 540.238 360.007 541.014L359.997 540.996Z" fill="#DBCCB1"/>
<path opacity="0.9" d="M314.46 568.218C313.306 568.902 311.87 568.691 311.25 567.736C310.626 566.794 311.059 565.473 312.213 564.789C313.367 564.105 314.803 564.316 315.423 565.271C316.047 566.213 315.614 567.535 314.46 568.218Z" fill="#DBCCB1"/>
<path opacity="0.44" d="M268.411 594.484C267.343 595.076 266.036 594.842 265.484 593.977C264.932 593.111 265.336 591.897 266.404 591.306C267.471 590.714 268.778 590.947 269.33 591.813C269.882 592.678 269.478 593.892 268.411 594.484Z" fill="#DBCCB1"/>
<path opacity="0.43" d="M221.865 619.747C220.898 620.251 219.713 620.021 219.226 619.201C218.735 618.395 219.117 617.319 220.088 616.802C221.055 616.298 222.236 616.542 222.727 617.348C223.218 618.154 222.835 619.23 221.876 619.764L221.865 619.747Z" fill="#DBCCB1"/>
<path opacity="0.9" d="M174.833 643.96C173.963 644.389 172.918 644.153 172.485 643.42C172.055 642.673 172.405 641.718 173.274 641.289C174.144 640.86 175.189 641.095 175.623 641.828C176.056 642.562 175.703 643.531 174.833 643.96Z" fill="#DBCCB1"/>
<path opacity="0.49" d="M970.134 65.5826C968.601 67.5013 966.23 68.2483 964.849 67.2622C963.467 66.2762 963.578 63.9208 965.111 62.0021C966.64 60.0967 969.001 59.3327 970.397 60.3226C971.781 61.2952 971.67 63.6504 970.138 65.5691L970.134 65.5826Z" fill="#DBCCB1"/>
<path opacity="0.48" d="M936.187 106.915C934.604 108.792 932.19 109.47 930.823 108.43C929.442 107.387 929.628 105.037 931.211 103.16C932.794 101.284 935.194 100.602 936.565 101.628C937.935 102.655 937.774 105.025 936.191 106.902L936.187 106.915Z" fill="#DBCCB1"/>
<path opacity="0.65" d="M901.077 147.379C899.44 149.227 897 149.827 895.637 148.716C894.27 147.619 894.504 145.268 896.14 143.42C897.774 141.585 900.202 140.968 901.569 142.066C902.936 143.163 902.717 145.518 901.08 147.366L901.077 147.379Z" fill="#DBCCB1"/>
<path opacity="0.92" d="M864.871 186.947C863.184 188.753 860.719 189.274 859.367 188.124C858.014 186.973 858.298 184.606 859.981 182.814C861.665 181.021 864.118 180.483 865.474 181.62C866.83 182.758 866.558 185.142 864.86 186.93L864.871 186.947Z" fill="#DBCCB1"/>
<path opacity="0.89" d="M827.602 225.643C825.865 227.406 823.376 227.849 822.048 226.662C820.721 225.475 821.041 223.089 822.774 221.339C824.508 219.588 826.987 219.129 828.328 220.319C829.659 221.493 829.34 223.879 827.602 225.643Z" fill="#DBCCB1"/>
<path opacity="0.48" d="M789.342 263.454C787.558 265.162 785.051 265.557 783.738 264.316C782.425 263.075 782.795 260.674 784.575 258.979C786.355 257.285 788.863 256.89 790.179 258.117C791.496 259.345 791.126 261.746 789.353 263.471L789.342 263.454Z" fill="#DBCCB1"/>
<path opacity="0.76" d="M750.142 300.415C748.318 302.098 745.789 302.401 744.488 301.12C743.189 299.825 743.617 297.439 745.436 295.77C747.256 294.1 749.788 293.784 751.09 295.065C752.392 296.346 751.976 298.749 750.156 300.419L750.142 300.415Z" fill="#DBCCB1"/>
<path opacity="0.63" d="M709.936 336.356C708.163 337.909 705.746 338.141 704.52 336.866C703.304 335.608 703.749 333.327 705.511 331.757C707.28 330.217 709.698 329.985 710.917 331.23C712.133 332.488 711.698 334.786 709.929 336.325L709.936 336.356Z" fill="#DBCCB1"/>
<path opacity="0.55" d="M669.016 371.536C667.208 373.051 664.776 373.221 663.564 371.893C662.363 370.581 662.843 368.282 664.649 366.78C666.454 365.279 668.885 365.108 670.09 366.406C671.295 367.704 670.814 370.004 669.006 371.519L669.016 371.536Z" fill="#DBCCB1"/>
<path opacity="0.94" d="M627.19 405.721C625.446 407.11 623.126 407.209 621.996 405.917C620.867 404.625 621.373 402.461 623.106 401.055C624.85 399.667 627.166 399.581 628.289 400.842C629.418 402.135 628.927 404.302 627.179 405.704L627.19 405.721Z" fill="#DBCCB1"/>
<path opacity="0.79" d="M584.741 439.147C582.972 440.514 580.641 440.539 579.522 439.206C578.418 437.878 578.946 435.691 580.722 434.354C582.487 433 584.822 432.962 585.93 434.277C587.037 435.593 586.51 437.779 584.741 439.147Z" fill="#DBCCB1"/>
<path opacity="0.92" d="M541.491 471.533C539.798 472.791 537.578 472.745 536.542 471.449C535.506 470.153 536.048 468.085 537.748 466.857C539.442 465.599 541.661 465.645 542.687 466.924C543.723 468.22 543.185 470.275 541.491 471.533Z" fill="#DBCCB1"/>
<path opacity="0.88" d="M497.592 503.031C495.974 504.18 493.877 504.081 492.92 502.834C491.962 501.588 492.5 499.648 494.118 498.499C495.736 497.35 497.823 497.432 498.79 498.696C499.748 499.942 499.22 501.899 497.592 503.031Z" fill="#DBCCB1"/>
<path opacity="0.8" d="M453.189 533.761C451.549 534.876 449.448 534.732 448.506 533.432C447.559 532.145 448.13 530.2 449.769 529.085C451.408 527.971 453.505 528.128 454.452 529.414C455.398 530.701 454.839 532.664 453.189 533.761Z" fill="#DBCCB1"/>
<path opacity="0.59" d="M408.095 563.404C406.531 564.409 404.563 564.229 403.685 562.975C402.807 561.721 403.37 559.917 404.923 558.894C406.486 557.889 408.451 558.082 409.332 559.323C410.211 560.577 409.658 562.398 408.095 563.404Z" fill="#DBCCB1"/>
<path opacity="0.53" d="M362.451 592.103C360.973 593.016 359.127 592.783 358.325 591.592C357.522 590.401 358.059 588.691 359.533 587.791C361.007 586.891 362.842 587.107 363.659 588.302C364.462 589.493 363.924 591.203 362.451 592.103Z" fill="#DBCCB1"/>
<path opacity="0.92" d="M316.303 619.845C314.915 620.653 313.199 620.397 312.46 619.252C311.722 618.107 312.252 616.538 313.629 615.713C315.017 614.905 316.733 615.161 317.46 616.289C318.199 617.434 317.679 619.019 316.292 619.828L316.303 619.845Z" fill="#DBCCB1"/>
<path opacity="0.52" d="M269.643 646.59C268.353 647.324 266.766 647.044 266.088 645.958C265.422 644.89 265.923 643.429 267.214 642.695C268.5 641.975 270.088 642.255 270.765 643.34C271.431 644.409 270.941 645.887 269.639 646.603L269.643 646.59Z" fill="#DBCCB1"/>
<path opacity="0.73" d="M222.511 672.313C221.322 672.958 219.853 672.638 219.248 671.629C218.642 670.62 219.115 669.266 220.315 668.638C221.505 667.993 222.962 668.295 223.579 669.321C224.184 670.33 223.715 671.671 222.511 672.313Z" fill="#DBCCB1"/>
<path opacity="0.73" d="M983.619 108.541C981.889 110.68 979.258 111.53 977.734 110.391C976.216 109.282 976.389 106.642 978.119 104.503C979.846 102.377 982.476 101.527 983.994 102.635C985.512 103.744 985.353 106.389 983.623 108.528L983.619 108.541Z" fill="#DBCCB1"/>
<path opacity="0.5" d="M948.821 150.581C947.036 152.691 944.359 153.429 942.856 152.267C941.357 151.091 941.59 148.452 943.371 146.355C945.152 144.258 947.818 143.504 949.332 144.683C950.835 145.846 950.616 148.488 948.831 150.598L948.821 150.581Z" fill="#DBCCB1"/>
<path opacity="0.32" d="M912.87 191.712C911.024 193.763 908.319 194.435 906.82 193.202C905.32 191.969 905.618 189.319 907.464 187.268C909.309 185.217 912.011 184.558 913.5 185.774C914.988 186.99 914.715 189.661 912.87 191.712Z" fill="#DBCCB1"/>
<path opacity="0.82" d="M875.816 231.958C873.92 233.967 871.176 234.557 869.705 233.274C868.234 231.991 868.579 229.339 870.475 227.33C872.37 225.321 875.101 224.727 876.586 226.014C878.06 227.283 877.726 229.953 875.827 231.975L875.816 231.958Z" fill="#DBCCB1"/>
<path opacity="0.3" d="M837.717 271.296C835.771 273.263 833.001 273.774 831.534 272.421C830.078 271.084 830.473 268.417 832.419 266.45C834.365 264.483 837.131 263.985 838.587 265.322C840.047 266.645 839.662 269.329 837.702 271.292L837.717 271.296Z" fill="#DBCCB1"/>
<path opacity="0.65" d="M798.635 309.748C796.639 311.673 793.848 312.092 792.406 310.702C790.964 309.312 791.41 306.629 793.417 304.722C795.409 302.811 798.2 302.392 799.646 303.768C801.091 305.145 800.646 307.828 798.65 309.752L798.635 309.748Z" fill="#DBCCB1"/>
<path opacity="0.35" d="M758.517 347.192C756.571 348.987 753.88 349.318 752.514 347.934C751.148 346.549 751.636 343.993 753.582 342.199C755.527 340.405 758.214 340.086 759.57 341.453C760.936 342.838 760.462 345.398 758.506 347.175L758.517 347.192Z" fill="#DBCCB1"/>
<path opacity="0.42" d="M717.651 383.884C715.659 385.622 712.954 385.893 711.605 384.441C710.264 383.021 710.789 380.445 712.781 378.706C714.773 376.967 717.474 376.711 718.815 378.131C720.157 379.552 719.646 382.131 717.651 383.884Z" fill="#DBCCB1"/>
<path opacity="0.38" d="M675.844 419.543C673.913 421.169 671.313 421.338 670.051 419.909C668.785 418.494 669.334 416.055 671.265 414.429C673.193 412.816 675.782 412.63 677.048 414.045C678.317 415.447 677.779 417.904 675.848 419.53L675.844 419.543Z" fill="#DBCCB1"/>
<path opacity="0.59" d="M633.397 454.444C631.43 456.032 628.819 456.126 627.578 454.675C626.327 453.206 626.912 450.747 628.886 449.19C630.85 447.616 633.45 447.505 634.705 448.96C635.96 450.415 635.375 452.874 633.408 454.462L633.397 454.444Z" fill="#DBCCB1"/>
<path opacity="0.38" d="M590.119 488.322C588.217 489.783 585.731 489.81 584.563 488.378C583.394 486.946 583.99 484.619 585.881 483.141C587.78 481.693 590.265 481.666 591.437 483.085C592.61 484.504 592.021 486.861 590.119 488.322Z" fill="#DBCCB1"/>
<path opacity="0.72" d="M546.172 521.299C544.345 522.651 541.972 522.607 540.885 521.211C539.799 519.815 540.384 517.586 542.218 516.265C544.041 514.926 546.404 514.953 547.504 516.352C548.594 517.735 548.009 519.964 546.183 521.316L546.172 521.299Z" fill="#DBCCB1"/>
<path opacity="0.81" d="M501.702 553.475C499.854 554.792 497.47 554.674 496.394 553.238C495.319 551.802 495.947 549.584 497.795 548.267C499.639 546.963 502.013 547.064 503.092 548.487C504.171 549.909 503.55 552.157 501.702 553.475Z" fill="#DBCCB1"/>
<path opacity="0.36" d="M456.543 584.625C454.771 585.834 452.523 585.665 451.516 584.262C450.509 582.858 451.133 580.77 452.905 579.561C454.674 578.366 456.926 578.521 457.933 579.925C458.944 581.315 458.327 583.434 456.558 584.629L456.543 584.625Z" fill="#DBCCB1"/>
<path opacity="0.93" d="M410.826 614.803C409.143 615.906 407.014 615.697 406.075 614.326C405.147 612.972 405.757 610.994 407.435 609.904C409.118 608.801 411.244 609.023 412.176 610.364C413.107 611.704 412.508 613.7 410.815 614.785L410.826 614.803Z" fill="#DBCCB1"/>
<path opacity="0.91" d="M364.593 644.035C363 645.033 360.993 644.771 360.129 643.463C359.266 642.155 359.857 640.302 361.46 639.321C363.053 638.324 365.05 638.568 365.913 639.876C366.777 641.184 366.185 643.037 364.593 644.035Z" fill="#DBCCB1"/>
<path opacity="0.55" d="M317.856 672.292C316.35 673.198 314.476 672.899 313.687 671.655C312.888 670.393 313.462 668.664 314.975 667.789C316.478 666.896 318.345 667.164 319.144 668.426C319.947 669.674 319.37 671.417 317.867 672.309L317.856 672.292Z" fill="#DBCCB1"/>
<path opacity="0.37" d="M270.643 699.513C269.226 700.314 267.492 700.009 266.754 698.807C266.023 697.635 266.571 696 267.987 695.199C269.404 694.399 271.138 694.703 271.876 695.905C272.607 697.077 272.059 698.713 270.643 699.513Z" fill="#DBCCB1"/>
<path opacity="0.46" d="M1030.98 108.786C1029.11 111.204 1026.25 112.223 1024.58 111.032C1022.92 109.841 1023.09 106.927 1024.96 104.508C1026.82 102.09 1029.67 101.067 1031.33 102.258C1033 103.436 1032.84 106.367 1030.98 108.786Z" fill="#DBCCB1"/>
<path opacity="0.94" d="M996.538 152.416C994.606 154.789 991.696 155.708 990.045 154.464C988.395 153.219 988.633 150.28 990.561 147.921C992.493 145.548 995.389 144.625 997.039 145.87C998.69 147.114 998.47 150.044 996.534 152.43L996.538 152.416Z" fill="#DBCCB1"/>
<path opacity="0.4" d="M960.89 195.151C958.894 197.478 955.948 198.302 954.312 197.003C952.679 195.692 952.978 192.755 954.971 190.441C956.964 188.128 959.9 187.287 961.535 188.585C963.171 189.884 962.883 192.838 960.887 195.165L960.89 195.151Z" fill="#DBCCB1"/>
<path opacity="0.93" d="M924.093 236.957C922.032 239.238 919.05 239.966 917.432 238.601C915.814 237.235 916.178 234.287 918.235 232.019C920.293 229.752 923.264 229.007 924.882 230.372C926.5 231.737 926.151 234.69 924.089 236.971L924.093 236.957Z" fill="#DBCCB1"/>
<path opacity="0.94" d="M886.207 277.845C884.085 280.066 881.064 280.712 879.464 279.28C877.864 277.847 878.278 274.883 880.396 272.675C882.515 270.467 885.522 269.818 887.125 271.237C888.729 272.656 888.326 275.637 886.204 277.858L886.207 277.845Z" fill="#DBCCB1"/>
<path opacity="0.45" d="M847.295 317.838C845.123 320.017 842.066 320.567 840.484 319.067C838.899 317.582 839.377 314.606 841.546 312.44C843.715 310.274 846.757 309.721 848.346 311.193C849.932 312.679 849.468 315.658 847.295 317.838Z" fill="#DBCCB1"/>
<path opacity="0.68" d="M807.424 356.945C805.202 359.082 802.123 359.54 800.556 357.987C798.989 356.435 799.528 353.461 801.743 351.351C803.962 349.227 807.03 348.752 808.601 350.291C810.172 351.831 809.647 354.808 807.424 356.945Z" fill="#DBCCB1"/>
<path opacity="0.81" d="M766.524 395.019C764.341 397.008 761.378 397.382 759.889 395.822C758.401 394.261 758.965 391.423 761.145 389.447C763.324 387.471 766.287 387.097 767.769 388.627C769.26 390.174 768.707 393.029 766.524 395.019Z" fill="#DBCCB1"/>
<path opacity="0.85" d="M724.896 432.306C722.677 434.257 719.681 434.522 718.214 432.938C716.748 431.355 717.355 428.471 719.57 426.533C721.786 424.595 724.771 424.313 726.248 425.914C727.715 427.498 727.111 430.368 724.892 432.319L724.896 432.306Z" fill="#DBCCB1"/>
<path opacity="0.82" d="M682.362 468.604C680.197 470.412 677.313 470.606 675.925 469.015C674.538 467.424 675.167 464.689 677.331 462.882C679.496 461.074 682.366 460.876 683.757 462.454C685.148 464.032 684.527 466.797 682.362 468.604Z" fill="#DBCCB1"/>
<path opacity="0.82" d="M639.2 504.11C637 505.88 634.108 505.985 632.735 504.34C631.362 502.696 632.041 499.946 634.238 498.19C636.435 496.434 639.33 496.315 640.692 497.942C642.069 499.574 641.401 502.341 639.2 504.11Z" fill="#DBCCB1"/>
<path opacity="0.43" d="M595.238 538.577C593.103 540.221 590.326 540.242 589.036 538.633C587.745 537.025 588.424 534.39 590.56 532.747C592.692 531.117 595.457 531.079 596.752 532.674C598.042 534.282 597.363 536.917 595.242 538.564L595.238 538.577Z" fill="#DBCCB1"/>
<path opacity="0.59" d="M550.629 572.123C548.569 573.657 545.918 573.611 544.699 572.022C543.481 570.433 544.17 567.93 546.216 566.392C548.272 564.872 550.923 564.917 552.145 566.493C553.368 568.069 552.689 570.589 550.629 572.123Z" fill="#DBCCB1"/>
<path opacity="0.84" d="M505.421 604.749C503.44 606.16 500.904 606.03 499.764 604.49C498.625 602.951 499.303 600.546 501.281 599.148C503.258 597.75 505.786 597.85 506.926 599.389C508.066 600.928 507.391 603.32 505.41 604.731L505.421 604.749Z" fill="#DBCCB1"/>
<path opacity="0.83" d="M459.649 636.452C457.747 637.741 455.345 637.574 454.273 636.067C453.205 634.547 453.876 632.283 455.778 630.995C457.68 629.706 460.082 629.872 461.15 631.392C462.218 632.913 461.547 635.176 459.645 636.465L459.649 636.452Z" fill="#DBCCB1"/>
<path opacity="0.67" d="M413.467 667.344C411.544 668.598 409.13 668.357 408.073 666.797C407.016 665.236 407.719 662.967 409.639 661.726C411.559 660.485 413.961 660.709 415.022 662.256C416.083 663.803 415.379 666.072 413.467 667.344Z" fill="#DBCCB1"/>
<path opacity="0.55" d="M366.561 696.96C364.84 698.038 362.681 697.765 361.757 696.34C360.829 694.929 361.482 692.905 363.203 691.827C364.925 690.749 367.069 691.019 368.008 692.447C368.936 693.858 368.298 695.886 366.572 696.977L366.561 696.96Z" fill="#DBCCB1"/>
<path opacity="0.4" d="M319.298 725.732C317.666 726.705 315.641 726.395 314.777 725.03C313.917 723.651 314.545 721.778 316.181 720.792C317.813 719.819 319.838 720.129 320.691 721.477C321.551 722.856 320.923 724.729 319.287 725.715L319.298 725.732Z" fill="#DBCCB1"/>
<path opacity="0.92" d="M271.575 753.48C270.033 754.347 268.141 754.001 267.349 752.713C266.561 751.411 267.159 749.645 268.694 748.747C270.236 747.879 272.118 748.208 272.92 749.514C273.709 750.816 273.11 752.582 271.575 753.48Z" fill="#DBCCB1"/>
<path opacity="0.94" d="M1044.18 152.861C1042.1 155.527 1038.97 156.645 1037.18 155.305C1035.39 153.995 1035.61 150.765 1037.69 148.099C1039.75 145.447 1042.87 144.325 1044.67 145.638C1046.46 146.934 1046.25 150.182 1044.18 152.848L1044.18 152.861Z" fill="#DBCCB1"/>
<path opacity="0.3" d="M1008.9 197.215C1006.75 199.848 1003.56 200.836 1001.78 199.442C1000.01 198.048 1000.3 194.824 1002.45 192.221C1004.59 189.602 1007.77 188.61 1009.55 189.99C1011.33 191.371 1011.04 194.613 1008.9 197.215Z" fill="#DBCCB1"/>
<path opacity="0.48" d="M972.406 240.611C970.19 243.181 966.963 244.074 965.202 242.613C963.441 241.152 963.804 237.916 966.017 235.359C968.226 232.816 971.441 231.907 973.21 233.341C974.975 234.788 974.622 238.042 972.41 240.598L972.406 240.611Z" fill="#DBCCB1"/>
<path opacity="0.73" d="M934.784 283.094C932.507 285.604 929.231 286.397 927.488 284.869C925.741 283.355 926.173 280.094 928.461 277.601C930.734 275.104 933.996 274.307 935.747 275.808C937.497 277.309 937.076 280.587 934.799 283.098L934.784 283.094Z" fill="#DBCCB1"/>
<path opacity="0.65" d="M896.084 324.654C893.742 327.119 890.433 327.803 888.704 326.221C886.976 324.64 887.472 321.367 889.81 318.916C892.145 316.478 895.443 315.777 897.175 317.345C898.908 318.913 898.422 322.203 896.084 324.654Z" fill="#DBCCB1"/>
<path opacity="0.85" d="M856.383 365.3C853.98 367.705 850.646 368.311 848.928 366.631C847.217 364.983 847.779 361.699 850.174 359.32C852.573 356.929 855.893 356.319 857.618 357.972C859.332 359.607 858.785 362.895 856.383 365.3Z" fill="#DBCCB1"/>
<path opacity="0.36" d="M815.616 404.931C813.254 407.189 810.017 407.663 808.385 406.006C806.753 404.35 807.354 401.206 809.713 398.962C812.073 396.717 815.298 396.227 816.934 397.87C818.569 399.513 817.979 402.674 815.616 404.931Z" fill="#DBCCB1"/>
<path opacity="0.43" d="M774.078 443.769C771.669 445.971 768.407 446.366 766.794 444.643C765.18 442.92 765.831 439.76 768.237 437.571C770.643 435.382 773.894 434.97 775.511 436.68C777.128 438.39 776.488 441.567 774.078 443.769Z" fill="#DBCCB1"/>
<path opacity="0.55" d="M731.606 481.566C729.247 483.638 726.093 483.918 724.566 482.218C723.038 480.517 723.707 477.463 726.062 475.405C728.418 473.346 731.561 473.049 733.092 474.736C734.623 476.423 733.954 479.477 731.599 481.536L731.606 481.566Z" fill="#DBCCB1"/>
<path opacity="0.56" d="M688.362 518.447C686.067 520.393 683.018 520.571 681.58 518.88C680.128 517.186 680.822 514.268 683.112 512.335C685.403 510.403 688.442 510.207 689.894 511.902C691.35 513.583 690.667 516.519 688.362 518.447Z" fill="#DBCCB1"/>
<path opacity="0.81" d="M644.524 554.555C642.187 556.432 639.138 556.553 637.7 554.805C636.262 553.057 637.003 550.136 639.329 548.242C641.663 546.379 644.712 546.258 646.139 547.989C647.577 549.737 646.851 552.661 644.51 554.551L644.524 554.555Z" fill="#DBCCB1"/>
<path opacity="0.47" d="M599.909 589.635C597.648 591.402 594.706 591.408 593.355 589.683C592.003 587.958 592.744 585.152 595.001 583.398C597.259 581.644 600.19 581.621 601.545 583.333C602.9 585.044 602.171 587.867 599.899 589.617L599.909 589.635Z" fill="#DBCCB1"/>
<path opacity="0.69" d="M554.692 623.776C552.498 625.403 549.683 625.342 548.41 623.667C547.13 621.961 547.871 619.27 550.06 617.656C552.25 616.042 555.055 616.086 556.338 617.778C557.621 619.471 556.881 622.161 554.688 623.789L554.692 623.776Z" fill="#DBCCB1"/>
<path opacity="0.32" d="M508.897 656.998C506.783 658.503 504.093 658.375 502.892 656.719C501.691 655.063 502.428 652.5 504.531 650.978C506.645 649.473 509.324 649.584 510.536 651.257C511.736 652.914 511.011 655.493 508.897 656.998Z" fill="#DBCCB1"/>
<path opacity="0.91" d="M462.555 689.264C460.531 690.664 457.967 690.468 456.834 688.845C455.702 687.221 456.434 684.787 458.458 683.388C460.482 681.988 463.046 682.183 464.179 683.806C465.312 685.43 464.59 687.881 462.555 689.264Z" fill="#DBCCB1"/>
<path opacity="0.67" d="M415.731 720.583C413.786 721.86 411.358 721.615 410.29 720.037C409.226 718.446 409.94 716.137 411.885 714.86C413.826 713.596 416.257 713.827 417.322 715.419C418.386 717.01 417.672 719.319 415.727 720.596L415.731 720.583Z" fill="#DBCCB1"/>
<path opacity="0.52" d="M368.423 750.898C366.569 752.07 364.263 751.771 363.274 750.243C362.285 748.716 362.985 746.517 364.836 745.359C366.687 744.2 368.993 744.499 369.985 746.013C370.978 747.528 370.289 749.743 368.434 750.915L368.423 750.898Z" fill="#DBCCB1"/>
<path opacity="0.83" d="M1056.83 197.868C1054.55 200.795 1051.14 201.995 1049.21 200.519C1047.29 199.06 1047.59 195.518 1049.87 192.622C1052.15 189.71 1055.55 188.505 1057.47 189.951C1059.4 191.383 1059.11 194.942 1056.83 197.868Z" fill="#DBCCB1"/>
<path opacity="0.54" d="M1020.72 242.923C1018.36 245.799 1014.88 246.87 1012.98 245.327C1011.07 243.784 1011.45 240.251 1013.8 237.401C1016.16 234.538 1019.62 233.464 1021.52 234.977C1023.44 236.493 1023.07 240.06 1020.7 242.919L1020.72 242.923Z" fill="#DBCCB1"/>
<path opacity="0.69" d="M983.398 287.017C980.962 289.83 977.441 290.788 975.551 289.178C973.66 287.568 974.107 284.023 976.539 281.224C978.971 278.424 982.477 277.462 984.361 279.042C986.255 280.639 985.819 284.2 983.387 287L983.398 287.017Z" fill="#DBCCB1"/>
<path opacity="0.3" d="M944.958 330.168C942.451 332.904 938.894 333.766 937.018 332.102C935.146 330.425 935.661 326.856 938.164 324.133C940.668 321.41 944.214 320.531 946.09 322.194C947.966 323.858 947.465 327.431 944.954 330.181L944.958 330.168Z" fill="#DBCCB1"/>
<path opacity="0.88" d="M905.464 372.396C902.893 375.086 899.289 375.835 897.439 374.078C895.584 372.333 896.164 368.753 898.732 366.075C901.3 363.398 904.889 362.646 906.747 364.376C908.605 366.107 908.036 369.705 905.468 372.382L905.464 372.396Z" fill="#DBCCB1"/>
<path opacity="0.65" d="M864.987 413.701C862.354 416.332 858.719 416.972 856.883 415.16C855.046 413.349 855.691 409.757 858.32 407.139C860.949 404.521 864.57 403.878 866.41 405.676C868.25 407.473 867.616 411.083 864.984 413.714L864.987 413.701Z" fill="#DBCCB1"/>
<path opacity="0.52" d="M823.463 453.956C820.87 456.44 817.332 456.948 815.589 455.133C813.835 453.301 814.519 449.848 817.108 447.378C819.698 444.907 823.225 444.383 824.972 446.184C826.733 447.99 826.056 451.473 823.463 453.956Z" fill="#DBCCB1"/>
<path opacity="0.43" d="M781.204 493.418C778.553 495.829 775.004 496.262 773.265 494.376C771.529 492.477 772.267 488.995 774.914 486.598C777.561 484.2 781.099 483.75 782.838 485.636C784.581 487.509 783.854 491.007 781.204 493.418Z" fill="#DBCCB1"/>
<path opacity="0.39" d="M738.033 531.866C735.437 534.133 731.992 534.464 730.335 532.557C728.686 530.681 729.441 527.305 732.034 525.051C734.627 522.797 738.057 522.462 739.721 524.342C741.374 526.205 740.618 529.581 738.033 531.866Z" fill="#DBCCB1"/>
<path opacity="0.86" d="M694.124 569.391C691.592 571.532 688.259 571.735 686.685 569.864C685.111 567.993 685.892 564.753 688.419 562.626C690.947 560.498 694.281 560.295 695.858 562.152C697.436 564.01 696.666 567.267 694.124 569.391Z" fill="#DBCCB1"/>
<path opacity="0.61" d="M649.646 606.126C647.068 608.211 643.728 608.326 642.172 606.389C640.616 604.451 641.443 601.209 644.014 599.15C646.588 597.078 649.928 596.963 651.488 598.888C653.048 600.812 652.231 604.071 649.657 606.143L649.646 606.126Z" fill="#DBCCB1"/>
<path opacity="0.43" d="M604.426 641.815C601.916 643.761 598.691 643.792 597.21 641.86C595.726 639.941 596.567 636.818 599.059 634.882C601.565 632.95 604.779 632.902 606.264 634.82C607.748 636.739 606.921 639.866 604.415 641.798L604.426 641.815Z" fill="#DBCCB1"/>
<path opacity="0.64" d="M558.618 676.575C556.188 678.398 553.081 678.331 551.683 676.435C550.285 674.54 551.108 671.541 553.535 669.731C555.962 667.922 559.068 667.988 560.47 669.871C561.872 671.753 561.045 674.765 558.618 676.575Z" fill="#DBCCB1"/>
<path opacity="0.92" d="M512.275 710.393C509.927 712.081 506.936 711.93 505.617 710.084C504.287 708.221 505.121 705.354 507.469 703.667C509.816 701.98 512.793 702.127 514.127 703.977C515.456 705.84 514.637 708.71 512.286 710.411L512.275 710.393Z" fill="#DBCCB1"/>
<path opacity="0.3" d="M465.433 743.258C463.164 744.823 460.309 744.622 459.051 742.778C457.793 740.934 458.609 738.192 460.877 736.628C463.142 735.077 465.997 735.277 467.248 737.091C468.51 738.921 467.69 741.677 465.422 743.241L465.433 743.258Z" fill="#DBCCB1"/>
<path opacity="0.88" d="M1104.66 197.116C1102.25 200.365 1098.61 201.765 1096.54 200.237C1094.47 198.709 1094.77 194.866 1097.18 191.63C1099.59 188.394 1103.22 186.99 1105.28 188.487C1107.35 190.002 1107.06 193.849 1104.65 197.098L1104.66 197.116Z" fill="#DBCCB1"/>
<path opacity="0.87" d="M1068.96 243.829C1066.46 247.012 1062.75 248.295 1060.71 246.7C1058.66 245.105 1059.04 241.241 1061.53 238.085C1064.03 234.916 1067.72 233.629 1069.77 235.21C1071.82 236.792 1071.47 240.664 1068.97 243.86L1068.96 243.829Z" fill="#DBCCB1"/>
<path opacity="0.54" d="M1032.01 289.575C1029.41 292.691 1025.67 293.861 1023.63 292.168C1021.59 290.476 1022.05 286.618 1024.64 283.515C1027.22 280.427 1030.96 279.239 1033 280.918C1035.05 282.584 1034.6 286.46 1032.02 289.592L1032.01 289.575Z" fill="#DBCCB1"/>
<path opacity="0.48" d="M993.874 334.353C991.205 337.405 987.4 338.445 985.381 336.686C983.361 334.926 983.898 331.047 986.55 328.004C989.212 324.978 993.006 323.921 995.029 325.667C997.052 327.413 996.54 331.314 993.874 334.353Z" fill="#DBCCB1"/>
<path opacity="0.32" d="M954.642 378.164C951.898 381.153 948.05 382.066 946.048 380.24C944.05 378.4 944.652 374.509 947.39 371.546C950.127 368.584 953.964 367.653 955.969 369.466C957.974 371.28 957.383 375.188 954.653 378.181L954.642 378.164Z" fill="#DBCCB1"/>
<path opacity="0.48" d="M914.365 421.055C911.56 423.985 907.665 424.786 905.675 422.862C903.695 420.955 904.365 417.039 907.164 414.136C909.965 411.219 913.845 410.415 915.829 412.309C917.812 414.202 917.157 418.122 914.351 421.052L914.365 421.055Z" fill="#DBCCB1"/>
<path opacity="0.54" d="M873.02 462.903C870.243 465.669 866.446 466.337 864.549 464.409C862.652 462.481 863.365 458.692 866.134 455.953C868.907 453.201 872.69 452.529 874.594 454.43C876.495 456.345 875.796 460.138 873.02 462.903Z" fill="#DBCCB1"/>
<path opacity="0.81" d="M830.893 503.926C828.056 506.631 824.226 507.191 822.347 505.196C820.468 503.201 821.246 499.399 824.076 496.72C826.906 494.041 830.725 493.465 832.608 495.447C834.49 497.428 833.727 501.233 830.889 503.939L830.893 503.926Z" fill="#DBCCB1"/>
<path opacity="0.43" d="M787.825 543.936C785.03 546.481 781.309 546.925 779.512 544.909C777.716 542.893 778.519 539.228 781.306 536.709C784.096 534.178 787.803 533.729 789.607 535.719C791.411 537.708 790.619 541.391 787.825 543.936Z" fill="#DBCCB1"/>
<path opacity="0.48" d="M743.991 583.002C741.251 585.404 737.641 585.72 735.93 583.727C734.209 581.716 735.04 578.174 737.773 575.799C740.506 573.425 744.109 573.078 745.823 575.058C747.537 577.037 746.727 580.614 743.991 583.002Z" fill="#DBCCB1"/>
<path opacity="0.46" d="M699.451 621.154C696.779 623.416 693.277 623.617 691.642 621.63C690.007 619.642 690.853 616.218 693.521 613.97C696.189 611.722 699.68 611.503 701.319 613.477C702.957 615.451 702.122 618.893 699.451 621.154Z" fill="#DBCCB1"/>
<path opacity="0.76" d="M654.378 658.543C651.663 660.736 648.151 660.862 646.534 658.808C644.917 656.753 645.798 653.31 648.509 651.131C651.221 648.952 654.722 648.808 656.343 650.849C657.963 652.89 657.093 656.35 654.378 658.543Z" fill="#DBCCB1"/>
<path opacity="0.81" d="M608.586 694.837C605.951 696.907 602.546 696.919 601.005 694.87C599.459 692.835 600.351 689.524 602.994 687.485C605.626 685.428 609.02 685.399 610.565 687.434C612.114 689.456 611.233 692.784 608.597 694.854L608.586 694.837Z" fill="#DBCCB1"/>
<path opacity="0.67" d="M562.251 730.224C559.684 732.154 556.412 732.072 554.949 730.073C553.476 728.057 554.368 724.861 556.931 722.944C559.495 721.027 562.756 721.092 564.233 723.095C565.71 725.098 564.818 728.294 562.262 730.241L562.251 730.224Z" fill="#DBCCB1"/>
<path opacity="0.77" d="M1117.08 243.287C1114.44 246.807 1110.51 248.303 1108.33 246.643C1106.13 244.965 1106.5 240.797 1109.14 237.29C1111.77 233.798 1115.68 232.281 1117.88 233.931C1120.08 235.582 1119.72 239.768 1117.1 243.291L1117.08 243.287Z" fill="#DBCCB1"/>
<path opacity="0.57" d="M1080.68 290.813C1077.86 294.371 1073.74 295.773 1071.5 293.969C1069.25 292.149 1069.72 287.834 1072.54 284.303C1075.35 280.772 1079.44 279.349 1081.69 281.126C1083.95 282.92 1083.49 287.238 1080.68 290.813Z" fill="#DBCCB1"/>
<path opacity="0.85" d="M1042.79 337.147C1039.97 340.533 1035.92 341.751 1033.76 339.927C1031.61 338.102 1032.14 333.891 1034.95 330.532C1037.77 327.174 1041.8 325.921 1043.97 327.749C1046.14 329.578 1045.62 333.793 1042.8 337.165L1042.79 337.147Z" fill="#DBCCB1"/>
<path opacity="0.62" d="M1003.86 382.596C1000.95 385.901 996.852 387.006 994.707 385.084C992.562 383.161 993.175 378.943 996.075 375.665C998.974 372.386 1003.05 371.246 1005.2 373.142C1007.36 375.038 1006.75 379.273 1003.86 382.596Z" fill="#DBCCB1"/>
<path opacity="0.92" d="M963.851 427.11C960.869 430.352 956.723 431.344 954.589 429.324C952.466 427.321 953.158 423.095 956.133 419.88C959.108 416.665 963.239 415.669 965.37 417.645C967.5 419.621 966.83 423.881 963.851 427.11Z" fill="#DBCCB1"/>
<path opacity="0.41" d="M922.83 470.668C919.777 473.834 915.588 474.699 913.475 472.599C911.363 470.498 912.13 466.278 915.181 463.126C918.227 459.988 922.405 459.104 924.514 461.161C926.634 463.234 925.877 467.472 922.834 470.655L922.83 470.668Z" fill="#DBCCB1"/>
<path opacity="0.91" d="M880.764 513.184C877.739 516.185 873.651 516.905 871.617 514.797C869.595 512.706 870.401 508.568 873.419 505.594C876.436 502.62 880.514 501.883 882.54 503.96C884.566 506.038 883.774 510.179 880.764 513.184Z" fill="#DBCCB1"/>
<path opacity="0.77" d="M837.934 554.862C834.852 557.79 830.732 558.401 828.72 556.213C826.708 554.024 827.587 549.906 830.655 546.974C833.733 544.059 837.843 543.431 839.858 545.606C841.873 547.781 841.02 551.921 837.938 554.849L837.934 554.862Z" fill="#DBCCB1"/>
<path opacity="0.65" d="M794.21 595.532C791.182 598.316 787.148 598.777 785.23 596.585C783.312 594.393 784.204 590.393 787.229 587.622C790.253 584.851 794.273 584.385 796.198 586.551C798.124 588.716 797.238 592.747 794.21 595.532Z" fill="#DBCCB1"/>
<path opacity="0.5" d="M749.741 635.25C746.76 637.86 742.849 638.211 741.006 636.025C739.163 633.838 740.084 629.96 743.055 627.333C746.032 624.736 749.933 624.368 751.78 626.542C753.626 628.715 752.715 632.61 749.745 635.237L749.741 635.25Z" fill="#DBCCB1"/>
<path opacity="0.44" d="M704.62 674.079C701.704 676.563 697.904 676.785 696.14 674.591C694.376 672.397 695.312 668.638 698.221 666.181C701.13 663.724 704.919 663.484 706.69 665.652C708.461 667.819 707.537 671.595 704.62 674.079Z" fill="#DBCCB1"/>
<path opacity="0.42" d="M658.993 712.099C656.034 714.514 652.216 714.631 650.47 712.37C648.724 710.109 649.696 706.331 652.648 703.943C655.6 701.555 659.411 701.407 661.16 703.655C662.913 705.889 661.942 709.667 658.993 712.099Z" fill="#DBCCB1"/>
<path opacity="0.94" d="M612.567 748.91C609.791 751.1 606.232 751.114 604.615 748.945C602.998 746.775 603.944 743.264 606.727 741.103C609.499 738.926 613.048 738.895 614.668 741.051C616.278 743.19 615.342 746.719 612.567 748.91Z" fill="#DBCCB1"/>
<path opacity="0.53" d="M1165.17 241.376C1162.32 245.372 1158.06 247.151 1155.65 245.39C1153.25 243.615 1153.61 238.97 1156.46 235.017C1159.3 231.048 1163.54 229.247 1165.95 230.995C1168.36 232.743 1168.02 237.41 1165.18 241.406L1165.17 241.376Z" fill="#DBCCB1"/>
<path opacity="0.83" d="M1129.12 290.527C1126.17 294.439 1121.82 296.081 1119.43 294.208C1117.04 292.336 1117.51 287.69 1120.45 283.792C1123.4 279.923 1127.72 278.244 1130.12 280.089C1132.51 281.935 1132.07 286.602 1129.12 290.514L1129.12 290.527Z" fill="#DBCCB1"/>
<path opacity="0.43" d="M1091.77 338.649C1088.72 342.49 1084.31 343.971 1081.93 342.001C1079.55 340.03 1080.11 335.368 1083.15 331.566C1086.21 327.769 1090.59 326.25 1092.97 328.194C1095.36 330.137 1094.82 334.821 1091.77 338.649Z" fill="#DBCCB1"/>
<path opacity="0.42" d="M1053.08 385.68C1050.02 389.319 1045.68 390.646 1043.39 388.641C1041.1 386.637 1041.72 382.091 1044.77 378.466C1047.83 374.854 1052.16 373.51 1054.44 375.484C1056.74 377.461 1056.13 382.011 1053.08 385.68Z" fill="#DBCCB1"/>
<path opacity="0.37" d="M1013.37 431.822C1010.23 435.38 1005.83 436.577 1003.55 434.475C1001.28 432.39 1001.98 427.823 1005.12 424.278C1008.27 420.733 1012.65 419.546 1014.93 421.604C1017.2 423.663 1016.52 428.251 1013.37 431.822Z" fill="#DBCCB1"/>
<path opacity="0.45" d="M972.61 477.001C969.391 480.496 964.936 481.549 962.676 479.367C960.417 477.184 961.203 472.609 964.429 469.145C967.641 465.677 972.082 464.62 974.338 466.759C976.605 468.915 975.83 473.506 972.61 477.001Z" fill="#DBCCB1"/>
<path opacity="0.37" d="M930.752 521.14C927.551 524.453 923.186 525.343 921.02 523.157C918.843 520.953 919.686 516.508 922.884 513.209C926.077 509.923 930.421 508.998 932.601 511.188C934.782 513.379 933.964 517.844 930.763 521.157L930.752 521.14Z" fill="#DBCCB1"/>
<path opacity="0.36" d="M888.106 564.432C884.844 567.685 880.436 568.45 878.284 566.152C876.129 563.868 877.037 559.412 880.295 556.172C883.55 552.945 887.944 552.177 890.095 554.417C892.254 556.688 891.371 561.165 888.099 564.401L888.106 564.432Z" fill="#DBCCB1"/>
<path opacity="0.77" d="M844.512 606.67C841.283 609.746 836.99 610.369 834.917 608.063C832.845 605.758 833.781 601.424 837.007 598.362C840.229 595.314 844.515 594.661 846.591 596.952C848.671 599.231 847.742 603.595 844.526 606.674L844.512 606.67Z" fill="#DBCCB1"/>
<path opacity="0.38" d="M800.165 647.988C796.993 650.907 792.798 651.398 790.804 649.085C788.81 646.772 789.775 642.561 792.944 639.656C796.112 636.751 800.293 636.256 802.29 638.556C804.288 640.856 803.333 645.083 800.161 648.002L800.165 647.988Z" fill="#DBCCB1"/>
<path opacity="0.43" d="M755.117 688.375C752.002 691.137 747.919 691.499 746.004 689.178C744.089 686.857 745.079 682.783 748.19 680.035C751.3 677.287 755.37 676.921 757.292 679.214C759.21 681.522 758.231 685.614 755.117 688.375Z" fill="#DBCCB1"/>
<path opacity="0.63" d="M709.448 727.861C706.392 730.465 702.43 730.716 700.594 728.388C698.759 726.06 699.759 722.117 702.812 719.526C705.865 716.935 709.823 716.698 711.655 718.982C713.487 721.266 712.505 725.257 709.448 727.861Z" fill="#DBCCB1"/>
<path opacity="0.72" d="M1177.29 288.667C1174.29 292.824 1169.85 294.672 1167.38 292.807C1164.92 290.929 1165.36 286.077 1168.34 281.929C1171.33 277.799 1175.75 275.93 1178.22 277.781C1180.69 279.633 1180.28 284.523 1177.28 288.68L1177.29 288.667Z" fill="#DBCCB1"/>
<path opacity="0.47" d="M1140.41 338.505C1137.31 342.591 1132.79 344.288 1130.34 342.299C1127.88 340.323 1128.42 335.453 1131.52 331.394C1134.61 327.334 1139.1 325.629 1141.57 327.578C1144.03 329.528 1143.51 334.418 1140.41 338.505Z" fill="#DBCCB1"/>
<path opacity="0.89" d="M1102.26 387.336C1099.05 391.338 1094.47 392.888 1092.03 390.801C1089.58 388.727 1090.22 383.84 1093.42 379.865C1096.62 375.907 1101.18 374.319 1103.62 376.379C1106.06 378.422 1105.46 383.334 1102.26 387.336Z" fill="#DBCCB1"/>
<path opacity="0.74" d="M1062.9 435.156C1059.6 439.074 1054.95 440.462 1052.53 438.295C1050.11 436.128 1050.83 431.233 1054.12 427.342C1057.42 423.451 1062.05 422.041 1064.47 424.182C1066.9 426.322 1066.2 431.251 1062.9 435.156Z" fill="#DBCCB1"/>
<path opacity="0.6" d="M1022.44 481.995C1019.05 485.832 1014.34 487.091 1011.94 484.812C1009.53 482.547 1010.35 477.635 1013.73 473.825C1017.11 470.014 1021.8 468.735 1024.21 470.986C1026.62 473.225 1025.83 478.157 1022.44 481.995Z" fill="#DBCCB1"/>
<path opacity="0.31" d="M980.961 527.866C977.486 531.623 972.725 532.725 970.344 530.366C967.963 528.007 968.846 523.071 972.31 519.354C975.778 515.623 980.516 514.487 982.905 516.819C985.294 519.152 984.435 524.109 980.964 527.853L980.961 527.866Z" fill="#DBCCB1"/>
<path opacity="0.67" d="M938.404 572.669C934.962 576.248 930.288 577.2 927.978 574.803C925.679 572.423 926.609 567.599 930.055 564.064C933.501 560.529 938.15 559.556 940.456 561.909C942.762 564.262 941.846 569.09 938.404 572.669Z" fill="#DBCCB1"/>
<path opacity="0.71" d="M895.106 616.667C891.592 620.169 886.879 620.981 884.595 618.49C882.31 615.999 883.312 611.195 886.819 607.719C890.326 604.244 895.014 603.41 897.309 605.861C899.6 608.325 898.609 613.147 895.095 616.649L895.106 616.667Z" fill="#DBCCB1"/>
<path opacity="0.86" d="M850.896 659.588C847.425 662.929 842.817 663.582 840.615 661.07C838.41 658.572 839.444 653.876 842.918 650.579C846.392 647.281 850.979 646.593 853.188 649.079C855.397 651.564 854.377 656.263 850.907 659.605L850.896 659.588Z" fill="#DBCCB1"/>
<path opacity="0.94" d="M805.966 701.602C802.542 704.769 798.038 705.263 795.922 702.774C793.8 700.255 794.858 695.695 798.275 692.555C801.691 689.414 806.174 688.885 808.304 691.378C810.434 693.871 809.382 698.461 805.962 701.615L805.966 701.602Z" fill="#DBCCB1"/>
<path opacity="0.65" d="M760.377 742.677C757.014 745.674 752.622 746.039 750.585 743.543C748.542 741.015 749.615 736.575 752.984 733.608C756.343 730.625 760.725 730.242 762.761 732.739C764.812 735.239 763.746 739.71 760.384 742.707L760.377 742.677Z" fill="#DBCCB1"/>
<path opacity="0.83" d="M1189.02 337.01C1185.79 341.464 1181.04 343.418 1178.45 341.39C1175.86 339.362 1176.38 334.145 1179.61 329.704C1182.84 325.277 1187.55 323.302 1190.14 325.299C1192.74 327.3 1192.25 332.556 1189.02 337.01Z" fill="#DBCCB1"/>
<path opacity="0.43" d="M1151.34 387.567C1148 391.933 1143.17 393.722 1140.59 391.583C1138.01 389.444 1138.64 384.209 1141.98 379.87C1145.32 375.531 1150.12 373.721 1152.7 375.833C1155.29 377.944 1154.69 383.201 1151.34 387.567Z" fill="#DBCCB1"/>
<path opacity="0.59" d="M1112.39 437.091C1108.94 441.372 1104.04 442.996 1101.48 440.76C1098.91 438.524 1099.63 433.258 1103.08 429.02C1106.53 424.782 1111.4 423.12 1113.96 425.312C1116.54 427.522 1115.84 432.795 1112.38 437.073L1112.39 437.091Z" fill="#DBCCB1"/>
<path opacity="0.44" d="M1072.29 485.619C1068.74 489.817 1063.78 491.28 1061.23 488.95C1058.68 486.602 1059.5 481.333 1063.05 477.179C1066.59 473.008 1071.52 471.507 1074.08 473.827C1076.64 476.148 1075.85 481.439 1072.29 485.619Z" fill="#DBCCB1"/>
<path opacity="0.78" d="M1031.1 533.149C1027.46 537.249 1022.45 538.6 1019.91 536.128C1017.38 533.686 1018.28 528.396 1021.92 524.323C1025.56 520.25 1030.54 518.892 1033.09 521.31C1035.63 523.724 1034.75 529.036 1031.1 533.136L1031.1 533.149Z" fill="#DBCCB1"/>
<path opacity="0.81" d="M988.792 579.595C985.167 583.512 980.227 584.652 977.784 582.176C975.331 579.684 976.301 574.54 979.916 570.662C983.535 566.771 988.45 565.61 990.903 568.046C993.356 570.481 992.418 575.677 988.792 579.595Z" fill="#DBCCB1"/>
<path opacity="0.3" d="M945.589 625.089C941.995 628.829 937.145 629.806 934.775 627.292C932.405 624.778 933.417 619.761 937.007 616.035C940.604 612.339 945.429 611.341 947.796 613.811C950.162 616.281 949.182 621.349 945.589 625.089Z" fill="#DBCCB1"/>
<path opacity="0.95" d="M901.671 669.778C898.006 673.442 893.12 674.265 890.771 671.671C888.426 669.063 889.493 664.017 893.151 660.381C896.808 656.744 901.673 655.886 904.025 658.467C906.377 661.048 905.321 666.111 901.66 669.761L901.671 669.778Z" fill="#DBCCB1"/>
<path opacity="0.53" d="M856.888 713.413C853.27 716.902 848.485 717.58 846.222 714.952C843.956 712.336 845.055 707.399 848.666 703.937C852.277 700.475 857.047 699.793 859.32 702.381C861.59 704.983 860.506 709.924 856.891 713.399L856.888 713.413Z" fill="#DBCCB1"/>
<path opacity="0.69" d="M811.421 756.101C807.853 759.402 803.183 759.939 800.989 757.285C798.795 754.631 799.915 749.844 803.479 746.556C807.043 743.268 811.698 742.728 813.889 745.338C816.08 747.947 814.977 752.782 811.41 756.084L811.421 756.101Z" fill="#DBCCB1"/>
<path opacity="0.49" d="M1237.43 334.015C1234.08 338.867 1229.12 341.095 1226.39 339.015C1223.65 336.936 1224.16 331.339 1227.5 326.527C1230.85 321.701 1235.77 319.449 1238.51 321.502C1241.25 323.554 1240.77 329.159 1237.43 334.015Z" fill="#DBCCB1"/>
<path opacity="0.82" d="M1200.41 386.435C1196.84 391.318 1191.67 393.43 1188.88 391.177C1186.08 388.923 1186.72 383.188 1190.28 378.363C1193.85 373.537 1198.98 371.386 1201.77 373.596C1204.57 375.823 1203.97 381.565 1200.4 386.448L1200.41 386.435Z" fill="#DBCCB1"/>
<path opacity="0.54" d="M1161.8 437.591C1158.21 442.25 1153.08 444.144 1150.36 441.825C1147.65 439.507 1148.37 433.896 1151.97 429.281C1155.56 424.649 1160.66 422.747 1163.37 425.008C1166.09 427.27 1165.4 432.918 1161.8 437.577L1161.8 437.591Z" fill="#DBCCB1"/>
<path opacity="0.56" d="M1122.09 487.817C1118.39 492.375 1113.19 494.122 1110.49 491.692C1107.79 489.262 1108.62 483.651 1112.32 479.121C1116.02 474.59 1121.19 472.836 1123.89 475.208C1126.59 477.58 1125.8 483.246 1122.09 487.817Z" fill="#DBCCB1"/>
<path opacity="0.56" d="M1081.25 537.04C1077.44 541.513 1072.17 543.082 1069.5 540.558C1066.82 538.035 1067.74 532.403 1071.54 527.956C1075.34 523.51 1080.58 521.934 1083.26 524.417C1085.95 526.914 1085.07 532.584 1081.26 537.057L1081.25 537.04Z" fill="#DBCCB1"/>
<path opacity="0.31" d="M1039.36 585.29C1035.47 589.683 1030.14 591.077 1027.48 588.443C1024.81 585.808 1025.82 580.142 1029.71 575.807C1033.59 571.441 1038.9 570.025 1041.57 572.633C1044.24 575.241 1043.26 580.914 1039.37 585.307L1039.36 585.29Z" fill="#DBCCB1"/>
<path opacity="0.67" d="M996.412 632.464C992.531 636.644 987.289 637.875 984.703 635.189C982.118 632.503 983.189 626.984 987.052 622.814C990.926 618.66 996.142 617.407 998.735 620.067C1001.32 622.709 1000.28 628.266 996.412 632.464Z" fill="#DBCCB1"/>
<path opacity="0.31" d="M952.583 678.658C948.734 682.66 943.575 683.698 941.076 680.977C938.576 678.256 939.676 672.86 943.532 668.889C947.373 664.913 952.507 663.854 955.017 666.535C957.527 669.215 956.435 674.642 952.586 678.644L952.583 678.658Z" fill="#DBCCB1"/>
<path opacity="0.38" d="M907.971 723.925C904.159 727.736 899.093 728.598 896.677 725.856C894.26 723.114 895.391 717.827 899.207 714.061C903.013 710.277 908.056 709.38 910.48 712.095C912.904 714.81 911.784 720.115 907.971 723.925Z" fill="#DBCCB1"/>
<path opacity="0.52" d="M862.657 768.282C858.891 771.918 853.93 772.621 851.596 769.858C849.262 767.095 850.418 761.944 854.18 758.321C857.939 754.712 862.874 753.987 865.219 756.71C867.561 759.446 866.415 764.614 862.649 768.251L862.657 768.282Z" fill="#DBCCB1"/>
<path opacity="0.82" d="M1249.16 383.688C1245.47 388.969 1240.08 391.382 1237.15 389.077C1234.21 386.772 1234.83 380.658 1238.51 375.434C1242.19 370.179 1247.54 367.755 1250.47 370.002C1253.42 372.267 1252.83 378.389 1249.15 383.701L1249.16 383.688Z" fill="#DBCCB1"/>
<path opacity="0.73" d="M1211.2 436.724C1207.38 441.913 1201.89 444.127 1198.97 441.711C1196.05 439.295 1196.78 433.154 1200.6 428.022C1204.41 422.89 1209.85 420.634 1212.78 423.01C1215.71 425.386 1215.01 431.535 1211.2 436.724Z" fill="#DBCCB1"/>
<path opacity="0.72" d="M1171.83 488.594C1167.98 493.559 1162.54 495.542 1159.7 493.06C1156.86 490.579 1157.68 484.593 1161.52 479.654C1165.36 474.729 1170.77 472.709 1173.62 475.15C1176.47 477.604 1175.68 483.615 1171.83 488.581L1171.83 488.594Z" fill="#DBCCB1"/>
<path opacity="0.57" d="M1131.38 539.546C1127.43 544.41 1121.9 546.227 1119.08 543.621C1116.25 541.029 1117.18 535.012 1121.13 530.175C1125.08 525.351 1130.57 523.495 1133.4 526.061C1136.23 528.627 1135.34 534.668 1131.39 539.532L1131.38 539.546Z" fill="#DBCCB1"/>
<path opacity="0.64" d="M1089.72 589.383C1085.75 594.044 1080.3 595.651 1077.55 592.993C1074.81 590.335 1075.81 584.453 1079.76 579.832C1083.71 575.212 1089.14 573.583 1091.89 576.184C1094.63 578.797 1093.67 584.704 1089.71 589.365L1089.72 589.383Z" fill="#DBCCB1"/>
<path opacity="0.75" d="M1047.16 638.336C1043.12 642.903 1037.6 644.349 1034.87 641.581C1032.14 638.812 1033.22 632.908 1037.27 628.385C1041.32 623.862 1046.8 622.378 1049.54 625.12C1052.27 627.844 1051.22 633.786 1047.16 638.336Z" fill="#DBCCB1"/>
<path opacity="0.64" d="M1003.58 686.191C999.543 690.546 994.121 691.816 991.464 688.995C988.818 686.192 989.946 680.402 993.975 676.074C998.004 671.746 1003.41 670.472 1006.05 673.231C1008.71 676.008 1007.6 681.819 1003.57 686.174L1003.58 686.191Z" fill="#DBCCB1"/>
<path opacity="0.72" d="M959.181 733.127C955.178 737.304 949.843 738.367 947.283 735.529C944.712 732.674 945.89 727.041 949.883 722.905C953.879 718.755 959.189 717.671 961.771 720.485C964.338 723.296 963.195 728.968 959.192 733.144L959.181 733.127Z" fill="#DBCCB1"/>
<path opacity="0.52" d="M1297.67 379.41C1293.88 385.138 1288.28 387.855 1285.2 385.512C1282.13 383.168 1282.72 376.675 1286.51 371.005C1290.3 365.335 1295.84 362.558 1298.92 364.875C1302 367.161 1301.46 373.696 1297.67 379.424L1297.67 379.41Z" fill="#DBCCB1"/>
<path opacity="0.46" d="M1260.3 434.269C1256.37 439.887 1250.66 442.402 1247.6 439.934C1244.53 437.449 1245.26 430.963 1249.19 425.402C1253.12 419.841 1258.78 417.285 1261.85 419.712C1264.92 422.14 1264.25 428.685 1260.31 434.286L1260.3 434.269Z" fill="#DBCCB1"/>
<path opacity="0.41" d="M1221.56 488.021C1217.49 493.531 1211.69 495.863 1208.64 493.254C1205.58 490.657 1206.43 484.145 1210.49 478.676C1214.56 473.224 1220.31 470.849 1223.37 473.419C1226.44 475.988 1225.63 482.526 1221.56 488.021Z" fill="#DBCCB1"/>
<path opacity="0.34" d="M1181.43 540.606C1177.33 545.892 1171.57 547.962 1168.59 545.301C1165.62 542.626 1166.55 536.251 1170.64 531.006C1174.74 525.779 1180.46 523.653 1183.43 526.27C1186.41 528.905 1185.52 535.318 1181.42 540.589L1181.43 540.606Z" fill="#DBCCB1"/>
<path opacity="0.61" d="M1140.28 592.286C1136.07 597.47 1130.23 599.362 1127.27 596.576C1124.31 593.791 1125.35 587.385 1129.56 582.259C1133.77 577.133 1139.56 575.185 1142.53 577.931C1145.5 580.676 1144.5 587.12 1140.28 592.286Z" fill="#DBCCB1"/>
<path opacity="0.72" d="M1309.15 430.258C1305.1 436.319 1299.2 439.155 1295.99 436.649C1292.78 434.125 1293.48 427.23 1297.53 421.24C1301.56 415.233 1307.42 412.341 1310.64 414.807C1313.85 417.273 1313.2 424.197 1309.16 430.275L1309.15 430.258Z" fill="#DBCCB1"/>
</svg>
