<svg width="207" height="236" viewBox="0 0 207 236" fill="none" xmlns="http://www.w3.org/2000/svg">
<g opacity="0.2">
<path d="M64.9552 180.87C63.0489 182.977 58.9399 183.05 55.7926 179.878C52.9359 176.995 52.4886 173.16 54.7975 170.78C57.2125 168.288 61.3997 169.219 63.9713 171.8C66.8 174.637 67.1522 178.919 64.9552 180.876" fill="#A2FF48"/>
<path d="M41.3809 157.166C44.1816 154.373 48.2682 153.91 50.4652 156.184C52.4778 158.269 52.5728 162.055 49.4645 165.199C46.4066 168.293 42.5157 168.349 40.369 166.241C38.1105 164.028 38.5745 159.97 41.3809 157.166Z" fill="#A2FF48"/>
<path d="M49.3073 150.576C46.4785 153.375 42.5988 153.771 40.3683 151.479C38.2048 149.261 38.6464 145.28 41.3801 142.576C43.9517 140.029 47.9656 139.17 50.375 141.606C52.8516 144.109 51.8285 148.229 49.3073 150.576Z" fill="#A2FF48"/>
<path d="M49.3187 121.269C46.8198 123.901 42.6661 124.531 40.4244 122.251C38.2274 120.015 38.6187 116.135 41.4083 113.342C44.3153 110.432 48.2118 110.175 50.392 112.372C52.7288 114.724 51.8735 118.906 49.3187 121.269Z" fill="#A2FF48"/>
<path d="M49.2911 135.92C46.5071 138.68 42.6609 139.053 40.408 136.851C38.619 135.101 38.1159 131.265 41.4254 127.954C44.3995 124.977 48.2736 124.804 50.398 127.023C52.8577 129.593 51.7341 133.623 49.2855 135.92" fill="#A2FF48"/>
<path d="M40.4475 107.756C38.4294 105.899 38.4238 101.925 41.4314 98.864C43.7403 96.5114 47.7709 95.3295 50.3705 97.9831C52.9588 100.626 51.55 104.712 49.3251 106.847C46.5075 109.545 42.6613 109.986 40.4531 107.756" fill="#A2FF48"/>
<path d="M50.3479 83.3437C52.4052 85.2113 52.2822 89.3423 49.3529 92.2133C46.5521 94.9561 42.7338 95.3798 40.4697 93.2056C38.3845 91.1987 38.4572 87.196 41.4704 84.2413C44.6066 81.1584 48.5702 81.3647 50.3479 83.3493" fill="#A2FF48"/>
<path d="M50.3582 170.946C52.5329 173.143 52.0744 177.14 49.3352 179.849C47.0487 182.107 43.0404 183.412 40.4297 180.775C38.1488 178.472 38.719 174.682 41.4583 171.85C44.1193 169.101 48.1724 168.739 50.3582 170.946Z" fill="#A2FF48"/>
<path d="M55.9823 165.127C53.3157 162.562 52.7957 158.532 54.9592 156.324C56.8208 154.423 60.7173 154.25 63.7697 157.283C66.7885 160.282 66.7214 164.162 64.7815 166.085C62.5957 168.249 58.7104 167.836 55.9823 165.121" fill="#A2FF48"/>
<path d="M49.2744 77.4511C47.178 79.748 43.0691 81.019 40.5143 78.4267C38.1887 76.0686 39.0608 72.1662 41.5374 69.7188C44.2319 67.0596 48.0949 66.6248 50.236 68.7711C52.4498 70.9843 51.874 75.0038 49.2744 77.4511Z" fill="#A2FF48"/>
<path d="M69.7743 180.558C67.6555 178.584 68.0413 174.721 70.6632 172.067C73.2906 169.408 77.1424 168.99 79.2723 171.086C81.1004 172.887 81.3296 176.65 78.2661 179.688C75.4541 182.47 71.6415 182.598 69.7743 180.563" fill="#A2FF48"/>
<path d="M64.4855 151.151C62.473 153.336 58.5597 152.639 56.1838 150.236C53.629 147.65 53.3551 143.926 55.2558 141.997C57.1957 140.034 60.8574 140.185 63.5687 142.844C66.1682 145.397 66.5428 149.088 64.4855 151.151Z" fill="#A2FF48"/>
<path d="M63.5134 186.863C65.839 189.059 66.5658 192.9 64.3743 195.052C62.5742 196.814 59.0914 196.925 56.2459 194.104C53.5905 191.468 53.3948 187.866 55.385 185.915C57.5261 183.819 61.3388 184.56 63.5134 186.863Z" fill="#A2FF48"/>
<path d="M63.5077 128.316C66.001 130.808 66.4594 134.448 64.4245 136.439C62.2722 138.54 58.8173 138.072 56.3017 135.574C53.2214 132.514 53.7357 128.94 55.3793 127.374C57.4365 125.423 60.9976 125.802 63.5077 128.316Z" fill="#A2FF48"/>
<path d="M64.368 121.81C62.6349 123.666 58.9062 123.577 56.2675 120.862C53.7462 118.264 53.3773 114.853 55.4066 112.779C57.4135 110.727 61.1703 111.313 63.5238 113.71C66.0059 116.241 66.3973 119.798 64.368 121.81Z" fill="#A2FF48"/>
<path d="M56.3121 106.424C53.7126 103.943 53.4163 100.241 55.3562 98.3179C57.3631 96.3277 60.9913 96.7235 63.4846 99.2099C65.9835 101.702 66.3972 105.331 64.4182 107.338C62.4224 109.35 58.8446 108.949 56.3121 106.424Z" fill="#A2FF48"/>
<path d="M56.2787 91.8176C53.7631 89.2866 53.3717 85.7354 55.3899 83.7173C57.3521 81.7494 61.0417 82.1842 63.5239 84.6762C65.9948 87.157 66.3917 90.8085 64.3904 92.7876C62.4729 94.6886 58.8 94.4489 56.2787 91.8176Z" fill="#A2FF48"/>
<path d="M70.9366 186.913C73.4691 184.376 76.9966 183.975 79.0203 186.004C81.0329 188.022 80.6248 191.579 78.0923 194.093C75.599 196.568 72.0771 196.959 70.0757 194.985C68.0296 192.962 68.4042 189.455 70.9366 186.913Z" fill="#A2FF48"/>
<path d="M84.7231 171.365C86.6071 169.313 90.4533 169.915 92.7286 172.268C95.2051 174.827 95.6356 178.383 93.6174 180.368C91.6217 182.336 87.9656 181.884 85.489 179.353C82.951 176.761 82.7609 173.098 84.7231 171.365Z" fill="#A2FF48"/>
<path d="M92.7731 186.986C95.1714 189.416 95.5739 193.012 93.6284 194.913C91.683 196.814 88.2449 196.658 85.6118 194.015C82.9844 191.384 82.8334 187.95 84.7565 186.01C86.7131 184.031 90.3078 184.483 92.7731 186.98" fill="#A2FF48"/>
<path d="M64.2619 78.0143C62.3052 79.96 58.7777 79.5642 56.3347 77.1224C53.8917 74.675 53.5172 71.1852 55.4962 69.2173C57.4919 67.2382 60.93 67.6229 63.3954 70.1092C65.8551 72.59 66.2353 76.052 64.2619 78.0143Z" fill="#A2FF48"/>
<path d="M99.4652 180.223C97.4582 178.244 97.8272 174.816 100.304 172.335C102.752 169.882 106.28 169.492 108.231 171.448C110.143 173.366 109.763 176.895 107.381 179.298C104.927 181.773 101.45 182.18 99.4652 180.223Z" fill="#A2FF48"/>
<path d="M100.337 186.974C102.383 184.834 105.944 183.869 108.18 186.043C110.54 188.335 109.449 191.936 107.314 194.038C104.877 196.435 101.232 196.842 99.3812 194.829C97.3016 192.566 98.129 189.121 100.332 186.974" fill="#A2FF48"/>
<path d="M41.0846 63.2857C38.977 61.4181 39.6423 57.6997 41.8785 55.5032C44.355 53.0726 47.726 52.6378 49.6938 54.5667C51.6784 56.5123 51.3318 60.069 48.8944 62.4606C46.4626 64.8467 42.8568 65.2703 41.0846 63.2801" fill="#A2FF48"/>
<path d="M49.6712 186.194C51.6055 188.117 51.2309 191.507 48.8215 193.915C46.4176 196.318 43.0354 196.669 41.0844 194.763C39.5861 193.291 39.1221 190.024 41.9229 187.097C44.2317 184.683 47.7649 184.299 49.6656 186.194" fill="#A2FF48"/>
<path d="M121.837 187.108C124.034 189.171 124.722 192.655 122.704 194.729C120.87 196.613 117.393 196.167 115.062 193.815C112.91 191.646 112.233 188.284 114.223 186.261C116.208 184.243 119.719 184.867 121.843 187.103" fill="#A2FF48"/>
<path d="M122.642 180.061C120.752 181.912 117.437 181.539 115.112 179.203C112.993 177.073 112.166 173.695 114.307 171.593C116.437 169.497 119.903 170.434 121.932 172.558C124.207 174.933 124.537 178.199 122.636 180.061" fill="#A2FF48"/>
<path d="M34.057 113.994C36.3546 116.297 36.7124 119.586 34.8676 121.42C33.0395 123.243 29.702 122.864 27.4212 120.578C25.1403 118.292 24.7825 114.981 26.6218 113.147C28.4554 111.313 31.7537 111.692 34.0514 113.994" fill="#A2FF48"/>
<path d="M34.8338 106.931C33.0617 108.837 29.6459 108.347 27.421 106.1C25.2016 103.859 24.7879 100.536 26.6495 98.68C28.4328 96.9072 31.7871 97.2194 34.0791 99.5329C36.3432 101.819 36.729 105.225 34.8338 106.931Z" fill="#A2FF48"/>
<path d="M34.8515 150.665C33.0402 152.65 29.5015 151.97 27.433 149.846C25.2807 147.638 24.649 144.371 26.6392 142.415C28.7076 140.38 32.0004 141.183 34.0744 143.268C36.4615 145.665 36.6628 149.06 34.8515 150.671" fill="#A2FF48"/>
<path d="M34.0743 157.941C36.2769 160.137 36.7744 163.421 34.8513 165.372C33.0512 167.195 29.6634 166.749 27.3882 164.48C25.3197 162.417 24.6992 158.961 26.639 157.054C28.3609 155.36 31.7151 155.527 34.0687 157.941" fill="#A2FF48"/>
<path d="M34.8733 136.032C33.034 137.866 29.7245 137.503 27.4436 135.218C25.1628 132.938 24.7938 129.598 26.6163 127.775C28.4443 125.952 31.7594 126.326 34.0571 128.612C36.3603 130.903 36.7181 134.186 34.8733 136.026" fill="#A2FF48"/>
<path d="M34.8345 92.3082C33.1685 94.2315 29.6354 93.7576 27.416 91.4943C25.1408 89.1751 24.8948 85.8246 26.6558 84.1355C28.5621 82.3125 31.7709 82.6581 34.091 84.9828C36.3047 87.2016 36.7296 90.6469 34.8345 92.3082Z" fill="#A2FF48"/>
<path d="M70.4397 165.221C68.9303 163.867 68.6229 160.578 71.3286 157.879C73.5927 155.621 76.8519 155.365 78.652 157.216C80.3906 159.005 80.0216 162.361 77.7743 164.491C74.9847 167.134 71.787 166.782 70.4341 165.221" fill="#A2FF48"/>
<path d="M33.9515 70.388C36.0423 72.3559 36.7746 75.6116 34.7845 77.613C32.8223 79.5864 29.6134 78.8729 27.5393 76.8213C25.3367 74.6416 24.9174 71.4193 26.7176 69.574C28.3555 67.896 31.6539 67.9852 33.9515 70.388Z" fill="#A2FF48"/>
<path d="M26.7731 171.894C28.372 170.06 31.7933 170.501 33.8953 172.641C36.1314 174.922 36.5116 178.083 34.6947 179.861C32.917 181.606 29.7864 181.204 27.539 179.014C25.5824 177.107 24.8053 173.667 26.7787 171.894" fill="#A2FF48"/>
<path d="M56.7152 62.1204C54.4288 59.9351 54.2387 56.618 55.9493 54.9846C57.7215 53.2899 60.8912 53.6244 63.0435 55.7651C65.2685 57.9727 65.6039 61.1169 63.8485 62.9232C62.0093 64.8186 58.5936 64.1775 56.7096 62.1204" fill="#A2FF48"/>
<path d="M33.6097 56.0438C35.6781 58.0897 36.0024 60.9441 34.3532 62.5775C32.7432 64.1775 29.8921 63.8708 27.8851 61.8862C25.8502 59.8793 25.4868 56.9079 27.1416 55.3358C29.0032 53.5686 31.8319 54.2431 33.6097 56.0438Z" fill="#A2FF48"/>
<path d="M130.284 187.582C132.297 185.586 135.154 185.269 136.741 186.88C138.279 188.441 138.184 191.172 136.054 193.346C133.991 195.448 131.084 195.671 129.502 194.049C127.914 192.427 128.272 189.589 130.29 187.582" fill="#A2FF48"/>
<path d="M130.29 172.948C132.308 170.941 135.12 170.646 136.747 172.246C138.306 173.79 138.15 176.605 136.053 178.707C133.879 180.892 131.028 181.004 129.496 179.415C127.908 177.77 128.26 174.899 130.29 172.943" fill="#A2FF48"/>
<path d="M33.5035 187.777C35.3372 189.628 35.639 192.393 34.18 193.881C32.7209 195.37 29.8083 195.047 27.9802 193.185C26.1522 191.323 25.8503 188.552 27.3206 187.075C28.8244 185.564 31.6307 185.882 33.5035 187.777Z" fill="#A2FF48"/>
<path d="M85.7964 157.829C87.3114 156.324 90.0115 156.603 91.8899 158.465C93.4887 160.048 94.2881 162.885 92.5384 164.641C91.1184 166.063 88.2841 165.762 86.4448 163.911C84.5217 161.977 84.3708 159.122 85.7964 157.835" fill="#A2FF48"/>
<path d="M77.12 149.294C75.7448 150.772 72.916 151.703 71.1551 149.868C69.5954 148.241 69.9867 145.71 71.8706 143.87C74.0285 141.763 76.5666 141.869 77.9306 143.301C79.535 144.991 78.7748 147.828 77.1256 149.294" fill="#A2FF48"/>
<path d="M47.9548 46.9456C46.1491 48.7295 43.5663 49.0306 42.1408 47.5811C40.8214 46.2376 40.8103 43.7456 42.7725 41.761C44.6341 39.8711 47.1945 39.676 48.6703 41.1366C50.1071 42.5582 49.766 45.1561 47.9548 46.9456Z" fill="#A2FF48"/>
<path d="M100.645 164.391C99.247 162.997 99.5209 160.438 101.26 158.688C103.032 156.898 105.648 156.614 107.051 158.052C108.426 159.468 108.119 162.049 106.364 163.772C104.591 165.511 102.048 165.784 100.65 164.391" fill="#A2FF48"/>
<path d="M92.3425 208.253C91.0288 209.764 88.3342 209.357 86.6795 207.679C84.9073 205.878 84.611 203.453 85.9751 201.982C87.0372 200.833 89.497 200.371 91.7443 202.589C93.673 204.501 93.7177 207.032 92.3425 208.253Z" fill="#A2FF48"/>
<path d="M77.6844 201.948C79.1156 203.37 78.8416 205.806 77.0919 207.618C75.3644 209.413 72.7146 209.675 71.3338 208.265C70.0368 206.943 70.2045 204.368 72.0046 202.578C74.0116 200.588 76.6334 200.733 77.6844 201.948Z" fill="#A2FF48"/>
<path d="M100.706 208.265C99.0566 206.793 99.7778 204.067 101.254 202.606C103.015 200.861 105.53 200.555 106.95 201.943C108.37 203.336 108.13 205.89 106.38 207.618C104.407 209.575 101.846 209.575 100.706 208.265Z" fill="#A2FF48"/>
<path d="M57.4083 207.64C55.4181 205.828 55.5187 203.097 56.743 201.959C58.2077 200.594 60.6842 200.856 62.4564 202.623C64.0496 204.206 64.4801 206.782 63.0825 208.248C61.7464 209.647 58.9624 209.385 57.4083 207.64Z" fill="#A2FF48"/>
<path d="M71.4292 134.978C70.0819 133.623 70.3558 131.131 72.0609 129.464C73.7939 127.775 76.1754 127.407 77.5842 128.829C79.1327 130.395 78.5849 132.72 77.0308 134.342C75.3592 136.093 72.8044 136.36 71.4292 134.978Z" fill="#A2FF48"/>
<path d="M120.898 202.706C122.609 204.418 122.883 206.843 121.519 208.198C120.16 209.547 117.717 209.268 116.018 207.568C114.302 205.856 114.044 203.47 115.425 202.093C116.817 200.705 119.16 200.967 120.898 202.706Z" fill="#A2FF48"/>
<path d="M77.5392 99.7506C78.9256 101.122 78.6964 103.502 77.0081 105.236C75.3422 106.948 72.888 107.238 71.5072 105.894C70.1207 104.545 70.3555 102.142 72.0438 100.414C73.7154 98.7026 76.1751 98.4071 77.5392 99.7562" fill="#A2FF48"/>
<path d="M76.9411 119.781C75.2192 121.448 72.7427 121.687 71.4401 120.316C70.1208 118.928 70.4283 116.447 72.1221 114.802C73.8328 113.141 76.3261 112.89 77.6175 114.273C78.9704 115.722 78.6461 118.019 76.9411 119.786" fill="#A2FF48"/>
<path d="M71.4678 91.2658C70.115 89.8999 70.4113 87.4191 72.1219 85.7578C73.8605 84.0687 76.2532 83.8512 77.6173 85.2617C78.9198 86.6108 78.6291 89.0637 76.9744 90.6971C75.2525 92.3975 72.8375 92.6428 71.4678 91.2602" fill="#A2FF48"/>
<path d="M121.502 164.212C120.133 165.584 117.701 165.305 116.007 163.582C114.363 161.916 114.106 159.49 115.431 158.164C116.79 156.798 119.221 157.088 120.932 158.816C122.598 160.494 122.844 162.869 121.497 164.212" fill="#A2FF48"/>
<path d="M72.1501 71.2409C73.5142 69.7078 76.0578 69.2284 77.461 70.5719C78.8697 71.9154 78.607 74.3126 76.874 76.0241C75.236 77.6408 72.8713 77.9139 71.5519 76.6262C70.2047 75.3161 70.473 72.9133 72.1445 71.2409" fill="#A2FF48"/>
<path d="M62.8142 47.2913C61.5061 48.5847 59.0966 48.3226 57.4866 46.7059C55.871 45.0837 55.6138 42.6865 56.9108 41.382C58.2525 40.0329 60.6508 40.306 62.3055 42.0008C63.9211 43.6565 64.1448 45.9812 62.8142 47.2969" fill="#A2FF48"/>
<path d="M47.7481 207.456C46.0878 209.128 43.7957 209.391 42.4652 208.069C41.1403 206.754 41.3807 204.44 43.013 202.779C44.6175 201.145 47.0213 200.867 48.3239 202.166C49.6376 203.481 49.3861 205.811 47.7481 207.456Z" fill="#A2FF48"/>
<path d="M28.0591 41.5993C29.4623 40.3171 31.6146 40.7687 32.9954 42.2237C34.5048 43.8181 34.7005 45.8473 33.4426 47.0571C32.168 48.2891 30.1275 48.0996 28.5175 46.4327C26.941 44.8049 26.9019 42.8258 28.0591 41.5993Z" fill="#A2FF48"/>
<path d="M77.2091 56.3227C78.4334 57.5603 78.1818 59.5617 76.65 61.1282C75.3195 62.4829 73.1616 63.007 71.8311 61.6467C70.5453 60.331 70.9031 58.2795 72.3957 56.8189C74.0729 55.1687 76.0798 55.1687 77.2091 56.3227Z" fill="#A2FF48"/>
<path d="M130.514 207.679C129.368 206.508 129.63 204.513 131.056 203.035C132.146 201.904 134.377 201.129 135.785 202.573C136.898 203.71 136.585 205.895 135.165 207.25C133.706 208.644 131.643 208.839 130.514 207.679Z" fill="#A2FF48"/>
<path d="M131.062 159.156C132.51 157.695 134.506 157.472 135.696 158.599C136.781 159.619 136.865 161.67 135.188 163.309C133.807 164.658 131.951 165.071 130.531 163.805C129.351 162.757 129.642 160.583 131.056 159.156" fill="#A2FF48"/>
<path d="M13.568 163.711C12.4667 162.612 12.6959 160.494 14.0488 159.173C15.4408 157.818 17.5148 157.601 18.6049 158.699C19.7286 159.825 19.4323 161.877 18.0794 163.226C16.7489 164.552 14.6414 164.876 13.568 163.711Z" fill="#A2FF48"/>
<path d="M18.6167 144.098C19.746 145.152 19.4664 147.253 18.0856 148.614C16.7216 149.957 14.6699 150.219 13.5574 149.099C12.4785 148.006 12.7133 145.882 14.0829 144.539C15.3799 143.267 17.5545 142.888 18.6111 144.098" fill="#A2FF48"/>
<path d="M18.0407 133.986C16.7381 135.391 14.6306 135.569 13.5292 134.443C12.4671 133.356 12.7354 131.154 14.1106 129.877C15.5586 128.528 17.5096 128.333 18.6389 129.47C19.6172 130.457 19.578 132.642 18.0407 133.986Z" fill="#A2FF48"/>
<path d="M18.0858 104.824C16.7665 106.273 14.6477 106.435 13.5688 105.353C12.6687 104.45 12.3892 102.499 14.0719 100.816C15.7322 99.1543 17.6945 99.3995 18.6113 100.314C19.6902 101.379 19.5393 103.491 18.0858 104.824Z" fill="#A2FF48"/>
<path d="M18.1077 90.2284C16.8107 91.6611 14.7199 91.8953 13.5906 90.8026C12.4838 89.7267 12.6682 87.5971 14.0379 86.2647C15.62 84.7205 17.571 84.7706 18.5884 85.7295C19.5612 86.6494 19.673 88.779 18.1077 90.234" fill="#A2FF48"/>
<path d="M18.035 119.335C16.8219 120.701 14.6025 120.907 13.5403 119.764C12.344 118.477 12.8303 116.436 14.1105 115.232C15.6255 113.805 17.5151 113.721 18.6331 114.825C19.5891 115.767 19.617 117.941 18.0406 119.335" fill="#A2FF48"/>
<path d="M149.75 173.89C151.125 175.267 151.332 177.213 150.225 178.311C149.112 179.409 147.178 179.192 145.803 177.809C144.416 176.416 144.21 174.503 145.328 173.394C146.435 172.301 148.386 172.519 149.75 173.89Z" fill="#A2FF48"/>
<path d="M13.6183 76.0017C12.4946 74.8533 12.7294 72.9913 14.1773 71.5865C15.5525 70.2541 17.4421 70.0534 18.5378 71.1293C19.6447 72.2109 19.4155 74.1899 18.0346 75.5725C16.6594 76.9495 14.7251 77.139 13.6183 76.0017Z" fill="#A2FF48"/>
<path d="M149.717 188.491C151.103 189.856 151.343 191.813 150.264 192.917C149.174 194.032 147.229 193.842 145.842 192.482C144.45 191.111 144.21 189.165 145.3 188.056C146.39 186.941 148.341 187.136 149.717 188.491Z" fill="#A2FF48"/>
<path d="M18.085 177.748C16.7881 179.064 14.8091 179.303 13.7078 178.283C12.6176 177.269 12.8189 175.301 14.1494 173.946C15.4799 172.586 17.4086 172.352 18.4875 173.411C19.5777 174.481 19.3932 176.421 18.085 177.748Z" fill="#A2FF48"/>
<path d="M32.6431 203.337C33.8674 204.513 34.1861 206.403 33.0512 207.479C31.8269 208.638 29.9821 208.137 28.8025 206.871C27.5447 205.528 27.3994 203.76 28.4839 202.746C29.5572 201.742 31.335 201.993 32.6431 203.337Z" fill="#A2FF48"/>
<path d="M14.3341 57.2148C15.5528 55.9883 17.2635 55.7988 18.2697 56.7855C19.3095 57.8057 19.1418 59.3946 17.8952 60.6935C16.5535 62.0984 14.8205 62.1151 13.8757 61.1729C12.9085 60.2085 13.1322 58.4245 14.3341 57.2148Z" fill="#A2FF48"/>
<path d="M91.2519 148.636C90.3127 149.567 88.6412 149.383 87.4895 148.218C86.3379 147.053 86.159 145.392 87.0926 144.449C88.0038 143.524 89.6866 143.725 90.8605 144.895C92.0457 146.083 92.2134 147.683 91.2519 148.636Z" fill="#A2FF48"/>
<path d="M14.032 192.56C13.1096 191.641 13.3109 189.929 14.4737 188.792C15.5918 187.699 17.2689 187.521 18.1633 188.402C19.0857 189.31 18.8789 191.044 17.7217 192.17C16.5868 193.268 14.9209 193.447 14.032 192.56Z" fill="#A2FF48"/>
<path d="M72.558 46.3159C71.6524 45.5856 71.7195 43.9522 72.9382 42.6811C73.9389 41.633 75.739 41.4602 76.5272 42.3466C77.4999 43.4448 77.0639 44.9556 76.1079 45.9201C75.0066 47.035 73.296 47.2079 72.5636 46.3159" fill="#A2FF48"/>
<path d="M45.4114 27.1884C46.8984 27.194 47.9215 28.2532 47.8935 29.7695C47.8712 31.1744 46.7754 32.2503 45.3834 32.2336C43.9691 32.2169 42.8286 31.0406 42.8622 29.619C42.8901 28.2253 43.9858 27.1828 45.4114 27.1884Z" fill="#A2FF48"/>
<path d="M149.526 206.866C148.721 207.674 147.363 207.518 146.362 206.503C145.417 205.539 145.255 204.19 145.999 203.398C146.759 202.59 148.173 202.723 149.18 203.699C150.186 204.675 150.337 206.057 149.532 206.866" fill="#A2FF48"/>
<path d="M149.174 159.792C150.152 160.767 150.331 162.244 149.554 163.003C148.777 163.761 147.313 163.571 146.34 162.579C145.395 161.615 145.233 160.243 145.965 159.457C146.703 158.665 148.19 158.827 149.169 159.797" fill="#A2FF48"/>
<path d="M58.2351 27.9914C58.9115 27.3168 60.2644 27.4618 61.1476 28.3091C62.1148 29.2401 62.2825 30.5001 61.539 31.275C60.8346 32.0108 59.4593 31.8882 58.5537 31.0018C57.6928 30.1711 57.5419 28.6882 58.2351 27.9914Z" fill="#A2FF48"/>
<path d="M17.3474 45.686C16.4194 46.5835 15.1951 46.7006 14.4627 45.9591C13.7304 45.2177 13.8869 43.8351 14.8093 42.9655C15.715 42.1125 17.0175 41.9899 17.7219 42.6979C18.4655 43.4449 18.3033 44.755 17.3474 45.6804" fill="#A2FF48"/>
<path d="M105.094 147.817C104.16 148.77 102.975 148.904 102.226 148.14C101.516 147.416 101.617 146.239 102.466 145.336C103.316 144.439 104.675 144.249 105.385 144.929C106.134 145.648 106.011 146.88 105.094 147.811" fill="#A2FF48"/>
<path d="M74.493 221.75C73.4811 221.733 72.7376 220.802 72.7488 219.57C72.76 218.383 73.5818 217.419 74.5601 217.446C75.5272 217.474 76.3378 218.489 76.3154 219.654C76.2931 220.853 75.4992 221.767 74.4874 221.75" fill="#A2FF48"/>
<path d="M90.677 221.131C89.9615 221.828 88.726 221.706 87.8986 220.847C87.0768 220 86.965 218.729 87.6638 218.054C88.3738 217.368 89.6149 217.508 90.4534 218.366C91.3199 219.253 91.415 220.412 90.6826 221.126" fill="#A2FF48"/>
<path d="M59.8457 221.75C58.5376 221.739 57.6655 220.869 57.6822 219.587C57.699 218.383 58.6829 217.435 59.9128 217.446C61.0924 217.458 62.1322 218.506 62.0987 219.648C62.0595 220.897 61.1427 221.761 59.8513 221.745" fill="#A2FF48"/>
<path d="M102.327 221.137C101.684 220.591 101.567 219.342 102.59 218.383C103.445 217.58 104.624 217.402 105.301 218.032C106.028 218.701 105.933 219.944 105.088 220.814C104.183 221.75 103.076 221.878 102.321 221.142" fill="#A2FF48"/>
<path d="M90.9114 131.984C90.889 133.11 90.084 134.086 89.1728 134.091C88.2448 134.091 87.3838 133.01 87.4118 131.873C87.4397 130.785 88.2951 129.754 89.1672 129.749C90.1008 129.749 90.9337 130.808 90.9114 131.984Z" fill="#A2FF48"/>
<path d="M119.657 218.372C120.534 219.219 120.68 220.329 120.009 221.048C119.338 221.772 118.209 221.711 117.348 220.903C116.448 220.055 116.269 218.851 116.973 218.126C117.622 217.463 118.908 217.536 119.657 218.366" fill="#A2FF48"/>
<path d="M119.965 148.045C119.305 148.714 118.092 148.569 117.276 147.733C116.487 146.925 116.348 145.765 116.957 145.119C117.594 144.438 118.813 144.544 119.64 145.353C120.479 146.172 120.624 147.376 119.965 148.045Z" fill="#A2FF48"/>
<path d="M30.7589 31.7657C29.8253 31.7713 29.1209 30.9239 29.0985 29.7587C29.0706 28.5769 29.8197 27.579 30.7421 27.579C31.631 27.579 32.3745 28.4933 32.4024 29.6194C32.4304 30.857 31.7372 31.7601 30.7589 31.7657Z" fill="#A2FF48"/>
<path d="M90.7716 102.833C90.766 103.982 90.0225 104.902 89.128 104.868C88.2727 104.84 87.5683 103.948 87.5459 102.861C87.5292 101.724 88.2559 100.771 89.1504 100.76C90.0393 100.748 90.7716 101.685 90.766 102.833" fill="#A2FF48"/>
<path d="M90.7773 117.283C90.7773 118.471 90.1009 119.318 89.1561 119.296C88.2281 119.273 87.5293 118.376 87.5517 117.233C87.574 116.135 88.2561 115.304 89.1449 115.276C90.0841 115.248 90.7717 116.096 90.7717 117.283" fill="#A2FF48"/>
<path d="M46.9939 219.66C46.9772 220.808 46.2336 221.684 45.3168 221.633C44.4615 221.589 43.7515 220.652 43.7571 219.599C43.7683 218.484 44.523 217.625 45.4622 217.664C46.4125 217.703 47.0051 218.484 46.9884 219.66" fill="#A2FF48"/>
<path d="M89.1954 90.2454C88.2674 90.2621 87.5574 89.3924 87.5574 88.2384C87.5574 87.1346 88.3288 86.159 89.1954 86.1757C90.0339 86.1925 90.7495 87.0956 90.7774 88.1715C90.8054 89.3478 90.1401 90.2231 89.1954 90.2454Z" fill="#A2FF48"/>
<path d="M17.174 206.28C16.4193 206.999 15.2453 207.077 14.6583 206.453C14.049 205.806 14.2111 204.719 15.0273 203.944C15.7988 203.208 17.0119 203.108 17.5486 203.727C18.0908 204.357 17.9119 205.583 17.1796 206.28" fill="#A2FF48"/>
<path d="M90.7443 73.5489C90.7667 74.6806 90.1014 75.5447 89.2069 75.5503C88.3181 75.5558 87.5913 74.6862 87.5857 73.6158C87.5801 72.5845 88.251 71.7259 89.1007 71.6758C90.0008 71.6256 90.7219 72.4507 90.7443 73.5489Z" fill="#A2FF48"/>
<path d="M131.788 147.856C131.263 147.287 131.425 146.245 132.151 145.537C132.917 144.784 133.963 144.7 134.516 145.347C135.042 145.96 134.863 146.975 134.108 147.661C133.376 148.33 132.314 148.419 131.788 147.856Z" fill="#A2FF48"/>
<path d="M134.181 220.652C133.46 221.382 132.459 221.499 131.878 220.925C131.319 220.373 131.414 219.314 132.079 218.606C132.756 217.898 133.773 217.792 134.377 218.372C134.986 218.957 134.908 219.916 134.181 220.652Z" fill="#A2FF48"/>
<path d="M89.1731 57.1978C89.9725 57.1978 90.6042 58.034 90.5763 59.0542C90.5539 59.9684 89.9669 60.6876 89.2234 60.7099C88.396 60.7322 87.7363 59.9294 87.7643 58.9315C87.7922 57.9504 88.4016 57.1978 89.1731 57.2033" fill="#A2FF48"/>
<path d="M163.235 191.395C162.592 192.064 161.624 192.215 161.088 191.735C160.557 191.262 160.629 190.292 161.256 189.617C161.932 188.881 162.916 188.731 163.464 189.266C163.978 189.768 163.877 190.726 163.235 191.395Z" fill="#A2FF48"/>
<path d="M163.133 176.817C162.44 177.475 161.596 177.536 161.048 176.962C160.506 176.394 160.612 175.568 161.316 174.872C162.026 174.169 162.982 174.086 163.496 174.677C163.96 175.217 163.798 176.182 163.127 176.812" fill="#A2FF48"/>
<path d="M32.0221 219.604C32.0277 220.524 31.5078 221.181 30.7698 221.198C30.0319 221.215 29.4896 220.568 29.4785 219.654C29.4673 218.712 29.9648 218.082 30.7307 218.071C31.5134 218.06 32.0165 218.651 32.0221 219.598" fill="#A2FF48"/>
<path d="M75.7558 29.7474C75.7335 30.5279 75.1465 31.2303 74.5036 31.2303C73.8383 31.2303 73.2737 30.4443 73.3128 29.5746C73.352 28.7105 73.8551 28.1697 74.593 28.2088C75.2862 28.2422 75.7726 28.8889 75.7502 29.7474" fill="#A2FF48"/>
<path d="M0.00573099 117.267C0.0169117 116.492 0.68217 115.817 1.43687 115.812C2.25866 115.806 2.91832 116.514 2.8736 117.367C2.83447 118.147 2.13567 118.816 1.39774 118.772C0.631857 118.727 -0.0110371 118.036 0.000143676 117.272" fill="#A2FF48"/>
<path d="M2.87379 132.012C2.83466 132.804 2.18058 133.4 1.38116 133.367C0.592915 133.334 -0.0164331 132.681 0.000338004 131.89C0.0171091 131.154 0.738266 130.435 1.44824 130.44C2.25326 130.44 2.91292 131.171 2.8682 132.018" fill="#A2FF48"/>
<path d="M2.87996 102.85C2.86318 103.67 2.24265 104.266 1.41528 104.255C0.599083 104.238 -0.00468034 103.608 0.00650042 102.794C0.0232716 101.98 0.654986 101.378 1.47118 101.39C2.28738 101.406 2.89114 102.036 2.87996 102.85Z" fill="#A2FF48"/>
<path d="M2.87974 88.2219C2.89651 89.0358 2.28716 89.6546 1.47097 89.6658C0.649181 89.6769 0.00628662 89.0581 0.011877 88.2665C0.011877 87.4525 0.626818 86.8226 1.42624 86.8114C2.24244 86.8003 2.86856 87.4024 2.87974 88.2163" fill="#A2FF48"/>
<path d="M1.42044 145.141C2.259 145.13 2.86277 145.704 2.87395 146.54C2.89072 147.365 2.28696 147.995 1.47076 148.001C0.654564 148.001 0.02285 147.404 0.00607888 146.59C-0.0162826 145.787 0.604249 145.158 1.42044 145.146" fill="#A2FF48"/>
<path d="M1.51026 159.775C2.31527 159.797 2.91344 160.449 2.8799 161.269C2.84636 162.083 2.20906 162.663 1.38727 162.629C0.582256 162.601 -0.027095 161.949 0.0120376 161.146C0.0511703 160.343 0.699656 159.752 1.51585 159.775" fill="#A2FF48"/>
<path d="M1.39886 72.1884C2.19828 72.1605 2.85235 72.7738 2.88031 73.5654C2.90826 74.3737 2.29891 75.0204 1.49949 75.0372C0.68888 75.0539 0.0292134 74.4518 0.0124422 73.6657C-0.00991929 72.8574 0.593844 72.2163 1.39886 72.1884Z" fill="#A2FF48"/>
<path d="M1.45963 177.179C0.699343 177.179 0.0732173 176.583 0.067627 175.858C0.067627 175.122 0.665797 174.542 1.44286 174.531C2.25346 174.526 2.80691 175.05 2.80691 175.836C2.80691 176.588 2.21434 177.179 1.45963 177.179Z" fill="#A2FF48"/>
<path d="M90.2178 44.4539C90.1731 45.2344 89.6812 45.7361 89.0494 45.6525C88.4904 45.58 88.0879 44.9835 88.1103 44.2588C88.1382 43.4504 88.5687 42.9821 89.2451 43.0267C89.888 43.0658 90.2626 43.6121 90.2178 44.4539Z" fill="#A2FF48"/>
<path d="M15.0895 29.714C15.0895 28.9893 15.5199 28.443 16.1069 28.4485C16.6548 28.4485 17.1411 29.0729 17.1188 29.7419C17.102 30.344 16.6157 30.9461 16.1293 30.9684C15.5982 30.9907 15.0895 30.383 15.0895 29.714Z" fill="#A2FF48"/>
<path d="M148.654 147.46C148.218 147.856 147.531 147.75 147.039 147.204C146.603 146.724 146.53 145.999 146.871 145.643C147.229 145.263 148.034 145.369 148.52 145.854C149.018 146.351 149.079 147.081 148.66 147.466" fill="#A2FF48"/>
<path d="M147.078 220.357C146.524 219.821 146.452 219.191 146.888 218.751C147.307 218.327 147.989 218.411 148.503 218.941C148.962 219.414 149.051 220.106 148.699 220.496C148.313 220.925 147.603 220.864 147.078 220.357Z" fill="#A2FF48"/>
<path d="M163.167 160.377C163.581 160.817 163.48 161.464 162.91 161.982C162.441 162.417 161.697 162.501 161.35 162.161C160.998 161.815 161.099 160.94 161.541 160.5C162.016 160.026 162.77 159.97 163.162 160.382" fill="#A2FF48"/>
<path d="M162.955 205.806C162.44 206.341 161.77 206.43 161.345 206.012C160.948 205.622 161.032 204.858 161.529 204.385C161.948 203.983 162.748 203.877 163.111 204.184C163.514 204.524 163.436 205.304 162.955 205.806Z" fill="#A2FF48"/>
<path d="M1.43141 60.2083C0.687888 60.1971 0.179165 59.6452 0.218297 58.887C0.25184 58.2125 0.810874 57.6996 1.48172 57.7219C2.10784 57.7442 2.71161 58.3295 2.73397 58.9428C2.76192 59.6285 2.14698 60.2194 1.43141 60.2083Z" fill="#A2FF48"/>
<path d="M1.39244 191.596C0.743957 191.573 0.274366 191.094 0.279957 190.458C0.279957 189.801 0.844584 189.316 1.55456 189.371C2.21423 189.421 2.6335 189.901 2.58878 190.564C2.54406 191.222 2.08006 191.618 1.39244 191.596Z" fill="#A2FF48"/>
<path d="M16.8163 219.593C16.8275 220.111 16.5536 220.513 16.1511 220.546C15.7318 220.579 15.3405 220.139 15.3349 219.632C15.3293 219.141 15.7318 218.639 16.1231 218.656C16.5033 218.673 16.8108 219.085 16.8219 219.598" fill="#A2FF48"/>
<path d="M2.34858 44.3034C2.36535 44.8107 1.99638 45.2399 1.5212 45.2734C1.01807 45.3068 0.526116 44.8274 0.537296 44.3201C0.548477 43.8685 0.995708 43.4281 1.45971 43.4114C1.9293 43.3947 2.3374 43.8016 2.35417 44.3089" fill="#A2FF48"/>
<path d="M104.569 131.923C104.569 132.38 104.222 132.848 103.865 132.876C103.468 132.899 103.093 132.408 103.11 131.884C103.127 131.36 103.423 131.014 103.848 131.031C104.25 131.048 104.569 131.438 104.569 131.923Z" fill="#A2FF48"/>
<path d="M46.3337 15.0354C46.3393 15.5093 45.8976 15.9497 45.4168 15.9497C44.9081 15.9497 44.5056 15.5539 44.5056 15.0466C44.5056 14.5225 44.8802 14.1434 45.4001 14.1323C45.8808 14.1211 46.3225 14.5504 46.3281 15.0298" fill="#A2FF48"/>
<path d="M89.7821 29.7138C89.7654 30.132 89.4915 30.4887 89.1784 30.4943C88.843 30.4999 88.5019 30.0428 88.5355 29.6302C88.569 29.2344 88.8597 28.9334 89.2063 28.9445C89.5585 28.9501 89.7989 29.2734 89.7821 29.7138Z" fill="#A2FF48"/>
<path d="M1.4371 205.873C0.995463 205.873 0.693583 205.572 0.699173 205.121C0.699173 204.691 1.01782 204.346 1.42592 204.335C1.8452 204.324 2.28684 204.764 2.26448 205.171C2.24771 205.544 1.86197 205.873 1.44269 205.873" fill="#A2FF48"/>
<path d="M30.7253 14.3052C31.1446 14.2941 31.4912 14.5951 31.5192 14.9965C31.5471 15.4202 31.2676 15.7268 30.826 15.7658C30.3284 15.8049 29.9651 15.4982 29.9706 15.0355C29.9706 14.6397 30.3061 14.3164 30.7253 14.3052Z" fill="#A2FF48"/>
<path d="M60.6728 15.091C60.6449 15.4924 60.2927 15.7767 59.8454 15.7656C59.387 15.7489 59.1075 15.4534 59.1355 15.0074C59.1578 14.5782 59.5044 14.2771 59.9293 14.3161C60.3486 14.3552 60.7008 14.7231 60.6728 15.0966" fill="#A2FF48"/>
<path d="M162.764 219.42C162.764 219.944 162.49 220.273 162.216 220.234C161.926 220.195 161.775 219.966 161.763 219.609C161.752 219.253 162.054 218.857 162.295 218.968C162.496 219.058 162.652 219.308 162.764 219.414" fill="#A2FF48"/>
<path d="M119.115 131.901C119.07 132.269 118.858 132.464 118.489 132.486C118.142 132.503 117.823 132.241 117.851 131.934C117.885 131.577 118.086 131.349 118.461 131.343C118.83 131.338 119.042 131.544 119.109 131.906" fill="#A2FF48"/>
<path d="M1.96264 234.483C1.91792 234.851 1.70549 235.046 1.33652 235.068C0.989921 235.085 0.67127 234.823 0.699222 234.516C0.732764 234.16 0.934016 233.931 1.30857 233.925C1.67754 233.92 1.88997 234.126 1.95706 234.488" fill="#A2FF48"/>
<path d="M16.5984 234.483C16.5537 234.851 16.3412 235.046 15.9723 235.068C15.6257 235.085 15.307 234.823 15.335 234.516C15.3685 234.16 15.5698 233.931 15.9443 233.925C16.3133 233.92 16.5257 234.126 16.5928 234.488" fill="#A2FF48"/>
<path d="M31.2341 234.483C31.1894 234.851 30.977 235.046 30.608 235.068C30.2614 235.085 29.9428 234.823 29.9707 234.516C30.0042 234.16 30.2055 233.931 30.5801 233.925C30.949 233.92 31.1615 234.126 31.2285 234.488" fill="#A2FF48"/>
<path d="M45.8754 234.483C45.8306 234.851 45.6182 235.046 45.2492 235.068C44.9026 235.085 44.584 234.823 44.6119 234.516C44.6455 234.16 44.8467 233.931 45.2213 233.925C45.5903 233.92 45.8027 234.126 45.8698 234.488" fill="#A2FF48"/>
<path d="M60.511 234.483C60.4663 234.851 60.2539 235.046 59.8905 235.068C59.5439 235.085 59.2252 234.823 59.2532 234.516C59.2867 234.16 59.488 233.931 59.8625 233.925C60.2371 233.92 60.4439 234.126 60.511 234.488" fill="#A2FF48"/>
<path d="M75.1468 234.483C75.102 234.851 74.8896 235.046 74.5262 235.068C74.1796 235.085 73.861 234.823 73.8889 234.516C73.9225 234.16 74.1237 233.931 74.4983 233.925C74.8728 233.92 75.0797 234.126 75.1468 234.488" fill="#A2FF48"/>
<path d="M89.7873 234.483C89.7425 234.851 89.5301 235.046 89.1667 235.068C88.8201 235.085 88.5015 234.823 88.5294 234.516C88.563 234.16 88.7642 233.931 89.1388 233.925C89.5133 233.92 89.7202 234.126 89.7873 234.488" fill="#A2FF48"/>
<path d="M104.423 234.483C104.378 234.851 104.166 235.046 103.802 235.068C103.456 235.085 103.137 234.823 103.165 234.516C103.199 234.16 103.4 233.931 103.775 233.925C104.149 233.92 104.356 234.126 104.423 234.488" fill="#A2FF48"/>
<path d="M119.059 234.483C119.014 234.851 118.802 235.046 118.438 235.068C118.092 235.085 117.773 234.823 117.801 234.516C117.834 234.16 118.036 233.931 118.41 233.925C118.779 233.92 118.992 234.126 119.059 234.488" fill="#A2FF48"/>
<path d="M133.7 234.483C133.655 234.851 133.443 235.046 133.079 235.068C132.733 235.085 132.414 234.823 132.442 234.516C132.476 234.16 132.677 233.931 133.051 233.925C133.42 233.92 133.633 234.126 133.7 234.488" fill="#A2FF48"/>
<path d="M148.336 234.483C148.291 234.851 148.079 235.046 147.715 235.068C147.369 235.085 147.05 234.823 147.078 234.516C147.112 234.16 147.313 233.931 147.687 233.925C148.056 233.92 148.269 234.126 148.336 234.488" fill="#A2FF48"/>
<path d="M162.972 234.483C162.927 234.851 162.714 235.046 162.351 235.068C162.004 235.085 161.686 234.823 161.714 234.516C161.747 234.16 161.949 233.931 162.323 233.925C162.692 233.92 162.904 234.126 162.972 234.488" fill="#A2FF48"/>
<path d="M177.612 234.483C177.567 234.851 177.355 235.046 176.986 235.068C176.639 235.085 176.321 234.823 176.349 234.516C176.382 234.16 176.583 233.931 176.958 233.925C177.333 233.92 177.539 234.126 177.606 234.488" fill="#A2FF48"/>
<path d="M177.612 219.855C177.567 220.223 177.355 220.418 176.986 220.44C176.639 220.457 176.321 220.195 176.349 219.888C176.382 219.531 176.583 219.303 176.958 219.297C177.333 219.292 177.539 219.498 177.606 219.855" fill="#A2FF48"/>
<path d="M177.612 205.232C177.567 205.6 177.355 205.795 176.986 205.817C176.639 205.834 176.321 205.572 176.349 205.265C176.382 204.908 176.583 204.68 176.958 204.674C177.333 204.669 177.539 204.875 177.606 205.237" fill="#A2FF48"/>
<path d="M177.612 190.603C177.567 190.971 177.355 191.167 176.986 191.189C176.639 191.206 176.321 190.944 176.349 190.637C176.382 190.28 176.583 190.052 176.958 190.046C177.333 190.04 177.539 190.247 177.606 190.609" fill="#A2FF48"/>
<path d="M177.612 175.975C177.567 176.343 177.355 176.538 176.986 176.561C176.639 176.577 176.321 176.315 176.349 176.009C176.382 175.652 176.583 175.423 176.958 175.418C177.333 175.412 177.539 175.619 177.606 175.975" fill="#A2FF48"/>
<path d="M177.612 161.347C177.567 161.715 177.355 161.91 176.986 161.932C176.639 161.949 176.321 161.687 176.349 161.38C176.382 161.023 176.583 160.795 176.958 160.789C177.333 160.784 177.539 160.99 177.606 161.352" fill="#A2FF48"/>
<path d="M177.612 146.718C177.567 147.086 177.355 147.282 176.986 147.304C176.639 147.321 176.321 147.059 176.349 146.752C176.382 146.395 176.583 146.167 176.958 146.161C177.333 146.155 177.539 146.362 177.606 146.724" fill="#A2FF48"/>
<path d="M177.612 132.09C177.567 132.458 177.355 132.653 176.986 132.675C176.639 132.692 176.321 132.43 176.349 132.124C176.382 131.767 176.583 131.538 176.958 131.533C177.333 131.527 177.539 131.733 177.606 132.09" fill="#A2FF48"/>
<path d="M177.612 117.462C177.567 117.83 177.355 118.025 176.986 118.047C176.639 118.064 176.321 117.802 176.349 117.495C176.382 117.139 176.583 116.91 176.958 116.904C177.333 116.899 177.539 117.105 177.606 117.467" fill="#A2FF48"/>
<path d="M177.612 102.839C177.567 103.207 177.355 103.402 176.986 103.424C176.639 103.441 176.321 103.179 176.349 102.872C176.382 102.516 176.583 102.287 176.958 102.281C177.333 102.276 177.539 102.482 177.606 102.844" fill="#A2FF48"/>
<path d="M177.612 88.2104C177.567 88.5784 177.355 88.7735 176.986 88.7958C176.639 88.8125 176.321 88.5505 176.349 88.2439C176.382 87.8871 176.583 87.6585 176.958 87.6529C177.333 87.6474 177.539 87.8536 177.606 88.216" fill="#A2FF48"/>
<path d="M177.612 73.5825C177.567 73.9504 177.355 74.1456 176.986 74.1679C176.639 74.1846 176.321 73.9226 176.349 73.6159C176.382 73.2592 176.583 73.0306 176.958 73.025C177.333 73.0194 177.539 73.2257 177.606 73.5881" fill="#A2FF48"/>
<path d="M177.612 58.9541C177.567 59.322 177.355 59.5171 176.986 59.5394C176.639 59.5562 176.321 59.2941 176.349 58.9875C176.382 58.6307 176.583 58.4022 176.958 58.3966C177.333 58.391 177.539 58.5973 177.606 58.9596" fill="#A2FF48"/>
<path d="M177.612 44.3255C177.567 44.6935 177.355 44.8886 176.986 44.9109C176.639 44.9276 176.321 44.6656 176.349 44.359C176.382 44.0022 176.583 43.7736 176.958 43.7681C177.333 43.7625 177.539 43.9687 177.606 44.3311" fill="#A2FF48"/>
<path d="M177.612 29.6974C177.567 30.0653 177.355 30.2604 176.986 30.2827C176.639 30.2994 176.321 30.0374 176.349 29.7308C176.382 29.374 176.583 29.1455 176.958 29.1399C177.333 29.1343 177.539 29.3406 177.606 29.7029" fill="#A2FF48"/>
<path d="M177.612 15.0744C177.567 15.4424 177.355 15.6375 176.986 15.6598C176.639 15.6765 176.321 15.4145 176.349 15.1079C176.382 14.7511 176.583 14.5225 176.958 14.517C177.333 14.5114 177.539 14.7176 177.606 15.08" fill="#A2FF48"/>
<path d="M148.336 132.09C148.291 132.458 148.079 132.653 147.715 132.675C147.369 132.692 147.05 132.43 147.078 132.124C147.112 131.767 147.313 131.538 147.687 131.533C148.056 131.527 148.269 131.733 148.336 132.09Z" fill="#A2FF48"/>
<path d="M148.336 117.462C148.291 117.83 148.079 118.025 147.715 118.047C147.369 118.064 147.05 117.802 147.078 117.495C147.112 117.139 147.313 116.91 147.687 116.904C148.056 116.899 148.269 117.105 148.336 117.467" fill="#A2FF48"/>
<path d="M148.336 102.839C148.291 103.207 148.079 103.402 147.715 103.424C147.369 103.441 147.05 103.179 147.078 102.872C147.112 102.516 147.313 102.287 147.687 102.281C148.056 102.276 148.269 102.482 148.336 102.844" fill="#A2FF48"/>
<path d="M148.336 88.2104C148.291 88.5784 148.079 88.7735 147.715 88.7958C147.369 88.8125 147.05 88.5505 147.078 88.2439C147.112 87.8871 147.313 87.6585 147.687 87.6529C148.056 87.6474 148.269 87.8536 148.336 88.216" fill="#A2FF48"/>
<path d="M148.336 73.5825C148.291 73.9504 148.079 74.1456 147.715 74.1679C147.369 74.1846 147.05 73.9226 147.078 73.6159C147.112 73.2592 147.313 73.0306 147.687 73.025C148.056 73.0194 148.269 73.2257 148.336 73.5881" fill="#A2FF48"/>
<path d="M148.336 58.9541C148.291 59.322 148.079 59.5171 147.715 59.5394C147.369 59.5562 147.05 59.2941 147.078 58.9875C147.112 58.6307 147.313 58.4022 147.687 58.3966C148.056 58.391 148.269 58.5973 148.336 58.9596" fill="#A2FF48"/>
<path d="M148.336 44.3255C148.291 44.6935 148.079 44.8886 147.715 44.9109C147.369 44.9276 147.05 44.6656 147.078 44.359C147.112 44.0022 147.313 43.7736 147.687 43.7681C148.056 43.7625 148.269 43.9687 148.336 44.3311" fill="#A2FF48"/>
<path d="M148.336 29.6974C148.291 30.0653 148.079 30.2604 147.715 30.2827C147.369 30.2994 147.05 30.0374 147.078 29.7308C147.112 29.374 147.313 29.1455 147.687 29.1399C148.056 29.1343 148.269 29.3406 148.336 29.7029" fill="#A2FF48"/>
<path d="M148.336 15.0744C148.291 15.4424 148.079 15.6375 147.715 15.6598C147.369 15.6765 147.05 15.4145 147.078 15.1079C147.112 14.7511 147.313 14.5225 147.687 14.517C148.056 14.5114 148.269 14.7176 148.336 15.08" fill="#A2FF48"/>
<path d="M133.7 132.09C133.655 132.458 133.443 132.653 133.079 132.675C132.733 132.692 132.414 132.43 132.442 132.124C132.476 131.767 132.677 131.538 133.051 131.533C133.42 131.527 133.633 131.733 133.7 132.09Z" fill="#A2FF48"/>
<path d="M133.7 117.462C133.655 117.83 133.443 118.025 133.079 118.047C132.733 118.064 132.414 117.802 132.442 117.495C132.476 117.139 132.677 116.91 133.051 116.904C133.42 116.899 133.633 117.105 133.7 117.467" fill="#A2FF48"/>
<path d="M133.7 102.839C133.655 103.207 133.443 103.402 133.079 103.424C132.733 103.441 132.414 103.179 132.442 102.872C132.476 102.516 132.677 102.287 133.051 102.281C133.42 102.276 133.633 102.482 133.7 102.844" fill="#A2FF48"/>
<path d="M133.7 88.2104C133.655 88.5784 133.443 88.7735 133.079 88.7958C132.733 88.8125 132.414 88.5505 132.442 88.2439C132.476 87.8871 132.677 87.6585 133.051 87.6529C133.42 87.6474 133.633 87.8536 133.7 88.216" fill="#A2FF48"/>
<path d="M133.7 73.5825C133.655 73.9504 133.443 74.1456 133.079 74.1679C132.733 74.1846 132.414 73.9226 132.442 73.6159C132.476 73.2592 132.677 73.0306 133.051 73.025C133.42 73.0194 133.633 73.2257 133.7 73.5881" fill="#A2FF48"/>
<path d="M133.7 58.9541C133.655 59.322 133.443 59.5171 133.079 59.5394C132.733 59.5562 132.414 59.2941 132.442 58.9875C132.476 58.6307 132.677 58.4022 133.051 58.3966C133.42 58.391 133.633 58.5973 133.7 58.9596" fill="#A2FF48"/>
<path d="M133.7 44.3255C133.655 44.6935 133.443 44.8886 133.079 44.9109C132.733 44.9276 132.414 44.6656 132.442 44.359C132.476 44.0022 132.677 43.7736 133.051 43.7681C133.42 43.7625 133.633 43.9687 133.7 44.3311" fill="#A2FF48"/>
<path d="M133.7 29.6974C133.655 30.0653 133.443 30.2604 133.079 30.2827C132.733 30.2994 132.414 30.0374 132.442 29.7308C132.476 29.374 132.677 29.1455 133.051 29.1399C133.42 29.1343 133.633 29.3406 133.7 29.7029" fill="#A2FF48"/>
<path d="M133.7 15.0744C133.655 15.4424 133.443 15.6375 133.079 15.6598C132.733 15.6765 132.414 15.4145 132.442 15.1079C132.476 14.7511 132.677 14.5225 133.051 14.517C133.42 14.5114 133.633 14.7176 133.7 15.08" fill="#A2FF48"/>
<path d="M119.059 117.462C119.014 117.83 118.802 118.025 118.438 118.047C118.092 118.064 117.773 117.802 117.801 117.495C117.834 117.139 118.036 116.91 118.41 116.904C118.779 116.899 118.992 117.105 119.059 117.467" fill="#A2FF48"/>
<path d="M119.059 102.839C119.014 103.207 118.802 103.402 118.438 103.424C118.092 103.441 117.773 103.179 117.801 102.872C117.834 102.516 118.036 102.287 118.41 102.281C118.779 102.276 118.992 102.482 119.059 102.844" fill="#A2FF48"/>
<path d="M119.059 88.2104C119.014 88.5784 118.802 88.7735 118.438 88.7958C118.092 88.8125 117.773 88.5505 117.801 88.2439C117.834 87.8871 118.036 87.6585 118.41 87.6529C118.779 87.6474 118.992 87.8536 119.059 88.216" fill="#A2FF48"/>
<path d="M119.059 73.5825C119.014 73.9504 118.802 74.1456 118.438 74.1679C118.092 74.1846 117.773 73.9226 117.801 73.6159C117.834 73.2592 118.036 73.0306 118.41 73.025C118.779 73.0194 118.992 73.2257 119.059 73.5881" fill="#A2FF48"/>
<path d="M119.059 58.9541C119.014 59.322 118.802 59.5171 118.438 59.5394C118.092 59.5562 117.773 59.2941 117.801 58.9875C117.834 58.6307 118.036 58.4022 118.41 58.3966C118.779 58.391 118.992 58.5973 119.059 58.9596" fill="#A2FF48"/>
<path d="M119.059 44.3255C119.014 44.6935 118.802 44.8886 118.438 44.9109C118.092 44.9276 117.773 44.6656 117.801 44.359C117.834 44.0022 118.036 43.7736 118.41 43.7681C118.779 43.7625 118.992 43.9687 119.059 44.3311" fill="#A2FF48"/>
<path d="M119.059 29.6974C119.014 30.0653 118.802 30.2604 118.438 30.2827C118.092 30.2994 117.773 30.0374 117.801 29.7308C117.834 29.374 118.036 29.1455 118.41 29.1399C118.779 29.1343 118.992 29.3406 119.059 29.7029" fill="#A2FF48"/>
<path d="M119.059 15.0744C119.014 15.4424 118.802 15.6375 118.438 15.6598C118.092 15.6765 117.773 15.4145 117.801 15.1079C117.834 14.7511 118.036 14.5225 118.41 14.517C118.779 14.5114 118.992 14.7176 119.059 15.08" fill="#A2FF48"/>
<path d="M104.423 117.462C104.378 117.83 104.166 118.025 103.802 118.047C103.456 118.064 103.137 117.802 103.165 117.495C103.199 117.139 103.4 116.91 103.775 116.904C104.149 116.899 104.356 117.105 104.423 117.467" fill="#A2FF48"/>
<path d="M104.423 102.839C104.378 103.207 104.166 103.402 103.802 103.424C103.456 103.441 103.137 103.179 103.165 102.872C103.199 102.516 103.4 102.287 103.775 102.281C104.149 102.276 104.356 102.482 104.423 102.844" fill="#A2FF48"/>
<path d="M104.423 88.2104C104.378 88.5784 104.166 88.7735 103.802 88.7958C103.456 88.8125 103.137 88.5505 103.165 88.2439C103.199 87.8871 103.4 87.6585 103.775 87.6529C104.149 87.6474 104.356 87.8536 104.423 88.216" fill="#A2FF48"/>
<path d="M104.423 73.5825C104.378 73.9504 104.166 74.1456 103.802 74.1679C103.456 74.1846 103.137 73.9226 103.165 73.6159C103.199 73.2592 103.4 73.0306 103.775 73.025C104.149 73.0194 104.356 73.2257 104.423 73.5881" fill="#A2FF48"/>
<path d="M104.423 58.9541C104.378 59.322 104.166 59.5171 103.802 59.5394C103.456 59.5562 103.137 59.2941 103.165 58.9875C103.199 58.6307 103.4 58.4022 103.775 58.3966C104.149 58.391 104.356 58.5973 104.423 58.9596" fill="#A2FF48"/>
<path d="M104.423 44.3255C104.378 44.6935 104.166 44.8886 103.802 44.9109C103.456 44.9276 103.137 44.6656 103.165 44.359C103.199 44.0022 103.4 43.7736 103.775 43.7681C104.149 43.7625 104.356 43.9687 104.423 44.3311" fill="#A2FF48"/>
<path d="M104.423 29.6974C104.378 30.0653 104.166 30.2604 103.802 30.2827C103.456 30.2994 103.137 30.0374 103.165 29.7308C103.199 29.374 103.4 29.1455 103.775 29.1399C104.149 29.1343 104.356 29.3406 104.423 29.7029" fill="#A2FF48"/>
<path d="M104.423 15.0744C104.378 15.4424 104.166 15.6375 103.802 15.6598C103.456 15.6765 103.137 15.4145 103.165 15.1079C103.199 14.7511 103.4 14.5225 103.775 14.517C104.149 14.5114 104.356 14.7176 104.423 15.08" fill="#A2FF48"/>
<path d="M163.022 132.09C162.977 132.458 162.765 132.653 162.401 132.675C162.055 132.692 161.736 132.43 161.764 132.124C161.798 131.767 161.999 131.538 162.373 131.533C162.742 131.527 162.955 131.733 163.022 132.09Z" fill="#A2FF48"/>
<path d="M163.022 117.462C162.977 117.83 162.765 118.025 162.401 118.047C162.055 118.064 161.736 117.802 161.764 117.495C161.798 117.139 161.999 116.91 162.373 116.904C162.742 116.899 162.955 117.105 163.022 117.467" fill="#A2FF48"/>
<path d="M163.022 102.839C162.977 103.207 162.765 103.402 162.401 103.424C162.055 103.441 161.736 103.179 161.764 102.872C161.798 102.516 161.999 102.287 162.373 102.281C162.742 102.276 162.955 102.482 163.022 102.844" fill="#A2FF48"/>
<path d="M163.022 88.2104C162.977 88.5784 162.765 88.7735 162.401 88.7958C162.055 88.8125 161.736 88.5505 161.764 88.2439C161.798 87.8871 161.999 87.6585 162.373 87.6529C162.742 87.6474 162.955 87.8536 163.022 88.216" fill="#A2FF48"/>
<path d="M163.022 73.5825C162.977 73.9504 162.765 74.1456 162.401 74.1679C162.055 74.1846 161.736 73.9226 161.764 73.6159C161.798 73.2592 161.999 73.0306 162.373 73.025C162.742 73.0194 162.955 73.2257 163.022 73.5881" fill="#A2FF48"/>
<path d="M163.022 58.9541C162.977 59.322 162.765 59.5171 162.401 59.5394C162.055 59.5562 161.736 59.2941 161.764 58.9875C161.798 58.6307 161.999 58.4022 162.373 58.3966C162.742 58.391 162.955 58.5973 163.022 58.9596" fill="#A2FF48"/>
<path d="M163.022 44.3255C162.977 44.6935 162.765 44.8886 162.401 44.9109C162.055 44.9276 161.736 44.6656 161.764 44.359C161.798 44.0022 161.999 43.7736 162.373 43.7681C162.742 43.7625 162.955 43.9687 163.022 44.3311" fill="#A2FF48"/>
<path d="M163.022 29.6974C162.977 30.0653 162.765 30.2604 162.401 30.2827C162.055 30.2994 161.736 30.0374 161.764 29.7308C161.798 29.374 161.999 29.1455 162.373 29.1399C162.742 29.1343 162.955 29.3406 163.022 29.7029" fill="#A2FF48"/>
<path d="M163.022 15.0744C162.977 15.4424 162.765 15.6375 162.401 15.6598C162.055 15.6765 161.736 15.4145 161.764 15.1079C161.798 14.7511 161.999 14.5225 162.373 14.517C162.742 14.5114 162.955 14.7176 163.022 15.08" fill="#A2FF48"/>
<path d="M177.612 0.557593C177.567 0.925532 177.355 1.12065 176.986 1.14295C176.639 1.15967 176.321 0.897658 176.349 0.591042C176.382 0.234253 176.583 0.00568499 176.958 0.000110157C177.333 -0.00546467 177.539 0.200804 177.606 0.563168" fill="#A2FF48"/>
<path d="M148.336 0.557593C148.291 0.925532 148.079 1.12065 147.715 1.14295C147.369 1.15967 147.05 0.897658 147.078 0.591042C147.112 0.234253 147.313 0.00568499 147.687 0.000110157C148.056 -0.00546467 148.269 0.200804 148.336 0.563168" fill="#A2FF48"/>
<path d="M133.7 0.557593C133.655 0.925532 133.443 1.12065 133.079 1.14295C132.733 1.15967 132.414 0.897658 132.442 0.591042C132.476 0.234253 132.677 0.00568499 133.051 0.000110157C133.42 -0.00546467 133.633 0.200804 133.7 0.563168" fill="#A2FF48"/>
<path d="M119.059 0.557593C119.014 0.925532 118.802 1.12065 118.438 1.14295C118.092 1.15967 117.773 0.897658 117.801 0.591042C117.834 0.234253 118.036 0.00568499 118.41 0.000110157C118.779 -0.00546467 118.992 0.200804 119.059 0.563168" fill="#A2FF48"/>
<path d="M163.022 0.557593C162.977 0.925532 162.765 1.12065 162.401 1.14295C162.055 1.15967 161.736 0.897658 161.764 0.591042C161.798 0.234253 161.999 0.00568499 162.373 0.000110157C162.742 -0.00546467 162.955 0.200804 163.022 0.563168" fill="#A2FF48"/>
<path d="M104.446 0.557593C104.401 0.925532 104.189 1.12065 103.825 1.14295C103.479 1.15967 103.16 0.897658 103.188 0.591042C103.222 0.234253 103.423 0.00568499 103.797 0.000110157C104.172 -0.00546467 104.379 0.200804 104.446 0.563168" fill="#A2FF48"/>
<path d="M75.1689 0.557593C75.1242 0.925532 74.9118 1.12065 74.5428 1.14295C74.1962 1.15967 73.8776 0.897658 73.9055 0.591042C73.9391 0.234253 74.1403 0.00568499 74.5149 0.000110157C74.8838 -0.00546467 75.0963 0.200804 75.1634 0.563168" fill="#A2FF48"/>
<path d="M60.5332 0.557593C60.4885 0.925532 60.276 1.12065 59.9071 1.14295C59.5605 1.15967 59.2418 0.897658 59.2698 0.591042C59.3033 0.234253 59.5046 0.00568499 59.8791 0.000110157C60.2481 -0.00546467 60.4605 0.200804 60.5276 0.563168" fill="#A2FF48"/>
<path d="M45.8973 0.557593C45.8526 0.925532 45.6402 1.12065 45.2712 1.14295C44.9246 1.15967 44.606 0.897658 44.6339 0.591042C44.6675 0.234253 44.8687 0.00568499 45.2433 0.000110157C45.6122 -0.00546467 45.8247 0.200804 45.8917 0.563168" fill="#A2FF48"/>
<path d="M89.8549 0.557593C89.8102 0.925532 89.5977 1.12065 89.2344 1.14295C88.8877 1.15967 88.5691 0.897658 88.597 0.591042C88.6306 0.234253 88.8318 0.00568499 89.2064 0.000110157C89.581 -0.00546467 89.7878 0.200804 89.8549 0.563168" fill="#A2FF48"/>
<path d="M31.2788 0.557593C31.2341 0.925532 31.0217 1.12065 30.6583 1.14295C30.3117 1.15967 29.993 0.897658 30.021 0.591042C30.0545 0.234253 30.2558 0.00568499 30.6303 0.000110157C31.0049 -0.00546467 31.2118 0.200804 31.2788 0.563168" fill="#A2FF48"/>
<path d="M2.00735 0.557593C1.96263 0.925532 1.75019 1.12065 1.38682 1.14295C1.04021 1.15967 0.721563 0.897658 0.749515 0.591042C0.783057 0.234253 0.984313 0.00568499 1.35887 0.000110157C1.73342 -0.00546467 1.94027 0.200804 2.00735 0.563168" fill="#A2FF48"/>
<path d="M16.6879 0.557593C16.6432 0.925532 16.4307 1.12065 16.0674 1.14295C15.7208 1.15967 15.4021 0.897658 15.4301 0.591042C15.4636 0.234253 15.6649 0.00568499 16.0394 0.000110157C16.414 -0.00546467 16.6208 0.200804 16.6879 0.563168" fill="#A2FF48"/>
<path d="M192.276 234.483C192.231 234.851 192.019 235.046 191.656 235.068C191.309 235.085 190.99 234.823 191.018 234.516C191.052 234.16 191.253 233.931 191.628 233.925C192.002 233.92 192.209 234.126 192.276 234.488" fill="#A2FF48"/>
<path d="M192.276 219.855C192.231 220.223 192.019 220.418 191.656 220.44C191.309 220.457 190.99 220.195 191.018 219.888C191.052 219.531 191.253 219.303 191.628 219.297C192.002 219.292 192.209 219.498 192.276 219.855Z" fill="#A2FF48"/>
<path d="M192.276 205.232C192.231 205.6 192.019 205.795 191.656 205.817C191.309 205.834 190.99 205.572 191.018 205.265C191.052 204.908 191.253 204.68 191.628 204.674C192.002 204.669 192.209 204.875 192.276 205.237" fill="#A2FF48"/>
<path d="M192.276 190.603C192.231 190.971 192.019 191.167 191.656 191.189C191.309 191.206 190.99 190.944 191.018 190.637C191.052 190.28 191.253 190.052 191.628 190.046C192.002 190.04 192.209 190.247 192.276 190.609" fill="#A2FF48"/>
<path d="M192.276 175.975C192.231 176.343 192.019 176.538 191.656 176.561C191.309 176.577 190.99 176.315 191.018 176.009C191.052 175.652 191.253 175.423 191.628 175.418C192.002 175.412 192.209 175.619 192.276 175.975Z" fill="#A2FF48"/>
<path d="M192.276 161.347C192.231 161.715 192.019 161.91 191.656 161.932C191.309 161.949 190.99 161.687 191.018 161.38C191.052 161.023 191.253 160.795 191.628 160.789C192.002 160.784 192.209 160.99 192.276 161.352" fill="#A2FF48"/>
<path d="M192.276 146.718C192.231 147.086 192.019 147.282 191.656 147.304C191.309 147.321 190.99 147.059 191.018 146.752C191.052 146.395 191.253 146.167 191.628 146.161C192.002 146.155 192.209 146.362 192.276 146.724" fill="#A2FF48"/>
<path d="M192.276 132.09C192.231 132.458 192.019 132.653 191.656 132.675C191.309 132.692 190.99 132.43 191.018 132.124C191.052 131.767 191.253 131.538 191.628 131.533C192.002 131.527 192.209 131.733 192.276 132.09Z" fill="#A2FF48"/>
<path d="M192.276 117.462C192.231 117.83 192.019 118.025 191.656 118.047C191.309 118.064 190.99 117.802 191.018 117.495C191.052 117.139 191.253 116.91 191.628 116.904C192.002 116.899 192.209 117.105 192.276 117.467" fill="#A2FF48"/>
<path d="M192.276 102.839C192.231 103.207 192.019 103.402 191.656 103.424C191.309 103.441 190.99 103.179 191.018 102.872C191.052 102.516 191.253 102.287 191.628 102.281C192.002 102.276 192.209 102.482 192.276 102.844" fill="#A2FF48"/>
<path d="M192.276 88.2104C192.231 88.5784 192.019 88.7735 191.656 88.7958C191.309 88.8125 190.99 88.5505 191.018 88.2439C191.052 87.8871 191.253 87.6585 191.628 87.6529C192.002 87.6474 192.209 87.8536 192.276 88.216" fill="#A2FF48"/>
<path d="M192.276 73.5825C192.231 73.9504 192.019 74.1456 191.656 74.1679C191.309 74.1846 190.99 73.9226 191.018 73.6159C191.052 73.2592 191.253 73.0306 191.628 73.025C192.002 73.0194 192.209 73.2257 192.276 73.5881" fill="#A2FF48"/>
<path d="M192.276 58.9541C192.231 59.322 192.019 59.5171 191.656 59.5394C191.309 59.5562 190.99 59.2941 191.018 58.9875C191.052 58.6307 191.253 58.4022 191.628 58.3966C192.002 58.391 192.209 58.5973 192.276 58.9596" fill="#A2FF48"/>
<path d="M192.276 44.3255C192.231 44.6935 192.019 44.8886 191.656 44.9109C191.309 44.9276 190.99 44.6656 191.018 44.359C191.052 44.0022 191.253 43.7736 191.628 43.7681C192.002 43.7625 192.209 43.9687 192.276 44.3311" fill="#A2FF48"/>
<path d="M192.276 29.6974C192.231 30.0653 192.019 30.2604 191.656 30.2827C191.309 30.2994 190.99 30.0374 191.018 29.7308C191.052 29.374 191.253 29.1455 191.628 29.1399C192.002 29.1343 192.209 29.3406 192.276 29.7029" fill="#A2FF48"/>
<path d="M192.276 15.0744C192.231 15.4424 192.019 15.6375 191.656 15.6598C191.309 15.6765 190.99 15.4145 191.018 15.1079C191.052 14.7511 191.253 14.5225 191.628 14.517C192.002 14.5114 192.209 14.7176 192.276 15.08" fill="#A2FF48"/>
<path d="M192.276 0.557593C192.231 0.925532 192.019 1.12065 191.656 1.14295C191.309 1.15967 190.99 0.897658 191.018 0.591042C191.052 0.234253 191.253 0.00568499 191.628 0.000110157C192.002 -0.00546467 192.209 0.200804 192.276 0.563168" fill="#A2FF48"/>
<path d="M206.934 234.483C206.889 234.851 206.677 235.046 206.313 235.068C205.967 235.085 205.648 234.823 205.676 234.516C205.71 234.16 205.911 233.931 206.285 233.925C206.654 233.92 206.867 234.126 206.934 234.488" fill="#A2FF48"/>
<path d="M206.934 219.855C206.889 220.223 206.677 220.418 206.313 220.44C205.967 220.457 205.648 220.195 205.676 219.888C205.71 219.531 205.911 219.303 206.285 219.297C206.654 219.292 206.867 219.498 206.934 219.855Z" fill="#A2FF48"/>
<path d="M206.934 205.232C206.889 205.6 206.677 205.795 206.313 205.817C205.967 205.834 205.648 205.572 205.676 205.265C205.71 204.908 205.911 204.68 206.285 204.674C206.654 204.669 206.867 204.875 206.934 205.237" fill="#A2FF48"/>
<path d="M206.934 190.603C206.889 190.971 206.677 191.167 206.313 191.189C205.967 191.206 205.648 190.944 205.676 190.637C205.71 190.28 205.911 190.052 206.285 190.046C206.654 190.04 206.867 190.247 206.934 190.609" fill="#A2FF48"/>
<path d="M206.934 175.975C206.889 176.343 206.677 176.538 206.313 176.561C205.967 176.577 205.648 176.315 205.676 176.009C205.71 175.652 205.911 175.423 206.285 175.418C206.654 175.412 206.867 175.619 206.934 175.975Z" fill="#A2FF48"/>
<path d="M206.934 161.347C206.889 161.715 206.677 161.91 206.313 161.932C205.967 161.949 205.648 161.687 205.676 161.38C205.71 161.023 205.911 160.795 206.285 160.789C206.654 160.784 206.867 160.99 206.934 161.352" fill="#A2FF48"/>
<path d="M206.934 146.718C206.889 147.086 206.677 147.282 206.313 147.304C205.967 147.321 205.648 147.059 205.676 146.752C205.71 146.395 205.911 146.167 206.285 146.161C206.654 146.155 206.867 146.362 206.934 146.724" fill="#A2FF48"/>
<path d="M206.934 132.09C206.889 132.458 206.677 132.653 206.313 132.675C205.967 132.692 205.648 132.43 205.676 132.124C205.71 131.767 205.911 131.538 206.285 131.533C206.654 131.527 206.867 131.733 206.934 132.09Z" fill="#A2FF48"/>
<path d="M206.934 117.462C206.889 117.83 206.677 118.025 206.313 118.047C205.967 118.064 205.648 117.802 205.676 117.495C205.71 117.139 205.911 116.91 206.285 116.904C206.654 116.899 206.867 117.105 206.934 117.467" fill="#A2FF48"/>
<path d="M206.934 102.839C206.889 103.207 206.677 103.402 206.313 103.424C205.967 103.441 205.648 103.179 205.676 102.872C205.71 102.516 205.911 102.287 206.285 102.281C206.654 102.276 206.867 102.482 206.934 102.844" fill="#A2FF48"/>
<path d="M206.934 88.2104C206.889 88.5784 206.677 88.7735 206.313 88.7958C205.967 88.8125 205.648 88.5505 205.676 88.2439C205.71 87.8871 205.911 87.6585 206.285 87.6529C206.654 87.6474 206.867 87.8536 206.934 88.216" fill="#A2FF48"/>
<path d="M206.934 73.5825C206.889 73.9504 206.677 74.1456 206.313 74.1679C205.967 74.1846 205.648 73.9226 205.676 73.6159C205.71 73.2592 205.911 73.0306 206.285 73.025C206.654 73.0194 206.867 73.2257 206.934 73.5881" fill="#A2FF48"/>
<path d="M206.934 58.9541C206.889 59.322 206.677 59.5171 206.313 59.5394C205.967 59.5562 205.648 59.2941 205.676 58.9875C205.71 58.6307 205.911 58.4022 206.285 58.3966C206.654 58.391 206.867 58.5973 206.934 58.9596" fill="#A2FF48"/>
<path d="M206.934 44.3255C206.889 44.6935 206.677 44.8886 206.313 44.9109C205.967 44.9276 205.648 44.6656 205.676 44.359C205.71 44.0022 205.911 43.7736 206.285 43.7681C206.654 43.7625 206.867 43.9687 206.934 44.3311" fill="#A2FF48"/>
<path d="M206.934 29.6974C206.889 30.0653 206.677 30.2604 206.313 30.2827C205.967 30.2994 205.648 30.0374 205.676 29.7308C205.71 29.374 205.911 29.1455 206.285 29.1399C206.654 29.1343 206.867 29.3406 206.934 29.7029" fill="#A2FF48"/>
<path d="M206.934 15.0744C206.889 15.4424 206.677 15.6375 206.313 15.6598C205.967 15.6765 205.648 15.4145 205.676 15.1079C205.71 14.7511 205.911 14.5225 206.285 14.517C206.654 14.5114 206.867 14.7176 206.934 15.08" fill="#A2FF48"/>
<path d="M206.934 0.557593C206.889 0.925532 206.677 1.12065 206.313 1.14295C205.967 1.15967 205.648 0.897658 205.676 0.591042C205.71 0.234253 205.911 0.00568499 206.285 0.000110157C206.654 -0.00546467 206.867 0.200804 206.934 0.563168" fill="#A2FF48"/>
<path d="M1.96264 219.855C1.91792 220.223 1.70549 220.418 1.33652 220.44C0.989921 220.457 0.67127 220.195 0.699222 219.888C0.732764 219.531 0.934016 219.303 1.30857 219.297C1.67754 219.292 1.88997 219.498 1.95706 219.855" fill="#A2FF48"/>
<path d="M1.96264 29.6974C1.91792 30.0653 1.70549 30.2604 1.33652 30.2827C0.989921 30.2994 0.67127 30.0374 0.699222 29.7308C0.732764 29.374 0.934016 29.1455 1.30857 29.1399C1.67754 29.1343 1.88997 29.3406 1.95706 29.7029" fill="#A2FF48"/>
<path d="M1.96264 15.0744C1.91792 15.4424 1.70549 15.6375 1.33652 15.6598C0.989921 15.6765 0.67127 15.4145 0.699222 15.1079C0.732764 14.7511 0.934016 14.5225 1.30857 14.517C1.67754 14.5114 1.88997 14.7176 1.95706 15.08" fill="#A2FF48"/>
<path d="M75.1405 15.0744C75.0958 15.4424 74.8834 15.6375 74.52 15.6598C74.1734 15.6765 73.8547 15.4145 73.8827 15.1079C73.9162 14.7511 74.1175 14.5225 74.492 14.517C74.8666 14.5114 75.0734 14.7176 75.1405 15.08" fill="#A2FF48"/>
<path d="M89.7873 15.0744C89.7425 15.4424 89.5301 15.6375 89.1667 15.6598C88.8201 15.6765 88.5015 15.4145 88.5294 15.1079C88.563 14.7511 88.7642 14.5225 89.1388 14.517C89.5133 14.5114 89.7202 14.7176 89.7873 15.08" fill="#A2FF48"/>
<path d="M16.5984 15.0744C16.5537 15.4424 16.3412 15.6375 15.9723 15.6598C15.6257 15.6765 15.307 15.4145 15.335 15.1079C15.3685 14.7511 15.5698 14.5225 15.9443 14.517C16.3133 14.5114 16.5257 14.7176 16.5928 15.08" fill="#A2FF48"/>
</g>
</svg>
