<svg width="293" height="235" viewBox="0 0 293 235" fill="none" xmlns="http://www.w3.org/2000/svg">
<path opacity="0.2" d="M287.147 228.418C294.131 221.388 294.977 210.849 289.042 204.87C283.102 198.896 272.631 199.747 265.646 206.777C258.662 213.807 257.811 224.352 263.751 230.326C269.686 236.299 280.162 235.448 287.147 228.418Z" fill="#A2FF48"/>
<path d="M2.61662 222.187C5.74452 225.334 10.4336 225.716 13.0931 223.04C15.7527 220.363 15.3735 215.644 12.2456 212.497C9.11774 209.349 4.42869 208.968 1.76914 211.644C-0.890412 214.32 -0.505703 219.039 2.61662 222.187Z" fill="#A2FF48"/>
<path opacity="0.7" d="M48.9701 211.142C52.6197 207.469 58.0885 207.024 61.1907 210.146C64.2928 213.268 63.8504 218.772 60.2009 222.445C56.5513 226.118 51.0824 226.564 47.9803 223.441C44.8781 220.319 45.3205 214.81 48.9701 211.142Z" fill="#A2FF48"/>
<path opacity="0.5" d="M97.8858 224.909C102.159 229.21 108.568 229.736 112.202 226.079C115.836 222.421 115.313 215.97 111.04 211.67C106.768 207.369 100.358 206.843 96.724 210.501C93.0898 214.158 93.6129 220.609 97.8858 224.909Z" fill="#A2FF48"/>
<path opacity="0.4" d="M149.859 210.577C154.862 205.437 162.369 204.812 166.622 209.181C170.874 213.55 170.266 221.263 165.263 226.403C160.26 231.543 152.752 232.168 148.5 227.8C144.248 223.431 144.856 215.718 149.859 210.577Z" fill="#A2FF48"/>
<path opacity="0.3" d="M205.48 226.102C211.42 232.08 220.335 232.81 225.384 227.727C230.434 222.645 229.709 213.672 223.769 207.693C217.83 201.715 208.914 200.985 203.865 206.068C198.815 211.15 199.534 220.118 205.48 226.102Z" fill="#A2FF48"/>
<path opacity="0.2" d="M287.147 178.195C294.131 171.165 294.977 160.626 289.042 154.647C283.102 148.674 272.631 149.525 265.646 156.555C258.662 163.585 257.811 174.13 263.751 180.103C269.686 186.076 280.162 185.225 287.147 178.195Z" fill="#A2FF48"/>
<path d="M2.61662 171.962C5.74452 175.109 10.4336 175.491 13.0931 172.815C15.7527 170.138 15.3735 165.42 12.2456 162.272C9.11774 159.124 4.42869 158.743 1.76914 161.419C-0.890412 164.095 -0.505703 168.814 2.61662 171.962Z" fill="#A2FF48"/>
<path opacity="0.7" d="M48.9701 160.919C52.6197 157.246 58.0885 156.801 61.1907 159.923C64.2928 163.045 63.8504 168.549 60.2009 172.223C56.5513 175.896 51.0824 176.341 47.9803 173.219C44.8781 170.097 45.3205 164.587 48.9701 160.919Z" fill="#A2FF48"/>
<path opacity="0.5" d="M97.8858 174.687C102.159 178.987 108.568 179.514 112.202 175.856C115.836 172.198 115.313 165.748 111.04 161.447C106.768 157.147 100.358 156.62 96.724 160.278C93.0898 163.936 93.6129 170.386 97.8858 174.687Z" fill="#A2FF48"/>
<path opacity="0.4" d="M149.859 160.355C154.862 155.215 162.369 154.59 166.622 158.959C170.874 163.328 170.266 171.041 165.263 176.181C160.26 181.322 152.753 181.946 148.5 177.578C144.248 173.209 144.856 165.496 149.859 160.355Z" fill="#A2FF48"/>
<path opacity="0.3" d="M205.48 175.88C211.42 181.859 220.335 182.588 225.384 177.505C230.434 172.423 229.709 163.45 223.769 157.471C217.83 151.493 208.914 150.764 203.865 155.846C198.815 160.928 199.534 169.896 205.48 175.88Z" fill="#A2FF48"/>
<path opacity="0.2" d="M287.147 127.972C294.131 120.942 294.977 110.403 289.042 104.424C283.102 98.4504 272.631 99.3014 265.646 106.331C258.662 113.361 257.811 123.906 263.751 129.88C269.686 135.853 280.162 135.002 287.147 127.972Z" fill="#A2FF48"/>
<path d="M2.61662 121.74C5.74452 124.888 10.4336 125.269 13.0931 122.593C15.7527 119.916 15.3735 115.198 12.2456 112.05C9.11774 108.902 4.42869 108.521 1.76914 111.197C-0.890412 113.873 -0.505703 118.592 2.61662 121.74Z" fill="#A2FF48"/>
<path opacity="0.7" d="M48.9701 110.695C52.6197 107.022 58.0885 106.577 61.1907 109.699C64.2928 112.821 63.8504 118.325 60.2009 121.998C56.5513 125.672 51.0824 126.117 47.9803 122.995C44.8781 119.873 45.3205 114.363 48.9701 110.695Z" fill="#A2FF48"/>
<path opacity="0.5" d="M97.8858 124.463C102.159 128.763 108.568 129.29 112.202 125.632C115.836 121.974 115.313 115.524 111.04 111.223C106.768 106.923 100.358 106.396 96.724 110.054C93.0898 113.711 93.6129 120.162 97.8858 124.463Z" fill="#A2FF48"/>
<path opacity="0.4" d="M149.859 110.131C154.862 104.991 162.369 104.366 166.622 108.735C170.874 113.104 170.266 120.817 165.263 125.957C160.26 131.097 152.752 131.722 148.5 127.353C144.248 122.985 144.856 115.272 149.859 110.131Z" fill="#A2FF48"/>
<path opacity="0.3" d="M205.48 125.655C211.42 131.634 220.335 132.363 225.384 127.281C230.434 122.199 229.709 113.225 223.769 107.247C217.83 101.268 208.914 100.539 203.865 105.621C198.815 110.704 199.534 119.671 205.48 125.655Z" fill="#A2FF48"/>
<path opacity="0.2" d="M287.147 77.7495C294.131 70.7195 294.977 60.1801 289.042 54.2013C283.102 48.228 272.631 49.0789 265.646 56.1089C258.662 63.1389 257.811 73.6839 263.751 79.6571C269.686 85.6304 280.162 84.7794 287.147 77.7495Z" fill="#A2FF48"/>
<path d="M2.61662 71.5165C5.74452 74.6642 10.4336 75.0457 13.0931 72.3693C15.7527 69.693 15.3735 64.9743 12.2456 61.8266C9.11774 58.6789 4.42869 58.2974 1.76914 60.9737C-0.890412 63.6501 -0.505703 68.3688 2.61662 71.5165Z" fill="#A2FF48"/>
<path opacity="0.7" d="M48.9701 60.4726C52.6197 56.7995 58.0885 56.3543 61.1907 59.4764C64.2928 62.5986 63.8504 68.1027 60.2009 71.7758C56.5513 75.449 51.0824 75.8942 47.9803 72.772C44.8781 69.6499 45.3205 64.1402 48.9701 60.4726Z" fill="#A2FF48"/>
<path opacity="0.5" d="M97.8858 74.24C102.159 78.5404 108.568 79.0669 112.202 75.4093C115.836 71.7517 115.313 65.301 111.04 61.0005C106.768 56.7 100.358 56.1735 96.724 59.8311C93.0898 63.4888 93.6129 69.9395 97.8858 74.24Z" fill="#A2FF48"/>
<path opacity="0.4" d="M149.859 59.9072C154.862 54.7671 162.369 54.1421 166.622 58.511C170.874 62.8799 170.266 70.5929 165.263 75.7331C160.26 80.8733 152.753 81.4982 148.5 77.1294C144.248 72.7605 144.856 65.0474 149.859 59.9072Z" fill="#A2FF48"/>
<path opacity="0.3" d="M205.48 75.4335C211.42 81.412 220.335 82.1412 225.384 77.0589C230.434 71.9766 229.709 63.0033 223.769 57.0248C217.83 51.0463 208.914 50.317 203.865 55.3993C198.815 60.4816 199.534 69.4494 205.48 75.4335Z" fill="#A2FF48"/>
<path opacity="0.2" d="M287.147 27.5254C294.131 20.4954 294.977 9.95597 289.042 3.97715C283.102 -1.99611 272.631 -1.14517 265.646 5.88481C258.662 12.9148 257.811 23.4597 263.751 29.433C269.686 35.4063 280.162 34.5553 287.147 27.5254Z" fill="#A2FF48"/>
<path d="M2.61662 21.2926C5.74452 24.4403 10.4336 24.8218 13.0931 22.1455C15.7527 19.4691 15.3735 14.7504 12.2456 11.6027C9.11774 8.45502 4.42869 8.07348 1.76914 10.7498C-0.890412 13.4262 -0.505703 18.1449 2.61662 21.2926Z" fill="#A2FF48"/>
<path opacity="0.7" d="M48.9701 10.2495C52.6197 6.57638 58.0885 6.13115 61.1907 9.25331C64.2928 12.3755 63.8504 17.8796 60.2009 21.5527C56.5513 25.2258 51.0824 25.671 47.9803 22.5489C44.8781 19.4267 45.3205 13.9171 48.9701 10.2495Z" fill="#A2FF48"/>
<path opacity="0.5" d="M97.8858 24.0168C102.159 28.3173 108.568 28.8438 112.202 25.1862C115.836 21.5285 115.313 15.0778 111.04 10.7773C106.768 6.47685 100.358 5.95037 96.724 9.60799C93.0898 13.2656 93.6129 19.7163 97.8858 24.0168Z" fill="#A2FF48"/>
<path opacity="0.4" d="M149.859 9.68531C154.862 4.54514 162.369 3.92021 166.622 8.28908C170.874 12.6579 170.266 20.371 165.263 25.5112C160.26 30.6514 152.752 31.2763 148.5 26.9074C144.248 22.5386 144.856 14.8255 149.859 9.68531Z" fill="#A2FF48"/>
<path opacity="0.3" d="M205.48 25.2101C211.42 31.1886 220.335 31.9178 225.384 26.8355C230.434 21.7532 229.709 12.7799 223.769 6.80138C217.83 0.822862 208.914 0.0936366 203.865 5.17593C198.815 10.2582 199.534 19.226 205.48 25.2101Z" fill="#A2FF48"/>
</svg>
