<svg width="20" height="19" viewBox="0 0 20 19" fill="none" xmlns="http://www.w3.org/2000/svg">
<path d="M13.3334 6.66675C14.6594 6.66675 15.9312 7.19353 16.8689 8.13121C17.8066 9.0689 18.3334 10.3407 18.3334 11.6667V17.5001H15V11.6667C15 11.2247 14.8244 10.8008 14.5119 10.4882C14.1993 10.1757 13.7754 10.0001 13.3334 10.0001C12.8913 10.0001 12.4674 10.1757 12.1548 10.4882C11.8423 10.8008 11.6667 11.2247 11.6667 11.6667V17.5001H8.33335V11.6667C8.33335 10.3407 8.86014 9.0689 9.79782 8.13121C10.7355 7.19353 12.0073 6.66675 13.3334 6.66675Z" stroke="#FF5F45" stroke-width="1.5" stroke-linecap="round" stroke-linejoin="round"/>
<path d="M5.00002 7.50008H1.66669V17.5001H5.00002V7.50008Z" stroke="#FF5F45" stroke-width="1.5" stroke-linecap="round" stroke-linejoin="round"/>
<path d="M3.33335 5.00008C4.25383 5.00008 5.00002 4.25389 5.00002 3.33341C5.00002 2.41294 4.25383 1.66675 3.33335 1.66675C2.41288 1.66675 1.66669 2.41294 1.66669 3.33341C1.66669 4.25389 2.41288 5.00008 3.33335 5.00008Z" stroke="#FF5F45" stroke-width="1.5" stroke-linecap="round" stroke-linejoin="round"/>
</svg>
