<svg width="20" height="20" viewBox="0 0 20 20" fill="none" xmlns="http://www.w3.org/2000/svg">
<path d="M14.5834 5.41675H14.5917M5.83335 1.66675H14.1667C16.4679 1.66675 18.3334 3.53223 18.3334 5.83341V14.1667C18.3334 16.4679 16.4679 18.3334 14.1667 18.3334H5.83335C3.53217 18.3334 1.66669 16.4679 1.66669 14.1667V5.83341C1.66669 3.53223 3.53217 1.66675 5.83335 1.66675ZM13.3334 9.47508C13.4362 10.1686 13.3177 10.8769 12.9948 11.4993C12.6719 12.1216 12.161 12.6263 11.5347 12.9415C10.9084 13.2567 10.1987 13.3664 9.50651 13.255C8.81429 13.1436 8.17482 12.8168 7.67905 12.321C7.18328 11.8253 6.85646 11.1858 6.74508 10.4936C6.63369 9.80138 6.74341 9.09166 7.05863 8.46539C7.37384 7.83913 7.87851 7.3282 8.50084 7.00528C9.12317 6.68237 9.83148 6.56391 10.525 6.66675C11.2325 6.77165 11.8874 7.1013 12.3931 7.607C12.8988 8.11271 13.2285 8.76765 13.3334 9.47508Z" stroke="#FF5F45" stroke-width="1.5" stroke-linecap="round" stroke-linejoin="round"/>
</svg>
