<svg width="163" height="186" viewBox="0 0 163 186" fill="none" xmlns="http://www.w3.org/2000/svg">
<g opacity="0.2">
<path d="M51.1646 42.8855C49.663 41.2181 46.4265 41.1607 43.9473 43.6706C41.6971 45.9512 41.3448 48.986 43.1635 50.8696C45.0658 52.8414 48.364 52.1047 50.3896 50.0624C52.6178 47.8171 52.8952 44.4294 51.1646 42.8811" fill="#A2FF48"/>
<path d="M32.5953 61.6416C34.8015 63.8516 38.0204 64.2177 39.751 62.418C41.3363 60.7682 41.4111 57.7731 38.9628 55.2852C36.5541 52.837 33.4892 52.7929 31.7983 54.4603C30.0193 56.2115 30.3848 59.4228 32.5953 61.6416Z" fill="#A2FF48"/>
<path d="M38.8389 66.8554C36.6108 64.641 33.5547 64.3278 31.7977 66.1408C30.0936 67.8964 30.4415 71.046 32.5948 73.1854C34.6204 75.2013 37.7821 75.8806 39.68 73.9529C41.6307 71.9723 40.8249 68.7125 38.8389 66.8554Z" fill="#A2FF48"/>
<path d="M38.8479 90.0448C36.8795 87.9627 33.6077 87.4643 31.8419 89.2684C30.1114 91.0373 30.4196 94.1074 32.6169 96.3174C34.9068 98.62 37.976 98.8229 39.6934 97.0849C41.534 95.2235 40.8603 91.9151 38.8479 90.0448Z" fill="#A2FF48"/>
<path d="M38.8261 78.4523C36.6332 76.2688 33.6036 75.9732 31.829 77.7156C30.4199 79.1007 30.0236 82.1356 32.6304 84.7558C34.9731 87.1113 38.0247 87.2481 39.698 85.4924C41.6356 83.4589 40.7505 80.2697 38.8217 78.4523" fill="#A2FF48"/>
<path d="M31.8601 100.737C30.2705 102.206 30.2661 105.351 32.6352 107.773C34.4538 109.635 37.6287 110.57 39.6763 108.47C41.7152 106.379 40.6055 103.146 38.8529 101.456C36.6335 99.3214 33.6039 98.9729 31.8645 100.737" fill="#A2FF48"/>
<path d="M39.6586 120.054C41.2791 118.576 41.1822 115.307 38.8748 113.036C36.6686 110.865 33.661 110.53 31.8776 112.25C30.2351 113.838 30.2924 117.006 32.6658 119.343C35.1362 121.783 38.2583 121.62 39.6586 120.049" fill="#A2FF48"/>
<path d="M39.6667 50.7374C41.3797 48.9995 41.0186 45.8367 38.8609 43.6929C37.0598 41.9064 33.9025 40.8742 31.8461 42.9606C30.0495 44.7824 30.4986 47.782 32.6564 50.0228C34.7524 52.1975 37.9449 52.4842 39.6667 50.7374Z" fill="#A2FF48"/>
<path d="M44.0968 55.3425C41.9963 57.3716 41.5868 60.5609 43.291 62.3077C44.7573 63.8119 47.8265 63.9486 50.2309 61.5489C52.6087 59.1758 52.5559 56.1056 51.0279 54.5838C49.3061 52.8723 46.2457 53.1987 44.0968 55.3469" fill="#A2FF48"/>
<path d="M38.813 124.716C37.1617 122.899 33.9251 121.893 31.9127 123.944C30.0809 125.81 30.7678 128.898 32.7186 130.834C34.841 132.939 37.8839 133.283 39.5704 131.584C41.3142 129.833 40.8606 126.653 38.813 124.716Z" fill="#A2FF48"/>
<path d="M54.9606 43.1325C53.2917 44.694 53.5955 47.751 55.6608 49.8507C57.7304 51.9548 60.7644 52.2856 62.4421 50.627C63.8821 49.2022 64.0626 46.2247 61.6495 43.8207C59.4346 41.6195 56.4314 41.518 54.9606 43.1281" fill="#A2FF48"/>
<path d="M50.7947 66.4011C49.2094 64.672 46.127 65.2234 44.2555 67.1246C42.2431 69.1713 42.0273 72.1179 43.5245 73.6442C45.0525 75.1969 47.9368 75.0778 50.0725 72.9737C52.1201 70.9534 52.4151 68.0332 50.7947 66.4011Z" fill="#A2FF48"/>
<path d="M50.029 38.1435C51.8608 36.4055 52.4333 33.3663 50.7071 31.6636C49.2892 30.2696 46.5458 30.1814 44.3044 32.4135C42.2128 34.4999 42.0586 37.3495 43.6263 38.8934C45.3128 40.552 48.316 39.9653 50.029 38.1435Z" fill="#A2FF48"/>
<path d="M50.0245 84.4691C51.9884 82.4974 52.3495 79.6169 50.7466 78.0421C49.0513 76.3791 46.3299 76.7497 44.3484 78.7259C41.922 81.1476 42.3272 83.9751 43.6218 85.2146C45.2423 86.7585 48.0473 86.4586 50.0245 84.4691Z" fill="#A2FF48"/>
<path d="M50.7021 89.6169C49.337 88.148 46.3999 88.2186 44.3214 90.3668C42.3355 92.4224 42.0448 95.122 43.6433 96.7629C45.2241 98.3862 48.1833 97.923 50.0372 96.0263C51.9923 94.0236 52.3006 91.2093 50.7021 89.6169Z" fill="#A2FF48"/>
<path d="M44.3566 101.792C42.309 103.755 42.0756 106.684 43.6036 108.205C45.1845 109.78 48.0423 109.467 50.0063 107.5C51.9746 105.528 52.3005 102.656 50.7417 101.068C49.1696 99.4758 46.3514 99.7934 44.3566 101.792Z" fill="#A2FF48"/>
<path d="M44.3303 113.349C42.3487 115.351 42.0405 118.161 43.6301 119.758C45.1758 121.315 48.0821 120.971 50.0372 118.999C51.9836 117.036 52.2962 114.147 50.7198 112.581C49.2094 111.077 46.3163 111.267 44.3303 113.349Z" fill="#A2FF48"/>
<path d="M55.8762 38.1039C57.871 40.1109 60.6496 40.4285 62.2437 38.8229C63.8289 37.2261 63.5075 34.4118 61.5127 32.4223C59.5487 30.4638 56.7745 30.155 55.1981 31.7166C53.5864 33.3178 53.8814 36.0924 55.8762 38.1039Z" fill="#A2FF48"/>
<path d="M66.7356 50.4066C68.2196 52.0299 71.2492 51.5535 73.0414 49.692C74.9922 47.6673 75.3312 44.853 73.7416 43.2826C72.1695 41.7255 69.2896 42.0828 67.3389 44.0854C65.3397 46.1366 65.19 49.0347 66.7356 50.4066Z" fill="#A2FF48"/>
<path d="M73.0766 38.0464C74.9657 36.1232 75.2827 33.278 73.7503 31.7738C72.2179 30.2696 69.5097 30.3932 67.4357 32.484C65.366 34.5661 65.2471 37.2833 66.7619 38.8184C68.3032 40.3843 71.1346 40.027 73.0766 38.0509" fill="#A2FF48"/>
<path d="M50.6185 124.271C49.0773 122.731 46.2987 123.044 44.3744 124.977C42.4501 126.913 42.155 129.674 43.7139 131.231C45.2859 132.797 47.9941 132.493 49.936 130.526C51.8735 128.563 52.173 125.823 50.6185 124.271Z" fill="#A2FF48"/>
<path d="M78.3478 43.3972C76.767 44.9632 77.0576 47.676 79.0083 49.639C80.9371 51.5799 83.7157 51.8887 85.2525 50.3403C86.7585 48.8229 86.459 46.0307 84.5832 44.1295C82.65 42.1709 79.9111 41.8489 78.3478 43.3972Z" fill="#A2FF48"/>
<path d="M79.0347 38.0552C80.6463 39.749 83.4514 40.5122 85.2128 38.7918C87.071 36.9789 86.2124 34.1293 84.5302 32.4663C82.6103 30.5695 79.7392 30.2475 78.2817 31.8399C76.6436 33.6308 77.2953 36.3569 79.0302 38.0552" fill="#A2FF48"/>
<path d="M32.362 135.925C30.7019 137.403 31.2259 140.345 32.9873 142.083C34.9381 144.006 37.5934 144.35 39.1434 142.824C40.7066 141.284 40.4336 138.47 38.5137 136.578C36.5982 134.69 33.7579 134.354 32.362 135.929" fill="#A2FF48"/>
<path d="M39.1255 38.6728C40.6491 37.151 40.3541 34.469 38.4562 32.5634C36.5627 30.6622 33.8986 30.3843 32.3618 31.8929C31.1816 33.0575 30.8161 35.6424 33.0223 37.9582C34.8409 39.8683 37.6239 40.1726 39.1211 38.6728" fill="#A2FF48"/>
<path d="M95.9703 37.9495C97.7008 36.3174 98.2425 33.5604 96.6528 31.9195C95.2085 30.4285 92.4695 30.7814 90.6332 32.6429C88.9379 34.3588 88.4051 37.0187 89.9727 38.62C91.5359 40.2168 94.3013 39.7228 95.9747 37.9539" fill="#A2FF48"/>
<path d="M96.6041 43.5252C95.1157 42.0608 92.5044 42.3563 90.6726 44.2046C89.0036 45.8896 88.3519 48.5627 90.0385 50.2257C91.7162 51.8843 94.4464 51.1432 96.0448 49.4626C97.8371 47.5835 98.0969 44.9986 96.5997 43.5252" fill="#A2FF48"/>
<path d="M26.8264 95.8013C28.6362 93.9796 28.918 91.377 27.4649 89.9257C26.0249 88.4833 23.3961 88.7833 21.5994 90.5918C19.8028 92.4004 19.521 95.0206 20.9697 96.4718C22.4141 97.9231 25.0121 97.6231 26.822 95.8013" fill="#A2FF48"/>
<path d="M27.4383 101.39C26.0424 99.8816 23.3519 100.27 21.5993 102.047C19.8511 103.821 19.5252 106.45 20.9916 107.919C22.3963 109.321 25.0384 109.074 26.8438 107.244C28.6272 105.435 28.9311 102.74 27.4383 101.39Z" fill="#A2FF48"/>
<path d="M27.4522 66.785C26.0255 65.2146 23.2381 65.7528 21.6088 67.4334C19.9134 69.1802 19.4158 71.7651 20.9835 73.3134C22.6128 74.9235 25.2064 74.2883 26.8401 72.6385C28.7204 70.7417 28.8789 68.0554 27.4522 66.7806" fill="#A2FF48"/>
<path d="M26.84 61.0284C28.575 59.2904 28.9669 56.6922 27.4521 55.1483C26.0342 53.7059 23.3656 54.0588 21.5734 55.8541C19.9441 57.4862 19.4553 60.2211 20.9834 61.7297C22.3396 63.0707 24.9817 62.9384 26.8356 61.0284" fill="#A2FF48"/>
<path d="M27.4694 78.364C26.0206 76.9128 23.4137 77.1995 21.6171 79.0081C19.8205 80.8122 19.5299 83.4545 20.9654 84.8969C22.4053 86.3393 25.0166 86.0438 26.8265 84.2352C28.6407 82.4223 28.9225 79.8241 27.4694 78.3684" fill="#A2FF48"/>
<path d="M27.4388 112.96C26.1266 111.439 23.3435 111.814 21.5954 113.604C19.8031 115.44 19.6094 118.091 20.9965 119.427C22.4981 120.87 25.0257 120.596 26.8531 118.757C28.5969 117.001 28.9316 114.275 27.4388 112.96Z" fill="#A2FF48"/>
<path d="M55.4848 55.2674C54.2959 56.3393 54.0537 58.9419 56.1849 61.0769C57.9684 62.8634 60.5356 63.0663 61.9535 61.6018C63.323 60.1858 63.0324 57.5303 61.2622 55.8453C59.0648 53.7544 56.546 54.0323 55.4804 55.2674" fill="#A2FF48"/>
<path d="M26.7433 130.305C28.3902 128.748 28.967 126.172 27.3994 124.588C25.8538 123.027 23.3262 123.591 21.6925 125.215C19.9575 126.939 19.6272 129.489 21.0451 130.949C22.3354 132.277 24.9334 132.206 26.7433 130.305Z" fill="#A2FF48"/>
<path d="M21.0889 49.9873C22.3483 51.4386 25.0433 51.0901 26.699 49.3962C28.4604 47.5921 28.7598 45.091 27.3287 43.6838C25.9284 42.3032 23.4624 42.6208 21.6922 44.3543C20.151 45.8629 19.5389 48.5846 21.0933 49.9873" fill="#A2FF48"/>
<path d="M44.6741 136.847C42.8731 138.576 42.7234 141.201 44.0708 142.493C45.4667 143.834 47.9635 143.569 49.6589 141.875C51.4115 140.129 51.6757 137.641 50.293 136.212C48.8442 134.712 46.1537 135.219 44.6697 136.847" fill="#A2FF48"/>
<path d="M26.474 141.655C28.1033 140.036 28.3587 137.778 27.0597 136.485C25.7915 135.219 23.5457 135.462 21.9648 137.032C20.362 138.62 20.0757 140.971 21.3792 142.215C22.8455 143.614 25.0737 143.08 26.474 141.655Z" fill="#A2FF48"/>
<path d="M102.624 37.5745C104.209 39.1537 106.459 39.4051 107.71 38.1303C108.921 36.8952 108.846 34.7337 107.168 33.0134C105.543 31.3504 103.254 31.174 102.007 32.4576C100.757 33.7412 101.039 35.9865 102.628 37.5745" fill="#A2FF48"/>
<path d="M102.628 49.1538C104.218 50.7418 106.433 50.9755 107.714 49.7096C108.943 48.4877 108.819 46.2601 107.168 44.5971C105.455 42.8679 103.209 42.7797 102.003 44.0369C100.752 45.3381 101.03 47.6099 102.628 49.1582" fill="#A2FF48"/>
<path d="M26.3904 37.4201C27.8347 35.9556 28.0725 33.7677 26.9232 32.59C25.7739 31.4122 23.4797 31.668 22.0397 33.1413C20.5998 34.6147 20.362 36.807 21.5201 37.9759C22.7047 39.1714 24.9152 38.9199 26.3904 37.4201Z" fill="#A2FF48"/>
<path d="M67.5811 61.1168C68.7744 62.3078 70.9013 62.0872 72.3809 60.6139C73.6403 59.3611 74.27 57.1159 72.8917 55.7264C71.7732 54.6015 69.5406 54.8397 68.0919 56.3042C66.577 57.8349 66.4582 60.0934 67.5811 61.1123" fill="#A2FF48"/>
<path d="M60.7468 67.87C59.6635 66.701 57.4354 65.9644 56.0483 67.4156C54.8197 68.7037 55.1279 70.7064 56.6119 72.162C58.3117 73.8294 60.3109 73.7456 61.3853 72.612C62.6491 71.2754 62.0502 69.0301 60.7512 67.87" fill="#A2FF48"/>
<path d="M37.7735 148.854C36.3512 147.442 34.3167 147.204 33.1938 148.351C32.1546 149.414 32.1458 151.386 33.6914 152.956C35.1578 154.452 37.1746 154.606 38.3371 153.45C39.4688 152.326 39.2002 150.27 37.7735 148.854Z" fill="#A2FF48"/>
<path d="M79.2768 55.9247C78.176 57.0275 78.3917 59.0522 79.7612 60.4373C81.1571 61.8533 83.218 62.0783 84.3232 60.9402C85.4065 59.8198 85.1643 57.7774 83.7816 56.4144C82.3857 55.0381 80.3821 54.8219 79.2812 55.9247" fill="#A2FF48"/>
<path d="M72.7374 21.2181C71.7026 20.0227 69.5801 20.3447 68.2767 21.6725C66.8808 23.0973 66.6474 25.0161 67.7218 26.1806C68.5585 27.0893 70.496 27.4555 72.2663 25.6998C73.7855 24.1868 73.8207 22.1842 72.7374 21.2181Z" fill="#A2FF48"/>
<path d="M61.1913 26.207C62.3186 25.0822 62.1029 23.1545 60.7246 21.7209C59.3639 20.3005 57.2766 20.0932 56.189 21.2092C55.1674 22.2547 55.2995 24.2926 56.7174 25.7086C58.2982 27.2833 60.3635 27.1686 61.1913 26.207Z" fill="#A2FF48"/>
<path d="M79.3251 21.2092C78.026 22.3737 78.5941 24.5308 79.7566 25.6865C81.1437 27.0671 83.1253 27.3098 84.2438 26.2114C85.3622 25.1086 85.1729 23.0883 83.7946 21.7209C82.2402 20.1726 80.2234 20.1726 79.3251 21.2092Z" fill="#A2FF48"/>
<path d="M45.2201 21.7033C43.6524 23.1369 43.7317 25.2983 44.696 26.1982C45.8498 27.2789 47.8005 27.0716 49.1964 25.6733C50.4514 24.4205 50.7905 22.3826 49.6896 21.2225C48.6372 20.1153 46.4442 20.3226 45.2201 21.7033Z" fill="#A2FF48"/>
<path d="M56.2642 79.1979C55.2029 80.2698 55.4187 82.2416 56.7617 83.5605C58.1268 84.8971 60.0027 85.1882 61.1124 84.0634C62.3322 82.8238 61.9006 80.9844 60.6765 79.7008C59.3598 78.3157 57.3474 78.1039 56.2642 79.1979Z" fill="#A2FF48"/>
<path d="M95.2305 25.6072C96.578 24.253 96.7938 22.3341 95.7193 21.2622C94.6493 20.1947 92.7249 20.4153 91.3863 21.7607C90.0344 23.1149 89.8318 25.0029 90.9195 26.0924C92.016 27.1908 93.861 26.9834 95.2305 25.6072Z" fill="#A2FF48"/>
<path d="M61.0769 107.072C62.169 105.987 61.9884 104.103 60.6586 102.731C59.3464 101.377 57.4132 101.148 56.3256 102.211C55.2335 103.278 55.4184 105.179 56.7483 106.547C58.0649 107.901 60.0025 108.135 61.0769 107.067" fill="#A2FF48"/>
<path d="M60.6058 91.2227C59.2495 89.9037 57.2988 89.7141 56.2728 90.7992C55.2336 91.8976 55.4757 93.8605 56.81 95.1618C58.1575 96.4763 60.1214 96.6748 61.1386 95.5809C62.2043 94.434 61.9489 92.6166 60.6058 91.2183" fill="#A2FF48"/>
<path d="M56.2946 113.785C55.229 114.866 55.4623 116.829 56.8098 118.143C58.1793 119.48 60.064 119.652 61.1385 118.536C62.1645 117.469 61.9355 115.528 60.6321 114.235C59.2758 112.89 57.3735 112.696 56.2946 113.79" fill="#A2FF48"/>
<path d="M95.7062 56.0659C94.6274 54.9808 92.7119 55.2013 91.3776 56.5644C90.083 57.8833 89.8804 59.8021 90.924 60.852C91.9941 61.9327 93.9096 61.7033 95.2571 60.3359C96.5693 59.0081 96.7631 57.129 95.7018 56.0659" fill="#A2FF48"/>
<path d="M56.832 129.63C57.9065 130.843 59.9101 131.223 61.0153 130.16C62.125 129.096 61.918 127.2 60.553 125.845C59.2627 124.566 57.4001 124.35 56.3608 125.369C55.2996 126.406 55.511 128.307 56.8276 129.63" fill="#A2FF48"/>
<path d="M49.4782 148.58C48.4478 147.557 46.5499 147.764 45.2817 149.044C44.0091 150.327 43.8065 152.224 44.8282 153.256C45.885 154.324 47.7741 154.108 49.0775 152.767C50.3501 151.457 50.5263 149.617 49.4782 148.576" fill="#A2FF48"/>
<path d="M37.6107 21.8489C36.3029 20.5256 34.4975 20.3183 33.4494 21.3637C32.4058 22.4047 32.5952 24.2353 33.881 25.5499C35.1448 26.8423 37.0383 27.0629 38.0643 26.0351C39.0991 24.9941 38.901 23.1502 37.6107 21.8489Z" fill="#A2FF48"/>
<path d="M22.1019 153.084C23.2071 154.099 24.9025 153.741 25.9901 152.59C27.1791 151.329 27.3332 149.723 26.3424 148.766C25.3384 147.791 23.7312 147.941 22.4629 149.26C21.2212 150.548 21.1903 152.114 22.1019 153.084Z" fill="#A2FF48"/>
<path d="M60.817 141.434C61.7813 140.455 61.5832 138.871 60.3766 137.632C59.3286 136.56 57.6288 136.145 56.5808 137.222C55.568 138.263 55.8498 139.886 57.0256 141.042C58.3466 142.347 59.9275 142.347 60.817 141.434Z" fill="#A2FF48"/>
<path d="M102.804 21.6726C101.902 22.5989 102.109 24.1781 103.232 25.3471C104.09 26.2425 105.847 26.8556 106.957 25.7132C107.833 24.8133 107.587 23.0841 106.468 22.0122C105.319 20.9095 103.694 20.7551 102.804 21.6726Z" fill="#A2FF48"/>
<path d="M103.236 60.0667C104.377 61.2225 105.949 61.3989 106.887 60.5079C107.741 59.7006 107.807 58.0773 106.486 56.7805C105.398 55.713 103.936 55.3865 102.818 56.3879C101.889 57.2172 102.118 58.9375 103.232 60.0667" fill="#A2FF48"/>
<path d="M10.6874 56.4628C9.81991 57.3318 10.0005 59.008 11.0661 60.0534C12.1626 61.1253 13.7963 61.2974 14.6549 60.4284C15.5401 59.5373 15.3067 57.9141 14.241 56.8466C13.193 55.7967 11.5329 55.5409 10.6874 56.4628Z" fill="#A2FF48"/>
<path d="M14.6642 71.9813C15.5537 71.1476 15.3336 69.4846 14.2459 68.4083C13.1714 67.3452 11.5554 67.1379 10.6791 68.0246C9.82919 68.8891 10.0141 70.5698 11.093 71.6329C12.1146 72.6386 13.8276 72.9386 14.6598 71.9813" fill="#A2FF48"/>
<path d="M14.2105 79.983C13.1845 78.8714 11.5244 78.7302 10.6569 79.6213C9.82025 80.4815 10.0316 82.2239 11.1149 83.234C12.2554 84.3015 13.7922 84.4559 14.6817 83.556C15.4523 82.7752 15.4215 81.0461 14.2105 79.983Z" fill="#A2FF48"/>
<path d="M14.246 103.057C13.2068 101.911 11.5379 101.783 10.688 102.638C9.97905 103.353 9.75888 104.897 11.0843 106.229C12.3922 107.544 13.9378 107.35 14.66 106.626C15.5098 105.784 15.3909 104.112 14.246 103.057Z" fill="#A2FF48"/>
<path d="M14.2632 114.606C13.2416 113.472 11.5947 113.287 10.7052 114.152C9.83332 115.003 9.97863 116.688 11.0575 117.742C12.3037 118.964 13.8405 118.925 14.6419 118.166C15.4081 117.438 15.4962 115.753 14.2632 114.602" fill="#A2FF48"/>
<path d="M14.206 91.5753C13.2504 90.4946 11.5023 90.3314 10.6656 91.2357C9.72325 92.2546 10.1064 93.8691 11.1148 94.8219C12.3081 95.9511 13.7965 96.0173 14.6772 95.1439C15.4302 94.3984 15.4522 92.6781 14.2104 91.5753" fill="#A2FF48"/>
<path d="M117.957 48.4084C119.04 47.3188 119.203 45.7793 118.331 44.9103C117.455 44.0414 115.931 44.2134 114.848 45.3073C113.756 46.4101 113.593 47.9231 114.473 48.8009C115.345 49.6655 116.882 49.4935 117.957 48.4084Z" fill="#A2FF48"/>
<path d="M10.727 125.863C9.84193 126.772 10.0269 128.245 11.1674 129.357C12.2506 130.411 13.739 130.57 14.6021 129.719C15.474 128.863 15.2934 127.297 14.2058 126.203C13.1225 125.113 11.5989 124.963 10.727 125.863Z" fill="#A2FF48"/>
<path d="M117.93 36.8555C119.022 35.7748 119.212 34.2265 118.362 33.3531C117.503 32.4708 115.971 32.6208 114.879 33.6971C113.782 34.7823 113.593 36.3218 114.452 37.1996C115.31 38.0818 116.847 37.9274 117.93 36.8555Z" fill="#A2FF48"/>
<path d="M14.2455 45.3555C13.2239 44.3145 11.665 44.1248 10.7975 44.9321C9.93887 45.7349 10.0974 47.292 11.1454 48.3639C12.1935 49.4402 13.7127 49.6255 14.5625 48.7874C15.4212 47.9405 15.2759 46.4054 14.2455 45.3555Z" fill="#A2FF48"/>
<path d="M25.7128 25.1087C26.6771 24.1779 26.9281 22.6825 26.0342 21.8312C25.0699 20.9137 23.6167 21.3107 22.6876 22.312C21.6968 23.3751 21.5823 24.7734 22.4366 25.5762C23.282 26.3702 24.6824 26.1717 25.7128 25.1087Z" fill="#A2FF48"/>
<path d="M11.2909 140.728C12.2508 141.699 13.5983 141.849 14.3909 141.068C15.21 140.261 15.0779 139.004 14.0959 137.976C13.039 136.864 11.674 136.851 10.9298 137.597C10.168 138.36 10.3441 139.771 11.2909 140.728Z" fill="#A2FF48"/>
<path d="M71.8783 68.3907C71.1385 67.654 69.8219 67.7996 68.9148 68.7215C68.0076 69.6434 67.8667 70.958 68.6021 71.7034C69.3199 72.4357 70.6453 72.2769 71.5701 71.3505C72.5036 70.411 72.6357 69.145 71.8783 68.3907Z" fill="#A2FF48"/>
<path d="M11.0529 33.6353C10.3263 34.3631 10.4848 35.7173 11.4008 36.6172C12.2815 37.4818 13.6025 37.6229 14.3071 36.926C15.0337 36.207 14.8707 34.8351 13.9592 33.944C13.0653 33.0751 11.753 32.9339 11.0529 33.6353Z" fill="#A2FF48"/>
<path d="M57.1534 149.352C56.44 149.93 56.4929 151.223 57.4528 152.228C58.2411 153.058 59.659 153.194 60.2799 152.493C61.0461 151.624 60.7026 150.429 59.9496 149.665C59.0821 148.783 57.7347 148.646 57.1578 149.352" fill="#A2FF48"/>
<path d="M35.7702 164.487C36.9415 164.483 37.7473 163.645 37.7253 162.445C37.7077 161.333 36.8446 160.482 35.7481 160.495C34.6341 160.508 33.7357 161.439 33.7622 162.564C33.7842 163.667 34.6473 164.491 35.7702 164.487Z" fill="#A2FF48"/>
<path d="M117.78 22.3164C117.146 21.6767 116.076 21.8002 115.288 22.6031C114.544 23.3662 114.416 24.4337 115.002 25.0601C115.601 25.6997 116.715 25.5938 117.507 24.8219C118.3 24.0499 118.419 22.956 117.785 22.3164" fill="#A2FF48"/>
<path d="M117.503 59.564C118.274 58.7921 118.415 57.6231 117.803 57.0232C117.19 56.4233 116.037 56.5733 115.271 57.3584C114.526 58.1216 114.399 59.2067 114.976 59.8287C115.557 60.4551 116.728 60.3271 117.499 59.5596" fill="#A2FF48"/>
<path d="M45.8713 163.852C46.4041 164.385 47.4697 164.271 48.1655 163.6C48.9273 162.864 49.0594 161.867 48.4737 161.253C47.9189 160.671 46.8356 160.768 46.1223 161.47C45.4441 162.127 45.3252 163.3 45.8713 163.852Z" fill="#A2FF48"/>
<path d="M13.6644 149.851C12.9334 149.141 11.969 149.048 11.3922 149.635C10.8153 150.221 10.9386 151.315 11.6652 152.003C12.3785 152.678 13.4046 152.775 13.9594 152.215C14.5451 151.624 14.4174 150.587 13.6644 149.855" fill="#A2FF48"/>
<path d="M82.7816 69.039C82.0462 68.2847 81.1127 68.1788 80.5226 68.7832C79.9634 69.3566 80.0426 70.2873 80.7119 71.002C81.3813 71.7121 82.4513 71.8621 83.0106 71.324C83.6006 70.7549 83.5038 69.7801 82.7816 69.0434" fill="#A2FF48"/>
<path d="M58.6775 10.5387C57.8804 10.552 57.2948 11.2886 57.3036 12.2635C57.3124 13.203 57.9597 13.9662 58.7303 13.9441C59.4921 13.9221 60.1306 13.1192 60.113 12.1973C60.0954 11.2489 59.4701 10.5255 58.6731 10.5387" fill="#A2FF48"/>
<path d="M71.4254 11.0283C70.8618 10.4769 69.8886 10.574 69.2369 11.2533C68.5896 11.9238 68.5015 12.9295 69.052 13.4633C69.6112 14.0059 70.5888 13.8956 71.2493 13.2163C71.9318 12.5149 72.0067 11.5974 71.4298 11.0328" fill="#A2FF48"/>
<path d="M47.14 10.5388C46.1095 10.5476 45.4226 11.2357 45.4358 12.2503C45.449 13.2031 46.224 13.953 47.1928 13.9441C48.1219 13.9353 48.941 13.106 48.9146 12.2017C48.8837 11.2136 48.1616 10.5299 47.1444 10.5432" fill="#A2FF48"/>
<path d="M80.602 11.0239C80.0956 11.4562 80.0031 12.4443 80.8089 13.203C81.4827 13.8382 82.4118 13.9794 82.9446 13.4809C83.5171 12.9516 83.4422 11.9679 82.7773 11.2798C82.0639 10.5387 81.192 10.4372 80.5975 11.0195" fill="#A2FF48"/>
<path d="M71.6101 81.5667C71.5925 80.6757 70.9584 79.9037 70.2406 79.8993C69.5097 79.8993 68.8315 80.7551 68.8535 81.6549C68.8756 82.5151 69.5493 83.3312 70.2362 83.3356C70.9716 83.3356 71.6277 82.4975 71.6101 81.5667Z" fill="#A2FF48"/>
<path d="M94.2525 13.2119C94.9438 12.5414 95.0583 11.6636 94.5299 11.0945C94.0015 10.5211 93.112 10.5696 92.4339 11.2092C91.7249 11.8797 91.584 12.8325 92.1388 13.406C92.6496 13.9309 93.6624 13.8735 94.2525 13.2163" fill="#A2FF48"/>
<path d="M94.495 68.8582C93.9754 68.3289 93.0198 68.4435 92.3769 69.1052C91.756 69.7448 91.6459 70.6623 92.1259 71.174C92.6279 71.7122 93.5879 71.6284 94.2396 70.9888C94.9001 70.3403 95.0146 69.3875 94.495 68.8582Z" fill="#A2FF48"/>
<path d="M24.2285 160.865C23.4931 160.861 22.9383 161.531 22.9206 162.453C22.8986 163.388 23.4887 164.178 24.2153 164.178C24.9154 164.178 25.5011 163.455 25.5231 162.564C25.5451 161.584 24.9991 160.87 24.2285 160.865Z" fill="#A2FF48"/>
<path d="M71.5 104.632C71.4956 103.724 70.9099 102.996 70.2053 103.022C69.5316 103.044 68.9768 103.75 68.9591 104.61C68.9459 105.51 69.5184 106.264 70.223 106.273C70.9231 106.282 71.5 105.541 71.4956 104.632" fill="#A2FF48"/>
<path d="M71.5045 93.1988C71.5045 92.2592 70.9717 91.5888 70.2275 91.6064C69.4965 91.624 68.9461 92.3342 68.9637 93.2385C68.9813 94.1075 69.5185 94.7648 70.2187 94.7868C70.9584 94.8089 71.5001 94.1384 71.5001 93.1988" fill="#A2FF48"/>
<path d="M37.0167 12.1928C37.0035 11.2841 36.4178 10.5915 35.6956 10.6312C35.0219 10.6665 34.4627 11.4076 34.4671 12.2413C34.4759 13.1235 35.0703 13.8028 35.8101 13.7719C36.5587 13.7411 37.0255 13.1235 37.0123 12.1928" fill="#A2FF48"/>
<path d="M70.2584 114.593C69.5274 114.58 68.9682 115.268 68.9682 116.181C68.9682 117.054 69.5759 117.826 70.2584 117.813C70.919 117.8 71.4826 117.085 71.5046 116.234C71.5266 115.303 71.0026 114.61 70.2584 114.593Z" fill="#A2FF48"/>
<path d="M13.5278 22.7797C12.9333 22.2107 12.0086 22.1489 11.5462 22.643C11.0662 23.1547 11.1939 24.0148 11.8369 24.628C12.4445 25.2102 13.4001 25.2896 13.8228 24.8C14.25 24.3015 14.1091 23.3311 13.5322 22.7797" fill="#A2FF48"/>
<path d="M71.4785 127.804C71.4961 126.909 70.9721 126.225 70.2675 126.22C69.5674 126.216 68.9949 126.904 68.9905 127.751C68.9861 128.567 69.5145 129.246 70.1838 129.286C70.8928 129.326 71.4609 128.673 71.4785 127.804Z" fill="#A2FF48"/>
<path d="M103.808 69.0081C103.394 69.4581 103.522 70.2829 104.095 70.8431C104.698 71.4386 105.521 71.5048 105.957 70.9931C106.371 70.5079 106.23 69.7051 105.636 69.1625C105.059 68.6332 104.222 68.5626 103.808 69.0081Z" fill="#A2FF48"/>
<path d="M105.693 11.4078C105.125 10.8299 104.337 10.7373 103.879 11.1916C103.439 11.6284 103.514 12.4665 104.038 13.0267C104.57 13.5869 105.372 13.6707 105.847 13.2119C106.327 12.7488 106.266 11.9901 105.693 11.4078Z" fill="#A2FF48"/>
<path d="M70.2408 140.742C70.8705 140.742 71.3681 140.08 71.3461 139.273C71.3285 138.549 70.8661 137.98 70.2805 137.963C69.6288 137.945 69.1092 138.58 69.1312 139.37C69.1532 140.146 69.6332 140.742 70.2408 140.737" fill="#A2FF48"/>
<path d="M128.578 34.5573C128.072 34.0279 127.31 33.9088 126.887 34.2882C126.469 34.6631 126.526 35.4307 127.02 35.9644C127.552 36.5467 128.327 36.6658 128.759 36.2423C129.164 35.8453 129.085 35.0866 128.578 34.5573Z" fill="#A2FF48"/>
<path d="M128.498 46.0922C127.952 45.5716 127.287 45.5231 126.856 45.9775C126.429 46.4274 126.512 47.0802 127.067 47.6316C127.627 48.1874 128.38 48.2536 128.785 47.786C129.15 47.3581 129.022 46.595 128.494 46.0966" fill="#A2FF48"/>
<path d="M25.2235 12.237C25.2279 11.5092 24.8184 10.9887 24.2371 10.9754C23.6559 10.9622 23.2287 11.4739 23.2199 12.1973C23.2111 12.9428 23.603 13.4413 24.2063 13.4501C24.8228 13.4589 25.2191 12.9913 25.2235 12.2414" fill="#A2FF48"/>
<path d="M59.6722 162.462C59.6546 161.845 59.1922 161.289 58.6858 161.289C58.1618 161.289 57.717 161.911 57.7479 162.599C57.7787 163.283 58.175 163.71 58.7562 163.68C59.3023 163.653 59.6854 163.141 59.6678 162.462" fill="#A2FF48"/>
<path d="M0.00451425 93.212C0.0133212 93.8251 0.537339 94.3588 1.13181 94.3633C1.77912 94.3677 2.29874 93.8075 2.26351 93.1326C2.23268 92.515 1.68225 91.9857 1.10099 92.021C0.497708 92.0562 -0.00869381 92.6032 0.000113173 93.2075" fill="#A2FF48"/>
<path d="M2.26366 81.5445C2.23284 80.9181 1.71763 80.4461 1.08793 80.4726C0.467034 80.4991 -0.0129442 81.0152 0.000266243 81.6415C0.0134767 82.2238 0.581526 82.7928 1.14077 82.7884C1.77487 82.7884 2.29449 82.2106 2.25926 81.5401" fill="#A2FF48"/>
<path d="M2.26846 104.619C2.25525 103.971 1.76646 103.499 1.11475 103.508C0.471836 103.521 -0.00374281 104.019 0.00506418 104.663C0.0182747 105.307 0.515871 105.784 1.15878 105.775C1.80169 105.762 2.27727 105.263 2.26846 104.619Z" fill="#A2FF48"/>
<path d="M2.2683 116.194C2.28151 115.55 1.80153 115.06 1.15862 115.051C0.511304 115.042 0.00490235 115.532 0.00930584 116.159C0.00930584 116.803 0.49369 117.301 1.12339 117.31C1.7663 117.319 2.25949 116.842 2.2683 116.198" fill="#A2FF48"/>
<path d="M1.11888 71.1562C1.7794 71.1651 2.25498 70.7107 2.26379 70.049C2.277 69.3962 1.80142 68.8977 1.15851 68.8933C0.515601 68.8933 0.0180053 69.3653 0.00479486 70.0094C-0.0128191 70.6446 0.475968 71.143 1.11888 71.1518" fill="#A2FF48"/>
<path d="M1.1896 59.5772C1.8237 59.5595 2.29487 59.0434 2.26845 58.395C2.24203 57.7509 1.74003 57.2922 1.09272 57.3186C0.458618 57.3407 -0.0213628 57.8568 0.00946167 58.492C0.0402861 59.1272 0.551092 59.5948 1.194 59.5772" fill="#A2FF48"/>
<path d="M1.10182 128.88C1.73152 128.902 2.24672 128.417 2.26874 127.791C2.29076 127.151 1.81078 126.64 1.18108 126.626C0.542575 126.613 0.0229615 127.089 0.00975107 127.711C-0.0078629 128.351 0.467716 128.858 1.10182 128.88Z" fill="#A2FF48"/>
<path d="M1.14976 45.8057C0.550881 45.8057 0.0576872 46.2777 0.0532837 46.8511C0.0532837 47.4334 0.524457 47.8921 1.13654 47.901C1.77505 47.9054 2.211 47.4907 2.211 46.8688C2.211 46.2733 1.74423 45.8057 1.14976 45.8057Z" fill="#A2FF48"/>
<path d="M71.0638 150.826C71.0286 150.208 70.6411 149.811 70.1435 149.877C69.7031 149.935 69.3861 150.407 69.4037 150.98C69.4257 151.62 69.7648 151.99 70.2976 151.955C70.804 151.924 71.0991 151.492 71.0638 150.826Z" fill="#A2FF48"/>
<path d="M11.8859 162.489C11.8859 163.062 12.2249 163.494 12.6873 163.49C13.1188 163.49 13.5019 162.996 13.4843 162.467C13.4711 161.99 13.088 161.514 12.7049 161.496C12.2866 161.478 11.8859 161.959 11.8859 162.489Z" fill="#A2FF48"/>
<path d="M117.094 69.3213C116.75 69.0082 116.208 69.092 115.821 69.5243C115.477 69.9036 115.42 70.4771 115.689 70.7594C115.971 71.0593 116.605 70.9755 116.988 70.5917C117.38 70.1991 117.428 69.6213 117.098 69.3169" fill="#A2FF48"/>
<path d="M115.852 11.6414C115.416 12.0649 115.359 12.5633 115.702 12.9118C116.033 13.2471 116.57 13.1809 116.975 12.7618C117.336 12.3869 117.406 11.8399 117.129 11.5311C116.825 11.1915 116.266 11.24 115.852 11.6414Z" fill="#A2FF48"/>
<path d="M128.526 59.1007C128.851 58.7522 128.772 58.2405 128.323 57.8302C127.953 57.4862 127.367 57.42 127.094 57.6891C126.817 57.9626 126.896 58.6551 127.244 59.0036C127.618 59.3786 128.213 59.4227 128.521 59.0962" fill="#A2FF48"/>
<path d="M128.358 23.1546C127.953 22.7311 127.424 22.6605 127.09 22.9914C126.777 23.3001 126.843 23.9044 127.235 24.2794C127.565 24.597 128.195 24.6808 128.481 24.4382C128.798 24.1691 128.737 23.5516 128.358 23.1546Z" fill="#A2FF48"/>
<path d="M1.12757 138.36C0.541904 138.369 0.141187 138.805 0.172012 139.405C0.198433 139.939 0.63878 140.345 1.1672 140.327C1.66039 140.31 2.13597 139.846 2.15358 139.361C2.1756 138.819 1.69122 138.351 1.12757 138.36Z" fill="#A2FF48"/>
<path d="M1.09685 34.3986C0.586048 34.4163 0.216155 34.7956 0.220559 35.2985C0.220559 35.819 0.665311 36.2028 1.22455 36.1587C1.74417 36.119 2.07443 35.7396 2.0392 35.2147C2.00397 34.6942 1.63848 34.381 1.09685 34.3986Z" fill="#A2FF48"/>
<path d="M13.2461 12.2459C13.2549 11.8357 13.0391 11.5181 12.7221 11.4916C12.3918 11.4652 12.0836 11.8136 12.0791 12.215C12.0747 12.6032 12.3918 13.0002 12.7 12.987C12.9995 12.9737 13.2417 12.6473 13.2505 12.2415" fill="#A2FF48"/>
<path d="M1.84991 150.945C1.86312 150.543 1.57249 150.204 1.19819 150.177C0.80188 150.151 0.414375 150.53 0.423182 150.931C0.431989 151.289 0.784269 151.637 1.14976 151.65C1.51965 151.664 1.84111 151.342 1.85432 150.94" fill="#A2FF48"/>
<path d="M82.368 81.6151C82.368 81.2533 82.095 80.8828 81.8132 80.8607C81.5005 80.8431 81.2055 81.2313 81.2187 81.6459C81.2319 82.0606 81.4653 82.3341 81.8 82.3208C82.117 82.3076 82.368 81.9988 82.368 81.6151Z" fill="#A2FF48"/>
<path d="M36.4966 174.103C36.501 173.728 36.1532 173.38 35.7745 173.38C35.3737 173.38 35.0567 173.693 35.0567 174.094C35.0567 174.509 35.3517 174.809 35.7613 174.818C36.14 174.827 36.4878 174.487 36.4922 174.108" fill="#A2FF48"/>
<path d="M70.7206 162.489C70.7074 162.158 70.4916 161.876 70.245 161.871C69.9808 161.867 69.7122 162.228 69.7386 162.555C69.765 162.868 69.994 163.106 70.267 163.097C70.5445 163.093 70.7338 162.837 70.7206 162.489Z" fill="#A2FF48"/>
<path d="M1.13192 23.1013C0.784043 23.1013 0.546255 23.3395 0.550658 23.6968C0.550658 24.0365 0.801655 24.31 1.12311 24.3188C1.45337 24.3276 1.80125 23.9791 1.78363 23.6571C1.77042 23.3616 1.46658 23.1013 1.13632 23.1013" fill="#A2FF48"/>
<path d="M24.2021 174.681C24.5323 174.69 24.8053 174.452 24.8274 174.134C24.8494 173.799 24.6292 173.556 24.2813 173.525C23.8894 173.494 23.6032 173.737 23.6076 174.103C23.6076 174.416 23.8718 174.672 24.2021 174.681Z" fill="#A2FF48"/>
<path d="M47.7915 174.059C47.7694 173.741 47.492 173.517 47.1397 173.525C46.7786 173.539 46.5585 173.772 46.5805 174.125C46.5981 174.465 46.8711 174.703 47.2058 174.672C47.536 174.641 47.8135 174.35 47.7915 174.055" fill="#A2FF48"/>
<path d="M128.208 12.3825C128.208 11.9679 127.992 11.7076 127.776 11.7385C127.547 11.7694 127.428 11.9502 127.42 12.2326C127.411 12.5149 127.649 12.8281 127.838 12.7398C127.996 12.6693 128.12 12.4708 128.208 12.3869" fill="#A2FF48"/>
<path d="M93.8256 81.6328C93.7904 81.3416 93.623 81.1873 93.3324 81.1696C93.0594 81.1564 92.8084 81.3637 92.8304 81.6063C92.8568 81.8886 93.0153 82.0695 93.3104 82.0739C93.601 82.0783 93.7683 81.9151 93.8212 81.6284" fill="#A2FF48"/>
<path d="M1.54591 0.46383C1.51069 0.172696 1.34335 0.0182986 1.05272 0.000654101C0.779707 -0.0125793 0.528709 0.194753 0.550726 0.437364C0.577147 0.719676 0.735671 0.900531 1.03071 0.904942C1.32134 0.909353 1.48867 0.746137 1.54151 0.459415" fill="#A2FF48"/>
<path d="M13.0744 0.46383C13.0391 0.172696 12.8718 0.0182986 12.5812 0.000654101C12.3081 -0.0125793 12.0572 0.194753 12.0792 0.437364C12.1056 0.719676 12.2641 0.900531 12.5591 0.904942C12.8498 0.909353 13.0171 0.746137 13.07 0.459415" fill="#A2FF48"/>
<path d="M24.6029 0.46383C24.5676 0.172696 24.4003 0.0182986 24.1097 0.000654101C23.8367 -0.0125793 23.5857 0.194753 23.6077 0.437364C23.6341 0.719676 23.7926 0.900531 24.0877 0.904942C24.3783 0.909353 24.5456 0.746137 24.5985 0.459415" fill="#A2FF48"/>
<path d="M36.1356 0.46383C36.1004 0.172696 35.9331 0.0182986 35.6424 0.000654101C35.3694 -0.0125793 35.1184 0.194753 35.1404 0.437364C35.1669 0.719676 35.3254 0.900531 35.6204 0.904942C35.9111 0.909353 36.0784 0.746137 36.1312 0.459415" fill="#A2FF48"/>
<path d="M47.664 0.46383C47.6288 0.172696 47.4614 0.0182986 47.1752 0.000654101C46.9022 -0.0125793 46.6512 0.194753 46.6732 0.437364C46.6996 0.719676 46.8582 0.900531 47.1532 0.904942C47.4482 0.909353 47.6112 0.746137 47.664 0.459415" fill="#A2FF48"/>
<path d="M59.1925 0.46383C59.1572 0.172696 58.9899 0.0182986 58.7037 0.000654101C58.4306 -0.0125793 58.1796 0.194753 58.2017 0.437364C58.2281 0.719676 58.3866 0.900531 58.6816 0.904942C58.9767 0.909353 59.1396 0.746137 59.1925 0.459415" fill="#A2FF48"/>
<path d="M70.7247 0.46383C70.6895 0.172696 70.5221 0.0182986 70.2359 0.000654101C69.9629 -0.0125793 69.7119 0.194753 69.7339 0.437364C69.7603 0.719676 69.9188 0.900531 70.2139 0.904942C70.5089 0.909353 70.6718 0.746137 70.7247 0.459415" fill="#A2FF48"/>
<path d="M82.2531 0.46383C82.2179 0.172696 82.0506 0.0182986 81.7643 0.000654101C81.4913 -0.0125793 81.2403 0.194753 81.2623 0.437364C81.2888 0.719676 81.4473 0.900531 81.7423 0.904942C82.0373 0.909353 82.2003 0.746137 82.2531 0.459415" fill="#A2FF48"/>
<path d="M93.7816 0.46383C93.7463 0.172696 93.579 0.0182986 93.2928 0.000654101C93.0198 -0.0125793 92.7688 0.194753 92.7908 0.437364C92.8172 0.719676 92.9757 0.900531 93.2708 0.904942C93.5614 0.909353 93.7287 0.746137 93.7816 0.459415" fill="#A2FF48"/>
<path d="M105.314 0.46383C105.279 0.172696 105.112 0.0182986 104.826 0.000654101C104.553 -0.0125793 104.302 0.194753 104.324 0.437364C104.35 0.719676 104.508 0.900531 104.804 0.904942C105.094 0.909353 105.261 0.746137 105.314 0.459415" fill="#A2FF48"/>
<path d="M116.843 0.46383C116.808 0.172696 116.64 0.0182986 116.354 0.000654101C116.081 -0.0125793 115.83 0.194753 115.852 0.437364C115.878 0.719676 116.037 0.900531 116.332 0.904942C116.623 0.909353 116.79 0.746137 116.843 0.459415" fill="#A2FF48"/>
<path d="M128.371 0.46383C128.336 0.172696 128.169 0.0182986 127.882 0.000654101C127.609 -0.0125793 127.358 0.194753 127.38 0.437364C127.407 0.719676 127.565 0.900531 127.86 0.904942C128.151 0.909353 128.318 0.746137 128.371 0.459415" fill="#A2FF48"/>
<path d="M139.904 0.46383C139.868 0.172696 139.701 0.0182986 139.41 0.000654101C139.137 -0.0125793 138.886 0.194753 138.908 0.437364C138.935 0.719676 139.093 0.900531 139.388 0.904942C139.683 0.909353 139.846 0.746137 139.899 0.459415" fill="#A2FF48"/>
<path d="M139.904 12.0385C139.868 11.7474 139.701 11.593 139.41 11.5754C139.137 11.5621 138.886 11.7695 138.908 12.0121C138.935 12.2944 139.093 12.4752 139.388 12.4796C139.683 12.4841 139.846 12.3208 139.899 12.0385" fill="#A2FF48"/>
<path d="M139.904 23.6091C139.868 23.318 139.701 23.1636 139.41 23.1459C139.137 23.1327 138.886 23.34 138.908 23.5826C138.935 23.8649 139.093 24.0458 139.388 24.0502C139.683 24.0546 139.846 23.8914 139.899 23.6047" fill="#A2FF48"/>
<path d="M139.904 35.1838C139.868 34.8927 139.701 34.7383 139.41 34.7206C139.137 34.7074 138.886 34.9147 138.908 35.1573C138.935 35.4396 139.093 35.6205 139.388 35.6249C139.683 35.6293 139.846 35.4661 139.899 35.1794" fill="#A2FF48"/>
<path d="M139.904 46.7584C139.868 46.4673 139.701 46.3129 139.41 46.2952C139.137 46.282 138.886 46.4893 138.908 46.7319C138.935 47.0142 139.093 47.1951 139.388 47.1995C139.683 47.2039 139.846 47.0407 139.899 46.7584" fill="#A2FF48"/>
<path d="M139.904 58.3333C139.868 58.0422 139.701 57.8878 139.41 57.8702C139.137 57.8569 138.886 58.0643 138.908 58.3069C138.935 58.5892 139.093 58.77 139.388 58.7744C139.683 58.7789 139.846 58.6156 139.899 58.3289" fill="#A2FF48"/>
<path d="M139.904 69.9079C139.868 69.6168 139.701 69.4624 139.41 69.4448C139.137 69.4315 138.886 69.6388 138.908 69.8815C138.935 70.1638 139.093 70.3446 139.388 70.349C139.683 70.3534 139.846 70.1902 139.899 69.9035" fill="#A2FF48"/>
<path d="M139.904 81.4829C139.868 81.1917 139.701 81.0373 139.41 81.0197C139.137 81.0065 138.886 81.2138 138.908 81.4564C138.935 81.7387 139.093 81.9196 139.388 81.924C139.683 81.9284 139.846 81.7652 139.899 81.4829" fill="#A2FF48"/>
<path d="M139.904 93.0576C139.868 92.7664 139.701 92.6121 139.41 92.5944C139.137 92.5812 138.886 92.7885 138.908 93.0311C138.935 93.3134 139.093 93.4943 139.388 93.4987C139.683 93.5031 139.846 93.3399 139.899 93.0532" fill="#A2FF48"/>
<path d="M139.904 104.628C139.868 104.337 139.701 104.183 139.41 104.165C139.137 104.152 138.886 104.359 138.908 104.602C138.935 104.884 139.093 105.065 139.388 105.069C139.683 105.074 139.846 104.91 139.899 104.624" fill="#A2FF48"/>
<path d="M139.904 116.203C139.868 115.912 139.701 115.757 139.41 115.74C139.137 115.726 138.886 115.934 138.908 116.176C138.935 116.459 139.093 116.64 139.388 116.644C139.683 116.648 139.846 116.485 139.899 116.198" fill="#A2FF48"/>
<path d="M139.904 127.777C139.868 127.486 139.701 127.332 139.41 127.314C139.137 127.301 138.886 127.508 138.908 127.751C138.935 128.033 139.093 128.214 139.388 128.219C139.683 128.223 139.846 128.06 139.899 127.773" fill="#A2FF48"/>
<path d="M139.904 139.352C139.868 139.061 139.701 138.907 139.41 138.889C139.137 138.876 138.886 139.083 138.908 139.326C138.935 139.608 139.093 139.789 139.388 139.793C139.683 139.798 139.846 139.635 139.899 139.348" fill="#A2FF48"/>
<path d="M139.904 150.927C139.868 150.636 139.701 150.482 139.41 150.464C139.137 150.451 138.886 150.658 138.908 150.901C138.935 151.183 139.093 151.364 139.388 151.368C139.683 151.373 139.846 151.21 139.899 150.923" fill="#A2FF48"/>
<path d="M139.904 162.502C139.868 162.211 139.701 162.056 139.41 162.039C139.137 162.025 138.886 162.233 138.908 162.475C138.935 162.758 139.093 162.938 139.388 162.943C139.683 162.947 139.846 162.784 139.899 162.497" fill="#A2FF48"/>
<path d="M139.904 174.072C139.868 173.781 139.701 173.627 139.41 173.609C139.137 173.596 138.886 173.803 138.908 174.046C138.935 174.328 139.093 174.509 139.388 174.513C139.683 174.518 139.846 174.355 139.899 174.068" fill="#A2FF48"/>
<path d="M116.843 81.4829C116.808 81.1917 116.64 81.0373 116.354 81.0197C116.081 81.0065 115.83 81.2138 115.852 81.4564C115.878 81.7387 116.037 81.9196 116.332 81.924C116.623 81.9284 116.79 81.7652 116.843 81.4829Z" fill="#A2FF48"/>
<path d="M116.843 93.0576C116.808 92.7664 116.64 92.6121 116.354 92.5944C116.081 92.5812 115.83 92.7885 115.852 93.0311C115.878 93.3134 116.037 93.4943 116.332 93.4987C116.623 93.5031 116.79 93.3399 116.843 93.0532" fill="#A2FF48"/>
<path d="M116.843 104.628C116.808 104.337 116.64 104.183 116.354 104.165C116.081 104.152 115.83 104.359 115.852 104.602C115.878 104.884 116.037 105.065 116.332 105.069C116.623 105.074 116.79 104.91 116.843 104.624" fill="#A2FF48"/>
<path d="M116.843 116.203C116.808 115.912 116.64 115.757 116.354 115.74C116.081 115.726 115.83 115.934 115.852 116.176C115.878 116.459 116.037 116.64 116.332 116.644C116.623 116.648 116.79 116.485 116.843 116.198" fill="#A2FF48"/>
<path d="M116.843 127.777C116.808 127.486 116.64 127.332 116.354 127.314C116.081 127.301 115.83 127.508 115.852 127.751C115.878 128.033 116.037 128.214 116.332 128.219C116.623 128.223 116.79 128.06 116.843 127.773" fill="#A2FF48"/>
<path d="M116.843 139.352C116.808 139.061 116.64 138.907 116.354 138.889C116.081 138.876 115.83 139.083 115.852 139.326C115.878 139.608 116.037 139.789 116.332 139.793C116.623 139.798 116.79 139.635 116.843 139.348" fill="#A2FF48"/>
<path d="M116.843 150.927C116.808 150.636 116.64 150.482 116.354 150.464C116.081 150.451 115.83 150.658 115.852 150.901C115.878 151.183 116.037 151.364 116.332 151.368C116.623 151.373 116.79 151.21 116.843 150.923" fill="#A2FF48"/>
<path d="M116.843 162.502C116.808 162.211 116.64 162.056 116.354 162.039C116.081 162.025 115.83 162.233 115.852 162.475C115.878 162.758 116.037 162.938 116.332 162.943C116.623 162.947 116.79 162.784 116.843 162.497" fill="#A2FF48"/>
<path d="M116.843 174.072C116.808 173.781 116.64 173.627 116.354 173.609C116.081 173.596 115.83 173.803 115.852 174.046C115.878 174.328 116.037 174.509 116.332 174.513C116.623 174.518 116.79 174.355 116.843 174.068" fill="#A2FF48"/>
<path d="M105.314 81.4829C105.279 81.1917 105.112 81.0373 104.826 81.0197C104.553 81.0065 104.302 81.2138 104.324 81.4564C104.35 81.7387 104.508 81.9196 104.804 81.924C105.094 81.9284 105.261 81.7652 105.314 81.4829Z" fill="#A2FF48"/>
<path d="M105.314 93.0576C105.279 92.7664 105.112 92.6121 104.826 92.5944C104.553 92.5812 104.302 92.7885 104.324 93.0311C104.35 93.3134 104.508 93.4943 104.804 93.4987C105.094 93.5031 105.261 93.3399 105.314 93.0532" fill="#A2FF48"/>
<path d="M105.314 104.628C105.279 104.337 105.112 104.183 104.826 104.165C104.553 104.152 104.302 104.359 104.324 104.602C104.35 104.884 104.508 105.065 104.804 105.069C105.094 105.074 105.261 104.91 105.314 104.624" fill="#A2FF48"/>
<path d="M105.314 116.203C105.279 115.912 105.112 115.757 104.826 115.74C104.553 115.726 104.302 115.934 104.324 116.176C104.35 116.459 104.508 116.64 104.804 116.644C105.094 116.648 105.261 116.485 105.314 116.198" fill="#A2FF48"/>
<path d="M105.314 127.777C105.279 127.486 105.112 127.332 104.826 127.314C104.553 127.301 104.302 127.508 104.324 127.751C104.35 128.033 104.508 128.214 104.804 128.219C105.094 128.223 105.261 128.06 105.314 127.773" fill="#A2FF48"/>
<path d="M105.314 139.352C105.279 139.061 105.112 138.907 104.826 138.889C104.553 138.876 104.302 139.083 104.324 139.326C104.35 139.608 104.508 139.789 104.804 139.793C105.094 139.798 105.261 139.635 105.314 139.348" fill="#A2FF48"/>
<path d="M105.314 150.927C105.279 150.636 105.112 150.482 104.826 150.464C104.553 150.451 104.302 150.658 104.324 150.901C104.35 151.183 104.508 151.364 104.804 151.368C105.094 151.373 105.261 151.21 105.314 150.923" fill="#A2FF48"/>
<path d="M105.314 162.502C105.279 162.211 105.112 162.056 104.826 162.039C104.553 162.025 104.302 162.233 104.324 162.475C104.35 162.758 104.508 162.938 104.804 162.943C105.094 162.947 105.261 162.784 105.314 162.497" fill="#A2FF48"/>
<path d="M105.314 174.072C105.279 173.781 105.112 173.627 104.826 173.609C104.553 173.596 104.302 173.803 104.324 174.046C104.35 174.328 104.508 174.509 104.804 174.513C105.094 174.518 105.261 174.355 105.314 174.068" fill="#A2FF48"/>
<path d="M93.7816 93.0576C93.7463 92.7664 93.579 92.6121 93.2928 92.5944C93.0198 92.5812 92.7688 92.7885 92.7908 93.0311C92.8172 93.3134 92.9757 93.4943 93.2708 93.4987C93.5614 93.5031 93.7287 93.3399 93.7816 93.0532" fill="#A2FF48"/>
<path d="M93.7816 104.628C93.7463 104.337 93.579 104.183 93.2928 104.165C93.0198 104.152 92.7688 104.359 92.7908 104.602C92.8172 104.884 92.9757 105.065 93.2708 105.069C93.5614 105.074 93.7287 104.91 93.7816 104.624" fill="#A2FF48"/>
<path d="M93.7816 116.203C93.7463 115.912 93.579 115.757 93.2928 115.74C93.0198 115.726 92.7688 115.934 92.7908 116.176C92.8172 116.459 92.9757 116.64 93.2708 116.644C93.5614 116.648 93.7287 116.485 93.7816 116.198" fill="#A2FF48"/>
<path d="M93.7816 127.777C93.7463 127.486 93.579 127.332 93.2928 127.314C93.0198 127.301 92.7688 127.508 92.7908 127.751C92.8172 128.033 92.9757 128.214 93.2708 128.219C93.5614 128.223 93.7287 128.06 93.7816 127.773" fill="#A2FF48"/>
<path d="M93.7816 139.352C93.7463 139.061 93.579 138.907 93.2928 138.889C93.0198 138.876 92.7688 139.083 92.7908 139.326C92.8172 139.608 92.9757 139.789 93.2708 139.793C93.5614 139.798 93.7287 139.635 93.7816 139.348" fill="#A2FF48"/>
<path d="M93.7816 150.927C93.7463 150.636 93.579 150.482 93.2928 150.464C93.0198 150.451 92.7688 150.658 92.7908 150.901C92.8172 151.183 92.9757 151.364 93.2708 151.368C93.5614 151.373 93.7287 151.21 93.7816 150.923" fill="#A2FF48"/>
<path d="M93.7816 162.502C93.7463 162.211 93.579 162.056 93.2928 162.039C93.0198 162.025 92.7688 162.233 92.7908 162.475C92.8172 162.758 92.9757 162.938 93.2708 162.943C93.5614 162.947 93.7287 162.784 93.7816 162.497" fill="#A2FF48"/>
<path d="M93.7816 174.072C93.7463 173.781 93.579 173.627 93.2928 173.609C93.0198 173.596 92.7688 173.803 92.7908 174.046C92.8172 174.328 92.9757 174.509 93.2708 174.513C93.5614 174.518 93.7287 174.355 93.7816 174.068" fill="#A2FF48"/>
<path d="M82.2531 93.0576C82.2179 92.7664 82.0506 92.6121 81.7643 92.5944C81.4913 92.5812 81.2403 92.7885 81.2623 93.0311C81.2888 93.3134 81.4473 93.4943 81.7423 93.4987C82.0373 93.5031 82.2003 93.3399 82.2531 93.0532" fill="#A2FF48"/>
<path d="M82.2531 104.628C82.2179 104.337 82.0506 104.183 81.7643 104.165C81.4913 104.152 81.2403 104.359 81.2623 104.602C81.2888 104.884 81.4473 105.065 81.7423 105.069C82.0373 105.074 82.2003 104.91 82.2531 104.624" fill="#A2FF48"/>
<path d="M82.2531 116.203C82.2179 115.912 82.0506 115.757 81.7643 115.74C81.4913 115.726 81.2403 115.934 81.2623 116.176C81.2888 116.459 81.4473 116.64 81.7423 116.644C82.0373 116.648 82.2003 116.485 82.2531 116.198" fill="#A2FF48"/>
<path d="M82.2531 127.777C82.2179 127.486 82.0506 127.332 81.7643 127.314C81.4913 127.301 81.2403 127.508 81.2623 127.751C81.2888 128.033 81.4473 128.214 81.7423 128.219C82.0373 128.223 82.2003 128.06 82.2531 127.773" fill="#A2FF48"/>
<path d="M82.2531 139.352C82.2179 139.061 82.0506 138.907 81.7643 138.889C81.4913 138.876 81.2403 139.083 81.2623 139.326C81.2888 139.608 81.4473 139.789 81.7423 139.793C82.0373 139.798 82.2003 139.635 82.2531 139.348" fill="#A2FF48"/>
<path d="M82.2531 150.927C82.2179 150.636 82.0506 150.482 81.7643 150.464C81.4913 150.451 81.2403 150.658 81.2623 150.901C81.2888 151.183 81.4473 151.364 81.7423 151.368C82.0373 151.373 82.2003 151.21 82.2531 150.923" fill="#A2FF48"/>
<path d="M82.2531 162.502C82.2179 162.211 82.0506 162.056 81.7643 162.039C81.4913 162.025 81.2403 162.233 81.2623 162.475C81.2888 162.758 81.4473 162.938 81.7423 162.943C82.0373 162.947 82.2003 162.784 82.2531 162.497" fill="#A2FF48"/>
<path d="M82.2531 174.072C82.2179 173.781 82.0506 173.627 81.7643 173.609C81.4913 173.596 81.2403 173.803 81.2623 174.046C81.2888 174.328 81.4473 174.509 81.7423 174.513C82.0373 174.518 82.2003 174.355 82.2531 174.068" fill="#A2FF48"/>
<path d="M128.411 81.4829C128.376 81.1917 128.208 81.0373 127.922 81.0197C127.649 81.0065 127.398 81.2138 127.42 81.4564C127.447 81.7387 127.605 81.9196 127.9 81.924C128.191 81.9284 128.358 81.7652 128.411 81.4829Z" fill="#A2FF48"/>
<path d="M128.411 93.0576C128.376 92.7664 128.208 92.6121 127.922 92.5944C127.649 92.5812 127.398 92.7885 127.42 93.0311C127.447 93.3134 127.605 93.4943 127.9 93.4987C128.191 93.5031 128.358 93.3399 128.411 93.0532" fill="#A2FF48"/>
<path d="M128.411 104.628C128.376 104.337 128.208 104.183 127.922 104.165C127.649 104.152 127.398 104.359 127.42 104.602C127.447 104.884 127.605 105.065 127.9 105.069C128.191 105.074 128.358 104.91 128.411 104.624" fill="#A2FF48"/>
<path d="M128.411 116.203C128.376 115.912 128.208 115.757 127.922 115.74C127.649 115.726 127.398 115.934 127.42 116.176C127.447 116.459 127.605 116.64 127.9 116.644C128.191 116.648 128.358 116.485 128.411 116.198" fill="#A2FF48"/>
<path d="M128.411 127.777C128.376 127.486 128.208 127.332 127.922 127.314C127.649 127.301 127.398 127.508 127.42 127.751C127.447 128.033 127.605 128.214 127.9 128.219C128.191 128.223 128.358 128.06 128.411 127.773" fill="#A2FF48"/>
<path d="M128.411 139.352C128.376 139.061 128.208 138.907 127.922 138.889C127.649 138.876 127.398 139.083 127.42 139.326C127.447 139.608 127.605 139.789 127.9 139.793C128.191 139.798 128.358 139.635 128.411 139.348" fill="#A2FF48"/>
<path d="M128.411 150.927C128.376 150.636 128.208 150.482 127.922 150.464C127.649 150.451 127.398 150.658 127.42 150.901C127.447 151.183 127.605 151.364 127.9 151.368C128.191 151.373 128.358 151.21 128.411 150.923" fill="#A2FF48"/>
<path d="M128.411 162.502C128.376 162.211 128.208 162.056 127.922 162.039C127.649 162.025 127.398 162.233 127.42 162.475C127.447 162.758 127.605 162.938 127.9 162.943C128.191 162.947 128.358 162.784 128.411 162.497" fill="#A2FF48"/>
<path d="M128.411 174.072C128.376 173.781 128.208 173.627 127.922 173.609C127.649 173.596 127.398 173.803 127.42 174.046C127.447 174.328 127.605 174.509 127.9 174.513C128.191 174.518 128.358 174.355 128.411 174.068" fill="#A2FF48"/>
<path d="M139.904 185.559C139.868 185.268 139.701 185.113 139.41 185.096C139.137 185.082 138.886 185.29 138.908 185.532C138.935 185.815 139.093 185.996 139.388 186C139.683 186.004 139.846 185.841 139.899 185.554" fill="#A2FF48"/>
<path d="M116.843 185.559C116.808 185.268 116.64 185.113 116.354 185.096C116.081 185.082 115.83 185.29 115.852 185.532C115.878 185.815 116.037 185.996 116.332 186C116.623 186.004 116.79 185.841 116.843 185.554" fill="#A2FF48"/>
<path d="M105.314 185.559C105.279 185.268 105.112 185.113 104.826 185.096C104.553 185.082 104.302 185.29 104.324 185.532C104.35 185.815 104.508 185.996 104.804 186C105.094 186.004 105.261 185.841 105.314 185.554" fill="#A2FF48"/>
<path d="M93.7816 185.559C93.7463 185.268 93.579 185.113 93.2928 185.096C93.0198 185.082 92.7688 185.29 92.7908 185.532C92.8172 185.815 92.9757 185.996 93.2708 186C93.5614 186.004 93.7287 185.841 93.7816 185.554" fill="#A2FF48"/>
<path d="M128.411 185.559C128.376 185.268 128.208 185.113 127.922 185.096C127.649 185.082 127.398 185.29 127.42 185.532C127.447 185.815 127.605 185.996 127.9 186C128.191 186.004 128.358 185.841 128.411 185.554" fill="#A2FF48"/>
<path d="M82.2711 185.559C82.2358 185.268 82.0685 185.113 81.7823 185.096C81.5093 185.082 81.2583 185.29 81.2803 185.532C81.3067 185.815 81.4652 185.996 81.7603 186C82.0553 186.004 82.2182 185.841 82.2711 185.554" fill="#A2FF48"/>
<path d="M59.2099 185.559C59.1747 185.268 59.0074 185.113 58.7167 185.096C58.4437 185.082 58.1927 185.29 58.2147 185.532C58.2411 185.815 58.3997 185.996 58.6947 186C58.9853 186.004 59.1527 185.841 59.2055 185.554" fill="#A2FF48"/>
<path d="M47.6814 185.559C47.6462 185.268 47.4789 185.113 47.1882 185.096C46.9152 185.082 46.6642 185.29 46.6862 185.532C46.7126 185.815 46.8712 185.996 47.1662 186C47.4568 186.004 47.6242 185.841 47.677 185.554" fill="#A2FF48"/>
<path d="M36.153 185.559C36.1177 185.268 35.9504 185.113 35.6598 185.096C35.3868 185.082 35.1358 185.29 35.1578 185.532C35.1842 185.815 35.3427 185.996 35.6378 186C35.9284 186.004 36.0957 185.841 36.1486 185.554" fill="#A2FF48"/>
<path d="M70.7779 185.559C70.7427 185.268 70.5753 185.113 70.2891 185.096C70.0161 185.082 69.7651 185.29 69.7871 185.532C69.8135 185.815 69.9721 185.996 70.2671 186C70.5621 186.004 70.7251 185.841 70.7779 185.554" fill="#A2FF48"/>
<path d="M24.6381 185.559C24.6028 185.268 24.4355 185.113 24.1493 185.096C23.8763 185.082 23.6253 185.29 23.6473 185.532C23.6737 185.815 23.8322 185.996 24.1273 186C24.4223 186.004 24.5852 185.841 24.6381 185.554" fill="#A2FF48"/>
<path d="M1.58119 185.559C1.54596 185.268 1.37862 185.113 1.0924 185.096C0.81938 185.082 0.568381 185.29 0.590399 185.532C0.61682 185.815 0.775347 185.996 1.07038 186C1.36542 186.004 1.52834 185.841 1.58119 185.554" fill="#A2FF48"/>
<path d="M13.1449 185.559C13.1097 185.268 12.9423 185.113 12.6561 185.096C12.3831 185.082 12.1321 185.29 12.1541 185.532C12.1805 185.815 12.3391 185.996 12.6341 186C12.9291 186.004 13.0921 185.841 13.1449 185.554" fill="#A2FF48"/>
<path d="M151.454 0.46383C151.419 0.172696 151.252 0.0182986 150.965 0.000654101C150.692 -0.0125793 150.441 0.194753 150.463 0.437364C150.49 0.719676 150.648 0.900531 150.943 0.904942C151.238 0.909353 151.401 0.746137 151.454 0.459415" fill="#A2FF48"/>
<path d="M151.454 12.0385C151.419 11.7474 151.252 11.593 150.965 11.5754C150.692 11.5621 150.441 11.7695 150.463 12.0121C150.49 12.2944 150.648 12.4752 150.943 12.4796C151.238 12.4841 151.401 12.3208 151.454 12.0385Z" fill="#A2FF48"/>
<path d="M151.454 23.6091C151.419 23.318 151.252 23.1636 150.965 23.1459C150.692 23.1327 150.441 23.34 150.463 23.5826C150.49 23.8649 150.648 24.0458 150.943 24.0502C151.238 24.0546 151.401 23.8914 151.454 23.6047" fill="#A2FF48"/>
<path d="M151.454 35.1838C151.419 34.8927 151.252 34.7383 150.965 34.7206C150.692 34.7074 150.441 34.9147 150.463 35.1573C150.49 35.4396 150.648 35.6205 150.943 35.6249C151.238 35.6293 151.401 35.4661 151.454 35.1794" fill="#A2FF48"/>
<path d="M151.454 46.7584C151.419 46.4673 151.252 46.3129 150.965 46.2952C150.692 46.282 150.441 46.4893 150.463 46.7319C150.49 47.0142 150.648 47.1951 150.943 47.1995C151.238 47.2039 151.401 47.0407 151.454 46.7584Z" fill="#A2FF48"/>
<path d="M151.454 58.3333C151.419 58.0422 151.252 57.8878 150.965 57.8702C150.692 57.8569 150.441 58.0643 150.463 58.3069C150.49 58.5892 150.648 58.77 150.943 58.7744C151.238 58.7789 151.401 58.6156 151.454 58.3289" fill="#A2FF48"/>
<path d="M151.454 69.9079C151.419 69.6168 151.252 69.4624 150.965 69.4448C150.692 69.4315 150.441 69.6388 150.463 69.8815C150.49 70.1638 150.648 70.3446 150.943 70.349C151.238 70.3534 151.401 70.1902 151.454 69.9035" fill="#A2FF48"/>
<path d="M151.454 81.4829C151.419 81.1917 151.252 81.0373 150.965 81.0197C150.692 81.0065 150.441 81.2138 150.463 81.4564C150.49 81.7387 150.648 81.9196 150.943 81.924C151.238 81.9284 151.401 81.7652 151.454 81.4829Z" fill="#A2FF48"/>
<path d="M151.454 93.0576C151.419 92.7664 151.252 92.6121 150.965 92.5944C150.692 92.5812 150.441 92.7885 150.463 93.0311C150.49 93.3134 150.648 93.4943 150.943 93.4987C151.238 93.5031 151.401 93.3399 151.454 93.0532" fill="#A2FF48"/>
<path d="M151.454 104.628C151.419 104.337 151.252 104.183 150.965 104.165C150.692 104.152 150.441 104.359 150.463 104.602C150.49 104.884 150.648 105.065 150.943 105.069C151.238 105.074 151.401 104.91 151.454 104.624" fill="#A2FF48"/>
<path d="M151.454 116.203C151.419 115.912 151.252 115.757 150.965 115.74C150.692 115.726 150.441 115.934 150.463 116.176C150.49 116.459 150.648 116.64 150.943 116.644C151.238 116.648 151.401 116.485 151.454 116.198" fill="#A2FF48"/>
<path d="M151.454 127.777C151.419 127.486 151.252 127.332 150.965 127.314C150.692 127.301 150.441 127.508 150.463 127.751C150.49 128.033 150.648 128.214 150.943 128.219C151.238 128.223 151.401 128.06 151.454 127.773" fill="#A2FF48"/>
<path d="M151.454 139.352C151.419 139.061 151.252 138.907 150.965 138.889C150.692 138.876 150.441 139.083 150.463 139.326C150.49 139.608 150.648 139.789 150.943 139.793C151.238 139.798 151.401 139.635 151.454 139.348" fill="#A2FF48"/>
<path d="M151.454 150.927C151.419 150.636 151.252 150.482 150.965 150.464C150.692 150.451 150.441 150.658 150.463 150.901C150.49 151.183 150.648 151.364 150.943 151.368C151.238 151.373 151.401 151.21 151.454 150.923" fill="#A2FF48"/>
<path d="M151.454 162.502C151.419 162.211 151.252 162.056 150.965 162.039C150.692 162.025 150.441 162.233 150.463 162.475C150.49 162.758 150.648 162.938 150.943 162.943C151.238 162.947 151.401 162.784 151.454 162.497" fill="#A2FF48"/>
<path d="M151.454 174.072C151.419 173.781 151.252 173.627 150.965 173.609C150.692 173.596 150.441 173.803 150.463 174.046C150.49 174.328 150.648 174.509 150.943 174.513C151.238 174.518 151.401 174.355 151.454 174.068" fill="#A2FF48"/>
<path d="M151.454 185.559C151.419 185.268 151.252 185.113 150.965 185.096C150.692 185.082 150.441 185.29 150.463 185.532C150.49 185.815 150.648 185.996 150.943 186C151.238 186.004 151.401 185.841 151.454 185.554" fill="#A2FF48"/>
<path d="M163 0.46383C162.965 0.172696 162.797 0.0182986 162.511 0.000654101C162.238 -0.0125793 161.987 0.194753 162.009 0.437364C162.036 0.719676 162.194 0.900531 162.489 0.904942C162.78 0.909353 162.947 0.746137 163 0.459415" fill="#A2FF48"/>
<path d="M163 12.0385C162.965 11.7474 162.797 11.593 162.511 11.5754C162.238 11.5621 161.987 11.7695 162.009 12.0121C162.036 12.2944 162.194 12.4752 162.489 12.4796C162.78 12.4841 162.947 12.3208 163 12.0385Z" fill="#A2FF48"/>
<path d="M163 23.6091C162.965 23.318 162.797 23.1636 162.511 23.1459C162.238 23.1327 161.987 23.34 162.009 23.5826C162.036 23.8649 162.194 24.0458 162.489 24.0502C162.78 24.0546 162.947 23.8914 163 23.6047" fill="#A2FF48"/>
<path d="M163 35.1838C162.965 34.8927 162.797 34.7383 162.511 34.7206C162.238 34.7074 161.987 34.9147 162.009 35.1573C162.036 35.4396 162.194 35.6205 162.489 35.6249C162.78 35.6293 162.947 35.4661 163 35.1794" fill="#A2FF48"/>
<path d="M163 46.7584C162.965 46.4673 162.797 46.3129 162.511 46.2952C162.238 46.282 161.987 46.4893 162.009 46.7319C162.036 47.0142 162.194 47.1951 162.489 47.1995C162.78 47.2039 162.947 47.0407 163 46.7584Z" fill="#A2FF48"/>
<path d="M163 58.3333C162.965 58.0422 162.797 57.8878 162.511 57.8702C162.238 57.8569 161.987 58.0643 162.009 58.3069C162.036 58.5892 162.194 58.77 162.489 58.7744C162.78 58.7789 162.947 58.6156 163 58.3289" fill="#A2FF48"/>
<path d="M163 69.9079C162.965 69.6168 162.797 69.4624 162.511 69.4448C162.238 69.4315 161.987 69.6388 162.009 69.8815C162.036 70.1638 162.194 70.3446 162.489 70.349C162.78 70.3534 162.947 70.1902 163 69.9035" fill="#A2FF48"/>
<path d="M163 81.4829C162.965 81.1917 162.797 81.0373 162.511 81.0197C162.238 81.0065 161.987 81.2138 162.009 81.4564C162.036 81.7387 162.194 81.9196 162.489 81.924C162.78 81.9284 162.947 81.7652 163 81.4829Z" fill="#A2FF48"/>
<path d="M163 93.0576C162.965 92.7664 162.797 92.6121 162.511 92.5944C162.238 92.5812 161.987 92.7885 162.009 93.0311C162.036 93.3134 162.194 93.4943 162.489 93.4987C162.78 93.5031 162.947 93.3399 163 93.0532" fill="#A2FF48"/>
<path d="M163 104.628C162.965 104.337 162.797 104.183 162.511 104.165C162.238 104.152 161.987 104.359 162.009 104.602C162.036 104.884 162.194 105.065 162.489 105.069C162.78 105.074 162.947 104.91 163 104.624" fill="#A2FF48"/>
<path d="M163 116.203C162.965 115.912 162.797 115.757 162.511 115.74C162.238 115.726 161.987 115.934 162.009 116.176C162.036 116.459 162.194 116.64 162.489 116.644C162.78 116.648 162.947 116.485 163 116.198" fill="#A2FF48"/>
<path d="M163 127.777C162.965 127.486 162.797 127.332 162.511 127.314C162.238 127.301 161.987 127.508 162.009 127.751C162.036 128.033 162.194 128.214 162.489 128.219C162.78 128.223 162.947 128.06 163 127.773" fill="#A2FF48"/>
<path d="M163 139.352C162.965 139.061 162.797 138.907 162.511 138.889C162.238 138.876 161.987 139.083 162.009 139.326C162.036 139.608 162.194 139.789 162.489 139.793C162.78 139.798 162.947 139.635 163 139.348" fill="#A2FF48"/>
<path d="M163 150.927C162.965 150.636 162.797 150.482 162.511 150.464C162.238 150.451 161.987 150.658 162.009 150.901C162.036 151.183 162.194 151.364 162.489 151.368C162.78 151.373 162.947 151.21 163 150.923" fill="#A2FF48"/>
<path d="M163 162.502C162.965 162.211 162.797 162.056 162.511 162.039C162.238 162.025 161.987 162.233 162.009 162.475C162.036 162.758 162.194 162.938 162.489 162.943C162.78 162.947 162.947 162.784 163 162.497" fill="#A2FF48"/>
<path d="M163 174.072C162.965 173.781 162.797 173.627 162.511 173.609C162.238 173.596 161.987 173.803 162.009 174.046C162.036 174.328 162.194 174.509 162.489 174.513C162.78 174.518 162.947 174.355 163 174.068" fill="#A2FF48"/>
<path d="M163 185.559C162.965 185.268 162.797 185.113 162.511 185.096C162.238 185.082 161.987 185.29 162.009 185.532C162.036 185.815 162.194 185.996 162.489 186C162.78 186.004 162.947 185.841 163 185.554" fill="#A2FF48"/>
<path d="M1.54591 12.0385C1.51069 11.7474 1.34335 11.593 1.05272 11.5754C0.779707 11.5621 0.528709 11.7695 0.550726 12.0121C0.577147 12.2944 0.735671 12.4752 1.03071 12.4796C1.32134 12.4841 1.48867 12.3208 1.54151 12.0385" fill="#A2FF48"/>
<path d="M1.54591 162.502C1.51069 162.211 1.34335 162.056 1.05272 162.039C0.779707 162.025 0.528709 162.233 0.550726 162.475C0.577147 162.758 0.735671 162.938 1.03071 162.943C1.32134 162.947 1.48867 162.784 1.54151 162.497" fill="#A2FF48"/>
<path d="M1.54591 174.072C1.51069 173.781 1.34335 173.627 1.05272 173.609C0.779707 173.596 0.528709 173.803 0.550726 174.046C0.577147 174.328 0.735671 174.509 1.03071 174.513C1.32134 174.518 1.48867 174.355 1.54151 174.068" fill="#A2FF48"/>
<path d="M59.1875 174.072C59.1523 173.781 58.9849 173.627 58.6987 173.609C58.4257 173.596 58.1747 173.803 58.1967 174.046C58.2231 174.328 58.3817 174.509 58.6767 174.513C58.9717 174.518 59.1347 174.355 59.1875 174.068" fill="#A2FF48"/>
<path d="M70.7247 174.072C70.6895 173.781 70.5221 173.627 70.2359 173.609C69.9629 173.596 69.7119 173.803 69.7339 174.046C69.7603 174.328 69.9188 174.509 70.2139 174.513C70.5089 174.518 70.6718 174.355 70.7247 174.068" fill="#A2FF48"/>
<path d="M13.0744 174.072C13.0391 173.781 12.8718 173.627 12.5812 173.609C12.3081 173.596 12.0572 173.803 12.0792 174.046C12.1056 174.328 12.2641 174.509 12.5591 174.513C12.8498 174.518 13.0171 174.355 13.07 174.068" fill="#A2FF48"/>
</g>
</svg>
