<svg width="32" height="32" viewBox="0 0 32 32" fill="none" xmlns="http://www.w3.org/2000/svg">
<rect width="32" height="32" rx="16" fill="#EBDFCE"/>
<path fill-rule="evenodd" clip-rule="evenodd" d="M16 7.75C16.4142 7.75 16.75 8.08579 16.75 8.5V15.25H23.5C23.9142 15.25 24.25 15.5858 24.25 16C24.25 16.4142 23.9142 16.75 23.5 16.75H16.75V23.5C16.75 23.9142 16.4142 24.25 16 24.25C15.5858 24.25 15.25 23.9142 15.25 23.5V16.75H8.5C8.08579 16.75 7.75 16.4142 7.75 16C7.75 15.5858 8.08579 15.25 8.5 15.25H15.25V8.5C15.25 8.08579 15.5858 7.75 16 7.75Z" fill="#00140F"/>
</svg>
