<svg width="163" height="186" viewBox="0 0 163 186" fill="none" xmlns="http://www.w3.org/2000/svg">
<g opacity="0.2">
<path d="M111.835 143.115C113.337 144.782 116.574 144.839 119.053 142.329C121.303 140.049 121.655 137.014 119.837 135.13C117.934 133.159 114.636 133.895 112.61 135.938C110.382 138.183 110.105 141.571 111.835 143.119" fill="#A2FF48"/>
<path d="M130.405 124.358C128.199 122.148 124.98 121.782 123.249 123.582C121.664 125.232 121.589 128.227 124.037 130.715C126.446 133.163 129.511 133.207 131.202 131.54C132.981 129.788 132.615 126.577 130.405 124.358Z" fill="#A2FF48"/>
<path d="M124.161 119.145C126.389 121.359 129.445 121.672 131.202 119.859C132.906 118.104 132.559 114.954 130.405 112.815C128.38 110.799 125.218 110.119 123.32 112.047C121.369 114.028 122.175 117.287 124.161 119.145Z" fill="#A2FF48"/>
<path d="M124.152 95.9552C126.12 98.0373 129.392 98.5357 131.158 96.7316C132.889 94.9627 132.58 91.8926 130.383 89.6826C128.093 87.38 125.024 87.1771 123.307 88.9151C121.466 90.7765 122.14 94.0849 124.152 95.9552Z" fill="#A2FF48"/>
<path d="M124.174 107.548C126.367 109.731 129.396 110.027 131.171 108.284C132.58 106.899 132.976 103.864 130.37 101.244C128.027 98.8887 124.975 98.7519 123.302 100.508C121.364 102.541 122.25 105.73 124.178 107.548" fill="#A2FF48"/>
<path d="M131.14 85.2626C132.73 83.7937 132.734 80.6486 130.365 78.2269C128.546 76.3654 125.371 75.4302 123.324 77.5299C121.285 79.6208 122.395 82.8541 124.147 84.5436C126.366 86.6786 129.396 87.0271 131.135 85.2626" fill="#A2FF48"/>
<path d="M123.341 65.9464C121.721 67.4241 121.818 70.6927 124.125 72.9645C126.331 75.1347 129.339 75.47 131.122 73.7496C132.765 72.1616 132.708 68.9944 130.334 66.6565C127.864 64.2172 124.742 64.3804 123.341 65.9508" fill="#A2FF48"/>
<path d="M123.333 135.263C121.62 137.001 121.981 140.163 124.139 142.307C125.94 144.094 129.097 145.126 131.154 143.039C132.951 141.218 132.501 138.218 130.344 135.977C128.248 133.802 125.055 133.516 123.333 135.263Z" fill="#A2FF48"/>
<path d="M118.903 130.657C121.004 128.628 121.413 125.439 119.709 123.692C118.243 122.188 115.173 122.051 112.769 124.451C110.391 126.824 110.444 129.894 111.972 131.416C113.694 133.128 116.754 132.801 118.903 130.653" fill="#A2FF48"/>
<path d="M124.187 61.2838C125.838 63.1012 129.075 64.1069 131.087 62.0557C132.919 60.1898 132.232 57.1021 130.281 55.1656C128.159 53.0615 125.116 52.7174 123.43 54.4157C121.686 56.1669 122.139 59.3473 124.187 61.2838Z" fill="#A2FF48"/>
<path d="M108.039 142.867C109.708 141.306 109.404 138.249 107.339 136.149C105.27 134.045 102.236 133.714 100.558 135.373C99.1179 136.798 98.9374 139.775 101.35 142.179C103.565 144.38 106.569 144.482 108.039 142.872" fill="#A2FF48"/>
<path d="M112.205 119.599C113.791 121.328 116.873 120.777 118.745 118.875C120.757 116.829 120.973 113.882 119.475 112.356C117.947 110.803 115.063 110.922 112.928 113.026C110.88 115.047 110.585 117.967 112.205 119.599Z" fill="#A2FF48"/>
<path d="M112.971 147.857C111.139 149.594 110.567 152.634 112.293 154.336C113.711 155.73 116.454 155.819 118.696 153.587C120.787 151.5 120.941 148.65 119.374 147.107C117.687 145.448 114.684 146.035 112.971 147.857Z" fill="#A2FF48"/>
<path d="M112.976 101.531C111.012 103.503 110.65 106.383 112.253 107.958C113.949 109.621 116.67 109.25 118.652 107.274C121.078 104.852 120.673 102.025 119.378 100.785C117.758 99.2415 114.953 99.5414 112.976 101.531Z" fill="#A2FF48"/>
<path d="M112.298 96.3831C113.663 97.852 116.6 97.7814 118.679 95.6332C120.665 93.5776 120.955 90.878 119.357 89.2371C117.776 87.6138 114.817 88.077 112.963 89.9737C111.008 91.9764 110.699 94.7907 112.298 96.3831Z" fill="#A2FF48"/>
<path d="M118.643 84.2083C120.691 82.2454 120.924 79.3164 119.396 77.7946C117.816 76.2198 114.958 76.533 112.994 78.5003C111.025 80.4721 110.699 83.3437 112.258 84.9317C113.83 86.5242 116.649 86.2066 118.643 84.2083Z" fill="#A2FF48"/>
<path d="M118.67 72.6513C120.651 70.6486 120.96 67.8387 119.37 66.2419C117.824 64.6848 114.918 65.0288 112.963 67.0006C111.016 68.9636 110.704 71.8529 112.28 73.4188C113.791 74.923 116.684 74.7333 118.67 72.6513Z" fill="#A2FF48"/>
<path d="M107.124 147.896C105.129 145.889 102.35 145.571 100.756 147.177C99.1711 148.774 99.4925 151.588 101.487 153.578C103.451 155.536 106.225 155.845 107.802 154.283C109.414 152.682 109.119 149.908 107.124 147.896Z" fill="#A2FF48"/>
<path d="M96.2644 135.593C94.7804 133.97 91.7508 134.447 89.9586 136.308C88.0078 138.333 87.6688 141.147 89.2584 142.717C90.8305 144.275 93.7104 143.917 95.6611 141.915C97.6603 139.863 97.81 136.965 96.2644 135.593Z" fill="#A2FF48"/>
<path d="M89.9235 147.954C88.0344 149.877 87.7173 152.722 89.2497 154.226C90.7821 155.73 93.4903 155.607 95.5643 153.516C97.634 151.434 97.7529 148.717 96.2381 147.182C94.6968 145.616 91.8654 145.973 89.9235 147.949" fill="#A2FF48"/>
<path d="M112.381 61.7293C113.923 63.2687 116.701 62.9556 118.626 61.0235C120.55 59.087 120.845 56.3256 119.286 54.7685C117.714 53.2026 115.006 53.5069 113.064 55.4743C111.126 57.4372 110.827 60.1765 112.381 61.7293Z" fill="#A2FF48"/>
<path d="M84.6522 142.603C86.233 141.037 85.9424 138.324 83.9916 136.361C82.0629 134.42 79.2843 134.111 77.7475 135.66C76.2415 137.177 76.5409 139.969 78.4168 141.871C80.35 143.829 83.0889 144.151 84.6522 142.603Z" fill="#A2FF48"/>
<path d="M83.9653 147.945C82.3537 146.251 79.5486 145.488 77.7872 147.208C75.929 149.021 76.7876 151.871 78.4698 153.534C80.3897 155.431 83.2608 155.753 84.7183 154.16C86.3564 152.369 85.7047 149.643 83.9697 147.945" fill="#A2FF48"/>
<path d="M130.638 50.0752C132.298 48.5975 131.774 45.6553 130.013 43.9173C128.062 41.994 125.407 41.65 123.857 43.1762C122.293 44.7157 122.566 47.53 124.486 49.4224C126.402 51.3103 129.242 51.6456 130.638 50.0708" fill="#A2FF48"/>
<path d="M123.874 147.327C122.351 148.849 122.646 151.531 124.544 153.437C126.437 155.338 129.101 155.616 130.638 154.107C131.818 152.943 132.184 150.358 129.978 148.042C128.159 146.132 125.376 145.827 123.879 147.327" fill="#A2FF48"/>
<path d="M67.0298 148.051C65.2992 149.683 64.7576 152.44 66.3472 154.081C67.7916 155.571 70.5305 155.219 72.3668 153.357C74.0621 151.641 74.595 148.981 73.0273 147.38C71.4641 145.783 68.6987 146.277 67.0254 148.046" fill="#A2FF48"/>
<path d="M66.3959 142.475C67.8843 143.939 70.4956 143.644 72.3274 141.795C73.9964 140.11 74.6481 137.437 72.9616 135.774C71.2838 134.116 68.5536 134.857 66.9552 136.537C65.163 138.417 64.9031 141.001 66.4003 142.475" fill="#A2FF48"/>
<path d="M136.174 90.1987C134.364 92.0204 134.082 94.623 135.535 96.0743C136.975 97.5167 139.604 97.2167 141.401 95.4082C143.197 93.5996 143.479 90.9794 142.03 89.5282C140.586 88.0769 137.988 88.3769 136.178 90.1987" fill="#A2FF48"/>
<path d="M135.562 84.6098C136.958 86.1184 139.648 85.7302 141.401 83.9525C143.149 82.1792 143.475 79.5502 142.008 78.0813C140.604 76.6786 137.962 76.9256 136.156 78.7562C134.373 80.5648 134.069 83.26 135.562 84.6098Z" fill="#A2FF48"/>
<path d="M135.548 119.215C136.974 120.785 139.762 120.247 141.391 118.567C143.087 116.82 143.584 114.235 142.017 112.687C140.387 111.077 137.794 111.712 136.16 113.361C134.28 115.258 134.121 117.945 135.548 119.219" fill="#A2FF48"/>
<path d="M136.16 124.972C134.425 126.71 134.033 129.308 135.548 130.852C136.966 132.294 139.634 131.941 141.427 130.146C143.056 128.514 143.545 125.779 142.017 124.27C140.66 122.929 138.018 123.062 136.164 124.972" fill="#A2FF48"/>
<path d="M135.531 107.636C136.979 109.087 139.586 108.801 141.383 106.992C143.179 105.188 143.47 102.546 142.035 101.103C140.595 99.6607 137.983 99.9562 136.174 101.765C134.359 103.578 134.077 106.176 135.531 107.632" fill="#A2FF48"/>
<path d="M135.561 73.0395C136.873 74.5614 139.656 74.1864 141.405 72.3955C143.197 70.5605 143.391 67.9094 142.004 66.5728C140.502 65.1304 137.974 65.4039 136.147 67.2433C134.403 68.999 134.068 71.725 135.561 73.0395Z" fill="#A2FF48"/>
<path d="M107.515 130.733C108.704 129.661 108.946 127.058 106.815 124.923C105.032 123.137 102.464 122.934 101.046 124.398C99.677 125.814 99.9676 128.47 101.738 130.155C103.935 132.246 106.454 131.968 107.52 130.733" fill="#A2FF48"/>
<path d="M136.257 55.6949C134.61 57.252 134.033 59.8281 135.601 61.4117C137.146 62.9732 139.674 62.4086 141.308 60.7853C143.042 59.0605 143.373 56.5109 141.955 55.0508C140.665 53.7231 138.067 53.7937 136.257 55.6949Z" fill="#A2FF48"/>
<path d="M141.911 136.013C140.652 134.561 137.957 134.91 136.301 136.604C134.54 138.408 134.24 140.909 135.671 142.316C137.072 143.697 139.538 143.379 141.308 141.646C142.849 140.137 143.461 137.415 141.907 136.013" fill="#A2FF48"/>
<path d="M118.326 49.1532C120.127 47.424 120.277 44.7994 118.929 43.507C117.533 42.166 115.036 42.4306 113.341 44.1245C111.589 45.8713 111.324 48.3592 112.707 49.7884C114.156 51.2882 116.846 50.7809 118.33 49.1532" fill="#A2FF48"/>
<path d="M136.526 44.345C134.897 45.9639 134.641 48.2224 135.94 49.5149C137.209 50.7809 139.454 50.5382 141.035 48.9679C142.638 47.3799 142.924 45.0287 141.621 43.7848C140.154 42.3865 137.926 42.9202 136.526 44.345Z" fill="#A2FF48"/>
<path d="M60.3761 148.426C58.7909 146.846 56.5407 146.595 55.2901 147.87C54.0791 149.105 54.154 151.266 55.8317 152.987C57.4566 154.65 59.7464 154.826 60.9926 153.542C62.2432 152.259 61.9614 150.014 60.3717 148.426" fill="#A2FF48"/>
<path d="M60.3719 136.846C58.7822 135.258 56.5672 135.024 55.2858 136.29C54.0572 137.512 54.1805 139.74 55.8318 141.403C57.5448 143.132 59.7906 143.22 60.9972 141.963C62.2477 140.662 61.9703 138.39 60.3719 136.842" fill="#A2FF48"/>
<path d="M136.61 148.58C135.165 150.044 134.927 152.232 136.077 153.41C137.226 154.588 139.52 154.332 140.96 152.859C142.4 151.385 142.638 149.193 141.48 148.024C140.295 146.829 138.085 147.08 136.61 148.58Z" fill="#A2FF48"/>
<path d="M95.4189 124.883C94.2256 123.692 92.0987 123.913 90.6191 125.386C89.3597 126.639 88.73 128.884 90.1083 130.274C91.2268 131.398 93.4594 131.16 94.9081 129.696C96.4229 128.165 96.5418 125.907 95.4189 124.888" fill="#A2FF48"/>
<path d="M102.253 118.13C103.336 119.299 105.565 120.036 106.952 118.584C108.18 117.296 107.872 115.294 106.388 113.838C104.688 112.171 102.689 112.254 101.615 113.388C100.351 114.725 100.95 116.97 102.249 118.13" fill="#A2FF48"/>
<path d="M125.226 37.146C126.649 38.5576 128.683 38.7958 129.806 37.6489C130.845 36.5858 130.854 34.614 129.309 33.0437C127.842 31.5483 125.825 31.3939 124.663 32.5496C123.531 33.6744 123.8 35.73 125.226 37.146Z" fill="#A2FF48"/>
<path d="M83.7232 130.075C84.824 128.972 84.6082 126.948 83.2388 125.563C81.8429 124.147 79.782 123.922 78.6767 125.06C77.5935 126.18 77.8357 128.223 79.2184 129.586C80.6143 130.962 82.6179 131.178 83.7187 130.075" fill="#A2FF48"/>
<path d="M90.2626 164.782C91.2974 165.977 93.4199 165.655 94.7233 164.328C96.1192 162.903 96.3526 160.984 95.2782 159.819C94.4415 158.911 92.504 158.545 90.7337 160.3C89.2145 161.813 89.1793 163.816 90.2626 164.782Z" fill="#A2FF48"/>
<path d="M101.809 159.793C100.681 160.918 100.897 162.845 102.275 164.279C103.636 165.699 105.723 165.907 106.811 164.791C107.833 163.745 107.701 161.707 106.283 160.291C104.702 158.717 102.637 158.831 101.809 159.793Z" fill="#A2FF48"/>
<path d="M83.6749 164.791C84.974 163.626 84.4059 161.469 83.2434 160.314C81.8563 158.933 79.8747 158.69 78.7562 159.789C77.6378 160.891 77.8271 162.912 79.2054 164.279C80.7598 165.827 82.7766 165.827 83.6749 164.791Z" fill="#A2FF48"/>
<path d="M117.78 164.297C119.348 162.863 119.268 160.702 118.304 159.802C117.15 158.721 115.2 158.928 113.804 160.327C112.549 161.579 112.21 163.617 113.31 164.778C114.363 165.885 116.556 165.677 117.78 164.297Z" fill="#A2FF48"/>
<path d="M106.736 106.802C107.797 105.73 107.581 103.758 106.238 102.439C104.873 101.103 102.997 100.812 101.888 101.937C100.668 103.176 101.099 105.016 102.324 106.299C103.64 107.684 105.653 107.896 106.736 106.802Z" fill="#A2FF48"/>
<path d="M67.7695 160.393C66.422 161.747 66.2062 163.666 67.2807 164.738C68.3507 165.805 70.2751 165.585 71.6137 164.239C72.9656 162.885 73.1682 160.997 72.0805 159.908C70.984 158.809 69.139 159.017 67.7695 160.393Z" fill="#A2FF48"/>
<path d="M101.923 78.9284C100.831 80.0135 101.012 81.897 102.341 83.2689C103.654 84.6231 105.587 84.8525 106.674 83.7894C107.767 82.7219 107.582 80.8207 106.252 79.4533C104.935 78.0991 102.998 77.8653 101.923 78.9328" fill="#A2FF48"/>
<path d="M102.394 94.7773C103.75 96.0963 105.701 96.2859 106.727 95.2008C107.766 94.1024 107.524 92.1395 106.19 90.8382C104.843 89.5237 102.879 89.3252 101.861 90.4191C100.796 91.566 101.051 93.3834 102.394 94.7817" fill="#A2FF48"/>
<path d="M106.705 72.2148C107.771 71.134 107.538 69.1711 106.19 67.8566C104.821 66.52 102.936 66.348 101.862 67.464C100.836 68.5315 101.065 70.4724 102.368 71.7648C103.724 73.1102 105.627 73.3043 106.705 72.2104" fill="#A2FF48"/>
<path d="M67.2937 129.934C68.3726 131.019 70.2881 130.799 71.6224 129.436C72.917 128.117 73.1195 126.198 72.0759 125.148C71.0059 124.067 69.0904 124.297 67.7429 125.664C66.4306 126.992 66.2369 128.871 67.2981 129.934" fill="#A2FF48"/>
<path d="M106.168 56.3698C105.094 55.1567 103.09 54.7774 101.985 55.8405C100.875 56.9035 101.082 58.8003 102.447 60.1545C103.737 61.4338 105.6 61.6499 106.639 60.6309C107.7 59.5943 107.489 57.6931 106.172 56.3698" fill="#A2FF48"/>
<path d="M113.522 37.4195C114.552 38.4429 116.45 38.2356 117.718 36.9563C118.991 35.6727 119.193 33.7759 118.172 32.7437C117.115 31.6762 115.226 31.8924 113.923 33.2334C112.65 34.5435 112.474 36.3829 113.522 37.4239" fill="#A2FF48"/>
<path d="M125.389 164.151C126.697 165.474 128.503 165.682 129.551 164.636C130.594 163.595 130.405 161.765 129.119 160.45C127.855 159.158 125.962 158.937 124.936 159.965C123.901 161.006 124.099 162.85 125.389 164.151Z" fill="#A2FF48"/>
<path d="M140.898 32.9158C139.793 31.9013 138.098 32.2586 137.01 33.4099C135.821 34.6715 135.667 36.2771 136.658 37.2343C137.662 38.2092 139.269 38.0592 140.537 36.7403C141.779 35.4522 141.81 33.8863 140.898 32.9158Z" fill="#A2FF48"/>
<path d="M102.183 44.5658C101.219 45.545 101.417 47.1286 102.623 48.3681C103.671 49.4401 105.371 49.8547 106.419 48.7784C107.432 47.7374 107.15 46.1141 105.974 44.9584C104.653 43.6527 103.073 43.6527 102.183 44.5658Z" fill="#A2FF48"/>
<path d="M60.1956 164.327C61.0983 163.401 60.8913 161.822 59.7684 160.653C58.9098 159.757 57.1528 159.144 56.0431 160.287C55.1668 161.187 55.4134 162.916 56.5319 163.988C57.6812 165.091 59.3061 165.245 60.1956 164.327Z" fill="#A2FF48"/>
<path d="M59.7637 125.933C58.6232 124.778 57.0512 124.601 56.1132 125.492C55.259 126.299 55.1929 127.923 56.5139 129.22C57.6016 130.287 59.0636 130.613 60.1821 129.612C61.1112 128.783 60.8822 127.063 59.7681 125.933" fill="#A2FF48"/>
<path d="M152.313 129.537C153.18 128.668 153 126.992 151.934 125.947C150.837 124.875 149.204 124.703 148.345 125.572C147.46 126.463 147.693 128.086 148.759 129.153C149.807 130.203 151.467 130.459 152.313 129.537Z" fill="#A2FF48"/>
<path d="M148.336 114.019C147.446 114.852 147.666 116.515 148.754 117.592C149.829 118.655 151.445 118.862 152.321 117.975C153.171 117.111 152.986 115.43 151.907 114.367C150.885 113.361 149.172 113.061 148.34 114.019" fill="#A2FF48"/>
<path d="M148.789 106.017C149.815 107.129 151.476 107.27 152.343 106.379C153.18 105.519 152.968 103.776 151.885 102.766C150.745 101.699 149.208 101.544 148.318 102.444C147.548 103.225 147.579 104.954 148.789 106.017Z" fill="#A2FF48"/>
<path d="M148.754 82.9425C149.793 84.0894 151.462 84.2173 152.312 83.3616C153.021 82.647 153.241 81.1031 151.916 79.7709C150.608 78.4564 149.062 78.6505 148.34 79.3739C147.49 80.2164 147.609 81.8882 148.754 82.9425Z" fill="#A2FF48"/>
<path d="M148.737 71.3939C149.758 72.5276 151.405 72.7129 152.295 71.8483C153.167 70.9969 153.021 69.3119 151.942 68.2576C150.696 67.0358 149.159 67.0755 148.358 67.8342C147.592 68.562 147.504 70.247 148.737 71.3984" fill="#A2FF48"/>
<path d="M148.794 94.4247C149.75 95.5054 151.498 95.6686 152.334 94.7643C153.277 93.7454 152.894 92.1309 151.885 91.1781C150.692 90.0489 149.203 89.9827 148.323 90.8561C147.57 91.6016 147.548 93.3219 148.79 94.4247" fill="#A2FF48"/>
<path d="M45.0434 137.592C43.9602 138.681 43.7973 140.221 44.6692 141.09C45.5454 141.959 47.0691 141.787 48.1523 140.693C49.2444 139.59 49.4073 138.077 48.5266 137.199C47.6547 136.334 46.1179 136.507 45.0434 137.592Z" fill="#A2FF48"/>
<path d="M152.273 60.1367C153.158 59.228 152.973 57.7547 151.833 56.6431C150.749 55.5889 149.261 55.4301 148.398 56.2814C147.526 57.1372 147.707 58.7031 148.794 59.7971C149.877 60.8866 151.401 61.0366 152.273 60.1367Z" fill="#A2FF48"/>
<path d="M45.0696 149.145C43.9775 150.225 43.7882 151.774 44.638 152.647C45.4967 153.529 47.0291 153.379 48.1212 152.303C49.2177 151.218 49.407 149.678 48.5484 148.8C47.6897 147.918 46.1529 148.073 45.0696 149.145Z" fill="#A2FF48"/>
<path d="M148.755 140.644C149.776 141.685 151.335 141.875 152.202 141.068C153.061 140.265 152.903 138.708 151.855 137.636C150.807 136.56 149.287 136.374 148.437 137.213C147.579 138.06 147.724 139.595 148.755 140.644Z" fill="#A2FF48"/>
<path d="M137.287 160.891C136.323 161.822 136.072 163.317 136.966 164.169C137.93 165.086 139.383 164.689 140.312 163.688C141.303 162.625 141.418 161.227 140.563 160.424C139.718 159.63 138.318 159.828 137.287 160.891Z" fill="#A2FF48"/>
<path d="M151.709 45.2716C150.749 44.3011 149.402 44.1512 148.609 44.9319C147.79 45.7392 147.922 46.9963 148.904 48.0241C149.961 49.1357 151.326 49.149 152.07 48.4035C152.832 47.6404 152.656 46.2288 151.709 45.2716Z" fill="#A2FF48"/>
<path d="M91.1217 117.609C91.8615 118.346 93.1781 118.2 94.0852 117.278C94.9923 116.357 95.1333 115.042 94.3979 114.297C93.6801 113.564 92.3547 113.723 91.4299 114.649C90.4964 115.589 90.3643 116.855 91.1217 117.609Z" fill="#A2FF48"/>
<path d="M151.947 152.365C152.674 151.637 152.515 150.283 151.599 149.383C150.719 148.518 149.398 148.377 148.693 149.074C147.966 149.793 148.129 151.165 149.041 152.056C149.935 152.925 151.247 153.066 151.947 152.365Z" fill="#A2FF48"/>
<path d="M105.847 36.6478C106.56 36.0699 106.507 34.7774 105.547 33.7717C104.759 32.9424 103.341 32.8057 102.72 33.507C101.954 34.376 102.297 35.5714 103.05 36.3346C103.918 37.2168 105.265 37.3535 105.842 36.6478" fill="#A2FF48"/>
<path d="M127.23 21.513C126.059 21.5174 125.253 22.3555 125.275 23.5553C125.292 24.6669 126.155 25.5183 127.252 25.505C128.366 25.4918 129.264 24.561 129.238 23.4362C129.216 22.3334 128.353 21.5085 127.23 21.513Z" fill="#A2FF48"/>
<path d="M45.2196 163.684C45.8537 164.323 46.9237 164.2 47.7119 163.397C48.4561 162.634 48.5838 161.566 47.9982 160.94C47.3993 160.3 46.2852 160.406 45.4926 161.178C44.6999 161.95 44.5811 163.044 45.2152 163.684" fill="#A2FF48"/>
<path d="M45.4969 126.436C44.7262 127.208 44.5853 128.377 45.1974 128.977C45.8095 129.577 46.9632 129.427 47.7294 128.642C48.4736 127.878 48.6013 126.793 48.0245 126.171C47.4432 125.545 46.2719 125.673 45.5013 126.44" fill="#A2FF48"/>
<path d="M117.129 22.1484C116.596 21.6147 115.53 21.7293 114.835 22.3998C114.073 23.1365 113.941 24.1334 114.526 24.7466C115.081 25.3288 116.164 25.2318 116.878 24.5304C117.556 23.8731 117.675 22.6998 117.129 22.1484Z" fill="#A2FF48"/>
<path d="M149.336 36.1493C150.067 36.8595 151.031 36.9521 151.608 36.3654C152.185 35.7788 152.061 34.6848 151.335 33.9967C150.621 33.3218 149.595 33.2247 149.041 33.7849C148.455 34.376 148.583 35.4126 149.336 36.1449" fill="#A2FF48"/>
<path d="M80.2184 116.961C80.9538 117.715 81.8873 117.821 82.4774 117.217C83.0367 116.643 82.9574 115.713 82.2881 114.998C81.6187 114.288 80.5487 114.138 79.9894 114.676C79.3994 115.245 79.4962 116.22 80.2184 116.957" fill="#A2FF48"/>
<path d="M104.323 175.461C105.12 175.448 105.705 174.711 105.696 173.737C105.688 172.797 105.04 172.034 104.27 172.056C103.508 172.078 102.869 172.881 102.887 173.803C102.905 174.751 103.53 175.475 104.327 175.461" fill="#A2FF48"/>
<path d="M91.5745 174.972C92.1382 175.523 93.1114 175.426 93.7631 174.747C94.4104 174.076 94.4985 173.07 93.948 172.537C93.3888 171.994 92.4112 172.104 91.7507 172.784C91.0681 173.485 90.9933 174.403 91.5701 174.967" fill="#A2FF48"/>
<path d="M115.86 175.461C116.89 175.452 117.577 174.764 117.564 173.75C117.551 172.797 116.776 172.047 115.807 172.056C114.878 172.065 114.059 172.894 114.085 173.798C114.116 174.786 114.838 175.47 115.856 175.457" fill="#A2FF48"/>
<path d="M82.3981 174.976C82.9045 174.544 82.997 173.556 82.1911 172.797C81.5174 172.162 80.5882 172.021 80.0554 172.519C79.483 173.048 79.5578 174.032 80.2228 174.72C80.9361 175.461 81.808 175.563 82.4025 174.98" fill="#A2FF48"/>
<path d="M91.3899 104.433C91.4075 105.324 92.0416 106.096 92.7594 106.101C93.4904 106.101 94.1685 105.245 94.1465 104.345C94.1245 103.485 93.4507 102.669 92.7638 102.664C92.0284 102.664 91.3723 103.503 91.3899 104.433Z" fill="#A2FF48"/>
<path d="M68.7475 172.788C68.0561 173.459 67.9416 174.336 68.47 174.905C68.9985 175.479 69.888 175.43 70.5661 174.791C71.2751 174.12 71.416 173.167 70.8611 172.594C70.3503 172.069 69.3375 172.126 68.7475 172.784" fill="#A2FF48"/>
<path d="M68.505 117.142C69.0246 117.671 69.9802 117.556 70.6231 116.895C71.244 116.255 71.354 115.338 70.8741 114.826C70.3721 114.288 69.4121 114.372 68.7604 115.011C68.0999 115.66 67.9854 116.612 68.505 117.142Z" fill="#A2FF48"/>
<path d="M138.772 25.1348C139.507 25.1392 140.062 24.4687 140.079 23.5468C140.101 22.6116 139.511 21.822 138.785 21.822C138.085 21.822 137.499 22.5454 137.477 23.4365C137.455 24.4158 138.001 25.1304 138.772 25.1348Z" fill="#A2FF48"/>
<path d="M91.5001 81.3677C91.5045 82.2764 92.0901 83.0042 92.7947 82.9778C93.4684 82.9557 94.0233 82.2499 94.0409 81.3898C94.0541 80.4899 93.4816 79.7356 92.7771 79.7268C92.0769 79.7179 91.5 80.459 91.5045 81.3677" fill="#A2FF48"/>
<path d="M91.4955 92.8012C91.4955 93.7408 92.0283 94.4112 92.7725 94.3936C93.5035 94.376 94.054 93.6658 94.0363 92.7615C94.0187 91.8925 93.4815 91.2352 92.7813 91.2132C92.0416 91.1911 91.4999 91.8616 91.4999 92.8012" fill="#A2FF48"/>
<path d="M125.983 173.807C125.996 174.716 126.582 175.408 127.304 175.369C127.978 175.333 128.537 174.592 128.533 173.759C128.524 172.876 127.93 172.197 127.19 172.228C126.441 172.259 125.974 172.876 125.988 173.807" fill="#A2FF48"/>
<path d="M92.7416 71.4072C93.4726 71.4204 94.0318 70.7323 94.0318 69.8192C94.0318 68.9458 93.4241 68.1738 92.7416 68.1871C92.081 68.2003 91.5174 68.9149 91.4954 69.7662C91.4734 70.697 91.9974 71.3895 92.7416 71.4072Z" fill="#A2FF48"/>
<path d="M149.472 163.22C150.067 163.789 150.991 163.851 151.454 163.357C151.934 162.845 151.806 161.985 151.163 161.372C150.555 160.79 149.6 160.71 149.177 161.2C148.75 161.698 148.891 162.669 149.468 163.22" fill="#A2FF48"/>
<path d="M91.5215 58.196C91.5039 59.0915 92.0279 59.7752 92.7325 59.7796C93.4326 59.784 94.0051 59.0959 94.0095 58.2489C94.0139 57.4329 93.4855 56.7536 92.8161 56.7139C92.1072 56.6742 91.5391 57.327 91.5215 58.196Z" fill="#A2FF48"/>
<path d="M59.1917 116.992C59.6056 116.542 59.4779 115.717 58.9055 115.157C58.3022 114.561 57.4787 114.495 57.0428 115.007C56.6289 115.492 56.7698 116.295 57.3643 116.837C57.9411 117.367 58.7778 117.437 59.1917 116.992Z" fill="#A2FF48"/>
<path d="M57.3068 174.592C57.8748 175.17 58.663 175.263 59.121 174.808C59.5613 174.372 59.4865 173.534 58.9625 172.973C58.4296 172.413 57.6282 172.329 57.1526 172.788C56.6726 173.251 56.7343 174.01 57.3068 174.592Z" fill="#A2FF48"/>
<path d="M92.7592 45.2582C92.1295 45.2582 91.6319 45.9198 91.6539 46.7271C91.6715 47.4505 92.1339 48.0195 92.7195 48.0372C93.3713 48.0548 93.8909 47.4196 93.8688 46.63C93.8468 45.8537 93.3668 45.2582 92.7592 45.2626" fill="#A2FF48"/>
<path d="M34.4216 151.443C34.928 151.972 35.6898 152.091 36.1125 151.712C36.5309 151.337 36.4736 150.569 35.9804 150.036C35.4476 149.453 34.6726 149.334 34.2411 149.758C33.8359 150.155 33.9152 150.913 34.4216 151.443Z" fill="#A2FF48"/>
<path d="M34.5016 139.908C35.0476 140.428 35.7125 140.477 36.144 140.023C36.5712 139.573 36.4875 138.92 35.9327 138.368C35.3734 137.813 34.6204 137.746 34.2153 138.214C33.8498 138.642 33.9775 139.405 34.5059 139.903" fill="#A2FF48"/>
<path d="M137.776 173.763C137.772 174.491 138.182 175.011 138.763 175.025C139.344 175.038 139.771 174.526 139.78 173.803C139.789 173.057 139.397 172.559 138.794 172.55C138.177 172.541 137.781 173.009 137.776 173.759" fill="#A2FF48"/>
<path d="M103.328 23.5379C103.345 24.1554 103.808 24.7112 104.314 24.7112C104.838 24.7112 105.283 24.0893 105.252 23.4011C105.221 22.7174 104.825 22.2895 104.244 22.3204C103.698 22.3469 103.315 22.8586 103.332 23.5379" fill="#A2FF48"/>
<path d="M162.995 92.788C162.987 92.1749 162.463 91.6412 161.868 91.6367C161.221 91.6323 160.701 92.1925 160.736 92.8674C160.767 93.485 161.318 94.0143 161.899 93.979C162.502 93.9438 163.009 93.3968 163 92.7925" fill="#A2FF48"/>
<path d="M160.736 104.456C160.767 105.082 161.282 105.554 161.912 105.527C162.533 105.501 163.013 104.985 163 104.358C162.987 103.776 162.418 103.207 161.859 103.212C161.225 103.212 160.706 103.789 160.741 104.46" fill="#A2FF48"/>
<path d="M160.732 81.3808C160.745 82.0292 161.234 82.5012 161.885 82.4924C162.528 82.4792 163.004 81.9807 162.995 81.3367C162.982 80.6927 162.484 80.2163 161.841 80.2251C161.198 80.2383 160.723 80.7368 160.732 81.3808Z" fill="#A2FF48"/>
<path d="M160.732 69.8062C160.718 70.4502 161.198 70.9399 161.841 70.9487C162.489 70.9575 162.995 70.4679 162.991 69.8415C162.991 69.1975 162.506 68.699 161.877 68.6902C161.234 68.6814 160.74 69.1578 160.732 69.8018" fill="#A2FF48"/>
<path d="M161.881 114.844C161.221 114.835 160.745 115.289 160.736 115.951C160.723 116.604 161.199 117.102 161.841 117.107C162.484 117.107 162.982 116.635 162.995 115.991C163.013 115.355 162.524 114.857 161.881 114.848" fill="#A2FF48"/>
<path d="M161.81 126.423C161.176 126.44 160.705 126.957 160.732 127.605C160.758 128.249 161.26 128.708 161.907 128.681C162.541 128.659 163.021 128.143 162.991 127.508C162.96 126.873 162.449 126.405 161.806 126.423" fill="#A2FF48"/>
<path d="M161.898 57.1196C161.268 57.0976 160.753 57.5828 160.731 58.2092C160.709 58.8488 161.189 59.3605 161.819 59.3737C162.457 59.3869 162.977 58.9105 162.99 58.2886C163.008 57.649 162.532 57.1417 161.898 57.1196Z" fill="#A2FF48"/>
<path d="M161.85 140.194C162.449 140.194 162.942 139.722 162.947 139.149C162.947 138.567 162.476 138.108 161.863 138.099C161.225 138.095 160.789 138.509 160.789 139.131C160.789 139.727 161.256 140.194 161.85 140.194Z" fill="#A2FF48"/>
<path d="M91.9362 35.1744C91.9714 35.792 92.3589 36.189 92.8565 36.1228C93.2969 36.0655 93.6139 35.5935 93.5963 35.02C93.5743 34.3804 93.2352 34.0099 92.7024 34.0452C92.196 34.076 91.901 34.5083 91.9362 35.1744Z" fill="#A2FF48"/>
<path d="M151.114 23.5114C151.114 22.9379 150.775 22.5056 150.313 22.51C149.881 22.51 149.498 23.0041 149.516 23.5334C149.529 24.0098 149.912 24.4862 150.295 24.5039C150.713 24.5215 151.114 24.0407 151.114 23.5114Z" fill="#A2FF48"/>
<path d="M45.9064 116.679C46.2499 116.992 46.7915 116.908 47.179 116.476C47.5225 116.096 47.5797 115.523 47.3111 115.241C47.0293 114.941 46.3952 115.024 46.0121 115.408C45.6202 115.801 45.5717 116.379 45.902 116.683" fill="#A2FF48"/>
<path d="M47.148 174.359C47.584 173.935 47.6412 173.437 47.2978 173.088C46.9675 172.753 46.4303 172.819 46.0251 173.238C45.6641 173.613 45.5936 174.16 45.871 174.469C46.1749 174.809 46.7341 174.76 47.148 174.359Z" fill="#A2FF48"/>
<path d="M34.4745 126.899C34.1486 127.248 34.2279 127.76 34.677 128.17C35.0469 128.514 35.6326 128.58 35.9056 128.311C36.183 128.037 36.1038 127.345 35.7559 126.996C35.3816 126.621 34.7871 126.577 34.4789 126.904" fill="#A2FF48"/>
<path d="M34.642 162.845C35.0471 163.269 35.5756 163.339 35.9102 163.009C36.2229 162.7 36.1568 162.096 35.7649 161.721C35.4346 161.403 34.8049 161.319 34.5187 161.562C34.2017 161.831 34.2633 162.448 34.642 162.845Z" fill="#A2FF48"/>
<path d="M161.872 47.6402C162.458 47.6313 162.859 47.1946 162.828 46.5947C162.802 46.061 162.361 45.6552 161.833 45.6728C161.34 45.6904 160.864 46.1536 160.846 46.6388C160.824 47.1814 161.309 47.649 161.872 47.6402Z" fill="#A2FF48"/>
<path d="M161.903 151.601C162.414 151.584 162.784 151.204 162.779 150.702C162.779 150.181 162.335 149.797 161.775 149.841C161.256 149.881 160.926 150.26 160.961 150.785C160.996 151.306 161.362 151.619 161.903 151.601Z" fill="#A2FF48"/>
<path d="M149.754 173.754C149.745 174.164 149.961 174.482 150.278 174.508C150.608 174.535 150.916 174.186 150.921 173.785C150.925 173.397 150.608 173 150.3 173.013C150.001 173.026 149.758 173.353 149.75 173.758" fill="#A2FF48"/>
<path d="M161.15 35.0553C161.137 35.4567 161.428 35.7964 161.802 35.8228C162.198 35.8493 162.586 35.4699 162.577 35.0685C162.568 34.7112 162.216 34.3627 161.85 34.3495C161.48 34.3363 161.159 34.6583 161.146 35.0597" fill="#A2FF48"/>
<path d="M80.632 104.385C80.632 104.747 80.905 105.117 81.1869 105.139C81.4995 105.157 81.7946 104.769 81.7813 104.354C81.7681 103.939 81.5347 103.666 81.2001 103.679C80.883 103.692 80.632 104.001 80.632 104.385Z" fill="#A2FF48"/>
<path d="M126.503 11.8969C126.499 12.2718 126.847 12.6203 127.226 12.6203C127.626 12.6203 127.943 12.3071 127.943 11.9057C127.943 11.4911 127.648 11.1911 127.239 11.1823C126.86 11.1735 126.512 11.5131 126.508 11.8925" fill="#A2FF48"/>
<path d="M92.2794 23.5113C92.2926 23.8422 92.5083 24.1245 92.7549 24.1289C93.0192 24.1333 93.2878 23.7716 93.2614 23.4451C93.2349 23.132 93.0059 22.8938 92.7329 22.9026C92.4555 22.907 92.2662 23.1628 92.2794 23.5113Z" fill="#A2FF48"/>
<path d="M161.868 162.899C162.216 162.899 162.454 162.66 162.449 162.303C162.449 161.964 162.198 161.69 161.877 161.681C161.547 161.672 161.199 162.021 161.216 162.343C161.23 162.638 161.533 162.899 161.864 162.899" fill="#A2FF48"/>
<path d="M138.798 11.3191C138.468 11.3103 138.195 11.5485 138.173 11.8661C138.151 12.2013 138.371 12.4439 138.719 12.4748C139.111 12.5057 139.397 12.2631 139.392 11.8969C139.392 11.5838 139.128 11.3279 138.798 11.3191Z" fill="#A2FF48"/>
<path d="M115.209 11.9409C115.231 12.2585 115.508 12.4835 115.86 12.4747C116.221 12.4614 116.442 12.2276 116.42 11.8747C116.402 11.5351 116.129 11.2969 115.794 11.3278C115.464 11.3586 115.187 11.6498 115.209 11.9453" fill="#A2FF48"/>
<path d="M34.7921 173.617C34.7921 174.032 35.0079 174.292 35.2237 174.261C35.4527 174.231 35.5716 174.05 35.5804 173.767C35.5892 173.485 35.3514 173.172 35.162 173.26C35.0035 173.331 34.8802 173.529 34.7921 173.613" fill="#A2FF48"/>
<path d="M69.1744 104.367C69.2096 104.658 69.3769 104.813 69.6676 104.83C69.9406 104.844 70.1916 104.636 70.1696 104.394C70.1432 104.111 69.9846 103.931 69.6896 103.926C69.399 103.922 69.2316 104.085 69.1788 104.372" fill="#A2FF48"/>
<path d="M161.454 185.536C161.489 185.827 161.657 185.982 161.947 185.999C162.22 186.013 162.471 185.805 162.449 185.563C162.423 185.28 162.264 185.099 161.969 185.095C161.679 185.091 161.511 185.254 161.458 185.541" fill="#A2FF48"/>
<path d="M149.926 185.536C149.961 185.827 150.128 185.982 150.419 185.999C150.692 186.013 150.943 185.805 150.921 185.563C150.894 185.28 150.736 185.099 150.441 185.095C150.15 185.091 149.983 185.254 149.93 185.541" fill="#A2FF48"/>
<path d="M138.397 185.536C138.432 185.827 138.6 185.982 138.89 185.999C139.163 186.013 139.414 185.805 139.392 185.563C139.366 185.28 139.207 185.099 138.912 185.095C138.622 185.091 138.454 185.254 138.402 185.541" fill="#A2FF48"/>
<path d="M126.864 185.536C126.9 185.827 127.067 185.982 127.358 185.999C127.631 186.013 127.882 185.805 127.86 185.563C127.833 185.28 127.675 185.099 127.38 185.095C127.089 185.091 126.922 185.254 126.869 185.541" fill="#A2FF48"/>
<path d="M115.336 185.536C115.371 185.827 115.539 185.982 115.825 185.999C116.098 186.013 116.349 185.805 116.327 185.563C116.3 185.28 116.142 185.099 115.847 185.095C115.552 185.091 115.389 185.254 115.336 185.541" fill="#A2FF48"/>
<path d="M103.808 185.536C103.843 185.827 104.01 185.982 104.296 185.999C104.569 186.013 104.82 185.805 104.798 185.563C104.772 185.28 104.613 185.099 104.318 185.095C104.023 185.091 103.86 185.254 103.808 185.541" fill="#A2FF48"/>
<path d="M92.2754 185.536C92.3106 185.827 92.4779 185.982 92.7641 185.999C93.0372 186.013 93.2882 185.805 93.2661 185.563C93.2397 185.28 93.0812 185.099 92.7862 185.095C92.4911 185.091 92.3282 185.254 92.2754 185.541" fill="#A2FF48"/>
<path d="M80.7469 185.536C80.7821 185.827 80.9494 185.982 81.2357 185.999C81.5087 186.013 81.7597 185.805 81.7377 185.563C81.7113 185.28 81.5527 185.099 81.2577 185.095C80.9627 185.091 80.7997 185.254 80.7469 185.541" fill="#A2FF48"/>
<path d="M69.2184 185.536C69.2537 185.827 69.421 185.982 69.7072 185.999C69.9802 186.013 70.2312 185.805 70.2092 185.563C70.1828 185.28 70.0243 185.099 69.7292 185.095C69.4386 185.091 69.2713 185.254 69.2184 185.541" fill="#A2FF48"/>
<path d="M57.6856 185.536C57.7209 185.827 57.8882 185.982 58.1744 185.999C58.4474 186.013 58.6984 185.805 58.6764 185.563C58.65 185.28 58.4915 185.099 58.1965 185.095C57.9058 185.091 57.7385 185.254 57.6856 185.541" fill="#A2FF48"/>
<path d="M46.1572 185.536C46.1924 185.827 46.3598 185.982 46.646 185.999C46.919 186.013 47.17 185.805 47.148 185.563C47.1216 185.28 46.963 185.099 46.668 185.095C46.3774 185.091 46.21 185.254 46.1572 185.541" fill="#A2FF48"/>
<path d="M34.6287 185.536C34.664 185.827 34.8313 185.982 35.1175 185.999C35.3905 186.013 35.6415 185.805 35.6195 185.563C35.5931 185.28 35.4346 185.099 35.1395 185.095C34.8489 185.091 34.6816 185.254 34.6287 185.541" fill="#A2FF48"/>
<path d="M23.0965 185.536C23.1317 185.827 23.299 185.982 23.5897 185.999C23.8627 186.013 24.1137 185.805 24.0917 185.563C24.0653 185.28 23.9067 185.099 23.6117 185.095C23.3167 185.091 23.1537 185.254 23.1009 185.541" fill="#A2FF48"/>
<path d="M23.0965 173.961C23.1317 174.253 23.299 174.407 23.5897 174.425C23.8627 174.438 24.1137 174.231 24.0917 173.988C24.0653 173.706 23.9067 173.525 23.6117 173.52C23.3167 173.516 23.1537 173.679 23.1009 173.961" fill="#A2FF48"/>
<path d="M23.0965 162.391C23.1317 162.682 23.299 162.836 23.5897 162.854C23.8627 162.867 24.1137 162.66 24.0917 162.417C24.0653 162.135 23.9067 161.954 23.6117 161.95C23.3167 161.945 23.1537 162.109 23.1009 162.395" fill="#A2FF48"/>
<path d="M23.0965 150.816C23.1317 151.107 23.299 151.262 23.5897 151.279C23.8627 151.293 24.1137 151.085 24.0917 150.843C24.0653 150.56 23.9067 150.379 23.6117 150.375C23.3167 150.371 23.1537 150.534 23.1009 150.821" fill="#A2FF48"/>
<path d="M23.0965 139.242C23.1317 139.533 23.299 139.687 23.5897 139.705C23.8627 139.718 24.1137 139.511 24.0917 139.268C24.0653 138.986 23.9067 138.805 23.6117 138.801C23.3167 138.796 23.1537 138.959 23.1009 139.242" fill="#A2FF48"/>
<path d="M23.0965 127.667C23.1317 127.958 23.299 128.112 23.5897 128.13C23.8627 128.143 24.1137 127.936 24.0917 127.693C24.0653 127.411 23.9067 127.23 23.6117 127.226C23.3167 127.221 23.1537 127.384 23.1009 127.671" fill="#A2FF48"/>
<path d="M23.0965 116.092C23.1317 116.383 23.299 116.538 23.5897 116.555C23.8627 116.568 24.1137 116.361 24.0917 116.119C24.0653 115.836 23.9067 115.655 23.6117 115.651C23.3167 115.647 23.1537 115.81 23.1009 116.096" fill="#A2FF48"/>
<path d="M23.0965 104.517C23.1317 104.808 23.299 104.963 23.5897 104.98C23.8627 104.994 24.1137 104.786 24.0917 104.544C24.0653 104.261 23.9067 104.08 23.6117 104.076C23.3167 104.072 23.1537 104.235 23.1009 104.517" fill="#A2FF48"/>
<path d="M23.0965 92.9424C23.1317 93.2336 23.299 93.3879 23.5897 93.4056C23.8627 93.4188 24.1137 93.2115 24.0917 92.9689C24.0653 92.6866 23.9067 92.5057 23.6117 92.5013C23.3167 92.4969 23.1537 92.6601 23.1009 92.9468" fill="#A2FF48"/>
<path d="M23.0965 81.3719C23.1317 81.663 23.299 81.8174 23.5897 81.835C23.8627 81.8483 24.1137 81.6409 24.0917 81.3983C24.0653 81.116 23.9067 80.9352 23.6117 80.9308C23.3167 80.9263 23.1537 81.0896 23.1009 81.3763" fill="#A2FF48"/>
<path d="M23.0965 69.7972C23.1317 70.0883 23.299 70.2427 23.5897 70.2603C23.8627 70.2736 24.1137 70.0662 24.0917 69.8236C24.0653 69.5413 23.9067 69.3605 23.6117 69.356C23.3167 69.3516 23.1537 69.5148 23.1009 69.8016" fill="#A2FF48"/>
<path d="M23.0965 58.2226C23.1317 58.5137 23.299 58.6681 23.5897 58.6857C23.8627 58.699 24.1137 58.4916 24.0917 58.249C24.0653 57.9667 23.9067 57.7859 23.6117 57.7815C23.3167 57.777 23.1537 57.9403 23.1009 58.227" fill="#A2FF48"/>
<path d="M23.0965 46.6477C23.1317 46.9389 23.299 47.0933 23.5897 47.1109C23.8627 47.1241 24.1137 46.9168 24.0917 46.6742C24.0653 46.3919 23.9067 46.211 23.6117 46.2066C23.3167 46.2022 23.1537 46.3654 23.1009 46.6522" fill="#A2FF48"/>
<path d="M23.0965 35.0728C23.1317 35.3639 23.299 35.5183 23.5897 35.536C23.8627 35.5492 24.1137 35.3419 24.0917 35.0993C24.0653 34.8169 23.9067 34.6361 23.6117 34.6317C23.3167 34.6273 23.1537 34.7905 23.1009 35.0772" fill="#A2FF48"/>
<path d="M23.0965 23.4982C23.1317 23.7893 23.299 23.9437 23.5897 23.9614C23.8627 23.9746 24.1137 23.7673 24.0917 23.5247C24.0653 23.2424 23.9067 23.0615 23.6117 23.0571C23.3167 23.0527 23.1537 23.2159 23.1009 23.5026" fill="#A2FF48"/>
<path d="M23.0965 11.9278C23.1317 12.2189 23.299 12.3733 23.5897 12.3909C23.8627 12.4042 24.1137 12.1969 24.0917 11.9542C24.0653 11.6719 23.9067 11.4911 23.6117 11.4867C23.3167 11.4822 23.1537 11.6455 23.1009 11.9322" fill="#A2FF48"/>
<path d="M46.1572 104.517C46.1924 104.808 46.3598 104.963 46.646 104.98C46.919 104.994 47.17 104.786 47.148 104.544C47.1216 104.261 46.963 104.08 46.668 104.076C46.3774 104.072 46.21 104.235 46.1572 104.517Z" fill="#A2FF48"/>
<path d="M46.1572 92.9424C46.1924 93.2336 46.3598 93.3879 46.646 93.4056C46.919 93.4188 47.17 93.2115 47.148 92.9689C47.1216 92.6866 46.963 92.5057 46.668 92.5013C46.3774 92.4969 46.21 92.6601 46.1572 92.9468" fill="#A2FF48"/>
<path d="M46.1572 81.3719C46.1924 81.663 46.3598 81.8174 46.646 81.835C46.919 81.8483 47.17 81.6409 47.148 81.3983C47.1216 81.116 46.963 80.9352 46.668 80.9308C46.3774 80.9263 46.21 81.0896 46.1572 81.3763" fill="#A2FF48"/>
<path d="M46.1572 69.7972C46.1924 70.0883 46.3598 70.2427 46.646 70.2603C46.919 70.2736 47.17 70.0662 47.148 69.8236C47.1216 69.5413 46.963 69.3605 46.668 69.356C46.3774 69.3516 46.21 69.5148 46.1572 69.8016" fill="#A2FF48"/>
<path d="M46.1572 58.2226C46.1924 58.5137 46.3598 58.6681 46.646 58.6857C46.919 58.699 47.17 58.4916 47.148 58.249C47.1216 57.9667 46.963 57.7859 46.668 57.7815C46.3774 57.777 46.21 57.9403 46.1572 58.227" fill="#A2FF48"/>
<path d="M46.1572 46.6477C46.1924 46.9389 46.3598 47.0933 46.646 47.1109C46.919 47.1241 47.17 46.9168 47.148 46.6742C47.1216 46.3919 46.963 46.211 46.668 46.2066C46.3774 46.2022 46.21 46.3654 46.1572 46.6522" fill="#A2FF48"/>
<path d="M46.1572 35.0728C46.1924 35.3639 46.3598 35.5183 46.646 35.536C46.919 35.5492 47.17 35.3419 47.148 35.0993C47.1216 34.8169 46.963 34.6361 46.668 34.6317C46.3774 34.6273 46.21 34.7905 46.1572 35.0772" fill="#A2FF48"/>
<path d="M46.1572 23.4982C46.1924 23.7893 46.3598 23.9437 46.646 23.9614C46.919 23.9746 47.17 23.7673 47.148 23.5247C47.1216 23.2424 46.963 23.0615 46.668 23.0571C46.3774 23.0527 46.21 23.2159 46.1572 23.5026" fill="#A2FF48"/>
<path d="M46.1572 11.9278C46.1924 12.2189 46.3598 12.3733 46.646 12.3909C46.919 12.4042 47.17 12.1969 47.148 11.9542C47.1216 11.6719 46.963 11.4911 46.668 11.4867C46.3774 11.4822 46.21 11.6455 46.1572 11.9322" fill="#A2FF48"/>
<path d="M57.6856 104.517C57.7209 104.808 57.8882 104.963 58.1744 104.98C58.4474 104.994 58.6984 104.786 58.6764 104.544C58.65 104.261 58.4915 104.08 58.1965 104.076C57.9058 104.072 57.7385 104.235 57.6856 104.517Z" fill="#A2FF48"/>
<path d="M57.6856 92.9424C57.7209 93.2336 57.8882 93.3879 58.1744 93.4056C58.4474 93.4188 58.6984 93.2115 58.6764 92.9689C58.65 92.6866 58.4915 92.5057 58.1965 92.5013C57.9058 92.4969 57.7385 92.6601 57.6856 92.9468" fill="#A2FF48"/>
<path d="M57.6856 81.3719C57.7209 81.663 57.8882 81.8174 58.1744 81.835C58.4474 81.8483 58.6984 81.6409 58.6764 81.3983C58.65 81.116 58.4915 80.9352 58.1965 80.9308C57.9058 80.9263 57.7385 81.0896 57.6856 81.3763" fill="#A2FF48"/>
<path d="M57.6856 69.7972C57.7209 70.0883 57.8882 70.2427 58.1744 70.2603C58.4474 70.2736 58.6984 70.0662 58.6764 69.8236C58.65 69.5413 58.4915 69.3605 58.1965 69.356C57.9058 69.3516 57.7385 69.5148 57.6856 69.8016" fill="#A2FF48"/>
<path d="M57.6856 58.2226C57.7209 58.5137 57.8882 58.6681 58.1744 58.6857C58.4474 58.699 58.6984 58.4916 58.6764 58.249C58.65 57.9667 58.4915 57.7859 58.1965 57.7815C57.9058 57.777 57.7385 57.9403 57.6856 58.227" fill="#A2FF48"/>
<path d="M57.6856 46.6477C57.7209 46.9389 57.8882 47.0933 58.1744 47.1109C58.4474 47.1241 58.6984 46.9168 58.6764 46.6742C58.65 46.3919 58.4915 46.211 58.1965 46.2066C57.9058 46.2022 57.7385 46.3654 57.6856 46.6522" fill="#A2FF48"/>
<path d="M57.6856 35.0728C57.7209 35.3639 57.8882 35.5183 58.1744 35.536C58.4474 35.5492 58.6984 35.3419 58.6764 35.0993C58.65 34.8169 58.4915 34.6361 58.1965 34.6317C57.9058 34.6273 57.7385 34.7905 57.6856 35.0772" fill="#A2FF48"/>
<path d="M57.6856 23.4982C57.7209 23.7893 57.8882 23.9437 58.1744 23.9614C58.4474 23.9746 58.6984 23.7673 58.6764 23.5247C58.65 23.2424 58.4915 23.0615 58.1965 23.0571C57.9058 23.0527 57.7385 23.2159 57.6856 23.5026" fill="#A2FF48"/>
<path d="M57.6856 11.9278C57.7209 12.2189 57.8882 12.3733 58.1744 12.3909C58.4474 12.4042 58.6984 12.1969 58.6764 11.9542C58.65 11.6719 58.4915 11.4911 58.1965 11.4867C57.9058 11.4822 57.7385 11.6455 57.6856 11.9322" fill="#A2FF48"/>
<path d="M69.2184 92.9424C69.2537 93.2336 69.421 93.3879 69.7072 93.4056C69.9802 93.4188 70.2312 93.2115 70.2092 92.9689C70.1828 92.6866 70.0243 92.5057 69.7292 92.5013C69.4386 92.4969 69.2713 92.6601 69.2184 92.9468" fill="#A2FF48"/>
<path d="M69.2184 81.3719C69.2537 81.663 69.421 81.8174 69.7072 81.835C69.9802 81.8483 70.2312 81.6409 70.2092 81.3983C70.1828 81.116 70.0243 80.9352 69.7292 80.9308C69.4386 80.9263 69.2713 81.0896 69.2184 81.3763" fill="#A2FF48"/>
<path d="M69.2184 69.7972C69.2537 70.0883 69.421 70.2427 69.7072 70.2603C69.9802 70.2736 70.2312 70.0662 70.2092 69.8236C70.1828 69.5413 70.0243 69.3605 69.7292 69.356C69.4386 69.3516 69.2713 69.5148 69.2184 69.8016" fill="#A2FF48"/>
<path d="M69.2184 58.2226C69.2537 58.5137 69.421 58.6681 69.7072 58.6857C69.9802 58.699 70.2312 58.4916 70.2092 58.249C70.1828 57.9667 70.0243 57.7859 69.7292 57.7815C69.4386 57.777 69.2713 57.9403 69.2184 58.227" fill="#A2FF48"/>
<path d="M69.2184 46.6477C69.2537 46.9389 69.421 47.0933 69.7072 47.1109C69.9802 47.1241 70.2312 46.9168 70.2092 46.6742C70.1828 46.3919 70.0243 46.211 69.7292 46.2066C69.4386 46.2022 69.2713 46.3654 69.2184 46.6522" fill="#A2FF48"/>
<path d="M69.2184 35.0728C69.2537 35.3639 69.421 35.5183 69.7072 35.536C69.9802 35.5492 70.2312 35.3419 70.2092 35.0993C70.1828 34.8169 70.0243 34.6361 69.7292 34.6317C69.4386 34.6273 69.2713 34.7905 69.2184 35.0772" fill="#A2FF48"/>
<path d="M69.2184 23.4982C69.2537 23.7893 69.421 23.9437 69.7072 23.9614C69.9802 23.9746 70.2312 23.7673 70.2092 23.5247C70.1828 23.2424 70.0243 23.0615 69.7292 23.0571C69.4386 23.0527 69.2713 23.2159 69.2184 23.5026" fill="#A2FF48"/>
<path d="M69.2184 11.9278C69.2537 12.2189 69.421 12.3733 69.7072 12.3909C69.9802 12.4042 70.2312 12.1969 70.2092 11.9542C70.1828 11.6719 70.0243 11.4911 69.7292 11.4867C69.4386 11.4822 69.2713 11.6455 69.2184 11.9322" fill="#A2FF48"/>
<path d="M80.7469 92.9424C80.7821 93.2336 80.9494 93.3879 81.2357 93.4056C81.5087 93.4188 81.7597 93.2115 81.7377 92.9689C81.7113 92.6866 81.5527 92.5057 81.2577 92.5013C80.9627 92.4969 80.7997 92.6601 80.7469 92.9468" fill="#A2FF48"/>
<path d="M80.7469 81.3719C80.7821 81.663 80.9494 81.8174 81.2357 81.835C81.5087 81.8483 81.7597 81.6409 81.7377 81.3983C81.7113 81.116 81.5527 80.9352 81.2577 80.9308C80.9627 80.9263 80.7997 81.0896 80.7469 81.3763" fill="#A2FF48"/>
<path d="M80.7469 69.7972C80.7821 70.0883 80.9494 70.2427 81.2357 70.2603C81.5087 70.2736 81.7597 70.0662 81.7377 69.8236C81.7113 69.5413 81.5527 69.3605 81.2577 69.356C80.9627 69.3516 80.7997 69.5148 80.7469 69.8016" fill="#A2FF48"/>
<path d="M80.7469 58.2226C80.7821 58.5137 80.9494 58.6681 81.2357 58.6857C81.5087 58.699 81.7597 58.4916 81.7377 58.249C81.7113 57.9667 81.5527 57.7859 81.2577 57.7815C80.9627 57.777 80.7997 57.9403 80.7469 58.227" fill="#A2FF48"/>
<path d="M80.7469 46.6477C80.7821 46.9389 80.9494 47.0933 81.2357 47.1109C81.5087 47.1241 81.7597 46.9168 81.7377 46.6742C81.7113 46.3919 81.5527 46.211 81.2577 46.2066C80.9627 46.2022 80.7997 46.3654 80.7469 46.6522" fill="#A2FF48"/>
<path d="M80.7469 35.0728C80.7821 35.3639 80.9494 35.5183 81.2357 35.536C81.5087 35.5492 81.7597 35.3419 81.7377 35.0993C81.7113 34.8169 81.5527 34.6361 81.2577 34.6317C80.9627 34.6273 80.7997 34.7905 80.7469 35.0772" fill="#A2FF48"/>
<path d="M80.7469 23.4982C80.7821 23.7893 80.9494 23.9437 81.2357 23.9614C81.5087 23.9746 81.7597 23.7673 81.7377 23.5247C81.7113 23.2424 81.5527 23.0615 81.2577 23.0571C80.9627 23.0527 80.7997 23.2159 80.7469 23.5026" fill="#A2FF48"/>
<path d="M80.7469 11.9278C80.7821 12.2189 80.9494 12.3733 81.2357 12.3909C81.5087 12.4042 81.7597 12.1969 81.7377 11.9542C81.7113 11.6719 81.5527 11.4911 81.2577 11.4867C80.9627 11.4822 80.7997 11.6455 80.7469 11.9322" fill="#A2FF48"/>
<path d="M34.5891 104.517C34.6243 104.808 34.7917 104.963 35.0779 104.98C35.3509 104.994 35.6019 104.786 35.5799 104.544C35.5535 104.261 35.3949 104.08 35.0999 104.076C34.8093 104.072 34.6419 104.235 34.5891 104.517Z" fill="#A2FF48"/>
<path d="M34.5891 92.9424C34.6243 93.2336 34.7917 93.3879 35.0779 93.4056C35.3509 93.4188 35.6019 93.2115 35.5799 92.9689C35.5535 92.6866 35.3949 92.5057 35.0999 92.5013C34.8093 92.4969 34.6419 92.6601 34.5891 92.9468" fill="#A2FF48"/>
<path d="M34.5891 81.3719C34.6243 81.663 34.7917 81.8174 35.0779 81.835C35.3509 81.8483 35.6019 81.6409 35.5799 81.3983C35.5535 81.116 35.3949 80.9352 35.0999 80.9308C34.8093 80.9263 34.6419 81.0896 34.5891 81.3763" fill="#A2FF48"/>
<path d="M34.5891 69.7972C34.6243 70.0883 34.7917 70.2427 35.0779 70.2603C35.3509 70.2736 35.6019 70.0662 35.5799 69.8236C35.5535 69.5413 35.3949 69.3605 35.0999 69.356C34.8093 69.3516 34.6419 69.5148 34.5891 69.8016" fill="#A2FF48"/>
<path d="M34.5891 58.2226C34.6243 58.5137 34.7917 58.6681 35.0779 58.6857C35.3509 58.699 35.6019 58.4916 35.5799 58.249C35.5535 57.9667 35.3949 57.7859 35.0999 57.7815C34.8093 57.777 34.6419 57.9403 34.5891 58.227" fill="#A2FF48"/>
<path d="M34.5891 46.6477C34.6243 46.9389 34.7917 47.0933 35.0779 47.1109C35.3509 47.1241 35.6019 46.9168 35.5799 46.6742C35.5535 46.3919 35.3949 46.211 35.0999 46.2066C34.8093 46.2022 34.6419 46.3654 34.5891 46.6522" fill="#A2FF48"/>
<path d="M34.5891 35.0728C34.6243 35.3639 34.7917 35.5183 35.0779 35.536C35.3509 35.5492 35.6019 35.3419 35.5799 35.0993C35.5535 34.8169 35.3949 34.6361 35.0999 34.6317C34.8093 34.6273 34.6419 34.7905 34.5891 35.0772" fill="#A2FF48"/>
<path d="M34.5891 23.4982C34.6243 23.7893 34.7917 23.9437 35.0779 23.9614C35.3509 23.9746 35.6019 23.7673 35.5799 23.5247C35.5535 23.2424 35.3949 23.0615 35.0999 23.0571C34.8093 23.0527 34.6419 23.2159 34.5891 23.5026" fill="#A2FF48"/>
<path d="M34.5891 11.9278C34.6243 12.2189 34.7917 12.3733 35.0779 12.3909C35.3509 12.4042 35.6019 12.1969 35.5799 11.9542C35.5535 11.6719 35.3949 11.4911 35.0999 11.4867C34.8093 11.4822 34.6419 11.6455 34.5891 11.9322" fill="#A2FF48"/>
<path d="M23.0965 0.441199C23.1317 0.732333 23.299 0.886723 23.5897 0.904367C23.8627 0.9176 24.1137 0.710278 24.0917 0.467666C24.0653 0.185354 23.9067 0.00449828 23.6117 8.71624e-05C23.3167 -0.00432396 23.1537 0.158888 23.1009 0.44561" fill="#A2FF48"/>
<path d="M46.1572 0.441199C46.1924 0.732333 46.3598 0.886723 46.646 0.904367C46.919 0.9176 47.17 0.710278 47.148 0.467666C47.1216 0.185354 46.963 0.00449828 46.668 8.71624e-05C46.3774 -0.00432396 46.21 0.158888 46.1572 0.44561" fill="#A2FF48"/>
<path d="M57.6856 0.441199C57.7209 0.732333 57.8882 0.886723 58.1744 0.904367C58.4474 0.9176 58.6984 0.710278 58.6764 0.467666C58.65 0.185354 58.4915 0.00449828 58.1965 8.71624e-05C57.9058 -0.00432396 57.7385 0.158888 57.6856 0.44561" fill="#A2FF48"/>
<path d="M69.2184 0.441199C69.2537 0.732333 69.421 0.886723 69.7072 0.904367C69.9802 0.9176 70.2312 0.710278 70.2092 0.467666C70.1828 0.185354 70.0243 0.00449828 69.7292 8.71624e-05C69.4386 -0.00432396 69.2713 0.158888 69.2184 0.44561" fill="#A2FF48"/>
<path d="M34.5891 0.441199C34.6243 0.732333 34.7917 0.886723 35.0779 0.904367C35.3509 0.9176 35.6019 0.710278 35.5799 0.467666C35.5535 0.185354 35.3949 0.00449828 35.0999 8.71624e-05C34.8093 -0.00432396 34.6419 0.158888 34.5891 0.44561" fill="#A2FF48"/>
<path d="M80.7289 0.441199C80.7642 0.732333 80.9315 0.886723 81.2177 0.904367C81.4907 0.9176 81.7417 0.710278 81.7197 0.467666C81.6933 0.185354 81.5348 0.00449828 81.2397 8.71624e-05C80.9447 -0.00432396 80.7818 0.158888 80.7289 0.44561" fill="#A2FF48"/>
<path d="M103.79 0.441199C103.825 0.732333 103.993 0.886723 104.283 0.904367C104.556 0.9176 104.807 0.710278 104.785 0.467666C104.759 0.185354 104.6 0.00449828 104.305 8.71624e-05C104.015 -0.00432396 103.847 0.158888 103.795 0.44561" fill="#A2FF48"/>
<path d="M115.319 0.441199C115.354 0.732333 115.521 0.886723 115.812 0.904367C116.085 0.9176 116.336 0.710278 116.314 0.467666C116.287 0.185354 116.129 0.00449828 115.834 8.71624e-05C115.543 -0.00432396 115.376 0.158888 115.323 0.44561" fill="#A2FF48"/>
<path d="M126.847 0.441199C126.882 0.732333 127.05 0.886723 127.34 0.904367C127.613 0.9176 127.864 0.710278 127.842 0.467666C127.816 0.185354 127.657 0.00449828 127.362 8.71624e-05C127.072 -0.00432396 126.904 0.158888 126.851 0.44561" fill="#A2FF48"/>
<path d="M92.2221 0.441199C92.2573 0.732333 92.4246 0.886723 92.7109 0.904367C92.9839 0.9176 93.2349 0.710278 93.2129 0.467666C93.1864 0.185354 93.0279 0.00449828 92.7329 8.71624e-05C92.4379 -0.00432396 92.2749 0.158888 92.2221 0.44561" fill="#A2FF48"/>
<path d="M138.362 0.441199C138.397 0.732333 138.564 0.886723 138.851 0.904367C139.124 0.9176 139.375 0.710278 139.353 0.467666C139.326 0.185354 139.168 0.00449828 138.873 8.71624e-05C138.578 -0.00432396 138.415 0.158888 138.362 0.44561" fill="#A2FF48"/>
<path d="M161.419 0.441199C161.454 0.732333 161.621 0.886723 161.908 0.904367C162.181 0.9176 162.432 0.710278 162.41 0.467666C162.383 0.185354 162.225 0.00449828 161.93 8.71624e-05C161.635 -0.00432396 161.472 0.158888 161.419 0.44561" fill="#A2FF48"/>
<path d="M149.855 0.441199C149.89 0.732333 150.058 0.886723 150.344 0.904367C150.617 0.9176 150.868 0.710278 150.846 0.467666C150.819 0.185354 150.661 0.00449828 150.366 8.71624e-05C150.071 -0.00432396 149.908 0.158888 149.855 0.44561" fill="#A2FF48"/>
<path d="M11.5458 185.536C11.581 185.827 11.7484 185.982 12.0346 185.999C12.3076 186.013 12.5586 185.805 12.5366 185.563C12.5102 185.28 12.3516 185.099 12.0566 185.095C11.7616 185.091 11.5986 185.254 11.5458 185.541" fill="#A2FF48"/>
<path d="M11.5458 173.961C11.581 174.253 11.7484 174.407 12.0346 174.425C12.3076 174.438 12.5586 174.231 12.5366 173.988C12.5102 173.706 12.3516 173.525 12.0566 173.52C11.7616 173.516 11.5986 173.679 11.5458 173.961Z" fill="#A2FF48"/>
<path d="M11.5458 162.391C11.581 162.682 11.7484 162.836 12.0346 162.854C12.3076 162.867 12.5586 162.66 12.5366 162.417C12.5102 162.135 12.3516 161.954 12.0566 161.95C11.7616 161.945 11.5986 162.109 11.5458 162.395" fill="#A2FF48"/>
<path d="M11.5458 150.816C11.581 151.107 11.7484 151.262 12.0346 151.279C12.3076 151.293 12.5586 151.085 12.5366 150.843C12.5102 150.56 12.3516 150.379 12.0566 150.375C11.7616 150.371 11.5986 150.534 11.5458 150.821" fill="#A2FF48"/>
<path d="M11.5458 139.242C11.581 139.533 11.7484 139.687 12.0346 139.705C12.3076 139.718 12.5586 139.511 12.5366 139.268C12.5102 138.986 12.3516 138.805 12.0566 138.801C11.7616 138.796 11.5986 138.959 11.5458 139.242Z" fill="#A2FF48"/>
<path d="M11.5458 127.667C11.581 127.958 11.7484 128.112 12.0346 128.13C12.3076 128.143 12.5586 127.936 12.5366 127.693C12.5102 127.411 12.3516 127.23 12.0566 127.226C11.7616 127.221 11.5986 127.384 11.5458 127.671" fill="#A2FF48"/>
<path d="M11.5458 116.092C11.581 116.383 11.7484 116.538 12.0346 116.555C12.3076 116.568 12.5586 116.361 12.5366 116.119C12.5102 115.836 12.3516 115.655 12.0566 115.651C11.7616 115.647 11.5986 115.81 11.5458 116.096" fill="#A2FF48"/>
<path d="M11.5458 104.517C11.581 104.808 11.7484 104.963 12.0346 104.98C12.3076 104.994 12.5586 104.786 12.5366 104.544C12.5102 104.261 12.3516 104.08 12.0566 104.076C11.7616 104.072 11.5986 104.235 11.5458 104.517Z" fill="#A2FF48"/>
<path d="M11.5458 92.9424C11.581 93.2336 11.7484 93.3879 12.0346 93.4056C12.3076 93.4188 12.5586 93.2115 12.5366 92.9689C12.5102 92.6866 12.3516 92.5057 12.0566 92.5013C11.7616 92.4969 11.5986 92.6601 11.5458 92.9468" fill="#A2FF48"/>
<path d="M11.5458 81.3719C11.581 81.663 11.7484 81.8174 12.0346 81.835C12.3076 81.8483 12.5586 81.6409 12.5366 81.3983C12.5102 81.116 12.3516 80.9352 12.0566 80.9308C11.7616 80.9263 11.5986 81.0896 11.5458 81.3763" fill="#A2FF48"/>
<path d="M11.5458 69.7972C11.581 70.0883 11.7484 70.2427 12.0346 70.2603C12.3076 70.2736 12.5586 70.0662 12.5366 69.8236C12.5102 69.5413 12.3516 69.3605 12.0566 69.356C11.7616 69.3516 11.5986 69.5148 11.5458 69.8016" fill="#A2FF48"/>
<path d="M11.5458 58.2226C11.581 58.5137 11.7484 58.6681 12.0346 58.6857C12.3076 58.699 12.5586 58.4916 12.5366 58.249C12.5102 57.9667 12.3516 57.7859 12.0566 57.7815C11.7616 57.777 11.5986 57.9403 11.5458 58.227" fill="#A2FF48"/>
<path d="M11.5458 46.6477C11.581 46.9389 11.7484 47.0933 12.0346 47.1109C12.3076 47.1241 12.5586 46.9168 12.5366 46.6742C12.5102 46.3919 12.3516 46.211 12.0566 46.2066C11.7616 46.2022 11.5986 46.3654 11.5458 46.6522" fill="#A2FF48"/>
<path d="M11.5458 35.0728C11.581 35.3639 11.7484 35.5183 12.0346 35.536C12.3076 35.5492 12.5586 35.3419 12.5366 35.0993C12.5102 34.8169 12.3516 34.6361 12.0566 34.6317C11.7616 34.6273 11.5986 34.7905 11.5458 35.0772" fill="#A2FF48"/>
<path d="M11.5458 23.4982C11.581 23.7893 11.7484 23.9437 12.0346 23.9614C12.3076 23.9746 12.5586 23.7673 12.5366 23.5247C12.5102 23.2424 12.3516 23.0615 12.0566 23.0571C11.7616 23.0527 11.5986 23.2159 11.5458 23.5026" fill="#A2FF48"/>
<path d="M11.5458 11.9278C11.581 12.2189 11.7484 12.3733 12.0346 12.3909C12.3076 12.4042 12.5586 12.1969 12.5366 11.9542C12.5102 11.6719 12.3516 11.4911 12.0566 11.4867C11.7616 11.4822 11.5986 11.6455 11.5458 11.9322" fill="#A2FF48"/>
<path d="M11.5458 0.441199C11.581 0.732333 11.7484 0.886723 12.0346 0.904367C12.3076 0.9176 12.5586 0.710278 12.5366 0.467666C12.5102 0.185354 12.3516 0.00449828 12.0566 8.71624e-05C11.7616 -0.00432396 11.5986 0.158888 11.5458 0.44561" fill="#A2FF48"/>
<path d="M7.09295e-06 185.536C0.035235 185.827 0.202561 185.982 0.488788 185.999C0.761805 186.013 1.01281 185.805 0.990793 185.563C0.964372 185.28 0.805848 185.099 0.510814 185.095C0.220183 185.091 0.052849 185.254 7.09295e-06 185.541" fill="#A2FF48"/>
<path d="M7.09295e-06 173.961C0.035235 174.253 0.202561 174.407 0.488788 174.425C0.761805 174.438 1.01281 174.231 0.990793 173.988C0.964372 173.706 0.805848 173.525 0.510814 173.52C0.220183 173.516 0.052849 173.679 7.09295e-06 173.961Z" fill="#A2FF48"/>
<path d="M7.09295e-06 162.391C0.035235 162.682 0.202561 162.836 0.488788 162.854C0.761805 162.867 1.01281 162.66 0.990793 162.417C0.964372 162.135 0.805848 161.954 0.510814 161.95C0.220183 161.945 0.052849 162.109 7.09295e-06 162.395" fill="#A2FF48"/>
<path d="M7.09295e-06 150.816C0.035235 151.107 0.202561 151.262 0.488788 151.279C0.761805 151.293 1.01281 151.085 0.990793 150.843C0.964372 150.56 0.805848 150.379 0.510814 150.375C0.220183 150.371 0.052849 150.534 7.09295e-06 150.821" fill="#A2FF48"/>
<path d="M7.09295e-06 139.242C0.035235 139.533 0.202561 139.687 0.488788 139.705C0.761805 139.718 1.01281 139.511 0.990793 139.268C0.964372 138.986 0.805848 138.805 0.510814 138.801C0.220183 138.796 0.052849 138.959 7.09295e-06 139.242Z" fill="#A2FF48"/>
<path d="M7.09295e-06 127.667C0.035235 127.958 0.202561 128.112 0.488788 128.13C0.761805 128.143 1.01281 127.936 0.990793 127.693C0.964372 127.411 0.805848 127.23 0.510814 127.226C0.220183 127.221 0.052849 127.384 7.09295e-06 127.671" fill="#A2FF48"/>
<path d="M7.09295e-06 116.092C0.035235 116.383 0.202561 116.538 0.488788 116.555C0.761805 116.568 1.01281 116.361 0.990793 116.119C0.964372 115.836 0.805848 115.655 0.510814 115.651C0.220183 115.647 0.052849 115.81 7.09295e-06 116.096" fill="#A2FF48"/>
<path d="M7.09295e-06 104.517C0.035235 104.808 0.202561 104.963 0.488788 104.98C0.761805 104.994 1.01281 104.786 0.990793 104.544C0.964372 104.261 0.805848 104.08 0.510814 104.076C0.220183 104.072 0.052849 104.235 7.09295e-06 104.517Z" fill="#A2FF48"/>
<path d="M7.09295e-06 92.9424C0.035235 93.2336 0.202561 93.3879 0.488788 93.4056C0.761805 93.4188 1.01281 93.2115 0.990793 92.9689C0.964372 92.6866 0.805848 92.5057 0.510814 92.5013C0.220183 92.4969 0.052849 92.6601 7.09295e-06 92.9468" fill="#A2FF48"/>
<path d="M7.09295e-06 81.3719C0.035235 81.663 0.202561 81.8174 0.488788 81.835C0.761805 81.8483 1.01281 81.6409 0.990793 81.3983C0.964372 81.116 0.805848 80.9352 0.510814 80.9308C0.220183 80.9263 0.052849 81.0896 7.09295e-06 81.3763" fill="#A2FF48"/>
<path d="M7.09295e-06 69.7972C0.035235 70.0883 0.202561 70.2427 0.488788 70.2603C0.761805 70.2736 1.01281 70.0662 0.990793 69.8236C0.964372 69.5413 0.805848 69.3605 0.510814 69.356C0.220183 69.3516 0.052849 69.5148 7.09295e-06 69.8016" fill="#A2FF48"/>
<path d="M7.09295e-06 58.2226C0.035235 58.5137 0.202561 58.6681 0.488788 58.6857C0.761805 58.699 1.01281 58.4916 0.990793 58.249C0.964372 57.9667 0.805848 57.7859 0.510814 57.7815C0.220183 57.777 0.052849 57.9403 7.09295e-06 58.227" fill="#A2FF48"/>
<path d="M7.09295e-06 46.6477C0.035235 46.9389 0.202561 47.0933 0.488788 47.1109C0.761805 47.1241 1.01281 46.9168 0.990793 46.6742C0.964372 46.3919 0.805848 46.211 0.510814 46.2066C0.220183 46.2022 0.052849 46.3654 7.09295e-06 46.6522" fill="#A2FF48"/>
<path d="M7.09295e-06 35.0728C0.035235 35.3639 0.202561 35.5183 0.488788 35.536C0.761805 35.5492 1.01281 35.3419 0.990793 35.0993C0.964372 34.8169 0.805848 34.6361 0.510814 34.6317C0.220183 34.6273 0.052849 34.7905 7.09295e-06 35.0772" fill="#A2FF48"/>
<path d="M7.09295e-06 23.4982C0.035235 23.7893 0.202561 23.9437 0.488788 23.9614C0.761805 23.9746 1.01281 23.7673 0.990793 23.5247C0.964372 23.2424 0.805848 23.0615 0.510814 23.0571C0.220183 23.0527 0.052849 23.2159 7.09295e-06 23.5026" fill="#A2FF48"/>
<path d="M7.09295e-06 11.9278C0.035235 12.2189 0.202561 12.3733 0.488788 12.3909C0.761805 12.4042 1.01281 12.1969 0.990793 11.9542C0.964372 11.6719 0.805848 11.4911 0.510814 11.4867C0.220183 11.4822 0.052849 11.6455 7.09295e-06 11.9322" fill="#A2FF48"/>
<path d="M7.09295e-06 0.441199C0.035235 0.732333 0.202561 0.886723 0.488788 0.904367C0.761805 0.9176 1.01281 0.710278 0.990793 0.467666C0.964372 0.185354 0.805848 0.00449828 0.510814 8.71624e-05C0.220183 -0.00432396 0.052849 0.158888 7.09295e-06 0.44561" fill="#A2FF48"/>
<path d="M161.454 173.961C161.489 174.253 161.657 174.407 161.947 174.425C162.22 174.438 162.471 174.231 162.449 173.988C162.423 173.706 162.264 173.525 161.969 173.52C161.679 173.516 161.511 173.679 161.458 173.961" fill="#A2FF48"/>
<path d="M161.454 23.4982C161.489 23.7893 161.657 23.9437 161.947 23.9614C162.22 23.9746 162.471 23.7673 162.449 23.5247C162.423 23.2424 162.264 23.0615 161.969 23.0571C161.679 23.0527 161.511 23.2159 161.458 23.5026" fill="#A2FF48"/>
<path d="M161.454 11.9278C161.489 12.2189 161.657 12.3733 161.947 12.3909C162.22 12.4042 162.471 12.1969 162.449 11.9542C162.423 11.6719 162.264 11.4911 161.969 11.4867C161.679 11.4822 161.511 11.6455 161.458 11.9322" fill="#A2FF48"/>
<path d="M103.812 11.9278C103.848 12.2189 104.015 12.3733 104.301 12.3909C104.574 12.4042 104.825 12.1969 104.803 11.9542C104.777 11.6719 104.618 11.4911 104.323 11.4867C104.028 11.4822 103.865 11.6455 103.812 11.9322" fill="#A2FF48"/>
<path d="M92.2754 11.9278C92.3106 12.2189 92.4779 12.3733 92.7641 12.3909C93.0372 12.4042 93.2882 12.1969 93.2661 11.9542C93.2397 11.6719 93.0812 11.4911 92.7862 11.4867C92.4911 11.4822 92.3282 11.6455 92.2754 11.9322" fill="#A2FF48"/>
<path d="M149.926 11.9278C149.961 12.2189 150.128 12.3733 150.419 12.3909C150.692 12.4042 150.943 12.1969 150.921 11.9542C150.894 11.6719 150.736 11.4911 150.441 11.4867C150.15 11.4822 149.983 11.6455 149.93 11.9322" fill="#A2FF48"/>
</g>
</svg>
