<svg width="173" height="32" viewBox="0 0 173 32" fill="none" xmlns="http://www.w3.org/2000/svg">
<g clip-path="url(#clip0_8_52)">
<path d="M8.18671 29.6692C6.0954 31.765 2.96089 32.0196 1.1823 30.2372C-0.596296 28.4548 -0.349551 25.3136 1.75153 23.2178C3.85262 21.122 6.97739 20.8674 8.75598 22.6498C10.5346 24.4322 10.278 27.5734 8.18671 29.6692Z" fill="white"/>
<path d="M18.8976 29.6692C16.8063 31.765 13.6693 32.0196 11.8932 30.2372C10.117 28.4548 10.3687 25.3136 12.46 23.2178C14.5513 21.122 17.6883 20.8674 19.4644 22.6498C21.2406 24.4322 20.9865 27.5734 18.8976 29.6692Z" fill="white"/>
<path d="M29.6058 29.6692C27.5144 31.765 24.3775 32.0196 22.6013 30.2372C20.8252 28.4548 21.0768 25.3136 23.1681 23.2178C25.2594 21.122 28.3964 20.8674 30.1726 22.6498C31.9487 24.4322 31.6971 27.5734 29.6058 29.6692Z" fill="white"/>
<path d="M8.18677 8.20434C6.09545 10.3001 2.96095 10.5548 1.18235 8.77481C-0.596241 6.99485 -0.339724 3.84872 1.75159 1.75293C3.8429 -0.342865 6.97744 -0.595047 8.75603 1.18491C10.5346 2.96486 10.2781 6.10855 8.18677 8.20434Z" fill="white"/>
<path d="M18.4138 2.23779C20.19 4.02019 20.4074 6.69135 18.9024 8.20443C17.3975 9.71751 14.7247 9.50206 12.9485 7.71476C11.1724 5.92746 10.955 3.2612 12.4599 1.74812C13.9649 0.235035 16.6352 0.45049 18.4138 2.23779Z" fill="white"/>
<path d="M28.7238 2.64903C30.2361 4.16212 30.4193 6.43419 29.1343 7.71958C27.8492 9.00496 25.5844 8.82379 24.0745 7.3107C22.5647 5.79762 22.379 3.52554 23.6641 2.23771C24.9492 0.949875 27.214 1.13595 28.7238 2.64903Z" fill="white"/>
<path d="M8.18689 18.9479C6.09558 21.0437 2.96107 21.2984 1.18247 19.5184C-0.596119 17.7384 -0.339602 14.5948 1.75171 12.499C3.84303 10.4032 6.97756 10.1486 8.75616 11.9285C10.5347 13.7085 10.2782 16.8546 8.18689 18.9479Z" fill="white"/>
<path d="M18.4138 12.969C20.19 14.7514 20.4074 17.4226 18.9024 18.9356C17.3975 20.4487 14.7247 20.2333 12.9485 18.446C11.1724 16.6587 10.955 13.9924 12.4599 12.4793C13.9649 10.9662 16.6352 11.1817 18.4138 12.969Z" fill="white"/>
<path d="M29.1221 12.969C30.9007 14.7514 31.1157 17.4226 29.6107 18.9356C28.1057 20.4487 25.4329 20.2333 23.6568 18.446C21.8806 16.6587 21.6632 13.9924 23.1682 12.4793C24.6731 10.9662 27.3459 11.1817 29.1221 12.969Z" fill="white"/>
<path d="M42.4468 31.8214V21.4746H44.8362V29.87H50.0156V31.8214H42.4468Z" fill="white"/>
<path d="M56.5754 25.6417H61.5447V27.5171H56.5754V25.6417ZM56.7513 29.8994H62.3705V31.8214H54.3766V21.4746H62.1799V23.3966H56.7513V29.8994Z" fill="white"/>
<path d="M68.2169 29.6056L68.8521 27.7865H74.1659L74.8158 29.6056H68.2169ZM65.9179 31.8214L70.5207 21.4746H72.8784L77.4959 31.8214H74.9892L71.2122 22.6865H72.1577L68.3659 31.8214H65.9179Z" fill="white"/>
<path d="M88.1479 31.8213L85.5655 28.068H88.1185L90.7303 31.8213H88.1479ZM83.9726 28.1487L82.9098 27.025H85.9197C86.6576 27.025 87.2081 26.8617 87.5713 26.5353C87.9216 26.1829 88.1183 25.7057 88.1183 25.2083C88.1183 24.7108 87.9216 24.2337 87.5713 23.8813C87.2081 23.5646 86.6576 23.4071 85.9197 23.4087H82.9098L83.9726 22.2703V28.1487ZM81.5832 31.8213V21.4745H86.0517C86.8718 21.4536 87.6869 21.6072 88.4435 21.925C89.0746 22.1953 89.613 22.6447 89.9924 23.2178C90.366 23.8201 90.5554 24.5189 90.5372 25.2279C90.5551 25.9299 90.3656 26.6215 89.9924 27.2159C89.6129 27.786 89.0741 28.2314 88.4435 28.4964C87.6857 28.8094 86.871 28.9603 86.0517 28.9396H82.9098L83.9726 27.8892V31.8213H81.5832Z" fill="white"/>
<path d="M95.4357 31.8214V21.4746H97.4122L103.503 28.925H102.545V21.4746H104.905V31.8214H102.943L96.8356 24.371H97.7958V31.8214H95.4357Z" fill="white"/>
<path d="M113.757 32.0001C112.953 32.0037 112.154 31.8915 111.382 31.6671C110.724 31.4933 110.104 31.2004 109.552 30.8029L110.363 28.9984C110.845 29.3341 111.375 29.5957 111.934 29.7746C112.526 29.9752 113.147 30.0777 113.771 30.0781C114.157 30.0893 114.543 30.0422 114.915 29.9386C115.161 29.8707 115.382 29.7349 115.555 29.5469C115.691 29.3855 115.765 29.1804 115.762 28.969C115.767 28.8409 115.739 28.7138 115.682 28.5989C115.626 28.484 115.542 28.3849 115.438 28.3104C115.178 28.1283 114.889 27.9932 114.582 27.9114C114.229 27.8085 113.838 27.7106 113.41 27.6176C112.981 27.5245 112.554 27.4086 112.127 27.2699C111.716 27.1399 111.322 26.9607 110.954 26.7361C110.603 26.5228 110.306 26.2292 110.09 25.8792C109.854 25.4664 109.739 24.9956 109.757 24.5204C109.755 23.9434 109.925 23.3789 110.246 22.8996C110.605 22.3792 111.106 21.9737 111.69 21.7317C112.46 21.4183 113.287 21.2698 114.118 21.2959C114.764 21.2965 115.408 21.3738 116.036 21.526C116.626 21.6619 117.188 21.8944 117.702 22.214L116.969 24.0307C116.515 23.7672 116.029 23.5616 115.523 23.4186C115.063 23.2873 114.587 23.2198 114.108 23.2179C113.723 23.2054 113.339 23.2609 112.972 23.3819C112.724 23.4568 112.503 23.6032 112.337 23.803C112.21 23.9758 112.143 24.1857 112.147 24.4004C112.144 24.526 112.171 24.6504 112.228 24.7627C112.284 24.875 112.367 24.9717 112.469 25.0443C112.729 25.2264 113.019 25.3591 113.327 25.4361C113.681 25.534 114.06 25.6344 114.499 25.7323C114.939 25.8303 115.354 25.9429 115.782 26.0726C116.194 26.1925 116.588 26.3662 116.955 26.5892C117.306 26.8026 117.601 27.0963 117.817 27.4462C118.053 27.8544 118.168 28.3214 118.149 28.7928C118.153 29.3623 117.982 29.9193 117.661 30.3891C117.29 30.9075 116.782 31.3119 116.195 31.557C115.421 31.8764 114.588 32.0275 113.752 32.0001" fill="white"/>
<path d="M124.775 31.8214V23.4259H121.472V21.4746H130.47V23.4259H127.165V31.8214H124.775Z" fill="white"/>
<path d="M139.615 29.9655C140.034 29.9674 140.45 29.8841 140.836 29.7207C141.206 29.5642 141.538 29.3324 141.814 29.04C142.099 28.7379 142.32 28.3816 142.466 27.9921C142.776 27.1213 142.776 26.1698 142.466 25.2989C142.321 24.91 142.102 24.5532 141.821 24.2486C141.547 23.9545 141.214 23.7225 140.844 23.5679C140.457 23.4053 140.041 23.3221 139.622 23.3231C139.203 23.3208 138.787 23.4041 138.401 23.5679C138.032 23.7255 137.699 23.9571 137.423 24.2486C137.138 24.5516 136.916 24.9087 136.771 25.2989C136.459 26.1694 136.459 27.1217 136.771 27.9921C136.914 28.3841 137.133 28.7436 137.416 29.0498C137.689 29.3446 138.022 29.5768 138.393 29.7305C138.78 29.8934 139.195 29.9767 139.615 29.9753M139.629 32.0148C138.892 32.0214 138.161 31.8859 137.475 31.6157C136.835 31.3631 136.254 30.9825 135.767 30.4971C135.28 30.0117 134.896 29.4317 134.641 28.7927C134.106 27.424 134.106 25.9038 134.641 24.535C134.898 23.8973 135.282 23.3185 135.769 22.8334C136.259 22.3487 136.841 21.9667 137.479 21.7096C138.855 21.1775 140.379 21.1775 141.755 21.7096C142.39 21.9669 142.967 22.349 143.453 22.8334C143.935 23.3193 144.319 23.8948 144.582 24.5277C144.861 25.2042 145 25.9306 144.99 26.6627C144.997 27.3953 144.859 28.122 144.582 28.8001C144.324 29.436 143.941 30.0132 143.455 30.497C142.969 30.9809 142.391 31.3614 141.755 31.6157C141.078 31.8857 140.355 32.0212 139.627 32.0148" fill="white"/>
<path d="M150.074 31.8214V21.4746H152.053L158.143 28.925H157.186V21.4746H159.546V31.8214H157.584L151.476 24.371H152.434V31.8214H150.074Z" fill="white"/>
<path d="M167.202 25.6417H172.172V27.5171H167.202V25.6417ZM167.378 29.8994H172.998V31.8214H165.001V21.4746H172.805V23.3966H167.376L167.378 29.8994Z" fill="white"/>
</g>
<defs>
<clipPath id="clip0_8_52">
<rect width="173" height="32" fill="white"/>
</clipPath>
</defs>
</svg>
