<svg width="20" height="15" viewBox="0 0 20 15" fill="none" xmlns="http://www.w3.org/2000/svg">
<path d="M18.7834 3.34992C18.6844 2.95443 18.4828 2.59206 18.1989 2.29942C17.915 2.00679 17.559 1.79424 17.1667 1.68325C15.7334 1.33325 10 1.33325 10 1.33325C10 1.33325 4.2667 1.33325 2.83336 1.71659C2.44107 1.82757 2.08501 2.04012 1.80115 2.33276C1.51729 2.6254 1.31569 2.98776 1.2167 3.38325C0.954374 4.83788 0.826059 6.31351 0.833362 7.79159C0.824012 9.28079 0.952335 10.7677 1.2167 12.2333C1.32583 12.6165 1.53195 12.965 1.81515 13.2453C2.09835 13.5256 2.44905 13.7281 2.83336 13.8333C4.2667 14.2166 10 14.2166 10 14.2166C10 14.2166 15.7334 14.2166 17.1667 13.8333C17.559 13.7223 17.915 13.5097 18.1989 13.2171C18.4828 12.9244 18.6844 12.5621 18.7834 12.1666C19.0437 10.7229 19.172 9.25853 19.1667 7.79159C19.176 6.30238 19.0477 4.8155 18.7834 3.34992Z" stroke="#FF5F45" stroke-width="1.5" stroke-linecap="round" stroke-linejoin="round"/>
<path d="M8.12503 10.5166L12.9167 7.79159L8.12503 5.06658V10.5166Z" stroke="#FF5F45" stroke-width="1.5" stroke-linecap="round" stroke-linejoin="round"/>
</svg>
