<svg width="211" height="221" viewBox="0 0 211 221" fill="none" xmlns="http://www.w3.org/2000/svg">
<g opacity="0.5">
<path opacity="0.2" d="M6.18564 215.395C-0.44308 208.766 -1.24545 198.827 4.38686 193.189C10.0244 187.556 19.9623 188.359 26.591 194.988C33.2197 201.617 34.0273 211.561 28.3898 217.194C22.7575 222.826 12.8144 222.024 6.18564 215.395Z" fill="#DBCCB1"/>
<path d="M208.464 209.519C205.496 212.487 201.046 212.847 198.522 210.323C195.997 207.799 196.357 203.349 199.326 200.381C202.294 197.413 206.745 197.053 209.269 199.577C211.793 202.101 211.428 206.55 208.464 209.519Z" fill="#DBCCB1"/>
<path opacity="0.7" d="M178.262 199.104C174.799 195.64 169.608 195.22 166.664 198.165C163.72 201.109 164.14 206.299 167.604 209.763C171.067 213.226 176.258 213.646 179.202 210.702C182.146 207.758 181.726 202.562 178.262 199.104Z" fill="#DBCCB1"/>
<path opacity="0.5" d="M145.067 212.086C141.011 216.142 134.928 216.638 131.479 213.189C128.03 209.74 128.527 203.657 132.582 199.602C136.637 195.546 142.72 195.05 146.169 198.499C149.618 201.948 149.122 208.031 145.067 212.086Z" fill="#DBCCB1"/>
<path opacity="0.4" d="M108.876 198.572C104.128 193.725 97.0032 193.135 92.9675 197.255C88.9318 201.375 89.509 208.648 94.2572 213.495C99.0054 218.343 106.13 218.932 110.166 214.812C114.202 210.692 113.624 203.419 108.876 198.572Z" fill="#DBCCB1"/>
<path opacity="0.3" d="M70.0758 213.211C64.4385 218.849 55.9773 219.536 51.1851 214.744C46.3928 209.951 47.0804 201.49 52.7177 195.852C58.355 190.214 66.8162 189.527 71.6084 194.319C76.4007 199.112 75.7183 207.568 70.0758 213.211Z" fill="#DBCCB1"/>
<path opacity="0.2" d="M6.18467 168.036C-0.444057 161.406 -1.24643 151.468 4.38589 145.83C10.0234 140.197 19.9613 141 26.59 147.629C33.2187 154.258 34.0263 164.202 28.3888 169.835C22.7565 175.467 12.8134 174.665 6.18467 168.036Z" fill="#DBCCB1"/>
<path d="M208.464 162.158C205.496 165.126 201.046 165.486 198.522 162.962C195.997 160.438 196.357 155.989 199.326 153.021C202.294 150.052 206.745 149.693 209.269 152.216C211.793 154.74 211.428 159.19 208.464 162.158Z" fill="#DBCCB1"/>
<path opacity="0.7" d="M178.262 151.745C174.799 148.281 169.608 147.861 166.664 150.805C163.72 153.75 164.14 158.94 167.604 162.404C171.067 165.867 176.258 166.287 179.202 163.343C182.146 160.399 181.726 155.203 178.262 151.745Z" fill="#DBCCB1"/>
<path opacity="0.5" d="M145.066 164.727C141.01 168.783 134.927 169.279 131.478 165.83C128.029 162.381 128.526 156.298 132.581 152.243C136.636 148.187 142.719 147.691 146.168 151.14C149.617 154.589 149.121 160.672 145.066 164.727Z" fill="#DBCCB1"/>
<path opacity="0.4" d="M108.876 151.213C104.128 146.366 97.0032 145.776 92.9675 149.896C88.9318 154.016 89.509 161.289 94.2572 166.136C99.0054 170.983 106.13 171.573 110.166 167.453C114.202 163.333 113.624 156.06 108.876 151.213Z" fill="#DBCCB1"/>
<path opacity="0.3" d="M70.0758 165.852C64.4385 171.49 55.9773 172.178 51.1851 167.385C46.3928 162.592 47.0804 154.131 52.7177 148.493C58.355 142.855 66.8162 142.168 71.6084 146.96C76.4007 151.753 75.7183 160.209 70.0758 165.852Z" fill="#DBCCB1"/>
<path opacity="0.2" d="M6.18467 120.676C-0.444057 114.047 -1.24643 104.108 4.38589 98.4702C10.0234 92.8375 19.9613 93.64 26.59 100.269C33.2187 106.898 34.0263 116.842 28.3888 122.475C22.7565 128.107 12.8134 127.305 6.18467 120.676Z" fill="#DBCCB1"/>
<path d="M208.464 114.799C205.496 117.767 201.046 118.127 198.522 115.603C195.997 113.079 196.357 108.63 199.326 105.661C202.294 102.693 206.745 102.333 209.269 104.857C211.793 107.381 211.428 111.831 208.464 114.799Z" fill="#DBCCB1"/>
<path opacity="0.7" d="M178.262 104.384C174.799 100.92 169.608 100.501 166.664 103.445C163.72 106.389 164.14 111.579 167.604 115.043C171.067 118.507 176.258 118.926 179.202 115.982C182.146 113.038 181.726 107.843 178.262 104.384Z" fill="#DBCCB1"/>
<path opacity="0.5" d="M145.067 117.367C141.011 121.422 134.928 121.918 131.479 118.469C128.03 115.02 128.527 108.937 132.582 104.882C136.637 100.827 142.72 100.33 146.169 103.779C149.618 107.228 149.122 113.311 145.067 117.367Z" fill="#DBCCB1"/>
<path opacity="0.4" d="M108.876 103.853C104.128 99.0056 97.0032 98.4163 92.9675 102.536C88.9318 106.656 89.509 113.929 94.2572 118.776C99.0054 123.623 106.13 124.213 110.166 120.093C114.202 115.973 113.624 108.7 108.876 103.853Z" fill="#DBCCB1"/>
<path opacity="0.3" d="M70.0758 118.492C64.4385 124.129 55.9773 124.817 51.1851 120.024C46.3928 115.232 47.0804 106.77 52.7177 101.132C58.355 95.4947 66.8162 94.807 71.6084 99.5996C76.4007 104.392 75.7183 112.849 70.0758 118.492Z" fill="#DBCCB1"/>
<path opacity="0.2" d="M6.18564 73.3168C-0.44308 66.6876 -1.24545 56.7491 4.38686 51.1111C10.0244 45.4784 19.9623 46.2808 26.591 52.91C33.2197 59.5392 34.0273 69.483 28.3898 75.1157C22.7575 80.7484 12.8144 79.9459 6.18564 73.3168Z" fill="#DBCCB1"/>
<path d="M208.465 67.4391C205.497 70.4073 201.047 70.7671 198.522 68.2433C195.998 65.7195 196.358 61.2698 199.327 58.3016C202.295 55.3334 206.746 54.9736 209.27 57.4974C211.794 60.0212 211.429 64.4708 208.465 67.4391Z" fill="#DBCCB1"/>
<path opacity="0.7" d="M178.262 57.025C174.799 53.5613 169.608 53.1414 166.664 56.0856C163.72 59.0297 164.14 64.2201 167.604 67.6838C171.067 71.1475 176.258 71.5673 179.202 68.6232C182.146 65.679 181.726 60.4834 178.262 57.025Z" fill="#DBCCB1"/>
<path opacity="0.5" d="M145.067 70.0074C141.011 74.0627 134.928 74.5591 131.479 71.1101C128.03 67.661 128.527 61.578 132.582 57.5227C136.637 53.4674 142.72 52.971 146.169 56.4201C149.618 59.8692 149.122 65.9521 145.067 70.0074Z" fill="#DBCCB1"/>
<path opacity="0.4" d="M108.876 56.492C104.128 51.6449 97.0032 51.0556 92.9675 55.1754C88.9318 59.2952 89.509 66.5685 94.2572 71.4156C99.0054 76.2628 106.13 76.852 110.166 72.7323C114.202 68.6125 113.624 61.3392 108.876 56.492Z" fill="#DBCCB1"/>
<path opacity="0.3" d="M70.0758 71.1324C64.4385 76.77 55.9773 77.4577 51.1851 72.6652C46.3928 67.8726 47.0804 59.4109 52.7177 53.7732C58.355 48.1356 66.8162 47.4479 71.6084 52.2404C76.4007 57.033 75.7183 65.4895 70.0758 71.1324Z" fill="#DBCCB1"/>
<path opacity="0.2" d="M6.18564 25.956C-0.44308 19.3269 -1.24545 9.38835 4.38686 3.7504C10.0244 -1.8823 19.9623 -1.07988 26.591 5.54929C33.2197 12.1785 34.0273 22.1222 28.3898 27.7549C22.7575 33.3876 12.8144 32.5852 6.18564 25.956Z" fill="#DBCCB1"/>
<path d="M208.465 20.0783C205.497 23.0466 201.047 23.4063 198.522 20.8826C195.998 18.3588 196.358 13.9091 199.327 10.9409C202.295 7.97266 206.746 7.61287 209.27 10.1367C211.794 12.6604 211.429 17.1101 208.465 20.0783Z" fill="#DBCCB1"/>
<path opacity="0.7" d="M178.262 9.66525C174.799 6.20155 169.608 5.7817 166.664 8.72585C163.72 11.67 164.14 16.8603 167.604 20.324C171.067 23.7877 176.258 24.2076 179.202 21.2634C182.146 18.3193 181.726 13.1237 178.262 9.66525Z" fill="#DBCCB1"/>
<path opacity="0.5" d="M145.066 22.6476C141.01 26.7029 134.927 27.1994 131.478 23.7503C128.029 20.3012 128.526 14.2183 132.581 10.163C136.636 6.10769 142.719 5.61123 146.168 9.06032C149.617 12.5094 149.121 18.5924 145.066 22.6476Z" fill="#DBCCB1"/>
<path opacity="0.4" d="M108.876 9.13315C104.128 4.28604 97.0032 3.69674 92.9675 7.81652C88.9318 11.9363 89.509 19.2096 94.2572 24.0567C99.0054 28.9039 106.13 29.4932 110.166 25.3734C114.202 21.2536 113.624 13.9803 108.876 9.13315Z" fill="#DBCCB1"/>
<path opacity="0.3" d="M70.0758 23.7726C64.4385 29.4103 55.9773 30.0979 51.1851 25.3054C46.3928 20.5129 47.0804 12.0511 52.7177 6.41347C58.355 0.775811 66.8162 0.0881618 71.6084 4.8807C76.4007 9.67323 75.7183 18.1297 70.0758 23.7726Z" fill="#DBCCB1"/>
</g>
</svg>
