<svg width="18" height="19" viewBox="0 0 18 19" fill="none" xmlns="http://www.w3.org/2000/svg">
<g clip-path="url(#clip0_486_162)">
<path d="M16.6705 0H1.33184C0.59707 0 0.00292969 0.612305 0.00292969 1.36934V17.627C0.00292969 18.384 0.59707 19 1.33184 19H16.6705C17.4053 19 18.0029 18.384 18.0029 17.6307V1.36934C18.0029 0.612305 17.4053 0 16.6705 0ZM5.34316 16.1908H2.67129V7.12129H5.34316V16.1908ZM4.00723 5.88555C3.14941 5.88555 2.45684 5.15449 2.45684 4.25273C2.45684 3.35098 3.14941 2.61992 4.00723 2.61992C4.86152 2.61992 5.5541 3.35098 5.5541 4.25273C5.5541 5.15078 4.86152 5.88555 4.00723 5.88555ZM15.3416 16.1908H12.6732V11.7822C12.6732 10.732 12.6557 9.37754 11.2846 9.37754C9.8959 9.37754 9.68496 10.5242 9.68496 11.708V16.1908H7.02012V7.12129H9.57949V8.36074H9.61465C9.96973 7.64824 10.8416 6.89492 12.1389 6.89492C14.8424 6.89492 15.3416 8.77266 15.3416 11.2145V16.1908Z" fill="#A2FF48"/>
</g>
<defs>
<clipPath id="clip0_486_162">
<rect width="18" height="19" fill="white" transform="translate(0.00292969)"/>
</clipPath>
</defs>
</svg>
