<svg width="19" height="19" viewBox="0 0 19 19" fill="none" xmlns="http://www.w3.org/2000/svg">
<g clip-path="url(#clip0_486_161)">
<path d="M9.50293 1.71074C12.0412 1.71074 12.3418 1.72187 13.34 1.76641C14.2678 1.80723 14.7688 1.96309 15.1027 2.09297C15.5443 2.26367 15.8635 2.47148 16.1938 2.80176C16.5277 3.13574 16.7318 3.45117 16.9025 3.89277C17.0324 4.22676 17.1883 4.73145 17.2291 5.65547C17.2736 6.65742 17.2848 6.95801 17.2848 9.49258C17.2848 12.0309 17.2736 12.3314 17.2291 13.3297C17.1883 14.2574 17.0324 14.7584 16.9025 15.0924C16.7318 15.534 16.524 15.8531 16.1938 16.1834C15.8598 16.5174 15.5443 16.7215 15.1027 16.8922C14.7688 17.0221 14.2641 17.1779 13.34 17.2188C12.3381 17.2633 12.0375 17.2744 9.50293 17.2744C6.96465 17.2744 6.66406 17.2633 5.66582 17.2188C4.73809 17.1779 4.23711 17.0221 3.90313 16.8922C3.46152 16.7215 3.14238 16.5137 2.81211 16.1834C2.47813 15.8494 2.27402 15.534 2.10332 15.0924C1.97344 14.7584 1.81758 14.2537 1.77676 13.3297C1.73223 12.3277 1.72109 12.0271 1.72109 9.49258C1.72109 6.9543 1.73223 6.65371 1.77676 5.65547C1.81758 4.72773 1.97344 4.22676 2.10332 3.89277C2.27402 3.45117 2.48184 3.13203 2.81211 2.80176C3.14609 2.46777 3.46152 2.26367 3.90313 2.09297C4.23711 1.96309 4.7418 1.80723 5.66582 1.76641C6.66406 1.72187 6.96465 1.71074 9.50293 1.71074ZM9.50293 0C6.92383 0 6.60098 0.0111328 5.58789 0.0556641C4.57852 0.100195 3.88457 0.263477 3.2834 0.497266C2.65625 0.742188 2.12559 1.06504 1.59863 1.5957C1.06797 2.12266 0.745117 2.65332 0.500195 3.27676C0.266406 3.88164 0.103125 4.57187 0.0585938 5.58125C0.0140625 6.59805 0.00292969 6.9209 0.00292969 9.5C0.00292969 12.0791 0.0140625 12.402 0.0585938 13.415C0.103125 14.4244 0.266406 15.1184 0.500195 15.7195C0.745117 16.3467 1.06797 16.8773 1.59863 17.4043C2.12559 17.9312 2.65625 18.2578 3.27969 18.499C3.88457 18.7328 4.5748 18.8961 5.58418 18.9406C6.59727 18.9852 6.92012 18.9963 9.49922 18.9963C12.0783 18.9963 12.4012 18.9852 13.4143 18.9406C14.4236 18.8961 15.1176 18.7328 15.7188 18.499C16.3422 18.2578 16.8729 17.9312 17.3998 17.4043C17.9268 16.8773 18.2533 16.3467 18.4945 15.7232C18.7283 15.1184 18.8916 14.4281 18.9361 13.4188C18.9807 12.4057 18.9918 12.0828 18.9918 9.50371C18.9918 6.92461 18.9807 6.60176 18.9361 5.58867C18.8916 4.5793 18.7283 3.88535 18.4945 3.28418C18.2607 2.65332 17.9379 2.12266 17.4072 1.5957C16.8803 1.06875 16.3496 0.742188 15.7262 0.500977C15.1213 0.267187 14.4311 0.103906 13.4217 0.059375C12.4049 0.0111328 12.082 0 9.50293 0Z" fill="#A2FF48"/>
<path d="M9.50293 4.62012C6.80879 4.62012 4.62305 6.80586 4.62305 9.5C4.62305 12.1941 6.80879 14.3799 9.50293 14.3799C12.1971 14.3799 14.3828 12.1941 14.3828 9.5C14.3828 6.80586 12.1971 4.62012 9.50293 4.62012ZM9.50293 12.6654C7.75508 12.6654 6.3375 11.2479 6.3375 9.5C6.3375 7.75215 7.75508 6.33457 9.50293 6.33457C11.2508 6.33457 12.6684 7.75215 12.6684 9.5C12.6684 11.2479 11.2508 12.6654 9.50293 12.6654Z" fill="#A2FF48"/>
<path d="M15.715 4.4271C15.715 5.05796 15.2029 5.56636 14.5758 5.56636C13.9449 5.56636 13.4365 5.05425 13.4365 4.4271C13.4365 3.79624 13.9486 3.28784 14.5758 3.28784C15.2029 3.28784 15.715 3.79995 15.715 4.4271Z" fill="#A2FF48"/>
</g>
<defs>
<clipPath id="clip0_486_161">
<rect width="19" height="19" fill="white" transform="translate(0.00292969)"/>
</clipPath>
</defs>
</svg>
