<svg width="246" height="45" viewBox="0 0 246 45" fill="none" xmlns="http://www.w3.org/2000/svg">
<g clip-path="url(#clip0_486_484)">
<path d="M11.6411 41.7222C8.66732 44.6694 4.21015 45.0274 1.68106 42.5209C-0.848044 40.0144 -0.497181 35.5971 2.49049 32.6499C5.47816 29.7027 9.92147 29.3446 12.4506 31.8511C14.9797 34.3576 14.6149 38.775 11.6411 41.7222Z" fill="#F3EED2"/>
<path d="M26.8719 41.7222C23.8981 44.6694 19.4374 45.0274 16.9118 42.5209C14.3862 40.0144 14.744 35.5971 17.7178 32.6499C20.6916 29.7027 25.1522 29.3446 27.6779 31.8511C30.2035 34.3576 29.8422 38.775 26.8719 41.7222Z" fill="#F3EED2"/>
<path d="M42.0985 41.7222C39.1247 44.6694 34.664 45.0274 32.1384 42.5209C29.6128 40.0144 29.9706 35.5971 32.9444 32.6499C35.9182 29.7027 40.3788 29.3446 42.9045 31.8511C45.4301 34.3576 45.0722 38.775 42.0985 41.7222Z" fill="#F3EED2"/>
<path d="M11.6414 11.5377C8.66759 14.4849 4.21043 14.8429 1.68133 12.3399C-0.847769 9.83681 -0.483011 5.41256 2.49076 2.46535C5.46454 -0.481856 9.92174 -0.836487 12.4508 1.66657C14.9799 4.16963 14.6151 8.59044 11.6414 11.5377Z" fill="#F3EED2"/>
<path d="M26.1836 3.1468C28.7092 5.6533 29.0184 9.40961 26.8784 11.5374C24.7384 13.6652 20.9378 13.3622 18.4122 10.8488C15.8865 8.3354 15.5773 4.58597 17.7173 2.4582C19.8574 0.330427 23.6545 0.633411 26.1836 3.1468Z" fill="#F3EED2"/>
<path d="M40.8438 3.72541C42.9942 5.85318 43.2548 9.04829 41.4274 10.8559C39.6001 12.6634 36.3796 12.4087 34.2327 10.2809C32.0857 8.15311 31.8217 4.958 33.6491 3.14699C35.4764 1.33597 38.6968 1.59763 40.8438 3.72541Z" fill="#F3EED2"/>
<path d="M11.6414 26.6453C8.66759 29.5925 4.21043 29.9506 1.68133 27.4475C-0.847769 24.9445 -0.483011 20.5237 2.49076 17.5765C5.46454 14.6293 9.92174 14.2712 12.4508 16.7743C14.9799 19.2773 14.6151 23.7016 11.6414 26.6453Z" fill="#F3EED2"/>
<path d="M26.1836 18.2376C28.7092 20.7441 29.0184 24.5004 26.8784 26.6282C24.7384 28.756 20.9378 28.453 18.4122 25.9396C15.8865 23.4262 15.5773 19.6768 17.7173 17.549C19.8574 15.4212 23.6545 15.7242 26.1836 18.2376Z" fill="#F3EED2"/>
<path d="M41.4101 18.2376C43.9392 20.7441 44.2449 24.5004 42.1049 26.6282C39.9649 28.756 36.1643 28.453 33.6387 25.9396C31.1131 23.4262 30.8039 19.6768 32.9439 17.549C35.0839 15.4212 38.8845 15.7242 41.4101 18.2376Z" fill="#F3EED2"/>
<path d="M60.3584 44.7486V30.1985H63.756V42.0045H71.121V44.7486H60.3584Z" fill="#F3EED2"/>
<path d="M80.4479 36.0585H87.5141V38.6958H80.4479V36.0585ZM80.698 42.0458H88.6883V44.7486H77.3213V30.1985H88.4173V32.9012H80.698V42.0458Z" fill="#F3EED2"/>
<path d="M97.0025 41.6327L97.9057 39.0745H105.462L106.386 41.6327H97.0025ZM93.7334 44.7486L100.278 30.1985H103.631L110.197 44.7486H106.632L101.262 31.9028H102.606L97.2144 44.7486H93.7334Z" fill="#F3EED2"/>
<path d="M125.344 44.7486L121.671 39.4704H125.302L129.016 44.7486H125.344ZM119.406 39.5841L117.895 38.0037H122.175C123.224 38.0037 124.007 37.7742 124.524 37.3151C125.022 36.8195 125.301 36.1485 125.301 35.449C125.301 34.7495 125.022 34.0785 124.524 33.5829C124.007 33.1376 123.224 32.9161 122.175 32.9184H117.895L119.406 31.3174V39.5841ZM116.009 44.7486V30.1984H122.363C123.529 30.1691 124.688 30.385 125.764 30.832C126.661 31.212 127.427 31.8439 127.966 32.6499C128.498 33.4969 128.767 34.4796 128.741 35.4766C128.767 36.4638 128.497 37.4364 127.966 38.2723C127.427 39.074 126.661 39.7003 125.764 40.073C124.686 40.513 123.528 40.7253 122.363 40.6961H117.895L119.406 39.2191V44.7486H116.009Z" fill="#F3EED2"/>
<path d="M135.706 44.7486V30.1985H138.517L147.177 40.6755H145.816V30.1985H149.171V44.7486H146.382L137.697 34.2716H139.062V44.7486H135.706Z" fill="#F3EED2"/>
<path d="M161.758 45C160.616 45.005 159.478 44.8473 158.381 44.5318C157.446 44.2874 156.565 43.8755 155.779 43.3164L156.933 40.7789C157.618 41.251 158.371 41.6189 159.166 41.8703C160.008 42.1525 160.891 42.2967 161.779 42.2973C162.328 42.3129 162.876 42.2468 163.405 42.101C163.754 42.0055 164.07 41.8146 164.315 41.5501C164.509 41.3233 164.614 41.0348 164.61 40.7376C164.616 40.5575 164.577 40.3787 164.496 40.2171C164.416 40.0555 164.296 39.9162 164.148 39.8114C163.779 39.5553 163.368 39.3653 162.932 39.2502C162.43 39.1056 161.874 38.9679 161.265 38.8371C160.656 38.7062 160.048 38.5433 159.441 38.3482C158.857 38.1653 158.297 37.9133 157.773 37.5976C157.273 37.2976 156.852 36.8847 156.544 36.3925C156.209 35.812 156.045 35.1499 156.071 34.4817C156.068 33.6703 156.31 32.8765 156.766 32.2024C157.277 31.4706 157.99 30.9003 158.819 30.5601C159.914 30.1193 161.091 29.9105 162.272 29.9472C163.191 29.9481 164.106 30.0567 164.999 30.2709C165.838 30.4619 166.638 30.7888 167.369 31.2384L166.326 33.7931C165.68 33.4225 164.989 33.1333 164.27 32.9323C163.616 32.7477 162.939 32.6527 162.258 32.65C161.71 32.6324 161.164 32.7105 160.643 32.8807C160.29 32.986 159.976 33.1919 159.74 33.4729C159.559 33.7159 159.464 34.0111 159.469 34.313C159.464 34.4896 159.504 34.6645 159.584 34.8225C159.664 34.9804 159.782 35.1164 159.927 35.2185C160.296 35.4745 160.71 35.6612 161.147 35.7693C161.65 35.9071 162.189 36.0482 162.814 36.1859C163.44 36.3237 164.03 36.4821 164.638 36.6645C165.224 36.8331 165.784 37.0774 166.306 37.391C166.805 37.6911 167.225 38.104 167.532 38.596C167.867 39.1702 168.031 39.8269 168.004 40.4897C168.009 41.2907 167.767 42.074 167.31 42.7345C166.783 43.4635 166.061 44.0322 165.225 44.3768C164.125 44.8261 162.941 45.0385 161.751 45" fill="#F3EED2"/>
<path d="M177.426 44.7486V32.9426H172.729V30.1985H185.524V32.9426H180.824V44.7486H177.426Z" fill="#F3EED2"/>
<path d="M198.528 42.1388C199.124 42.1415 199.715 42.0244 200.265 41.7945C200.79 41.5744 201.263 41.2485 201.654 40.8373C202.06 40.4125 202.375 39.9114 202.582 39.3637C203.023 38.1391 203.023 36.8011 202.582 35.5764C202.376 35.0295 202.065 34.5278 201.665 34.0994C201.276 33.6859 200.802 33.3596 200.275 33.1422C199.725 32.9135 199.134 32.7965 198.538 32.7979C197.941 32.7947 197.35 32.9118 196.801 33.1422C196.277 33.3638 195.804 33.6895 195.411 34.0994C195.006 34.5255 194.691 35.0277 194.484 35.5764C194.04 36.8005 194.04 38.1397 194.484 39.3637C194.687 39.9149 194.999 40.4206 195.401 40.8511C195.789 41.2657 196.263 41.5922 196.791 41.8083C197.34 42.0374 197.931 42.1545 198.528 42.1526M198.548 45.0206C197.5 45.0299 196.46 44.8393 195.484 44.4594C194.576 44.1042 193.749 43.5689 193.056 42.8863C192.363 42.2037 191.818 41.3882 191.454 40.4896C190.695 38.5648 190.695 36.427 191.454 34.5022C191.821 33.6055 192.367 32.7915 193.06 32.1093C193.756 31.4277 194.583 30.8904 195.491 30.529C197.448 29.7807 199.615 29.7807 201.571 30.529C202.474 30.8907 203.295 31.4281 203.985 32.1093C204.671 32.7926 205.217 33.6019 205.59 34.4919C205.988 35.4432 206.185 36.4647 206.171 37.4942C206.182 38.5244 205.984 39.5464 205.59 40.4999C205.224 41.3942 204.679 42.2059 203.988 42.8862C203.298 43.5666 202.475 44.1017 201.571 44.4594C200.609 44.839 199.581 45.0297 198.545 45.0206" fill="#F3EED2"/>
<path d="M213.399 44.7486V30.1985H216.213L224.874 40.6755H223.512V30.1985H226.868V44.7486H224.079L215.394 34.2716H216.755V44.7486H213.399Z" fill="#F3EED2"/>
<path d="M237.756 36.0585H244.822V38.6958H237.756V36.0585ZM238.006 42.0458H245.996V44.7486H234.626V30.1985H245.722V32.9012H238.003L238.006 42.0458Z" fill="#F3EED2"/>
</g>
<defs>
<clipPath id="clip0_486_484">
<rect width="246" height="45" fill="white"/>
</clipPath>
</defs>
</svg>
