<svg width="241" height="273" viewBox="0 0 241 273" fill="none" xmlns="http://www.w3.org/2000/svg">
<g opacity="0.5">
<path d="M75.4361 210.055C73.2222 212.503 68.4503 212.587 64.795 208.903C61.4774 205.556 60.958 201.101 63.6393 198.337C66.4441 195.443 71.3069 196.524 74.2934 199.521C77.5786 202.817 77.9877 207.789 75.4361 210.062" fill="#DBCCB1"/>
<path d="M48.0578 182.526C51.3105 179.282 56.0565 178.745 58.608 181.387C60.9453 183.808 61.0557 188.204 57.4459 191.856C53.8945 195.449 49.3758 195.514 46.8827 193.066C44.2597 190.496 44.7986 185.783 48.0578 182.526Z" fill="#DBCCB1"/>
<path d="M57.2645 174.874C53.9793 178.124 49.4735 178.583 46.883 175.922C44.3705 173.346 44.8834 168.723 48.0582 165.583C51.0447 162.624 55.7063 161.627 58.5045 164.456C61.3807 167.363 60.1926 172.148 57.2645 174.874Z" fill="#DBCCB1"/>
<path d="M57.2768 140.838C54.3746 143.894 49.5507 144.625 46.9473 141.977C44.3957 139.381 44.8502 134.875 48.0899 131.631C51.466 128.251 55.9913 127.954 58.5233 130.505C61.2372 133.237 60.2438 138.093 57.2768 140.838Z" fill="#DBCCB1"/>
<path d="M57.2448 157.852C54.0115 161.057 49.5447 161.491 46.9283 158.934C44.8507 156.901 44.2664 152.446 48.1099 148.6C51.5639 145.143 56.0631 144.942 58.5303 147.519C61.387 150.504 60.082 155.185 57.2383 157.852" fill="#DBCCB1"/>
<path d="M46.9733 125.143C44.6295 122.987 44.623 118.371 48.1159 114.817C50.7973 112.085 55.4784 110.712 58.4974 113.794C61.5034 116.863 59.8673 121.608 57.2833 124.088C54.0111 127.222 49.5443 127.733 46.9798 125.143" fill="#DBCCB1"/>
<path d="M58.4712 96.7923C60.8604 98.9612 60.7176 103.759 57.3155 107.093C54.0628 110.278 49.6285 110.771 46.999 108.246C44.5774 105.915 44.6618 101.266 48.1612 97.8347C51.8035 94.2543 56.4066 94.4939 58.4712 96.7988" fill="#DBCCB1"/>
<path d="M58.4842 198.531C61.0098 201.082 60.4774 205.724 57.2961 208.87C54.6407 211.492 49.9856 213.007 46.9536 209.945C44.3047 207.271 44.967 202.869 48.1483 199.58C51.2387 196.388 55.9457 195.967 58.4842 198.531Z" fill="#DBCCB1"/>
<path d="M65.0166 191.772C61.9197 188.793 61.3159 184.112 63.8285 181.549C65.9905 179.341 70.5157 179.14 74.0606 182.662C77.5665 186.145 77.4886 190.651 75.2357 192.885C72.6971 195.397 68.1849 194.918 65.0166 191.765" fill="#DBCCB1"/>
<path d="M57.2253 89.9488C54.7907 92.6162 50.0187 94.0924 47.0517 91.0818C44.3508 88.3431 45.3636 83.8111 48.2398 80.9688C51.3691 77.8805 55.8554 77.3755 58.342 79.8681C60.913 82.4385 60.2443 87.1065 57.2253 89.9488Z" fill="#DBCCB1"/>
<path d="M81.0329 209.693C78.5723 207.401 79.0203 202.914 82.0652 199.832C85.1167 196.744 89.59 196.258 92.0636 198.693C94.1866 200.784 94.4528 205.154 90.895 208.683C87.6293 211.913 83.2014 212.062 81.0329 209.699" fill="#DBCCB1"/>
<path d="M74.8913 175.54C72.554 178.078 68.0093 177.269 65.25 174.479C62.2829 171.474 61.9648 167.15 64.1722 164.909C66.4251 162.63 70.6777 162.805 73.8265 165.894C76.8455 168.859 77.2805 173.145 74.8913 175.54Z" fill="#DBCCB1"/>
<path d="M73.762 217.015C76.4629 219.566 77.3069 224.027 74.7618 226.526C72.6713 228.572 68.6265 228.702 65.3218 225.426C62.2379 222.363 62.0107 218.181 64.322 215.915C66.8086 213.48 71.2364 214.341 73.762 217.015Z" fill="#DBCCB1"/>
<path d="M73.7556 149.021C76.6512 151.915 77.1836 156.143 74.8204 158.454C72.3208 160.895 68.3084 160.351 65.3868 157.451C61.8095 153.896 62.4068 149.746 64.3156 147.927C66.7048 145.661 70.8405 146.101 73.7556 149.021Z" fill="#DBCCB1"/>
<path d="M74.7545 141.465C72.7418 143.621 68.4114 143.518 65.3469 140.365C62.4188 137.348 61.9903 133.385 64.3471 130.977C66.6779 128.594 71.0408 129.274 73.7741 132.058C76.6568 134.998 77.1113 139.128 74.7545 141.465Z" fill="#DBCCB1"/>
<path d="M65.3988 123.596C62.3798 120.715 62.0357 116.416 64.2886 114.183C66.6194 111.871 70.833 112.331 73.7286 115.218C76.6307 118.113 77.1112 122.327 74.8128 124.658C72.495 126.995 68.3399 126.529 65.3988 123.596Z" fill="#DBCCB1"/>
<path d="M65.36 106.633C62.4384 103.694 61.9839 99.5697 64.3277 97.226C66.6065 94.9405 70.8915 95.4455 73.7742 98.3396C76.6439 101.221 77.1048 105.461 74.7805 107.76C72.5536 109.968 68.2881 109.689 65.36 106.633Z" fill="#DBCCB1"/>
<path d="M82.3827 217.073C85.3237 214.127 89.4205 213.661 91.7707 216.018C94.108 218.362 93.6341 222.492 90.693 225.412C87.7974 228.287 83.7071 228.74 81.3828 226.448C79.0066 224.098 79.4416 220.026 82.3827 217.073Z" fill="#DBCCB1"/>
<path d="M98.3938 199.016C100.582 196.634 105.049 197.333 107.691 200.065C110.567 203.037 111.067 207.167 108.723 209.472C106.405 211.758 102.159 211.233 99.2832 208.294C96.3357 205.283 96.1149 201.03 98.3938 199.016Z" fill="#DBCCB1"/>
<path d="M107.743 217.158C110.529 219.981 110.996 224.157 108.737 226.364C106.477 228.572 102.485 228.391 99.4266 225.322C96.3752 222.266 96.1999 218.278 98.4333 216.025C100.706 213.726 104.88 214.251 107.743 217.151" fill="#DBCCB1"/>
<path d="M74.6317 90.6027C72.3594 92.8623 68.2626 92.4026 65.4254 89.5668C62.5882 86.7245 62.1533 82.6716 64.4516 80.3861C66.7694 78.0877 70.7622 78.5344 73.6254 81.422C76.4821 84.3031 76.9236 88.3237 74.6317 90.6027Z" fill="#DBCCB1"/>
<path d="M115.515 209.304C113.184 207.006 113.612 203.024 116.489 200.143C119.332 197.294 123.429 196.841 125.695 199.114C127.915 201.341 127.474 205.439 124.708 208.23C121.858 211.104 117.819 211.577 115.515 209.304Z" fill="#DBCCB1"/>
<path d="M116.527 217.145C118.903 214.659 123.039 213.539 125.636 216.064C128.376 218.725 127.11 222.907 124.63 225.348C121.799 228.132 117.566 228.605 115.417 226.267C113.002 223.639 113.963 219.637 116.521 217.145" fill="#DBCCB1"/>
<path d="M47.7138 73.4974C45.2661 71.3285 46.0388 67.0101 48.6357 64.4592C51.5119 61.6364 55.4268 61.1314 57.7122 63.3715C60.017 65.6311 59.6145 69.7617 56.7838 72.5392C53.9595 75.3103 49.7719 75.8023 47.7138 73.491" fill="#DBCCB1"/>
<path d="M57.6865 216.238C59.9329 218.472 59.4979 222.408 56.6997 225.205C53.9079 227.996 49.98 228.404 47.7141 226.189C45.9741 224.48 45.4353 220.686 48.688 217.287C51.3694 214.484 55.4726 214.037 57.68 216.238" fill="#DBCCB1"/>
<path d="M141.497 217.3C144.049 219.696 144.848 223.742 142.504 226.15C140.374 228.339 136.336 227.821 133.629 225.089C131.129 222.57 130.343 218.666 132.655 216.316C134.96 213.972 139.037 214.697 141.504 217.294" fill="#DBCCB1"/>
<path d="M142.432 209.116C140.238 211.266 136.388 210.832 133.687 208.119C131.226 205.646 130.265 201.722 132.752 199.282C135.226 196.847 139.251 197.935 141.608 200.402C144.25 203.16 144.633 206.954 142.426 209.116" fill="#DBCCB1"/>
<path d="M39.5531 132.388C42.2215 135.062 42.637 138.882 40.4945 141.012C38.3715 143.129 34.4955 142.689 31.8466 140.035C29.1977 137.38 28.7821 133.534 30.9182 131.404C33.0477 129.274 36.8782 129.715 39.5466 132.388" fill="#DBCCB1"/>
<path d="M40.4545 124.185C38.3964 126.4 34.4296 125.83 31.8456 123.221C29.2681 120.618 28.7876 116.759 30.9496 114.603C33.0207 112.544 36.9162 112.907 39.5781 115.594C42.2075 118.248 42.6555 122.204 40.4545 124.185Z" fill="#DBCCB1"/>
<path d="M40.4752 174.977C38.3716 177.282 34.2619 176.492 31.8597 174.025C29.3601 171.461 28.6264 167.667 30.9377 165.395C33.3399 163.032 37.164 163.964 39.5727 166.385C42.345 169.169 42.5787 173.112 40.4752 174.983" fill="#DBCCB1"/>
<path d="M39.572 183.426C42.13 185.977 42.7078 189.79 40.4744 192.056C38.3839 194.174 34.4494 193.656 31.807 191.021C29.4048 188.625 28.6841 184.611 30.937 182.397C32.9367 180.428 36.8322 180.623 39.5655 183.426" fill="#DBCCB1"/>
<path d="M40.5012 157.982C38.3652 160.112 34.5216 159.691 31.8727 157.037C29.2238 154.388 28.7953 150.51 30.9118 148.393C33.0349 146.276 36.8849 146.71 39.5533 149.364C42.2282 152.025 42.6437 155.839 40.5012 157.975" fill="#DBCCB1"/>
<path d="M40.4554 107.203C38.5206 109.437 34.4174 108.886 31.8399 106.258C29.1975 103.565 28.9118 99.6734 30.9569 97.7117C33.1709 95.5946 36.8975 95.996 39.5919 98.6958C42.1629 101.273 42.6563 105.274 40.4554 107.203Z" fill="#DBCCB1"/>
<path d="M81.8059 191.882C80.053 190.308 79.6959 186.489 82.8382 183.355C85.4677 180.733 89.2528 180.435 91.3434 182.584C93.3625 184.663 92.934 188.56 90.324 191.034C87.0843 194.102 83.3706 193.695 81.7995 191.882" fill="#DBCCB1"/>
<path d="M39.4296 81.7456C41.8578 84.0311 42.7083 87.8121 40.397 90.1364C38.1182 92.4283 34.3915 91.5996 31.9828 89.217C29.4248 86.6856 28.9378 82.9434 31.0284 80.8003C32.9307 78.8515 36.7612 78.9551 39.4296 81.7456Z" fill="#DBCCB1"/>
<path d="M31.0931 199.632C32.9499 197.501 36.9233 198.013 39.3645 200.499C41.9614 203.147 42.4029 206.818 40.2929 208.883C38.2283 210.91 34.5925 210.444 31.9825 207.899C29.7102 205.685 28.8077 201.69 31.0996 199.632" fill="#DBCCB1"/>
<path d="M65.8667 72.1443C63.2113 69.6064 62.9906 65.7541 64.9772 63.8571C67.0354 61.8889 70.7166 62.2774 73.2162 64.7635C75.8002 67.3274 76.1897 70.9789 74.1511 73.0766C72.0151 75.2779 68.0482 74.5334 65.8602 72.1443" fill="#DBCCB1"/>
<path d="M39.0325 65.0872C41.4347 67.4633 41.8112 70.7782 39.896 72.6752C38.0261 74.5333 34.715 74.1772 32.3842 71.8723C30.0209 69.5416 29.5989 66.0907 31.5207 64.2649C33.6827 62.2125 36.9679 62.9959 39.0325 65.0872Z" fill="#DBCCB1"/>
<path d="M151.308 217.85C153.645 215.533 156.963 215.164 158.807 217.035C160.592 218.847 160.482 222.02 158.008 224.545C155.613 226.986 152.237 227.245 150.399 225.361C148.555 223.477 148.971 220.181 151.315 217.85" fill="#DBCCB1"/>
<path d="M151.314 200.855C153.658 198.524 156.923 198.181 158.813 200.039C160.624 201.833 160.442 205.102 158.008 207.543C155.482 210.081 152.171 210.211 150.392 208.365C148.548 206.456 148.957 203.121 151.314 200.849" fill="#DBCCB1"/>
<path d="M38.91 218.077C41.0395 220.226 41.3901 223.438 39.6956 225.166C38.001 226.895 34.6185 226.519 32.4954 224.357C30.3724 222.195 30.0218 218.977 31.7293 217.261C33.4758 215.506 36.735 215.876 38.91 218.077Z" fill="#DBCCB1"/>
<path d="M99.6407 183.296C101.4 181.548 104.536 181.872 106.717 184.035C108.574 185.873 109.503 189.169 107.471 191.208C105.822 192.859 102.53 192.51 100.394 190.36C98.1604 188.113 97.9851 184.799 99.6407 183.303" fill="#DBCCB1"/>
<path d="M89.5638 173.384C87.9667 175.1 84.6815 176.181 82.6364 174.051C80.825 172.161 81.2795 169.221 83.4674 167.085C85.9735 164.638 88.9211 164.761 90.5052 166.424C92.3686 168.386 91.4856 171.682 89.5703 173.384" fill="#DBCCB1"/>
<path d="M55.6935 54.5208C53.5965 56.5926 50.597 56.9422 48.9414 55.2588C47.4092 53.6985 47.3962 50.8045 49.675 48.4996C51.837 46.3048 54.8106 46.0782 56.5246 47.7744C58.1931 49.4254 57.7971 52.4425 55.6935 54.5208Z" fill="#DBCCB1"/>
<path d="M116.884 190.917C115.261 189.298 115.579 186.327 117.598 184.294C119.656 182.215 122.695 181.885 124.324 183.556C125.921 185.2 125.564 188.198 123.526 190.198C121.467 192.218 118.513 192.536 116.89 190.917" fill="#DBCCB1"/>
<path d="M107.243 241.857C105.717 243.612 102.588 243.139 100.666 241.191C98.6079 239.099 98.2638 236.283 99.8479 234.574C101.081 233.24 103.938 232.703 106.548 235.279C108.788 237.5 108.84 240.44 107.243 241.857Z" fill="#DBCCB1"/>
<path d="M90.2198 234.535C91.8819 236.186 91.5638 239.015 89.5316 241.119C87.5254 243.204 84.448 243.508 82.8444 241.87C81.3381 240.336 81.5329 237.345 83.6235 235.266C85.9543 232.955 88.9992 233.123 90.2198 234.535Z" fill="#DBCCB1"/>
<path d="M116.956 241.87C115.04 240.161 115.878 236.995 117.592 235.299C119.637 233.272 122.559 232.916 124.208 234.528C125.857 236.147 125.577 239.112 123.545 241.119C121.254 243.392 118.28 243.392 116.956 241.87Z" fill="#DBCCB1"/>
<path d="M66.6721 241.145C64.3608 239.041 64.4777 235.869 65.8995 234.548C67.6006 232.962 70.4767 233.266 72.5348 235.318C74.3852 237.157 74.8851 240.148 73.262 241.851C71.7103 243.476 68.477 243.172 66.6721 241.145Z" fill="#DBCCB1"/>
<path d="M82.9546 156.758C81.3899 155.185 81.708 152.291 83.6882 150.355C85.7009 148.393 88.4667 147.966 90.1027 149.617C91.9012 151.436 91.2649 154.136 89.46 156.02C87.5187 158.053 84.5517 158.364 82.9546 156.758Z" fill="#DBCCB1"/>
<path d="M140.406 235.415C142.392 237.403 142.71 240.219 141.126 241.793C139.549 243.359 136.711 243.036 134.738 241.061C132.745 239.073 132.446 236.302 134.05 234.703C135.666 233.091 138.387 233.395 140.406 235.415Z" fill="#DBCCB1"/>
<path d="M90.0509 115.847C91.661 117.439 91.3948 120.204 89.4341 122.217C87.4993 124.205 84.6492 124.542 83.0455 122.981C81.4354 121.415 81.7081 118.624 83.6688 116.617C85.61 114.629 88.4667 114.286 90.0509 115.853" fill="#DBCCB1"/>
<path d="M89.3566 139.109C87.357 141.045 84.4808 141.323 82.9681 139.73C81.4359 138.118 81.7929 135.237 83.7602 133.327C85.7468 131.398 88.6425 131.107 90.1422 132.712C91.7134 134.396 91.3368 137.063 89.3566 139.115" fill="#DBCCB1"/>
<path d="M83 105.993C81.4289 104.406 81.773 101.525 83.7597 99.5958C85.7788 97.6341 88.5576 97.3816 90.1417 99.0196C91.6545 100.586 91.3169 103.435 89.3951 105.332C87.3954 107.307 84.5907 107.592 83 105.986" fill="#DBCCB1"/>
<path d="M141.108 190.71C139.517 192.303 136.693 191.979 134.726 189.978C132.817 188.042 132.518 185.226 134.057 183.685C135.635 182.099 138.459 182.436 140.446 184.443C142.38 186.391 142.666 189.15 141.101 190.71" fill="#DBCCB1"/>
<path d="M83.7925 82.7365C85.3767 80.956 88.3308 80.3992 89.9604 81.9595C91.5965 83.5199 91.2913 86.3039 89.2787 88.2915C87.3764 90.1691 84.6301 90.4863 83.0978 88.9907C81.5332 87.4692 81.8448 84.6788 83.7861 82.7365" fill="#DBCCB1"/>
<path d="M72.9498 54.9222C71.4305 56.4243 68.6323 56.12 66.7625 54.2424C64.8861 52.3584 64.5875 49.5744 66.0937 48.0594C67.6519 46.4926 70.4372 46.8098 72.359 48.778C74.2353 50.7009 74.495 53.4007 72.9498 54.9287" fill="#DBCCB1"/>
<path d="M55.4532 240.931C53.5249 242.874 50.863 243.178 49.3178 241.643C47.7791 240.115 48.0583 237.429 49.9541 235.499C51.8174 233.602 54.6092 233.279 56.1219 234.787C57.6476 236.315 57.3555 239.021 55.4532 240.931Z" fill="#DBCCB1"/>
<path d="M32.5866 48.3118C34.2162 46.8227 36.7158 47.3471 38.3194 49.0369C40.0724 50.8886 40.2996 53.2453 38.8388 54.6502C37.3586 56.0811 34.9888 55.861 33.119 53.9251C31.2881 52.0346 31.2427 49.7362 32.5866 48.3118Z" fill="#DBCCB1"/>
<path d="M89.6678 65.411C91.0896 66.8483 90.7974 69.1726 89.0185 70.9919C87.4733 72.5652 84.9672 73.1738 83.422 71.594C81.9287 70.0661 82.3443 67.6835 84.0778 65.9872C86.0255 64.0708 88.3563 64.0708 89.6678 65.411Z" fill="#DBCCB1"/>
<path d="M151.574 241.19C150.243 239.831 150.548 237.513 152.203 235.797C153.469 234.483 156.06 233.583 157.696 235.26C158.988 236.581 158.624 239.119 156.975 240.692C155.281 242.31 152.885 242.537 151.574 241.19Z" fill="#DBCCB1"/>
<path d="M152.209 184.838C153.891 183.141 156.209 182.882 157.592 184.19C158.851 185.375 158.948 187.758 157.001 189.661C155.397 191.228 153.242 191.707 151.593 190.237C150.223 189.02 150.56 186.495 152.203 184.838" fill="#DBCCB1"/>
<path d="M15.7582 190.127C14.4792 188.852 14.7454 186.391 16.3166 184.857C17.9332 183.284 20.3419 183.031 21.6079 184.307C22.9129 185.615 22.5688 187.997 20.9976 189.564C19.4524 191.105 17.0048 191.48 15.7582 190.127Z" fill="#DBCCB1"/>
<path d="M21.6205 167.35C22.932 168.574 22.6074 171.015 21.0037 172.594C19.4196 174.155 17.0369 174.459 15.7449 173.158C14.4918 171.889 14.7645 169.422 16.3551 167.862C17.8614 166.385 20.387 165.945 21.614 167.35" fill="#DBCCB1"/>
<path d="M20.9515 155.606C19.4387 157.237 16.9911 157.444 15.712 156.137C14.4785 154.874 14.7901 152.317 16.3873 150.834C18.0688 149.267 20.3347 149.041 21.6461 150.361C22.7823 151.507 22.7369 154.045 20.9515 155.606Z" fill="#DBCCB1"/>
<path d="M21.0035 121.738C19.4713 123.421 17.0107 123.609 15.7576 122.353C14.7123 121.304 14.3877 119.038 16.342 117.083C18.2702 115.154 20.5491 115.439 21.6138 116.5C22.8669 117.737 22.6916 120.191 21.0035 121.738Z" fill="#DBCCB1"/>
<path d="M21.0295 104.788C19.5233 106.452 17.0951 106.724 15.7836 105.455C14.4981 104.205 14.7124 101.732 16.303 100.185C18.1404 98.3913 20.4063 98.4495 21.5879 99.5631C22.7176 100.631 22.8474 103.105 21.0295 104.794" fill="#DBCCB1"/>
<path d="M20.945 138.591C19.5361 140.177 16.9586 140.417 15.725 139.09C14.3356 137.594 14.9005 135.224 16.3873 133.826C18.1467 132.169 20.3412 132.071 21.6396 133.353C22.7499 134.448 22.7823 136.973 20.9514 138.591" fill="#DBCCB1"/>
<path d="M173.914 201.949C175.511 203.548 175.751 205.808 174.466 207.083C173.174 208.359 170.927 208.106 169.33 206.501C167.72 204.882 167.48 202.661 168.778 201.373C170.064 200.104 172.33 200.356 173.914 201.949Z" fill="#DBCCB1"/>
<path d="M15.8161 88.2652C14.5111 86.9315 14.7838 84.7691 16.4653 83.1375C18.0625 81.5901 20.2569 81.3571 21.5294 82.6066C22.8149 83.8627 22.5487 86.1611 20.9451 87.7667C19.348 89.3659 17.1016 89.586 15.8161 88.2652Z" fill="#DBCCB1"/>
<path d="M173.875 218.906C175.485 220.492 175.764 222.764 174.511 224.046C173.245 225.341 170.986 225.121 169.376 223.541C167.759 221.949 167.48 219.689 168.746 218.401C170.012 217.106 172.278 217.332 173.875 218.906Z" fill="#DBCCB1"/>
<path d="M21.0034 206.43C19.4972 207.958 17.1988 208.236 15.9198 207.051C14.6538 205.873 14.8875 203.588 16.4327 202.014C17.9779 200.435 20.2178 200.163 21.4709 201.393C22.7369 202.636 22.5226 204.889 21.0034 206.43Z" fill="#DBCCB1"/>
<path d="M37.9108 236.147C39.3327 237.513 39.7027 239.708 38.3848 240.958C36.9629 242.304 34.8204 241.721 33.4505 240.252C31.9897 238.691 31.8209 236.639 33.0804 235.461C34.327 234.295 36.3916 234.587 37.9108 236.147Z" fill="#DBCCB1"/>
<path d="M16.6472 66.447C18.0625 65.0226 20.0492 64.8025 21.2178 65.9485C22.4254 67.1333 22.2307 68.9785 20.7828 70.487C19.2247 72.1186 17.212 72.138 16.1148 71.0438C14.9916 69.9238 15.2513 67.852 16.6472 66.447Z" fill="#DBCCB1"/>
<path d="M105.976 172.62C104.886 173.701 102.944 173.488 101.607 172.135C100.27 170.781 100.062 168.852 101.146 167.758C102.204 166.683 104.159 166.916 105.522 168.276C106.898 169.655 107.093 171.513 105.976 172.62Z" fill="#DBCCB1"/>
<path d="M16.2962 223.632C15.225 222.564 15.4587 220.576 16.8091 219.255C18.1076 217.986 20.0553 217.779 21.0941 218.802C22.1654 219.858 21.9252 221.871 20.5812 223.179C19.2633 224.454 17.3285 224.662 16.2962 223.632Z" fill="#DBCCB1"/>
<path d="M84.2665 53.7893C83.2147 52.9411 83.2926 51.0441 84.708 49.568C85.8701 48.3508 87.9607 48.1501 88.8761 49.1795C90.0058 50.455 89.4994 52.2095 88.3892 53.3296C87.1102 54.6245 85.1235 54.8252 84.273 53.7893" fill="#DBCCB1"/>
<path d="M52.7387 31.5755C54.4657 31.5819 55.6538 32.8121 55.6214 34.5731C55.5954 36.2047 54.3229 37.4542 52.7063 37.4348C51.0637 37.4154 49.7392 36.0493 49.7782 34.3983C49.8106 32.7797 51.0832 31.569 52.7387 31.5755Z" fill="#DBCCB1"/>
<path d="M173.654 240.245C172.719 241.184 171.142 241.003 169.98 239.825C168.882 238.705 168.694 237.138 169.558 236.218C170.441 235.28 172.083 235.435 173.252 236.568C174.42 237.701 174.596 239.307 173.661 240.245" fill="#DBCCB1"/>
<path d="M173.246 185.576C174.382 186.709 174.589 188.424 173.687 189.305C172.785 190.185 171.084 189.965 169.954 188.813C168.857 187.693 168.668 186.1 169.519 185.187C170.376 184.268 172.103 184.455 173.239 185.582" fill="#DBCCB1"/>
<path d="M67.6322 32.508C68.4178 31.7246 69.9889 31.8929 71.0147 32.877C72.1379 33.9582 72.3327 35.4214 71.4692 36.3214C70.6512 37.176 69.054 37.0336 68.0023 36.0041C67.0024 35.0394 66.8271 33.3173 67.6322 32.508Z" fill="#DBCCB1"/>
<path d="M20.1468 53.0578C19.0691 54.1002 17.6472 54.2361 16.7967 53.375C15.9462 52.5139 16.128 50.9083 17.1993 49.8983C18.251 48.9077 19.7638 48.7653 20.5818 49.5875C21.4453 50.4551 21.257 51.9766 20.1468 53.0513" fill="#DBCCB1"/>
<path d="M122.052 171.669C120.968 172.776 119.592 172.931 118.722 172.044C117.897 171.203 118.014 169.836 119.001 168.788C119.988 167.745 121.565 167.525 122.39 168.315C123.26 169.15 123.117 170.581 122.052 171.662" fill="#DBCCB1"/>
<path d="M86.5131 257.532C85.338 257.512 84.4745 256.431 84.4874 255C84.5004 253.621 85.4548 252.501 86.591 252.534C87.7142 252.566 88.6556 253.744 88.6296 255.097C88.6037 256.489 87.6817 257.551 86.5066 257.532" fill="#DBCCB1"/>
<path d="M105.308 256.813C104.477 257.623 103.042 257.48 102.082 256.483C101.127 255.499 100.997 254.023 101.809 253.239C102.633 252.443 104.075 252.605 105.049 253.602C106.055 254.631 106.165 255.978 105.315 256.807" fill="#DBCCB1"/>
<path d="M69.5021 257.532C67.9829 257.519 66.9701 256.509 66.9895 255.02C67.009 253.621 68.1517 252.521 69.58 252.534C70.9499 252.547 72.1575 253.764 72.1186 255.091C72.0731 256.541 71.0084 257.545 69.5086 257.526" fill="#DBCCB1"/>
<path d="M118.839 256.82C118.092 256.185 117.956 254.735 119.144 253.622C120.137 252.689 121.507 252.482 122.293 253.214C123.137 253.991 123.027 255.434 122.046 256.444C120.994 257.532 119.709 257.681 118.832 256.826" fill="#DBCCB1"/>
<path d="M105.581 153.281C105.555 154.589 104.62 155.722 103.562 155.728C102.484 155.728 101.484 154.472 101.516 153.152C101.549 151.889 102.542 150.691 103.555 150.685C104.639 150.685 105.607 151.915 105.581 153.281Z" fill="#DBCCB1"/>
<path d="M138.965 253.609C139.984 254.593 140.153 255.881 139.374 256.716C138.595 257.558 137.283 257.487 136.284 256.548C135.238 255.564 135.031 254.165 135.849 253.324C136.602 252.553 138.095 252.637 138.965 253.602" fill="#DBCCB1"/>
<path d="M139.323 171.934C138.556 172.711 137.148 172.543 136.2 171.571C135.284 170.633 135.122 169.286 135.83 168.535C136.57 167.745 137.985 167.868 138.946 168.807C139.92 169.759 140.089 171.157 139.323 171.934Z" fill="#DBCCB1"/>
<path d="M35.7221 36.8913C34.6379 36.8978 33.8198 35.9137 33.7938 34.5605C33.7614 33.188 34.6314 32.0291 35.7026 32.0291C36.7349 32.0291 37.5984 33.0909 37.6309 34.3987C37.6633 35.836 36.8583 36.8848 35.7221 36.8913Z" fill="#DBCCB1"/>
<path d="M105.418 119.427C105.412 120.76 104.548 121.829 103.51 121.79C102.516 121.757 101.698 120.722 101.672 119.459C101.653 118.138 102.497 117.031 103.536 117.018C104.568 117.005 105.418 118.093 105.412 119.427" fill="#DBCCB1"/>
<path d="M105.425 136.208C105.425 137.587 104.64 138.571 103.543 138.546C102.465 138.52 101.653 137.477 101.679 136.15C101.705 134.875 102.497 133.91 103.53 133.877C104.62 133.845 105.419 134.829 105.419 136.208" fill="#DBCCB1"/>
<path d="M54.5765 255.104C54.5571 256.438 53.6936 257.454 52.6288 257.396C51.6355 257.344 50.8109 256.257 50.8174 255.033C50.8304 253.738 51.7069 252.741 52.7976 252.786C53.9013 252.832 54.5895 253.738 54.5701 255.104" fill="#DBCCB1"/>
<path d="M103.588 104.807C102.51 104.827 101.686 103.817 101.686 102.477C101.686 101.195 102.582 100.062 103.588 100.081C104.562 100.1 105.393 101.149 105.425 102.399C105.458 103.765 104.685 104.781 103.588 104.807Z" fill="#DBCCB1"/>
<path d="M19.9453 239.565C19.0688 240.4 17.7054 240.491 17.0237 239.766C16.316 239.015 16.5043 237.752 17.4522 236.852C18.3482 235.998 19.7571 235.881 20.3803 236.6C21.0101 237.332 20.8023 238.756 19.9518 239.565" fill="#DBCCB1"/>
<path d="M105.386 85.4167C105.412 86.731 104.639 87.7345 103.601 87.741C102.568 87.7475 101.724 86.7375 101.718 85.4944C101.711 84.2966 102.49 83.2996 103.477 83.2413C104.523 83.183 105.36 84.1412 105.386 85.4167Z" fill="#DBCCB1"/>
<path d="M153.054 171.714C152.443 171.053 152.632 169.843 153.476 169.02C154.365 168.146 155.579 168.049 156.222 168.8C156.832 169.512 156.624 170.691 155.748 171.487C154.897 172.264 153.664 172.368 153.054 171.714Z" fill="#DBCCB1"/>
<path d="M155.832 256.256C154.995 257.105 153.833 257.241 153.158 256.574C152.508 255.933 152.619 254.703 153.391 253.88C154.177 253.058 155.358 252.935 156.06 253.608C156.767 254.288 156.676 255.402 155.832 256.256Z" fill="#DBCCB1"/>
<path d="M103.562 66.4272C104.49 66.4272 105.224 67.3984 105.192 68.5832C105.166 69.645 104.484 70.4802 103.62 70.5061C102.659 70.532 101.893 69.5997 101.926 68.4408C101.958 67.3013 102.666 66.4272 103.562 66.4337" fill="#DBCCB1"/>
<path d="M189.574 222.279C188.827 223.056 187.704 223.231 187.081 222.674C186.464 222.124 186.549 220.997 187.276 220.214C188.061 219.359 189.204 219.184 189.84 219.806C190.438 220.389 190.321 221.502 189.574 222.279Z" fill="#DBCCB1"/>
<path d="M189.457 205.349C188.652 206.113 187.671 206.184 187.035 205.517C186.405 204.857 186.529 203.898 187.347 203.089C188.171 202.273 189.281 202.176 189.879 202.863C190.418 203.491 190.229 204.611 189.45 205.342" fill="#DBCCB1"/>
<path d="M37.1896 255.039C37.1961 256.108 36.5923 256.872 35.7353 256.891C34.8783 256.911 34.2486 256.159 34.2356 255.098C34.2226 254.004 34.8004 253.272 35.6899 253.259C36.5988 253.246 37.1831 253.932 37.1896 255.033" fill="#DBCCB1"/>
<path d="M87.9801 34.5475C87.9541 35.4539 87.2724 36.2697 86.5257 36.2697C85.7531 36.2697 85.0974 35.3568 85.1429 34.3468C85.1883 33.3433 85.7726 32.7153 86.6296 32.7606C87.4347 32.7994 87.9995 33.5505 87.9736 34.5475" fill="#DBCCB1"/>
<path d="M0.00665574 136.189C0.0196406 135.289 0.792245 134.506 1.66873 134.499C2.62312 134.493 3.38922 135.315 3.33729 136.305C3.29184 137.212 2.48028 137.989 1.62328 137.937C0.733814 137.885 -0.012818 137.082 0.00016686 136.195" fill="#DBCCB1"/>
<path d="M3.33751 153.314C3.29206 154.233 2.53244 154.926 1.60402 154.887C0.688588 154.848 -0.0190848 154.091 0.000392545 153.171C0.0198699 152.317 0.857393 151.482 1.68193 151.488C2.61685 151.488 3.38296 152.336 3.33102 153.32" fill="#DBCCB1"/>
<path d="M3.34413 119.446C3.32465 120.398 2.604 121.09 1.64311 121.078C0.695216 121.058 -0.00597154 120.326 0.00701336 119.381C0.0264907 118.436 0.760139 117.737 1.70804 117.75C2.65593 117.769 3.35712 118.501 3.34413 119.446Z" fill="#DBCCB1"/>
<path d="M3.34434 102.458C3.36382 103.403 2.65614 104.121 1.70824 104.134C0.753853 104.147 0.00722145 103.429 0.0137139 102.509C0.0137139 101.564 0.727882 100.832 1.6563 100.82C2.6042 100.807 3.33135 101.506 3.34434 102.451" fill="#DBCCB1"/>
<path d="M1.6501 168.561C2.62397 168.548 3.32516 169.215 3.33815 170.186C3.35762 171.144 2.65644 171.876 1.70854 171.882C0.760642 171.882 0.0269935 171.19 0.00751617 170.244C-0.0184536 169.312 0.702207 168.58 1.6501 168.567" fill="#DBCCB1"/>
<path d="M1.75377 185.556C2.68868 185.582 3.38337 186.34 3.34441 187.291C3.30546 188.237 2.56532 188.91 1.61093 188.871C0.676019 188.839 -0.0316568 188.081 0.0137903 187.149C0.0592375 186.217 0.812363 185.53 1.76026 185.556" fill="#DBCCB1"/>
<path d="M1.6245 83.837C2.55292 83.8046 3.31253 84.5168 3.34499 85.4362C3.37746 86.375 2.66978 87.126 1.74136 87.1454C0.799959 87.1648 0.0338477 86.4656 0.0143703 85.5527C-0.0115995 84.6139 0.689587 83.8694 1.6245 83.837Z" fill="#DBCCB1"/>
<path d="M1.69572 205.769C0.812752 205.769 0.085594 205.076 0.0791016 204.235C0.0791016 203.38 0.773793 202.707 1.67624 202.694C2.61765 202.687 3.2604 203.296 3.2604 204.209C3.2604 205.083 2.57221 205.769 1.69572 205.769Z" fill="#DBCCB1"/>
<path d="M104.776 51.6271C104.724 52.5336 104.153 53.1163 103.419 53.0191C102.77 52.935 102.302 52.2422 102.328 51.4005C102.361 50.4618 102.861 49.9179 103.646 49.9697C104.393 50.015 104.828 50.6495 104.776 51.6271Z" fill="#DBCCB1"/>
<path d="M17.5234 34.5086C17.5234 33.6669 18.0234 33.0324 18.7051 33.0389C19.3413 33.0389 19.9062 33.764 19.8802 34.5409C19.8607 35.2402 19.2959 35.9394 18.731 35.9653C18.1143 35.9912 17.5234 35.2855 17.5234 34.5086Z" fill="#DBCCB1"/>
<path d="M172.641 171.254C172.135 171.714 171.337 171.591 170.765 170.956C170.259 170.4 170.174 169.558 170.57 169.144C170.986 168.703 171.921 168.826 172.486 169.39C173.063 169.966 173.135 170.814 172.648 171.261" fill="#DBCCB1"/>
<path d="M170.811 255.913C170.168 255.292 170.083 254.56 170.59 254.049C171.077 253.557 171.869 253.654 172.466 254.269C172.999 254.819 173.102 255.622 172.693 256.075C172.245 256.574 171.421 256.503 170.811 255.913Z" fill="#DBCCB1"/>
<path d="M189.496 186.256C189.976 186.767 189.859 187.518 189.197 188.12C188.652 188.625 187.788 188.722 187.386 188.327C186.976 187.926 187.093 186.91 187.606 186.398C188.158 185.848 189.035 185.783 189.489 186.262" fill="#DBCCB1"/>
<path d="M189.249 239.015C188.652 239.637 187.872 239.74 187.379 239.255C186.918 238.802 187.015 237.915 187.593 237.364C188.08 236.898 189.009 236.775 189.431 237.131C189.898 237.526 189.807 238.432 189.249 239.015Z" fill="#DBCCB1"/>
<path d="M1.66326 69.9235C0.799769 69.9106 0.208957 69.2696 0.254405 68.3891C0.293359 67.6057 0.9426 67.0101 1.72169 67.036C2.44885 67.0619 3.15004 67.7417 3.17601 68.4539C3.20847 69.2502 2.4943 69.9365 1.66326 69.9235Z" fill="#DBCCB1"/>
<path d="M1.61725 222.512C0.864125 222.486 0.31876 221.929 0.325253 221.191C0.325253 220.427 0.980989 219.864 1.80553 219.929C2.57164 219.987 3.05857 220.544 3.00663 221.314C2.95469 222.078 2.41582 222.538 1.61725 222.512Z" fill="#DBCCB1"/>
<path d="M19.5301 255.026C19.5431 255.629 19.225 256.095 18.7575 256.134C18.2706 256.172 17.8161 255.661 17.8096 255.072C17.8031 254.502 18.2706 253.919 18.7251 253.939C19.1666 253.958 19.5236 254.437 19.5366 255.033" fill="#DBCCB1"/>
<path d="M2.72779 51.4523C2.74727 52.0414 2.31877 52.54 1.76691 52.5788C1.18259 52.6176 0.611256 52.0608 0.624241 51.4717C0.637226 50.9473 1.15662 50.4358 1.6955 50.4163C2.24086 50.3969 2.71481 50.8696 2.73429 51.4587" fill="#DBCCB1"/>
<path d="M121.441 153.21C121.441 153.741 121.039 154.285 120.623 154.317C120.162 154.343 119.727 153.773 119.747 153.165C119.766 152.556 120.11 152.155 120.604 152.174C121.071 152.194 121.441 152.647 121.441 153.21Z" fill="#DBCCB1"/>
<path d="M53.8105 17.4615C53.817 18.0118 53.3041 18.5233 52.7458 18.5233C52.1549 18.5233 51.6875 18.0636 51.6875 17.4744C51.6875 16.8658 52.1225 16.4255 52.7263 16.4126C53.2846 16.3997 53.7975 16.8982 53.804 17.455" fill="#DBCCB1"/>
<path d="M104.27 34.5086C104.25 34.9941 103.932 35.4085 103.569 35.415C103.179 35.4214 102.783 34.8905 102.822 34.4114C102.861 33.9518 103.199 33.6021 103.601 33.6151C104.01 33.6216 104.289 33.9971 104.27 34.5086Z" fill="#DBCCB1"/>
<path d="M1.66862 239.093C1.15571 239.093 0.80512 238.744 0.811612 238.219C0.811612 237.721 1.18168 237.319 1.65563 237.306C2.14256 237.293 2.65546 237.805 2.62949 238.278C2.61002 238.711 2.16204 239.093 1.6751 239.093" fill="#DBCCB1"/>
<path d="M35.6832 16.6134C36.1701 16.6004 36.5727 16.9501 36.6051 17.4162C36.6376 17.9083 36.313 18.2644 35.8001 18.3097C35.2222 18.355 34.8002 17.9989 34.8067 17.4615C34.8067 17.0018 35.1963 16.6263 35.6832 16.6134Z" fill="#DBCCB1"/>
<path d="M70.4634 17.5262C70.431 17.9924 70.0219 18.3226 69.5026 18.3096C68.9702 18.2902 68.6455 17.947 68.678 17.4291C68.704 16.9306 69.1065 16.5809 69.5999 16.6263C70.0869 16.6716 70.4959 17.0989 70.4634 17.5327" fill="#DBCCB1"/>
<path d="M189.029 254.826C189.029 255.434 188.711 255.816 188.392 255.771C188.055 255.726 187.88 255.46 187.867 255.046C187.854 254.632 188.204 254.172 188.483 254.301C188.717 254.405 188.899 254.696 189.029 254.819" fill="#DBCCB1"/>
<path d="M138.335 153.184C138.284 153.611 138.037 153.838 137.608 153.864C137.206 153.883 136.836 153.579 136.868 153.223C136.907 152.809 137.141 152.543 137.576 152.537C138.004 152.53 138.251 152.77 138.329 153.191" fill="#DBCCB1"/>
<path d="M2.27983 272.319C2.22789 272.747 1.98118 272.973 1.55267 272.999C1.15014 273.019 0.780073 272.714 0.812535 272.358C0.85149 271.944 1.08522 271.678 1.52021 271.672C1.94871 271.666 2.19543 271.905 2.27334 272.326" fill="#DBCCB1"/>
<path d="M19.2769 272.319C19.225 272.747 18.9782 272.973 18.5497 272.999C18.1472 273.019 17.7771 272.714 17.8096 272.358C17.8486 271.944 18.0823 271.678 18.5173 271.672C18.9458 271.666 19.1925 271.905 19.2704 272.326" fill="#DBCCB1"/>
<path d="M36.274 272.319C36.222 272.747 35.9753 272.973 35.5468 272.999C35.1443 273.019 34.7742 272.714 34.8067 272.358C34.8456 271.944 35.0794 271.678 35.5144 271.672C35.9429 271.666 36.1896 271.905 36.2675 272.326" fill="#DBCCB1"/>
<path d="M53.2779 272.319C53.2259 272.747 52.9792 272.973 52.5507 272.999C52.1482 273.019 51.7781 272.714 51.8106 272.358C51.8495 271.944 52.0833 271.678 52.5183 271.672C52.9468 271.666 53.1935 271.905 53.2714 272.326" fill="#DBCCB1"/>
<path d="M70.2743 272.319C70.2224 272.747 69.9757 272.973 69.5537 272.999C69.1511 273.019 68.781 272.714 68.8135 272.358C68.8525 271.944 69.0862 271.678 69.5212 271.672C69.9562 271.666 70.1964 271.905 70.2743 272.326" fill="#DBCCB1"/>
<path d="M87.2724 272.319C87.2204 272.747 86.9737 272.973 86.5517 272.999C86.1492 273.019 85.7791 272.714 85.8116 272.358C85.8505 271.944 86.0842 271.678 86.5192 271.672C86.9542 271.666 87.1945 271.905 87.2724 272.326" fill="#DBCCB1"/>
<path d="M104.275 272.319C104.223 272.747 103.977 272.973 103.555 272.999C103.152 273.019 102.782 272.714 102.814 272.358C102.853 271.944 103.087 271.678 103.522 271.672C103.957 271.666 104.197 271.905 104.275 272.326" fill="#DBCCB1"/>
<path d="M121.273 272.319C121.221 272.747 120.975 272.973 120.553 272.999C120.15 273.019 119.78 272.714 119.813 272.358C119.851 271.944 120.085 271.678 120.52 271.672C120.955 271.666 121.195 271.905 121.273 272.326" fill="#DBCCB1"/>
<path d="M138.27 272.319C138.218 272.747 137.972 272.973 137.55 272.999C137.147 273.019 136.777 272.714 136.81 272.358C136.849 271.944 137.082 271.678 137.517 271.672C137.946 271.666 138.192 271.905 138.27 272.326" fill="#DBCCB1"/>
<path d="M155.274 272.319C155.222 272.747 154.976 272.973 154.554 272.999C154.151 273.019 153.781 272.714 153.814 272.358C153.852 271.944 154.086 271.678 154.521 271.672C154.95 271.666 155.196 271.905 155.274 272.326" fill="#DBCCB1"/>
<path d="M172.271 272.319C172.219 272.747 171.973 272.973 171.551 272.999C171.148 273.019 170.778 272.714 170.811 272.358C170.85 271.944 171.083 271.678 171.518 271.672C171.947 271.666 172.193 271.905 172.271 272.326" fill="#DBCCB1"/>
<path d="M189.268 272.319C189.217 272.747 188.97 272.973 188.548 272.999C188.145 273.019 187.775 272.714 187.808 272.358C187.847 271.944 188.08 271.678 188.515 271.672C188.944 271.666 189.191 271.905 189.268 272.326" fill="#DBCCB1"/>
<path d="M206.272 272.319C206.22 272.747 205.973 272.973 205.545 272.999C205.142 273.019 204.772 272.714 204.805 272.358C204.844 271.944 205.077 271.678 205.512 271.672C205.947 271.666 206.188 271.905 206.266 272.326" fill="#DBCCB1"/>
<path d="M206.272 255.331C206.22 255.758 205.973 255.985 205.545 256.01C205.142 256.03 204.772 255.726 204.805 255.37C204.844 254.955 205.077 254.69 205.512 254.683C205.947 254.677 206.188 254.916 206.266 255.331" fill="#DBCCB1"/>
<path d="M206.272 238.348C206.22 238.775 205.973 239.002 205.545 239.028C205.142 239.047 204.772 238.743 204.805 238.387C204.844 237.972 205.077 237.707 205.512 237.701C205.947 237.694 206.188 237.934 206.266 238.354" fill="#DBCCB1"/>
<path d="M206.272 221.359C206.22 221.787 205.973 222.013 205.545 222.039C205.142 222.059 204.772 221.754 204.805 221.398C204.844 220.984 205.077 220.719 205.512 220.712C205.947 220.706 206.188 220.945 206.266 221.366" fill="#DBCCB1"/>
<path d="M206.272 204.371C206.22 204.798 205.973 205.025 205.545 205.051C205.142 205.07 204.772 204.766 204.805 204.41C204.844 203.995 205.077 203.73 205.512 203.724C205.947 203.717 206.188 203.957 206.266 204.371" fill="#DBCCB1"/>
<path d="M206.272 187.382C206.22 187.809 205.973 188.036 205.545 188.062C205.142 188.081 204.772 187.777 204.805 187.421C204.844 187.006 205.077 186.741 205.512 186.734C205.947 186.728 206.188 186.967 206.266 187.388" fill="#DBCCB1"/>
<path d="M206.272 170.393C206.22 170.82 205.973 171.047 205.545 171.073C205.142 171.092 204.772 170.788 204.805 170.432C204.844 170.018 205.077 169.752 205.512 169.746C205.947 169.739 206.188 169.979 206.266 170.4" fill="#DBCCB1"/>
<path d="M206.272 153.404C206.22 153.831 205.973 154.058 205.545 154.084C205.142 154.103 204.772 153.799 204.805 153.443C204.844 153.029 205.077 152.763 205.512 152.757C205.947 152.75 206.188 152.99 206.266 153.404" fill="#DBCCB1"/>
<path d="M206.272 136.416C206.22 136.843 205.973 137.07 205.545 137.095C205.142 137.115 204.772 136.811 204.805 136.454C204.844 136.04 205.077 135.775 205.512 135.768C205.947 135.762 206.188 136.001 206.266 136.422" fill="#DBCCB1"/>
<path d="M206.272 119.433C206.22 119.86 205.973 120.087 205.545 120.113C205.142 120.132 204.772 119.828 204.805 119.472C204.844 119.057 205.077 118.792 205.512 118.786C205.947 118.779 206.188 119.019 206.266 119.439" fill="#DBCCB1"/>
<path d="M206.272 102.444C206.22 102.872 205.973 103.098 205.545 103.124C205.142 103.143 204.772 102.839 204.805 102.483C204.844 102.069 205.077 101.803 205.512 101.797C205.947 101.79 206.188 102.03 206.266 102.451" fill="#DBCCB1"/>
<path d="M206.272 85.4557C206.22 85.883 205.973 86.1096 205.545 86.1355C205.142 86.1549 204.772 85.8506 204.805 85.4945C204.844 85.0802 205.077 84.8147 205.512 84.8082C205.947 84.8018 206.188 85.0413 206.266 85.4621" fill="#DBCCB1"/>
<path d="M206.272 68.4669C206.22 68.8942 205.973 69.1208 205.545 69.1467C205.142 69.1661 204.772 68.8618 204.805 68.5057C204.844 68.0914 205.077 67.8259 205.512 67.8195C205.947 67.813 206.188 68.0525 206.266 68.4734" fill="#DBCCB1"/>
<path d="M206.272 51.4779C206.22 51.9052 205.973 52.1318 205.545 52.1577C205.142 52.1771 204.772 51.8728 204.805 51.5167C204.844 51.1024 205.077 50.8369 205.512 50.8305C205.947 50.824 206.188 51.0635 206.266 51.4844" fill="#DBCCB1"/>
<path d="M206.272 34.4894C206.22 34.9167 205.973 35.1433 205.545 35.1692C205.142 35.1886 204.772 34.8843 204.805 34.5282C204.844 34.1139 205.077 33.8484 205.512 33.8419C205.947 33.8355 206.188 34.075 206.266 34.4958" fill="#DBCCB1"/>
<path d="M206.272 17.5069C206.22 17.9343 205.973 18.1609 205.545 18.1868C205.142 18.2062 204.772 17.9019 204.805 17.5458C204.844 17.1314 205.077 16.866 205.512 16.8595C205.947 16.853 206.188 17.0926 206.266 17.5134" fill="#DBCCB1"/>
<path d="M172.271 153.404C172.219 153.831 171.973 154.058 171.551 154.084C171.148 154.103 170.778 153.799 170.811 153.443C170.85 153.029 171.083 152.763 171.518 152.757C171.947 152.75 172.193 152.99 172.271 153.404Z" fill="#DBCCB1"/>
<path d="M172.271 136.416C172.219 136.843 171.973 137.07 171.551 137.095C171.148 137.115 170.778 136.811 170.811 136.454C170.85 136.04 171.083 135.775 171.518 135.768C171.947 135.762 172.193 136.001 172.271 136.422" fill="#DBCCB1"/>
<path d="M172.271 119.433C172.219 119.86 171.973 120.087 171.551 120.113C171.148 120.132 170.778 119.828 170.811 119.472C170.85 119.057 171.083 118.792 171.518 118.786C171.947 118.779 172.193 119.019 172.271 119.439" fill="#DBCCB1"/>
<path d="M172.271 102.444C172.219 102.872 171.973 103.098 171.551 103.124C171.148 103.143 170.778 102.839 170.811 102.483C170.85 102.069 171.083 101.803 171.518 101.797C171.947 101.79 172.193 102.03 172.271 102.451" fill="#DBCCB1"/>
<path d="M172.271 85.4557C172.219 85.883 171.973 86.1096 171.551 86.1355C171.148 86.1549 170.778 85.8506 170.811 85.4945C170.85 85.0802 171.083 84.8147 171.518 84.8082C171.947 84.8018 172.193 85.0413 172.271 85.4621" fill="#DBCCB1"/>
<path d="M172.271 68.4669C172.219 68.8942 171.973 69.1208 171.551 69.1467C171.148 69.1661 170.778 68.8618 170.811 68.5057C170.85 68.0914 171.083 67.8259 171.518 67.8195C171.947 67.813 172.193 68.0525 172.271 68.4734" fill="#DBCCB1"/>
<path d="M172.271 51.4779C172.219 51.9052 171.973 52.1318 171.551 52.1577C171.148 52.1771 170.778 51.8728 170.811 51.5167C170.85 51.1024 171.083 50.8369 171.518 50.8305C171.947 50.824 172.193 51.0635 172.271 51.4844" fill="#DBCCB1"/>
<path d="M172.271 34.4894C172.219 34.9167 171.973 35.1433 171.551 35.1692C171.148 35.1886 170.778 34.8843 170.811 34.5282C170.85 34.1139 171.083 33.8484 171.518 33.8419C171.947 33.8355 172.193 34.075 172.271 34.4958" fill="#DBCCB1"/>
<path d="M172.271 17.5069C172.219 17.9343 171.973 18.1609 171.551 18.1868C171.148 18.2062 170.778 17.9019 170.811 17.5458C170.85 17.1314 171.083 16.866 171.518 16.8595C171.947 16.853 172.193 17.0926 172.271 17.5134" fill="#DBCCB1"/>
<path d="M155.274 153.404C155.222 153.831 154.976 154.058 154.554 154.084C154.151 154.103 153.781 153.799 153.814 153.443C153.852 153.029 154.086 152.763 154.521 152.757C154.95 152.75 155.196 152.99 155.274 153.404Z" fill="#DBCCB1"/>
<path d="M155.274 136.416C155.222 136.843 154.976 137.07 154.554 137.095C154.151 137.115 153.781 136.811 153.814 136.454C153.852 136.04 154.086 135.775 154.521 135.768C154.95 135.762 155.196 136.001 155.274 136.422" fill="#DBCCB1"/>
<path d="M155.274 119.433C155.222 119.86 154.976 120.087 154.554 120.113C154.151 120.132 153.781 119.828 153.814 119.472C153.852 119.057 154.086 118.792 154.521 118.786C154.95 118.779 155.196 119.019 155.274 119.439" fill="#DBCCB1"/>
<path d="M155.274 102.444C155.222 102.872 154.976 103.098 154.554 103.124C154.151 103.143 153.781 102.839 153.814 102.483C153.852 102.069 154.086 101.803 154.521 101.797C154.95 101.79 155.196 102.03 155.274 102.451" fill="#DBCCB1"/>
<path d="M155.274 85.4557C155.222 85.883 154.976 86.1096 154.554 86.1355C154.151 86.1549 153.781 85.8506 153.814 85.4945C153.852 85.0802 154.086 84.8147 154.521 84.8082C154.95 84.8018 155.196 85.0413 155.274 85.4621" fill="#DBCCB1"/>
<path d="M155.274 68.4669C155.222 68.8942 154.976 69.1208 154.554 69.1467C154.151 69.1661 153.781 68.8618 153.814 68.5057C153.852 68.0914 154.086 67.8259 154.521 67.8195C154.95 67.813 155.196 68.0525 155.274 68.4734" fill="#DBCCB1"/>
<path d="M155.274 51.4779C155.222 51.9052 154.976 52.1318 154.554 52.1577C154.151 52.1771 153.781 51.8728 153.814 51.5167C153.852 51.1024 154.086 50.8369 154.521 50.8305C154.95 50.824 155.196 51.0635 155.274 51.4844" fill="#DBCCB1"/>
<path d="M155.274 34.4894C155.222 34.9167 154.976 35.1433 154.554 35.1692C154.151 35.1886 153.781 34.8843 153.814 34.5282C153.852 34.1139 154.086 33.8484 154.521 33.8419C154.95 33.8355 155.196 34.075 155.274 34.4958" fill="#DBCCB1"/>
<path d="M155.274 17.5069C155.222 17.9343 154.976 18.1609 154.554 18.1868C154.151 18.2062 153.781 17.9019 153.814 17.5458C153.852 17.1314 154.086 16.866 154.521 16.8595C154.95 16.853 155.196 17.0926 155.274 17.5134" fill="#DBCCB1"/>
<path d="M138.27 136.416C138.218 136.843 137.972 137.07 137.55 137.095C137.147 137.115 136.777 136.811 136.81 136.454C136.849 136.04 137.082 135.775 137.517 135.768C137.946 135.762 138.192 136.001 138.27 136.422" fill="#DBCCB1"/>
<path d="M138.27 119.433C138.218 119.86 137.972 120.087 137.55 120.113C137.147 120.132 136.777 119.828 136.81 119.472C136.849 119.057 137.082 118.792 137.517 118.786C137.946 118.779 138.192 119.019 138.27 119.439" fill="#DBCCB1"/>
<path d="M138.27 102.444C138.218 102.872 137.972 103.098 137.55 103.124C137.147 103.143 136.777 102.839 136.81 102.483C136.849 102.069 137.082 101.803 137.517 101.797C137.946 101.79 138.192 102.03 138.27 102.451" fill="#DBCCB1"/>
<path d="M138.27 85.4557C138.218 85.883 137.972 86.1096 137.55 86.1355C137.147 86.1549 136.777 85.8506 136.81 85.4945C136.849 85.0802 137.082 84.8147 137.517 84.8082C137.946 84.8018 138.192 85.0413 138.27 85.4621" fill="#DBCCB1"/>
<path d="M138.27 68.4669C138.218 68.8942 137.972 69.1208 137.55 69.1467C137.147 69.1661 136.777 68.8618 136.81 68.5057C136.849 68.0914 137.082 67.8259 137.517 67.8195C137.946 67.813 138.192 68.0525 138.27 68.4734" fill="#DBCCB1"/>
<path d="M138.27 51.4779C138.218 51.9052 137.972 52.1318 137.55 52.1577C137.147 52.1771 136.777 51.8728 136.81 51.5167C136.849 51.1024 137.082 50.8369 137.517 50.8305C137.946 50.824 138.192 51.0635 138.27 51.4844" fill="#DBCCB1"/>
<path d="M138.27 34.4894C138.218 34.9167 137.972 35.1433 137.55 35.1692C137.147 35.1886 136.777 34.8843 136.81 34.5282C136.849 34.1139 137.082 33.8484 137.517 33.8419C137.946 33.8355 138.192 34.075 138.27 34.4958" fill="#DBCCB1"/>
<path d="M138.27 17.5069C138.218 17.9343 137.972 18.1609 137.55 18.1868C137.147 18.2062 136.777 17.9019 136.81 17.5458C136.849 17.1314 137.082 16.866 137.517 16.8595C137.946 16.853 138.192 17.0926 138.27 17.5134" fill="#DBCCB1"/>
<path d="M121.272 136.416C121.22 136.843 120.974 137.07 120.552 137.095C120.149 137.115 119.779 136.811 119.812 136.454C119.851 136.04 120.084 135.775 120.519 135.768C120.954 135.762 121.194 136.001 121.272 136.422" fill="#DBCCB1"/>
<path d="M121.272 119.433C121.22 119.86 120.974 120.087 120.552 120.113C120.149 120.132 119.779 119.828 119.812 119.472C119.851 119.057 120.084 118.792 120.519 118.786C120.954 118.779 121.194 119.019 121.272 119.439" fill="#DBCCB1"/>
<path d="M121.272 102.444C121.22 102.872 120.974 103.098 120.552 103.124C120.149 103.143 119.779 102.839 119.812 102.483C119.851 102.069 120.084 101.803 120.519 101.797C120.954 101.79 121.194 102.03 121.272 102.451" fill="#DBCCB1"/>
<path d="M121.272 85.4557C121.22 85.883 120.974 86.1096 120.552 86.1355C120.149 86.1549 119.779 85.8506 119.812 85.4945C119.851 85.0802 120.084 84.8147 120.519 84.8082C120.954 84.8018 121.194 85.0413 121.272 85.4621" fill="#DBCCB1"/>
<path d="M121.272 68.4669C121.22 68.8942 120.974 69.1208 120.552 69.1467C120.149 69.1661 119.779 68.8618 119.812 68.5057C119.851 68.0914 120.084 67.8259 120.519 67.8195C120.954 67.813 121.194 68.0525 121.272 68.4734" fill="#DBCCB1"/>
<path d="M121.272 51.4779C121.22 51.9052 120.974 52.1318 120.552 52.1577C120.149 52.1771 119.779 51.8728 119.812 51.5167C119.851 51.1024 120.084 50.8369 120.519 50.8305C120.954 50.824 121.194 51.0635 121.272 51.4844" fill="#DBCCB1"/>
<path d="M121.272 34.4894C121.22 34.9167 120.974 35.1433 120.552 35.1692C120.149 35.1886 119.779 34.8843 119.812 34.5282C119.851 34.1139 120.084 33.8484 120.519 33.8419C120.954 33.8355 121.194 34.075 121.272 34.4958" fill="#DBCCB1"/>
<path d="M121.272 17.5069C121.22 17.9343 120.974 18.1609 120.552 18.1868C120.149 18.2062 119.779 17.9019 119.812 17.5458C119.851 17.1314 120.084 16.866 120.519 16.8595C120.954 16.853 121.194 17.0926 121.272 17.5134" fill="#DBCCB1"/>
<path d="M189.327 153.404C189.275 153.831 189.028 154.058 188.606 154.084C188.204 154.103 187.834 153.799 187.866 153.443C187.905 153.029 188.139 152.763 188.574 152.757C189.002 152.75 189.249 152.99 189.327 153.404Z" fill="#DBCCB1"/>
<path d="M189.327 136.416C189.275 136.843 189.028 137.07 188.606 137.095C188.204 137.115 187.834 136.811 187.866 136.454C187.905 136.04 188.139 135.775 188.574 135.768C189.002 135.762 189.249 136.001 189.327 136.422" fill="#DBCCB1"/>
<path d="M189.327 119.433C189.275 119.86 189.028 120.087 188.606 120.113C188.204 120.132 187.834 119.828 187.866 119.472C187.905 119.057 188.139 118.792 188.574 118.786C189.002 118.779 189.249 119.019 189.327 119.439" fill="#DBCCB1"/>
<path d="M189.327 102.444C189.275 102.872 189.028 103.098 188.606 103.124C188.204 103.143 187.834 102.839 187.866 102.483C187.905 102.069 188.139 101.803 188.574 101.797C189.002 101.79 189.249 102.03 189.327 102.451" fill="#DBCCB1"/>
<path d="M189.327 85.4557C189.275 85.883 189.028 86.1096 188.606 86.1355C188.204 86.1549 187.834 85.8506 187.866 85.4945C187.905 85.0802 188.139 84.8147 188.574 84.8082C189.002 84.8018 189.249 85.0413 189.327 85.4621" fill="#DBCCB1"/>
<path d="M189.327 68.4669C189.275 68.8942 189.028 69.1208 188.606 69.1467C188.204 69.1661 187.834 68.8618 187.866 68.5057C187.905 68.0914 188.139 67.8259 188.574 67.8195C189.002 67.813 189.249 68.0525 189.327 68.4734" fill="#DBCCB1"/>
<path d="M189.327 51.4779C189.275 51.9052 189.028 52.1318 188.606 52.1577C188.204 52.1771 187.834 51.8728 187.866 51.5167C187.905 51.1024 188.139 50.8369 188.574 50.8305C189.002 50.824 189.249 51.0635 189.327 51.4844" fill="#DBCCB1"/>
<path d="M189.327 34.4894C189.275 34.9167 189.028 35.1433 188.606 35.1692C188.204 35.1886 187.834 34.8843 187.866 34.5282C187.905 34.1139 188.139 33.8484 188.574 33.8419C189.002 33.8355 189.249 34.075 189.327 34.4958" fill="#DBCCB1"/>
<path d="M189.327 17.5069C189.275 17.9343 189.028 18.1609 188.606 18.1868C188.204 18.2062 187.834 17.9019 187.866 17.5458C187.905 17.1314 188.139 16.866 188.574 16.8595C189.002 16.853 189.249 17.0926 189.327 17.5134" fill="#DBCCB1"/>
<path d="M206.272 0.647567C206.22 1.07488 205.973 1.30148 205.545 1.32738C205.142 1.3468 204.772 1.0425 204.805 0.686413C204.844 0.272052 205.077 0.00660232 205.512 0.000127932C205.947 -0.00634646 206.188 0.233206 206.266 0.654041" fill="#DBCCB1"/>
<path d="M172.271 0.647567C172.219 1.07488 171.973 1.30148 171.551 1.32738C171.148 1.3468 170.778 1.0425 170.811 0.686413C170.85 0.272052 171.083 0.00660232 171.518 0.000127932C171.947 -0.00634646 172.193 0.233206 172.271 0.654041" fill="#DBCCB1"/>
<path d="M155.274 0.647567C155.222 1.07488 154.976 1.30148 154.554 1.32738C154.151 1.3468 153.781 1.0425 153.814 0.686413C153.852 0.272052 154.086 0.00660232 154.521 0.000127932C154.95 -0.00634646 155.196 0.233206 155.274 0.654041" fill="#DBCCB1"/>
<path d="M138.27 0.647567C138.218 1.07488 137.972 1.30148 137.55 1.32738C137.147 1.3468 136.777 1.0425 136.81 0.686413C136.849 0.272052 137.082 0.00660232 137.517 0.000127932C137.946 -0.00634646 138.192 0.233206 138.27 0.654041" fill="#DBCCB1"/>
<path d="M189.327 0.647567C189.275 1.07488 189.028 1.30148 188.606 1.32738C188.204 1.3468 187.834 1.0425 187.866 0.686413C187.905 0.272052 188.139 0.00660232 188.574 0.000127932C189.002 -0.00634646 189.249 0.233206 189.327 0.654041" fill="#DBCCB1"/>
<path d="M121.299 0.647567C121.247 1.07488 121 1.30148 120.578 1.32738C120.176 1.3468 119.805 1.0425 119.838 0.686413C119.877 0.272052 120.111 0.00660232 120.546 0.000127932C120.981 -0.00634646 121.221 0.233206 121.299 0.654041" fill="#DBCCB1"/>
<path d="M87.2984 0.647567C87.2464 1.07488 86.9997 1.30148 86.5712 1.32738C86.1687 1.3468 85.7986 1.0425 85.8311 0.686413C85.87 0.272052 86.1038 0.00660232 86.5388 0.000127932C86.9673 -0.00634646 87.214 0.233206 87.2919 0.654041" fill="#DBCCB1"/>
<path d="M70.3003 0.647567C70.2484 1.07488 70.0017 1.30148 69.5732 1.32738C69.1706 1.3468 68.8006 1.0425 68.833 0.686413C68.872 0.272052 69.1057 0.00660232 69.5407 0.000127932C69.9692 -0.00634646 70.2159 0.233206 70.2938 0.654041" fill="#DBCCB1"/>
<path d="M53.3042 0.647567C53.2523 1.07488 53.0056 1.30148 52.5771 1.32738C52.1746 1.3468 51.8045 1.0425 51.8369 0.686413C51.8759 0.272052 52.1096 0.00660232 52.5446 0.000127932C52.9731 -0.00634646 53.2198 0.233206 53.2978 0.654041" fill="#DBCCB1"/>
<path d="M104.354 0.647567C104.302 1.07488 104.056 1.30148 103.634 1.32738C103.231 1.3468 102.861 1.0425 102.894 0.686413C102.933 0.272052 103.166 0.00660232 103.601 0.000127932C104.036 -0.00634646 104.276 0.233206 104.354 0.654041" fill="#DBCCB1"/>
<path d="M36.3261 0.647567C36.2741 1.07488 36.0274 1.30148 35.6054 1.32738C35.2029 1.3468 34.8328 1.0425 34.8653 0.686413C34.9042 0.272052 35.138 0.00660232 35.5729 0.000127932C36.0079 -0.00634646 36.2482 0.233206 36.3261 0.654041" fill="#DBCCB1"/>
<path d="M2.33095 0.647567C2.27901 1.07488 2.0323 1.30148 1.61029 1.32738C1.20776 1.3468 0.83769 1.0425 0.870152 0.686413C0.909107 0.272052 1.14284 0.00660232 1.57783 0.000127932C2.01283 -0.00634646 2.25304 0.233206 2.33095 0.654041" fill="#DBCCB1"/>
<path d="M19.3808 0.647567C19.3288 1.07488 19.0821 1.30148 18.6601 1.32738C18.2576 1.3468 17.8875 1.0425 17.92 0.686413C17.9589 0.272052 18.1926 0.00660232 18.6276 0.000127932C19.0626 -0.00634646 19.3028 0.233206 19.3808 0.654041" fill="#DBCCB1"/>
<path d="M223.302 272.319C223.25 272.747 223.003 272.973 222.581 272.999C222.178 273.019 221.808 272.714 221.841 272.358C221.88 271.944 222.114 271.678 222.549 271.672C222.984 271.666 223.224 271.905 223.302 272.326" fill="#DBCCB1"/>
<path d="M223.302 255.331C223.25 255.758 223.003 255.985 222.581 256.01C222.178 256.03 221.808 255.726 221.841 255.37C221.88 254.955 222.114 254.69 222.549 254.683C222.984 254.677 223.224 254.916 223.302 255.331Z" fill="#DBCCB1"/>
<path d="M223.302 238.348C223.25 238.775 223.003 239.002 222.581 239.028C222.178 239.047 221.808 238.743 221.841 238.387C221.88 237.972 222.114 237.707 222.549 237.701C222.984 237.694 223.224 237.934 223.302 238.354" fill="#DBCCB1"/>
<path d="M223.302 221.359C223.25 221.787 223.003 222.013 222.581 222.039C222.178 222.059 221.808 221.754 221.841 221.398C221.88 220.984 222.114 220.719 222.549 220.712C222.984 220.706 223.224 220.945 223.302 221.366" fill="#DBCCB1"/>
<path d="M223.302 204.371C223.25 204.798 223.003 205.025 222.581 205.051C222.178 205.07 221.808 204.766 221.841 204.41C221.88 203.995 222.114 203.73 222.549 203.724C222.984 203.717 223.224 203.957 223.302 204.371Z" fill="#DBCCB1"/>
<path d="M223.302 187.382C223.25 187.809 223.003 188.036 222.581 188.062C222.178 188.081 221.808 187.777 221.841 187.421C221.88 187.006 222.114 186.741 222.549 186.734C222.984 186.728 223.224 186.967 223.302 187.388" fill="#DBCCB1"/>
<path d="M223.302 170.393C223.25 170.82 223.003 171.047 222.581 171.073C222.178 171.092 221.808 170.788 221.841 170.432C221.88 170.018 222.114 169.752 222.549 169.746C222.984 169.739 223.224 169.979 223.302 170.4" fill="#DBCCB1"/>
<path d="M223.302 153.404C223.25 153.831 223.003 154.058 222.581 154.084C222.178 154.103 221.808 153.799 221.841 153.443C221.88 153.029 222.114 152.763 222.549 152.757C222.984 152.75 223.224 152.99 223.302 153.404Z" fill="#DBCCB1"/>
<path d="M223.302 136.416C223.25 136.843 223.003 137.07 222.581 137.095C222.178 137.115 221.808 136.811 221.841 136.454C221.88 136.04 222.114 135.775 222.549 135.768C222.984 135.762 223.224 136.001 223.302 136.422" fill="#DBCCB1"/>
<path d="M223.302 119.433C223.25 119.86 223.003 120.087 222.581 120.113C222.178 120.132 221.808 119.828 221.841 119.472C221.88 119.057 222.114 118.792 222.549 118.786C222.984 118.779 223.224 119.019 223.302 119.439" fill="#DBCCB1"/>
<path d="M223.302 102.444C223.25 102.872 223.003 103.098 222.581 103.124C222.178 103.143 221.808 102.839 221.841 102.483C221.88 102.069 222.114 101.803 222.549 101.797C222.984 101.79 223.224 102.03 223.302 102.451" fill="#DBCCB1"/>
<path d="M223.302 85.4557C223.25 85.883 223.003 86.1096 222.581 86.1355C222.178 86.1549 221.808 85.8506 221.841 85.4945C221.88 85.0802 222.114 84.8147 222.549 84.8082C222.984 84.8018 223.224 85.0413 223.302 85.4621" fill="#DBCCB1"/>
<path d="M223.302 68.4669C223.25 68.8942 223.003 69.1208 222.581 69.1467C222.178 69.1661 221.808 68.8618 221.841 68.5057C221.88 68.0914 222.114 67.8259 222.549 67.8195C222.984 67.813 223.224 68.0525 223.302 68.4734" fill="#DBCCB1"/>
<path d="M223.302 51.4779C223.25 51.9052 223.003 52.1318 222.581 52.1577C222.178 52.1771 221.808 51.8728 221.841 51.5167C221.88 51.1024 222.114 50.8369 222.549 50.8305C222.984 50.824 223.224 51.0635 223.302 51.4844" fill="#DBCCB1"/>
<path d="M223.302 34.4894C223.25 34.9167 223.003 35.1433 222.581 35.1692C222.178 35.1886 221.808 34.8843 221.841 34.5282C221.88 34.1139 222.114 33.8484 222.549 33.8419C222.984 33.8355 223.224 34.075 223.302 34.4958" fill="#DBCCB1"/>
<path d="M223.302 17.5069C223.25 17.9343 223.003 18.1609 222.581 18.1868C222.178 18.2062 221.808 17.9019 221.841 17.5458C221.88 17.1314 222.114 16.866 222.549 16.8595C222.984 16.853 223.224 17.0926 223.302 17.5134" fill="#DBCCB1"/>
<path d="M223.302 0.647567C223.25 1.07488 223.003 1.30148 222.581 1.32738C222.178 1.3468 221.808 1.0425 221.841 0.686413C221.88 0.272052 222.114 0.00660232 222.549 0.000127932C222.984 -0.00634646 223.224 0.233206 223.302 0.654041" fill="#DBCCB1"/>
<path d="M240.325 272.319C240.273 272.747 240.026 272.973 239.604 272.999C239.202 273.019 238.832 272.714 238.864 272.358C238.903 271.944 239.137 271.678 239.572 271.672C240 271.666 240.247 271.905 240.325 272.326" fill="#DBCCB1"/>
<path d="M240.325 255.331C240.273 255.758 240.026 255.985 239.604 256.01C239.202 256.03 238.832 255.726 238.864 255.37C238.903 254.955 239.137 254.69 239.572 254.683C240 254.677 240.247 254.916 240.325 255.331Z" fill="#DBCCB1"/>
<path d="M240.325 238.348C240.273 238.775 240.026 239.002 239.604 239.028C239.202 239.047 238.832 238.743 238.864 238.387C238.903 237.972 239.137 237.707 239.572 237.701C240 237.694 240.247 237.934 240.325 238.354" fill="#DBCCB1"/>
<path d="M240.325 221.359C240.273 221.787 240.026 222.013 239.604 222.039C239.202 222.059 238.832 221.754 238.864 221.398C238.903 220.984 239.137 220.719 239.572 220.712C240 220.706 240.247 220.945 240.325 221.366" fill="#DBCCB1"/>
<path d="M240.325 204.371C240.273 204.798 240.026 205.025 239.604 205.051C239.202 205.07 238.832 204.766 238.864 204.41C238.903 203.995 239.137 203.73 239.572 203.724C240 203.717 240.247 203.957 240.325 204.371Z" fill="#DBCCB1"/>
<path d="M240.325 187.382C240.273 187.809 240.026 188.036 239.604 188.062C239.202 188.081 238.832 187.777 238.864 187.421C238.903 187.006 239.137 186.741 239.572 186.734C240 186.728 240.247 186.967 240.325 187.388" fill="#DBCCB1"/>
<path d="M240.325 170.393C240.273 170.82 240.026 171.047 239.604 171.073C239.202 171.092 238.832 170.788 238.864 170.432C238.903 170.018 239.137 169.752 239.572 169.746C240 169.739 240.247 169.979 240.325 170.4" fill="#DBCCB1"/>
<path d="M240.325 153.404C240.273 153.831 240.026 154.058 239.604 154.084C239.202 154.103 238.832 153.799 238.864 153.443C238.903 153.029 239.137 152.763 239.572 152.757C240 152.75 240.247 152.99 240.325 153.404Z" fill="#DBCCB1"/>
<path d="M240.325 136.416C240.273 136.843 240.026 137.07 239.604 137.095C239.202 137.115 238.832 136.811 238.864 136.454C238.903 136.04 239.137 135.775 239.572 135.768C240 135.762 240.247 136.001 240.325 136.422" fill="#DBCCB1"/>
<path d="M240.325 119.433C240.273 119.86 240.026 120.087 239.604 120.113C239.202 120.132 238.832 119.828 238.864 119.472C238.903 119.057 239.137 118.792 239.572 118.786C240 118.779 240.247 119.019 240.325 119.439" fill="#DBCCB1"/>
<path d="M240.325 102.444C240.273 102.872 240.026 103.098 239.604 103.124C239.202 103.143 238.832 102.839 238.864 102.483C238.903 102.069 239.137 101.803 239.572 101.797C240 101.79 240.247 102.03 240.325 102.451" fill="#DBCCB1"/>
<path d="M240.325 85.4557C240.273 85.883 240.026 86.1096 239.604 86.1355C239.202 86.1549 238.832 85.8506 238.864 85.4945C238.903 85.0802 239.137 84.8147 239.572 84.8082C240 84.8018 240.247 85.0413 240.325 85.4621" fill="#DBCCB1"/>
<path d="M240.325 68.4669C240.273 68.8942 240.026 69.1208 239.604 69.1467C239.202 69.1661 238.832 68.8618 238.864 68.5057C238.903 68.0914 239.137 67.8259 239.572 67.8195C240 67.813 240.247 68.0525 240.325 68.4734" fill="#DBCCB1"/>
<path d="M240.325 51.4779C240.273 51.9052 240.026 52.1318 239.604 52.1577C239.202 52.1771 238.832 51.8728 238.864 51.5167C238.903 51.1024 239.137 50.8369 239.572 50.8305C240 50.824 240.247 51.0635 240.325 51.4844" fill="#DBCCB1"/>
<path d="M240.325 34.4894C240.273 34.9167 240.026 35.1433 239.604 35.1692C239.202 35.1886 238.832 34.8843 238.864 34.5282C238.903 34.1139 239.137 33.8484 239.572 33.8419C240 33.8355 240.247 34.075 240.325 34.4958" fill="#DBCCB1"/>
<path d="M240.325 17.5069C240.273 17.9343 240.026 18.1609 239.604 18.1868C239.202 18.2062 238.832 17.9019 238.864 17.5458C238.903 17.1314 239.137 16.866 239.572 16.8595C240 16.853 240.247 17.0926 240.325 17.5134" fill="#DBCCB1"/>
<path d="M240.325 0.647567C240.273 1.07488 240.026 1.30148 239.604 1.32738C239.202 1.3468 238.832 1.0425 238.864 0.686413C238.903 0.272052 239.137 0.00660232 239.572 0.000127932C240 -0.00634646 240.247 0.233206 240.325 0.654041" fill="#DBCCB1"/>
<path d="M2.27983 255.331C2.22789 255.758 1.98118 255.985 1.55267 256.01C1.15014 256.03 0.780073 255.726 0.812535 255.37C0.85149 254.955 1.08522 254.69 1.52021 254.683C1.94871 254.677 2.19543 254.916 2.27334 255.331" fill="#DBCCB1"/>
<path d="M2.27983 34.4894C2.22789 34.9167 1.98118 35.1433 1.55267 35.1692C1.15014 35.1886 0.780073 34.8843 0.812535 34.5282C0.85149 34.1139 1.08522 33.8484 1.52021 33.8419C1.94871 33.8355 2.19543 34.075 2.27334 34.4958" fill="#DBCCB1"/>
<path d="M2.27983 17.5069C2.22789 17.9343 1.98118 18.1609 1.55267 18.1868C1.15014 18.2062 0.780073 17.9019 0.812535 17.5458C0.85149 17.1314 1.08522 16.866 1.52021 16.8595C1.94871 16.853 2.19543 17.0926 2.27334 17.5134" fill="#DBCCB1"/>
<path d="M87.2655 17.5069C87.2136 17.9343 86.9669 18.1609 86.5449 18.1868C86.1423 18.2062 85.7723 17.9019 85.8047 17.5458C85.8437 17.1314 86.0774 16.866 86.5124 16.8595C86.9474 16.853 87.1876 17.0926 87.2655 17.5134" fill="#DBCCB1"/>
<path d="M104.275 17.5069C104.223 17.9343 103.977 18.1609 103.555 18.1868C103.152 18.2062 102.782 17.9019 102.814 17.5458C102.853 17.1314 103.087 16.866 103.522 16.8595C103.957 16.853 104.197 17.0926 104.275 17.5134" fill="#DBCCB1"/>
<path d="M19.2769 17.5069C19.225 17.9343 18.9782 18.1609 18.5497 18.1868C18.1472 18.2062 17.7771 17.9019 17.8096 17.5458C17.8486 17.1314 18.0823 16.866 18.5173 16.8595C18.9458 16.853 19.1925 17.0926 19.2704 17.5134" fill="#DBCCB1"/>
</g>
</svg>
