<svg width="582" height="466" viewBox="0 0 582 466" fill="none" xmlns="http://www.w3.org/2000/svg">
<ellipse cx="348.453" cy="232.606" rx="156.724" ry="173.05" transform="rotate(47.1009 348.453 232.606)" fill="#DBCCB1"/>
<path opacity="0.2" d="M6.18564 339.451C-0.44308 332.821 -1.24545 322.883 4.38686 317.245C10.0244 311.612 19.9623 312.415 26.591 319.044C33.2197 325.673 34.0273 335.617 28.3898 341.25C22.7575 346.882 12.8144 346.08 6.18564 339.451Z" fill="#DBCCB1"/>
<path d="M208.464 333.575C205.496 336.543 201.046 336.903 198.522 334.379C195.997 331.855 196.357 327.405 199.326 324.437C202.294 321.469 206.745 321.109 209.269 323.633C211.793 326.157 211.428 330.606 208.464 333.575Z" fill="#DBCCB1"/>
<path opacity="0.7" d="M178.262 323.16C174.799 319.696 169.608 319.276 166.664 322.22C163.72 325.165 164.14 330.355 167.604 333.819C171.067 337.282 176.258 337.702 179.202 334.758C182.146 331.814 181.726 326.618 178.262 323.16Z" fill="#DBCCB1"/>
<path opacity="0.5" d="M145.067 336.142C141.011 340.198 134.928 340.694 131.479 337.245C128.03 333.796 128.527 327.713 132.582 323.658C136.637 319.602 142.72 319.106 146.169 322.555C149.618 326.004 149.122 332.087 145.067 336.142Z" fill="#DBCCB1"/>
<path opacity="0.4" d="M108.876 322.628C104.128 317.781 97.0032 317.191 92.9675 321.311C88.9318 325.431 89.509 332.704 94.2572 337.551C99.0054 342.398 106.13 342.988 110.166 338.868C114.202 334.748 113.624 327.475 108.876 322.628Z" fill="#DBCCB1"/>
<path opacity="0.3" d="M70.0758 337.267C64.4385 342.905 55.9773 343.592 51.1851 338.8C46.3928 334.007 47.0804 325.546 52.7177 319.908C58.355 314.27 66.8162 313.583 71.6084 318.375C76.4007 323.168 75.7183 331.624 70.0758 337.267Z" fill="#DBCCB1"/>
<path opacity="0.2" d="M6.18467 292.092C-0.444057 285.462 -1.24643 275.524 4.38589 269.886C10.0234 264.253 19.9613 265.056 26.59 271.685C33.2187 278.314 34.0263 288.258 28.3888 293.89C22.7565 299.523 12.8134 298.721 6.18467 292.092Z" fill="#DBCCB1"/>
<path d="M208.464 286.214C205.496 289.182 201.046 289.542 198.522 287.018C195.997 284.494 196.357 280.045 199.326 277.076C202.294 274.108 206.745 273.748 209.269 276.272C211.793 278.796 211.428 283.246 208.464 286.214Z" fill="#DBCCB1"/>
<path opacity="0.7" d="M178.262 275.801C174.799 272.337 169.608 271.917 166.664 274.861C163.72 277.806 164.14 282.996 167.604 286.46C171.067 289.923 176.258 290.343 179.202 287.399C182.146 284.455 181.726 279.259 178.262 275.801Z" fill="#DBCCB1"/>
<path opacity="0.5" d="M145.066 288.783C141.01 292.838 134.927 293.335 131.478 289.886C128.029 286.437 128.526 280.354 132.581 276.298C136.636 272.243 142.719 271.747 146.168 275.196C149.617 278.645 149.121 284.728 145.066 288.783Z" fill="#DBCCB1"/>
<path opacity="0.4" d="M108.876 275.269C104.128 270.422 97.0032 269.832 92.9675 273.952C88.9318 278.072 89.509 285.345 94.2572 290.192C99.0054 295.039 106.13 295.629 110.166 291.509C114.202 287.389 113.624 280.116 108.876 275.269Z" fill="#DBCCB1"/>
<path opacity="0.3" d="M70.0758 289.908C64.4385 295.546 55.9773 296.234 51.1851 291.441C46.3928 286.648 47.0804 278.187 52.7177 272.549C58.355 266.911 66.8162 266.224 71.6084 271.016C76.4007 275.809 75.7183 284.265 70.0758 289.908Z" fill="#DBCCB1"/>
<path opacity="0.2" d="M6.18467 244.732C-0.444057 238.103 -1.24643 228.164 4.38589 222.526C10.0234 216.894 19.9613 217.696 26.59 224.325C33.2187 230.954 34.0263 240.898 28.3888 246.531C22.7565 252.164 12.8134 251.361 6.18467 244.732Z" fill="#DBCCB1"/>
<path d="M208.464 238.855C205.496 241.823 201.046 242.183 198.522 239.659C195.997 237.135 196.357 232.686 199.326 229.717C202.294 226.749 206.745 226.389 209.269 228.913C211.793 231.437 211.428 235.887 208.464 238.855Z" fill="#DBCCB1"/>
<path opacity="0.7" d="M178.262 228.44C174.799 224.976 169.608 224.557 166.664 227.501C163.72 230.445 164.14 235.635 167.604 239.099C171.067 242.563 176.258 242.982 179.202 240.038C182.146 237.094 181.726 231.899 178.262 228.44Z" fill="#DBCCB1"/>
<path opacity="0.5" d="M145.067 241.423C141.011 245.478 134.928 245.974 131.479 242.525C128.03 239.076 128.527 232.993 132.582 228.938C136.637 224.883 142.72 224.386 146.169 227.835C149.618 231.284 149.122 237.367 145.067 241.423Z" fill="#DBCCB1"/>
<path opacity="0.4" d="M108.876 227.909C104.128 223.062 97.0032 222.472 92.9675 226.592C88.9318 230.712 89.509 237.985 94.2572 242.832C99.0054 247.679 106.13 248.269 110.166 244.149C114.202 240.029 113.624 232.756 108.876 227.909Z" fill="#DBCCB1"/>
<path opacity="0.3" d="M70.0758 242.547C64.4385 248.185 55.9773 248.873 51.1851 244.08C46.3928 239.288 47.0804 230.826 52.7177 225.188C58.355 219.551 66.8162 218.863 71.6084 223.655C76.4007 228.448 75.7183 236.905 70.0758 242.547Z" fill="#DBCCB1"/>
<path opacity="0.2" d="M6.18564 197.373C-0.44308 190.743 -1.24545 180.805 4.38686 175.167C10.0244 169.534 19.9623 170.337 26.591 176.966C33.2197 183.595 34.0273 193.539 28.3898 199.171C22.7575 204.804 12.8144 204.002 6.18564 197.373Z" fill="#DBCCB1"/>
<path d="M208.465 191.495C205.497 194.463 201.047 194.823 198.522 192.299C195.998 189.775 196.358 185.326 199.327 182.358C202.295 179.389 206.746 179.029 209.27 181.553C211.794 184.077 211.429 188.527 208.465 191.495Z" fill="#DBCCB1"/>
<path opacity="0.7" d="M178.262 181.081C174.799 177.617 169.608 177.197 166.664 180.141C163.72 183.086 164.14 188.276 167.604 191.74C171.067 195.203 176.258 195.623 179.202 192.679C182.146 189.735 181.726 184.539 178.262 181.081Z" fill="#DBCCB1"/>
<path opacity="0.5" d="M145.067 194.063C141.011 198.118 134.928 198.615 131.479 195.166C128.03 191.717 128.527 185.634 132.582 181.579C136.637 177.523 142.72 177.027 146.169 180.476C149.618 183.925 149.122 190.008 145.067 194.063Z" fill="#DBCCB1"/>
<path opacity="0.4" d="M108.876 180.548C104.128 175.701 97.0032 175.112 92.9675 179.231C88.9318 183.351 89.509 190.625 94.2572 195.472C99.0054 200.319 106.13 200.908 110.166 196.788C114.202 192.669 113.624 185.395 108.876 180.548Z" fill="#DBCCB1"/>
<path opacity="0.3" d="M70.0758 195.188C64.4385 200.826 55.9773 201.514 51.1851 196.721C46.3928 191.929 47.0804 183.467 52.7177 177.829C58.355 172.191 66.8162 171.504 71.6084 176.296C76.4007 181.089 75.7183 189.545 70.0758 195.188Z" fill="#DBCCB1"/>
<path opacity="0.2" d="M6.18564 150.012C-0.44308 143.383 -1.24545 133.444 4.38686 127.806C10.0244 122.174 19.9623 122.976 26.591 129.605C33.2197 136.234 34.0273 146.178 28.3898 151.811C22.7575 157.444 12.8144 156.641 6.18564 150.012Z" fill="#DBCCB1"/>
<path d="M208.465 144.134C205.497 147.103 201.047 147.462 198.522 144.939C195.998 142.415 196.358 137.965 199.327 134.997C202.295 132.029 206.746 131.669 209.27 134.193C211.794 136.716 211.429 141.166 208.465 144.134Z" fill="#DBCCB1"/>
<path opacity="0.7" d="M178.262 133.721C174.799 130.257 169.608 129.838 166.664 132.782C163.72 135.726 164.14 140.916 167.604 144.38C171.067 147.844 176.258 148.263 179.202 145.319C182.146 142.375 181.726 137.18 178.262 133.721Z" fill="#DBCCB1"/>
<path opacity="0.5" d="M145.066 146.704C141.01 150.759 134.927 151.255 131.478 147.806C128.029 144.357 128.526 138.274 132.581 134.219C136.636 130.164 142.719 129.667 146.168 133.116C149.617 136.565 149.121 142.648 145.066 146.704Z" fill="#DBCCB1"/>
<path opacity="0.4" d="M108.876 133.189C104.128 128.342 97.0032 127.753 92.9675 131.872C88.9318 135.992 89.509 143.265 94.2572 148.113C99.0054 152.96 106.13 153.549 110.166 149.429C114.202 145.309 113.624 138.036 108.876 133.189Z" fill="#DBCCB1"/>
<path opacity="0.3" d="M70.0758 147.829C64.4385 153.466 55.9773 154.154 51.1851 149.361C46.3928 144.569 47.0804 136.107 52.7177 130.47C58.355 124.832 66.8162 124.144 71.6084 128.937C76.4007 133.729 75.7183 142.186 70.0758 147.829Z" fill="#DBCCB1"/>
</svg>
