<svg width="19" height="19" viewBox="0 0 19 19" fill="none" xmlns="http://www.w3.org/2000/svg">
<g clip-path="url(#clip0_486_163)">
<path d="M18.8137 5.70005C18.8137 5.70005 18.6281 4.39009 18.0566 3.81489C17.333 3.05786 16.524 3.05415 16.1529 3.00962C13.4959 2.81665 9.50664 2.81665 9.50664 2.81665H9.49922C9.49922 2.81665 5.50996 2.81665 2.85293 3.00962C2.48184 3.05415 1.67285 3.05786 0.949219 3.81489C0.377734 4.39009 0.195898 5.70005 0.195898 5.70005C0.195898 5.70005 0.00292969 7.24009 0.00292969 8.77642V10.2163C0.00292969 11.7526 0.192187 13.2926 0.192187 13.2926C0.192187 13.2926 0.377734 14.6026 0.945508 15.1778C1.66914 15.9348 2.61914 15.9088 3.04219 15.9905C4.56367 16.1352 9.50293 16.1797 9.50293 16.1797C9.50293 16.1797 13.4959 16.1723 16.1529 15.9831C16.524 15.9385 17.333 15.9348 18.0566 15.1778C18.6281 14.6026 18.8137 13.2926 18.8137 13.2926C18.8137 13.2926 19.0029 11.7563 19.0029 10.2163V8.77642C19.0029 7.24009 18.8137 5.70005 18.8137 5.70005ZM7.53984 11.9641V6.62407L12.6721 9.30337L7.53984 11.9641Z" fill="#A2FF48"/>
</g>
<defs>
<clipPath id="clip0_486_163">
<rect width="19" height="19" fill="white" transform="translate(0.00292969)"/>
</clipPath>
</defs>
</svg>
